<svg xmlns="http://www.w3.org/2000/svg" viewBox="0 0 59 52.91"><title>360 mobile</title><g id="Layer_2" data-name="Layer 2"><g id="Layer_1-2" data-name="Layer 1"><g id="_360_mobile" data-name="360 mobile"><path d="M21.5,52.91a2.5,2.5,0,0,1-1.77-4.26L26,42.41l-6.23-6.23a2.5,2.5,0,1,1,3.54-3.53l8,8a2.5,2.5,0,0,1,0,3.53l-8,8A2.49,2.49,0,0,1,21.5,52.91Z"/><path d="M42.07,43.54a2.5,2.5,0,0,1-.57-4.94C48.86,36.88,54,33.51,54,30.41c0-2.44-3.2-5.11-8.35-7a2.5,2.5,0,1,1,1.7-4.7C54.75,21.41,59,25.66,59,30.41c0,5.78-6.12,10.66-16.36,13.06A2.22,2.22,0,0,1,42.07,43.54Z"/><path d="M29.5,44.91C12.68,44.91,0,38.68,0,30.41c0-4.75,4.25-9,11.65-11.67a2.5,2.5,0,0,1,1.7,4.7C8.2,25.3,5,28,5,30.41c0,4.49,10.48,9.5,24.5,9.5a2.5,2.5,0,0,1,0,5Z"/><path d="M12.5,42.24a2.5,2.5,0,0,1-2.5-2.5V10.5A10.51,10.51,0,0,1,20.5,0h18A10.51,10.51,0,0,1,49,10.5V39.73a2.5,2.5,0,0,1-5,0V10.5A5.51,5.51,0,0,0,38.5,5h-18A5.51,5.51,0,0,0,15,10.5V39.74A2.5,2.5,0,0,1,12.5,42.24Z"/><path d="M34.5,7h-10a2.5,2.5,0,0,1,0-5h10a2.5,2.5,0,0,1,0,5Z"/></g></g></g></svg>