<svg xmlns="http://www.w3.org/2000/svg" viewBox="0 0 59 37"><title>360</title><g id="Layer_2" data-name="Layer 2"><g id="Layer_1-2" data-name="Layer 1"><g id="_360" data-name="360"><path d="M21.5,37a2.49,2.49,0,0,1-1.77-.73,2.52,2.52,0,0,1,0-3.54L26,26.5l-6.23-6.23a2.5,2.5,0,0,1,3.54-3.54l8,8a2.52,2.52,0,0,1,0,3.54l-8,8A2.49,2.49,0,0,1,21.5,37Z"/><path d="M29.5,29C12.68,29,0,22.77,0,14.5S12.68,0,29.5,0,59,6.23,59,14.5c0,5.78-6.12,10.66-16.36,13.06a2.5,2.5,0,0,1-1.14-4.87C48.86,21,54,17.6,54,14.5,54,10,43.52,5,29.5,5S5,10,5,14.5,15.48,24,29.5,24a2.5,2.5,0,0,1,0,5Z"/></g></g></g></svg>