<svg xmlns="http://www.w3.org/2000/svg" viewBox="0 0 59 57"><title>4k</title><g id="Layer_2" data-name="Layer 2"><g id="Layer_1-2" data-name="Layer 1"><g id="_4k" data-name="4k"><path d="M48.5,46h-38A10.51,10.51,0,0,1,0,35.5v-25A10.51,10.51,0,0,1,10.5,0h38A10.51,10.51,0,0,1,59,10.5v25A10.51,10.51,0,0,1,48.5,46ZM10.5,5A5.51,5.51,0,0,0,5,10.5v25A5.51,5.51,0,0,0,10.5,41h38A5.51,5.51,0,0,0,54,35.5v-25A5.51,5.51,0,0,0,48.5,5Z"/><path d="M41.5,57h-24a2.5,2.5,0,0,1,0-5h24a2.5,2.5,0,0,1,0,5Z"/><path d="M29.5,57A2.5,2.5,0,0,1,27,54.5v-11a2.5,2.5,0,0,1,5,0v11A2.5,2.5,0,0,1,29.5,57Z"/><path d="M34.32,34a2,2,0,0,1-2-2V14a2,2,0,0,1,4,0V32A2,2,0,0,1,34.32,34Z"/><path d="M43,34a2,2,0,0,1-1.44-.61l-8.69-9a2,2,0,0,1-.56-1.45A2,2,0,0,1,33,21.52l7.69-7a2,2,0,0,1,2.69,3l-6.17,5.61,7.26,7.52a2,2,0,0,1-.05,2.83A2,2,0,0,1,43,34Z"/><path d="M26,34a2,2,0,0,1-2-2V14a2,2,0,1,1,4,0V32A2,2,0,0,1,26,34Z"/><path d="M26,25H16a2,2,0,0,1-2-2V14a2,2,0,1,1,4,0v7h8a2,2,0,0,1,0,4Z"/></g></g></g></svg>