<svg xmlns="http://www.w3.org/2000/svg" viewBox="0 0 59 57"><title>5k</title><g id="Layer_2" data-name="Layer 2"><g id="Layer_1-2" data-name="Layer 1"><g id="_5k" data-name="5k"><path d="M48.5,46h-38A10.51,10.51,0,0,1,0,35.5v-25A10.51,10.51,0,0,1,10.5,0h38A10.51,10.51,0,0,1,59,10.5v25A10.51,10.51,0,0,1,48.5,46ZM10.5,5A5.51,5.51,0,0,0,5,10.5v25A5.51,5.51,0,0,0,10.5,41h38A5.51,5.51,0,0,0,54,35.5v-25A5.51,5.51,0,0,0,48.5,5Z"/><path d="M41.5,57h-24a2.5,2.5,0,0,1,0-5h24a2.5,2.5,0,0,1,0,5Z"/><path d="M29.5,57A2.5,2.5,0,0,1,27,54.5v-11a2.5,2.5,0,0,1,5,0v11A2.5,2.5,0,0,1,29.5,57Z"/><path d="M20.92,34.34A7.73,7.73,0,0,1,14,30a2,2,0,1,1,3.61-1.72,3.71,3.71,0,1,0,3.34-5.31H17.76a2,2,0,0,1-2-2V14.34a2,2,0,0,1,2-2h8.16a2,2,0,0,1,0,4H19.76v2.58h1.16a7.71,7.71,0,1,1,0,15.42Z"/><path d="M34.54,34.34a2,2,0,0,1-2-2v-18a2,2,0,1,1,4,0v18A2,2,0,0,1,34.54,34.34Z"/><path d="M43.23,34.34a2,2,0,0,1-1.44-.61l-8.69-9a2,2,0,0,1,.09-2.87l7.69-7a2,2,0,1,1,2.7,3l-6.17,5.61L44.67,31a2,2,0,0,1-1.44,3.39Z"/></g></g></g></svg>