<svg xmlns="http://www.w3.org/2000/svg" viewBox="0 0 49.16 59"><title>account</title><g id="Layer_2" data-name="Layer 2"><g id="Layer_1-2" data-name="Layer 1"><g id="account"><path d="M42.32,59H6.85a6.85,6.85,0,0,1-5.4-2.61A6.62,6.62,0,0,1,.18,50.74a25.08,25.08,0,0,1,48.81,0,6.62,6.62,0,0,1-1.28,5.65A6.83,6.83,0,0,1,42.32,59ZM24.58,36.43A20,20,0,0,0,5,51.88a1.68,1.68,0,0,0,.33,1.41A1.89,1.89,0,0,0,6.85,54H42.32a1.88,1.88,0,0,0,1.47-.71,1.64,1.64,0,0,0,.33-1.41A20,20,0,0,0,24.58,36.43Z"/><path d="M24.58,26.62A13.31,13.31,0,1,1,37.89,13.31,13.32,13.32,0,0,1,24.58,26.62ZM24.58,5a8.31,8.31,0,1,0,8.31,8.31A8.32,8.32,0,0,0,24.58,5Z"/></g></g></g></svg>