<svg xmlns="http://www.w3.org/2000/svg" viewBox="0 0 59 59"><title>account circle</title><g id="Layer_2" data-name="Layer 2"><g id="Layer_1-2" data-name="Layer 1"><g id="account_circle" data-name="account circle"><path d="M29.5,59A29.5,29.5,0,1,1,59,29.5,29.53,29.53,0,0,1,29.5,59Zm0-54A24.5,24.5,0,1,0,54,29.5,24.53,24.53,0,0,0,29.5,5Z"/><path d="M43.59,51.71a14.88,14.88,0,0,0-28.18,0L10.68,50.1a19.88,19.88,0,0,1,37.64,0Z"/><path d="M29.5,34.07A10.82,10.82,0,1,1,40.32,23.25,10.83,10.83,0,0,1,29.5,34.07Zm0-16.64a5.82,5.82,0,1,0,5.82,5.82A5.83,5.83,0,0,0,29.5,17.43Z"/></g></g></g></svg>