<svg xmlns="http://www.w3.org/2000/svg" viewBox="0 0 59 55.94"><title>ad shopping cart-2</title><g id="Layer_2" data-name="Layer 2"><g id="Layer_1-2" data-name="Layer 1"><g id="ad_shopping_cart-2" data-name="ad shopping cart-2"><path d="M42.6,39.8H23.31A10.52,10.52,0,0,1,13,31.29L9.21,11.67A5.49,5.49,0,0,0,4.92,7.33L2,6.72a2.5,2.5,0,0,1,1-4.9l2.93.61a10.48,10.48,0,0,1,8.18,8.29l3.79,19.62a5.5,5.5,0,0,0,5.4,4.46H42.6a5.53,5.53,0,0,0,5.14-3.53L54.17,14.5a2.5,2.5,0,1,1,4.66,1.79L52.41,33.06A10.57,10.57,0,0,1,42.6,39.8Z"/><circle cx="42.32" cy="50.94" r="5"/><circle cx="22.68" cy="50.94" r="5"/><path d="M33.58,23a2.5,2.5,0,0,1-2.5-2.5V2.5a2.5,2.5,0,0,1,5,0v18A2.5,2.5,0,0,1,33.58,23Z"/><path d="M42.58,14h-18a2.5,2.5,0,0,1,0-5h18a2.5,2.5,0,0,1,0,5Z"/></g></g></g></svg>