<svg xmlns="http://www.w3.org/2000/svg" viewBox="0 0 59 59"><title>add post</title><g id="Layer_2" data-name="Layer 2"><g id="Layer_1-2" data-name="Layer 1"><g id="add_post" data-name="add post"><path d="M48.5,59h-38A10.51,10.51,0,0,1,0,48.5v-38A10.51,10.51,0,0,1,10.5,0h19a2.5,2.5,0,0,1,0,5h-19A5.51,5.51,0,0,0,5,10.5v38A5.51,5.51,0,0,0,10.5,54h38A5.51,5.51,0,0,0,54,48.5v-19a2.5,2.5,0,0,1,5,0v19A10.51,10.51,0,0,1,48.5,59Z"/><path d="M17.11,44.39a2.5,2.5,0,0,1-2.43-3.12l2.88-11.22a2.5,2.5,0,0,1,.65-1.15L46.38.73a2.52,2.52,0,0,1,3.54,0l8.35,8.35a2.51,2.51,0,0,1,0,3.54L30.1,40.79a2.5,2.5,0,0,1-1.15.65L17.73,44.31A2.25,2.25,0,0,1,17.11,44.39ZM28.33,39h0ZM22.23,32l-1.66,6.47,6.48-1.65L53,10.85,48.15,6Z"/><path d="M49.33,20.52a2.46,2.46,0,0,1-1.76-.74l-8.35-8.35A2.5,2.5,0,0,1,42.75,7.9l8.35,8.35a2.51,2.51,0,0,1-1.77,4.27Z"/></g></g></g></svg>