<svg xmlns="http://www.w3.org/2000/svg" viewBox="0 0 59 49"><title>add account</title><g id="Layer_2" data-name="Layer 2"><g id="Layer_1-2" data-name="Layer 1"><g id="add_account" data-name="add account"><path d="M53,49H24.06a6,6,0,0,1-4.76-2.3,5.86,5.86,0,0,1-1.13-5,20.89,20.89,0,0,1,40.67,0,5.83,5.83,0,0,1-1.13,5A6,6,0,0,1,53,49ZM38.51,30.61A15.81,15.81,0,0,0,23,42.84a.85.85,0,0,0,.18.75,1,1,0,0,0,.84.41H53a1.1,1.1,0,0,0,.84-.41.91.91,0,0,0,.18-.75A15.83,15.83,0,0,0,38.51,30.61Z"/><path d="M38.51,22.62A11.31,11.31,0,1,1,49.82,11.31,11.32,11.32,0,0,1,38.51,22.62ZM38.51,5a6.31,6.31,0,1,0,6.31,6.31A6.32,6.32,0,0,0,38.51,5Z"/><path d="M19.5,13.81H2.5a2.5,2.5,0,0,1,0-5h17a2.5,2.5,0,0,1,0,5Z"/><path d="M11,22.31a2.5,2.5,0,0,1-2.5-2.5v-17a2.5,2.5,0,0,1,5,0v17A2.5,2.5,0,0,1,11,22.31Z"/></g></g></g></svg>