<svg xmlns="http://www.w3.org/2000/svg" viewBox="0 0 59 57.17"><title>add shopping cart-1</title><g id="Layer_2" data-name="Layer 2"><g id="Layer_1-2" data-name="Layer 1"><g id="add_shopping_cart-1" data-name="add shopping cart-1"><path d="M42.6,41H23.31A10.52,10.52,0,0,1,13,32.52L9.21,12.9A5.49,5.49,0,0,0,4.92,8.56L2,8a2.5,2.5,0,0,1,1-4.9l2.93.61A10.48,10.48,0,0,1,14.12,12l3.79,19.62A5.5,5.5,0,0,0,23.31,36H42.6a5.53,5.53,0,0,0,5.14-3.53l6.43-16.77a2.5,2.5,0,1,1,4.66,1.79L52.41,34.29A10.57,10.57,0,0,1,42.6,41Z"/><circle cx="42.32" cy="52.17" r="5"/><circle cx="22.68" cy="52.17" r="5"/><path d="M33.58,25.46a2.5,2.5,0,0,1-1.77-.74l-9.9-9.9a2.5,2.5,0,1,1,3.54-3.53l8.13,8.13,8.13-8.13a2.5,2.5,0,1,1,3.54,3.53l-9.9,9.9A2.5,2.5,0,0,1,33.58,25.46Z"/><path d="M33.58,25.46a2.5,2.5,0,0,1-2.5-2.5V2.5a2.5,2.5,0,0,1,5,0V23A2.5,2.5,0,0,1,33.58,25.46Z"/></g></g></g></svg>