<svg xmlns="http://www.w3.org/2000/svg" viewBox="0 0 59 59"><title>add to queue</title><g id="Layer_2" data-name="Layer 2"><g id="Layer_1-2" data-name="Layer 1"><g id="add_to_queue" data-name="add to queue"><path d="M48.5,46h-38A10.51,10.51,0,0,1,0,35.5v-25A10.51,10.51,0,0,1,10.5,0h38A10.51,10.51,0,0,1,59,10.5v25A10.51,10.51,0,0,1,48.5,46ZM10.5,5A5.51,5.51,0,0,0,5,10.5v25A5.51,5.51,0,0,0,10.5,41h38A5.51,5.51,0,0,0,54,35.5v-25A5.51,5.51,0,0,0,48.5,5Z"/><path d="M41.5,59h-24a2.5,2.5,0,0,1,0-5h24a2.5,2.5,0,0,1,0,5Z"/><path d="M35,59a2.5,2.5,0,0,1-2.5-2.5v-13a2.5,2.5,0,0,1,5,0v13A2.5,2.5,0,0,1,35,59Z"/><path d="M24,59a2.5,2.5,0,0,1-2.5-2.5v-13a2.5,2.5,0,0,1,5,0v13A2.5,2.5,0,0,1,24,59Z"/><path d="M40.5,25.5h-22a2.5,2.5,0,0,1,0-5h22a2.5,2.5,0,0,1,0,5Z"/><path d="M29.5,36.5A2.5,2.5,0,0,1,27,34V12a2.5,2.5,0,0,1,5,0V34A2.5,2.5,0,0,1,29.5,36.5Z"/></g></g></g></svg>