<svg xmlns="http://www.w3.org/2000/svg" viewBox="0 0 58.11 59.01"><title>adobe acrobat</title><g id="Layer_2" data-name="Layer 2"><g id="Layer_1-2" data-name="Layer 1"><g id="adobe_acrobat" data-name="adobe acrobat"><path d="M5.41,59a4.84,4.84,0,0,1-1.34-.2c-2.5-.74-3.72-3.32-4-5.3-.7-4.92,4-8.57,6.55-10.53a30.89,30.89,0,0,1,5.58-3.34,40.31,40.31,0,0,1,4.77-2h0c1.37-2.8,2.38-5.16,3.23-7.15,1-2.43,2-4.89,2.94-7.3-.33-.51-.66-1-1-1.53a23.15,23.15,0,0,1-3-8.32c-.33-2.13-.61-6.25,1.19-9.8A6,6,0,0,1,23.84.25a5.62,5.62,0,0,1,4.05.31,6.86,6.86,0,0,1,3.38,4.17c1.39,3.93-.92,12.53-2.58,17.71,1.23,1.75,2.52,3.46,3.86,5.09,1.89,2.32,4,4.59,5.78,6.52L39.2,34h.12a43,43,0,0,1,5.31.27c5,.56,11.78,1.32,13.22,5.92a6.72,6.72,0,0,1-.93,5.56,7.78,7.78,0,0,1-3.64,2.71c-3.61,1.31-8.55-.76-13.21-5.54-.37-.35-1.8-1.73-3.7-3.68a95.85,95.85,0,0,0-15.84,2.52l-.3.59a57.33,57.33,0,0,1-5.32,8.91C12.27,54.75,9.05,59,5.41,59Zm.16-5h0Zm7.71-9.36a22.64,22.64,0,0,0-3.6,2.24C8.07,48.17,4.73,50.76,5,52.81A2.68,2.68,0,0,0,5.49,54c1.36-.36,4.3-4.25,5.43-5.74A35.78,35.78,0,0,0,13.28,44.69Zm30.34-5.3c3.8,3.9,6.9,4.75,8,4.36a2.73,2.73,0,0,0,1.22-.85,1.86,1.86,0,0,0,.28-1.22c-.31-1-3.34-1.82-9-2.45l-.7-.08.16.16a.6.6,0,0,1,.08.08Zm-17-11.3q-.87,2.2-1.8,4.38c-.45,1.05-.95,2.21-1.52,3.48,2.95-.59,6.07-1,8.76-1.32-1.13-1.26-2.29-2.59-3.38-3.93C28,29.85,27.3,29,26.62,28.09ZM25.39,5a2.14,2.14,0,0,0-.55.8,11.87,11.87,0,0,0-.71,6.79,18,18,0,0,0,1.09,4c1.52-5.73,1.7-9.14,1.34-10.18-.12-.33-.4-1.12-.81-1.32A.73.73,0,0,0,25.39,5Z"/></g></g></g></svg>