<svg xmlns="http://www.w3.org/2000/svg" viewBox="0 0 53.76 59"><title>airbnb</title><g id="Layer_2" data-name="Layer 2"><g id="Layer_1-2" data-name="Layer 1"><g id="airbnb"><path d="M40,59a13.62,13.62,0,0,1-9.7-4l-3.46-3.45L23.42,55A13.71,13.71,0,0,1,2.06,52.5a13.62,13.62,0,0,1-.6-13.34l17-33.93a9.46,9.46,0,0,1,16.92,0l17,33.93A13.71,13.71,0,0,1,40,59ZM30.42,48l3.46,3.46A8.71,8.71,0,0,0,47.83,41.39l-17-33.93a4.46,4.46,0,0,0-8,0l-17,33.93a8.72,8.72,0,0,0,14,10.06L23.35,48l-3.6-3.59a10.09,10.09,0,1,1,16.45-11A9.93,9.93,0,0,1,34,44.4ZM26.88,32.18a5.08,5.08,0,0,0-3.59,8.68l3.59,3.59,3.6-3.59a5.09,5.09,0,0,0-3.6-8.68Z"/></g></g></g></svg>