<svg xmlns="http://www.w3.org/2000/svg" viewBox="0 0 57.57 59"><title>airplanemode inactive</title><g id="Layer_2" data-name="Layer 2"><g id="Layer_1-2" data-name="Layer 1"><g id="airplanemode_inactive" data-name="airplanemode inactive"><path d="M49.43,55.46a2.49,2.49,0,0,1-1.77-.73L.73,7.8A2.5,2.5,0,0,1,4.27,4.27L51.2,51.2a2.5,2.5,0,0,1-1.77,4.26Z"/><path d="M51.34,39.75a6.76,6.76,0,0,1-1.4-.16L41.8,37.72a2.5,2.5,0,1,1,1.11-4.87l8.15,1.86a1.22,1.22,0,0,0,1-.24,1.2,1.2,0,0,0,.47-1,1.24,1.24,0,0,0-.66-1.09l-18.64-9.9A2.48,2.48,0,0,1,32,20.24L32.3,7.88a2.8,2.8,0,0,0-.79-2,2.86,2.86,0,0,0-4,0,2.8,2.8,0,0,0-.79,2L27,17.33a2.5,2.5,0,0,1-5,.14L21.7,8A7.8,7.8,0,1,1,37.3,8L37,18.83,54.26,28a6.23,6.23,0,0,1,1,10.38A6.17,6.17,0,0,1,51.34,39.75Z"/><path d="M39.15,59a2.49,2.49,0,0,1-1-.21L29.5,55l-8.65,3.75a2.5,2.5,0,0,1-3.5-2.29V50.14a2.48,2.48,0,0,1,1-2l4.42-3.41-.22-7.64L9.06,40.19A6.23,6.23,0,0,1,4.74,28.61l11.65-6.18a2.5,2.5,0,1,1,2.35,4.41L7.09,33a1.22,1.22,0,0,0-.19,2,1.22,1.22,0,0,0,1,.24l16.45-3.77a2.5,2.5,0,0,1,3.05,2.37l.34,12a2.46,2.46,0,0,1-1,2l-4.46,3.44v1.32L28.5,50a2.49,2.49,0,0,1,2,0l6.15,2.67V51.37l-4.46-3.44a2.46,2.46,0,0,1-1-2l.14-5a2.5,2.5,0,0,1,5,.14l-.11,3.75,4.42,3.41a2.48,2.48,0,0,1,1,2V56.5a2.5,2.5,0,0,1-2.5,2.5Z"/></g></g></g></svg>