<svg xmlns="http://www.w3.org/2000/svg" viewBox="0 0 59 57"><title>airplay</title><g id="Layer_2" data-name="Layer 2"><g id="Layer_1-2" data-name="Layer 1"><g id="airplay"><path d="M48.5,49h-4a2.5,2.5,0,0,1,0-5h4A5.51,5.51,0,0,0,54,38.5v-28A5.51,5.51,0,0,0,48.5,5h-38A5.51,5.51,0,0,0,5,10.5v28A5.51,5.51,0,0,0,10.5,44h4a2.5,2.5,0,0,1,0,5h-4A10.51,10.51,0,0,1,0,38.5v-28A10.51,10.51,0,0,1,10.5,0h38A10.51,10.51,0,0,1,59,10.5v28A10.51,10.51,0,0,1,48.5,49Z"/><path d="M39.5,57h-20a2.5,2.5,0,0,1-2.12-3.83l10-16a2.51,2.51,0,0,1,4.24,0l10,16A2.5,2.5,0,0,1,39.5,57ZM24,52H35L29.5,43.22Z"/></g></g></g></svg>