<svg xmlns="http://www.w3.org/2000/svg" viewBox="0 0 56.13 59"><title>airplanemode active</title><g id="Layer_2" data-name="Layer 2"><g id="Layer_1-2" data-name="Layer 1"><g id="airplanemode_active" data-name="airplanemode active"><path d="M37.71,59a2.49,2.49,0,0,1-1-.21L28.07,55l-8.65,3.75a2.5,2.5,0,0,1-3.5-2.29V50.14a2.5,2.5,0,0,1,1-2l4.43-3.41-.22-7.64L7.63,40.19A6.23,6.23,0,0,1,3.31,28.61l17.28-9.18L20.27,8A7.8,7.8,0,0,1,33.66,2.37,7.68,7.68,0,0,1,35.86,8l-.28,10.07h0l0,.75L52.82,28a6.24,6.24,0,0,1,3.31,5.51,6.24,6.24,0,0,1-7.62,6.08L35.05,36.5l-.23,8.25,4.42,3.41a2.5,2.5,0,0,1,1,2V56.5a2.5,2.5,0,0,1-2.5,2.5ZM20.92,51.37v1.32L27.07,50a2.46,2.46,0,0,1,2,0l6.15,2.67V51.37l-4.46-3.44a2.52,2.52,0,0,1-1-2l.36-12.56a2.51,2.51,0,0,1,1-1.91A2.49,2.49,0,0,1,33.2,31l16.42,3.76a1.25,1.25,0,0,0,1.05-.24,1.19,1.19,0,0,0,.46-1,1.23,1.23,0,0,0-.65-1.09l-18.64-9.9a2.51,2.51,0,0,1-1.33-2.28l.36-12.36a2.8,2.8,0,0,0-.79-2,2.86,2.86,0,0,0-4,0,2.77,2.77,0,0,0-.8,2l.37,13a2.49,2.49,0,0,1-1.32,2.28L5.65,33a1.24,1.24,0,0,0-.19,2,1.24,1.24,0,0,0,1,.24L23,31.55A2.49,2.49,0,0,1,25,32a2.51,2.51,0,0,1,1,1.91l.34,12a2.52,2.52,0,0,1-1,2ZM33.08,18h0Z"/></g></g></g></svg>