<svg xmlns="http://www.w3.org/2000/svg" viewBox="0 0 59 59"><title>alarm off</title><g id="Layer_2" data-name="Layer 2"><g id="Layer_1-2" data-name="Layer 1"><g id="alarm_off" data-name="alarm off"><path d="M56.5,59a2.49,2.49,0,0,1-1.77-.73l-54-54A2.5,2.5,0,0,1,4.27.73l54,54a2.52,2.52,0,0,1,0,3.54A2.49,2.49,0,0,1,56.5,59Z"/><path d="M29.5,59A25.81,25.81,0,0,1,13.4,13a2.5,2.5,0,0,1,3.12,3.9A20.82,20.82,0,1,0,45.77,46.17a2.5,2.5,0,1,1,3.91,3.12A25.71,25.71,0,0,1,29.5,59Z"/><path d="M52.29,40.65a2.39,2.39,0,0,1-.53-.06,2.5,2.5,0,0,1-1.92-3,20.59,20.59,0,0,0,.48-4.43A20.84,20.84,0,0,0,29.5,12.37a21.23,21.23,0,0,0-4.43.47A2.5,2.5,0,0,1,24,8a26.51,26.51,0,0,1,5.49-.58,25.81,25.81,0,0,1,25.23,31.3A2.5,2.5,0,0,1,52.29,40.65Z"/><path d="M55.48,16.66a2.51,2.51,0,0,1-2.08-1.1A26.25,26.25,0,0,0,38.93,5,2.5,2.5,0,0,1,40.31.19,31.28,31.28,0,0,1,57.54,12.76a2.49,2.49,0,0,1-2.06,3.9Z"/><path d="M17.34,5.7A2.5,2.5,0,0,1,16.45.86c.73-.28,1.48-.53,2.21-.75A2.5,2.5,0,1,1,20.1,4.9c-.62.18-1.25.4-1.87.63A2.6,2.6,0,0,1,17.34,5.7Z"/><path d="M3.52,16.57a2.5,2.5,0,0,1-2.06-3.91A31.29,31.29,0,0,1,6.84,6.6a2.5,2.5,0,1,1,3.28,3.77,26.07,26.07,0,0,0-4.52,5.1A2.53,2.53,0,0,1,3.52,16.57Z"/></g></g></g></svg>