<svg xmlns="http://www.w3.org/2000/svg" viewBox="0 0 56.95 59"><title>alarm</title><g id="Layer_2" data-name="Layer 2"><g id="Layer_1-2" data-name="Layer 1"><g id="alarm"><path d="M28.47,59A25.82,25.82,0,1,1,54.29,33.19,25.84,25.84,0,0,1,28.47,59Zm0-46.63A20.82,20.82,0,1,0,49.29,33.19,20.84,20.84,0,0,0,28.47,12.37Z"/><path d="M35.2,44.1A2.43,2.43,0,0,1,34,43.77l-6.74-3.89A2.5,2.5,0,0,1,26,37.72V24.77a2.5,2.5,0,1,1,5,0V36.28l5.49,3.16A2.5,2.5,0,0,1,35.2,44.1Z"/><path d="M54.45,16.66a2.48,2.48,0,0,1-2.07-1.1A26.32,26.32,0,0,0,37.91,5,2.5,2.5,0,1,1,39.28.19,31.31,31.31,0,0,1,56.52,12.76a2.5,2.5,0,0,1-2.07,3.9Z"/><path d="M2.5,16.57A2.5,2.5,0,0,1,.43,12.66,31.89,31.89,0,0,1,17.64.11,2.5,2.5,0,1,1,19.07,4.9,26.83,26.83,0,0,0,4.57,15.47,2.5,2.5,0,0,1,2.5,16.57Z"/></g></g></g></svg>