<svg xmlns="http://www.w3.org/2000/svg" viewBox="0 0 56.05 59"><title>antenna</title><g id="Layer_2" data-name="Layer 2"><g id="Layer_1-2" data-name="Layer 1"><g id="antenna"><path d="M46.09,41.11a2.53,2.53,0,0,1-1.77-.73,2.5,2.5,0,0,1,0-3.54,23.06,23.06,0,0,0,0-32.57A2.5,2.5,0,0,1,47.85.73a28.07,28.07,0,0,1,0,39.65A2.49,2.49,0,0,1,46.09,41.11Z"/><path d="M38.86,33.89a2.51,2.51,0,0,1-1.76-4.27,12.83,12.83,0,0,0,0-18.13A2.5,2.5,0,0,1,40.63,8a17.84,17.84,0,0,1,0,25.2A2.5,2.5,0,0,1,38.86,33.89Z"/><path d="M10,41.11a2.53,2.53,0,0,1-1.77-.73A28,28,0,0,1,8.21.73a2.5,2.5,0,0,1,3.54,3.54,23,23,0,0,0,0,32.57A2.5,2.5,0,0,1,10,41.11Z"/><path d="M17.2,33.89a2.5,2.5,0,0,1-1.77-.74,17.82,17.82,0,0,1,0-25.2A2.5,2.5,0,0,1,19,11.49a12.81,12.81,0,0,0,0,18.13,2.51,2.51,0,0,1-1.77,4.27Z"/><path d="M28,27.73a7.18,7.18,0,1,1,7.18-7.18A7.19,7.19,0,0,1,28,27.73Zm0-9.36a2.18,2.18,0,1,0,2.18,2.18A2.19,2.19,0,0,0,28,18.37Z"/><path d="M39.65,59a2.46,2.46,0,0,1-1.4-.43L28,51.66,17.82,58.57a2.5,2.5,0,0,1-3.74-3L25.69,24.54a2.49,2.49,0,0,1,4.68,0L42,55.62A2.51,2.51,0,0,1,39.65,59ZM28,46.14a2.53,2.53,0,0,1,1.4.43l5.14,3.48L28,32.56,21.5,50.05l5.13-3.48A2.53,2.53,0,0,1,28,46.14Z"/></g></g></g></svg>