<svg xmlns="http://www.w3.org/2000/svg" viewBox="0 0 45.23 59"><title>apple</title><g id="Layer_2" data-name="Layer 2"><g id="Layer_1-2" data-name="Layer 1"><g id="apple"><path d="M15.31,59c-4.55,0-7.62-4.4-9.67-7.32-4.18-6.11-8.47-18.48-3.2-27.6a14.56,14.56,0,0,1,12.28-7.44,15.45,15.45,0,0,1,6.08,1.47,9.93,9.93,0,0,0,2.15.71,12,12,0,0,0,2-.7c2-.78,4.67-1.85,7.58-1.58a14,14,0,0,1,10.95,6,2.49,2.49,0,0,1-.77,3.56,8.69,8.69,0,0,0-4.14,7.26h0a8.36,8.36,0,0,0,5,7.67,2.53,2.53,0,0,1,1.55,2.88,27.22,27.22,0,0,1-3.84,7.91c-2,3-4.71,7.05-9.54,7.12A10.71,10.71,0,0,1,27,57.82,7.53,7.53,0,0,0,23.6,57a8.23,8.23,0,0,0-3.59.86A11.66,11.66,0,0,1,15.58,59Zm-.42-37.36h-.08a9.53,9.53,0,0,0-8,4.93c-3.88,6.71-.59,17,3,22.26,1.45,2.08,3.68,5.27,5.62,5.17a7.25,7.25,0,0,0,2.69-.75A13.06,13.06,0,0,1,23.6,52a12.49,12.49,0,0,1,5.3,1.22,6,6,0,0,0,2.79.71c2.07,0,3.65-2.16,5.52-5a24.3,24.3,0,0,0,2.45-4.45A13.05,13.05,0,0,1,33.6,33.38h0a13.29,13.29,0,0,1,4.23-9.76,9.19,9.19,0,0,0-5.51-2.08l-.19,0c-1.72-.18-3.62.58-5.3,1.25A11,11,0,0,1,23,23.82a10.92,10.92,0,0,1-4-1.08A11.59,11.59,0,0,0,14.89,21.64Z"/><path d="M23,16.41l-.66,0a2.5,2.5,0,0,1-2.29-2.18,12.91,12.91,0,0,1,3.18-9.57A13.74,13.74,0,0,1,32.32,0a2.53,2.53,0,0,1,2.6,2.23A13.53,13.53,0,0,1,31.86,12l-.05.06A11.87,11.87,0,0,1,23,16.41ZM29.57,5.92a8.85,8.85,0,0,0-2.51,2,9.11,9.11,0,0,0-1.67,2.94,7.93,7.93,0,0,0,2.58-2A9.29,9.29,0,0,0,29.57,5.92Zm.33,4.5h0Z"/></g></g></g></svg>