<svg xmlns="http://www.w3.org/2000/svg" viewBox="0 0 59 59"><title>apps</title><g id="Layer_2" data-name="Layer 2"><g id="Layer_1-2" data-name="Layer 1"><g id="apps"><path d="M22.5,25H2.5A2.5,2.5,0,0,1,0,22.5V2.5A2.5,2.5,0,0,1,2.5,0h20A2.5,2.5,0,0,1,25,2.5v20A2.5,2.5,0,0,1,22.5,25ZM5,20H20V5H5Z"/><path d="M56.5,25h-20A2.5,2.5,0,0,1,34,22.5V2.5A2.5,2.5,0,0,1,36.5,0h20A2.5,2.5,0,0,1,59,2.5v20A2.5,2.5,0,0,1,56.5,25ZM39,20H54V5H39Z"/><path d="M22.5,59H2.5A2.5,2.5,0,0,1,0,56.5v-20A2.5,2.5,0,0,1,2.5,34h20A2.5,2.5,0,0,1,25,36.5v20A2.5,2.5,0,0,1,22.5,59ZM5,54H20V39H5Z"/><path d="M56.5,59h-20A2.5,2.5,0,0,1,34,56.5v-20A2.5,2.5,0,0,1,36.5,34h20A2.5,2.5,0,0,1,59,36.5v20A2.5,2.5,0,0,1,56.5,59ZM39,54H54V39H39Z"/></g></g></g></svg>