<svg xmlns="http://www.w3.org/2000/svg" viewBox="0 0 59 59"><title>archive</title><g id="Layer_2" data-name="Layer 2"><g id="Layer_1-2" data-name="Layer 1"><g id="archive"><path d="M48.5,59h-38A10.51,10.51,0,0,1,0,48.5v-34a2.52,2.52,0,0,1,.56-1.58l9.8-12A2.49,2.49,0,0,1,12.3,0H46.7a2.49,2.49,0,0,1,1.94.92l9.8,12A2.52,2.52,0,0,1,59,14.5v34A10.51,10.51,0,0,1,48.5,59ZM5,15.39V48.5A5.51,5.51,0,0,0,10.5,54h38A5.51,5.51,0,0,0,54,48.5V15.39L45.52,5h-32Z"/><path d="M54.5,17H4.5a2.5,2.5,0,0,1,0-5h50a2.5,2.5,0,0,1,0,5Z"/><path d="M29.5,49A2.5,2.5,0,0,1,27,46.5v-21a2.5,2.5,0,0,1,5,0v21A2.5,2.5,0,0,1,29.5,49Z"/><path d="M29.5,49a2.49,2.49,0,0,1-1.77-.73l-8-8a2.5,2.5,0,0,1,3.54-3.54L29.5,43l6.23-6.23a2.5,2.5,0,0,1,3.54,3.54l-8,8A2.49,2.49,0,0,1,29.5,49Z"/></g></g></g></svg>