<svg xmlns="http://www.w3.org/2000/svg" viewBox="0 0 47.26 59"><title>arrow upward</title><g id="Layer_2" data-name="Layer 2"><g id="Layer_1-2" data-name="Layer 1"><g id="arrow_upward" data-name="arrow upward"><path d="M23.63,59a2.5,2.5,0,0,1-2.5-2.5V2.5a2.5,2.5,0,0,1,5,0v54A2.5,2.5,0,0,1,23.63,59Z"/><path d="M44.76,26.13A2.49,2.49,0,0,1,43,25.4L23.63,6,4.27,25.4A2.5,2.5,0,0,1,.73,21.86L21.86.73a2.57,2.57,0,0,1,3.54,0L46.53,21.86a2.52,2.52,0,0,1,0,3.54A2.49,2.49,0,0,1,44.76,26.13Z"/></g></g></g></svg>