<svg xmlns="http://www.w3.org/2000/svg" viewBox="0 0 45 59"><defs><style>.cls-1{fill:#fff;}</style></defs><title>assignment turned in</title><g id="Layer_2" data-name="Layer 2"><g id="Layer_1-2" data-name="Layer 1"><g id="assignment_turned_in" data-name="assignment turned in"><path d="M34.5,59h-24A10.51,10.51,0,0,1,0,48.5v-31A10.51,10.51,0,0,1,10.5,7h24A10.51,10.51,0,0,1,45,17.5v31A10.51,10.51,0,0,1,34.5,59Zm-24-47A5.51,5.51,0,0,0,5,17.5v31A5.51,5.51,0,0,0,10.5,54h24A5.51,5.51,0,0,0,40,48.5v-31A5.51,5.51,0,0,0,34.5,12Z"/><path d="M29.5,9.5a7,7,0,0,0-14,0Z"/><path d="M29.5,12h-14A2.5,2.5,0,0,1,13,9.5a9.5,9.5,0,0,1,19,0A2.5,2.5,0,0,1,29.5,12ZM18.76,7h7.48a4.5,4.5,0,0,0-7.48,0Z"/><circle class="cls-1" cx="22.5" cy="7" r="2.5"/><path d="M19.86,42.57a2.53,2.53,0,0,1-1.77-.73L11.23,35a2.5,2.5,0,1,1,3.54-3.53l5.09,5.09L30.23,26.16a2.5,2.5,0,0,1,3.54,3.54L21.63,41.84A2.53,2.53,0,0,1,19.86,42.57Z"/></g></g></g></svg>