<svg xmlns="http://www.w3.org/2000/svg" viewBox="0 0 45 59"><defs><style>.cls-1{fill:#fff;}</style></defs><title>assignment ind</title><g id="Layer_2" data-name="Layer 2"><g id="Layer_1-2" data-name="Layer 1"><g id="assignment_ind" data-name="assignment ind"><path d="M30.53,48.08H14.47A4.47,4.47,0,0,1,11,46.38a4.36,4.36,0,0,1-.83-3.73,12.72,12.72,0,0,1,24.76,0A4.36,4.36,0,0,1,34,46.38,4.44,4.44,0,0,1,30.53,48.08Zm-15.34-5H29.81a7.72,7.72,0,0,0-14.62,0Z"/><path d="M22.5,30.74a6.95,6.95,0,1,1,7-6.95A7,7,0,0,1,22.5,30.74Zm0-8.89a1.95,1.95,0,1,0,1.95,1.94A2,2,0,0,0,22.5,21.85Z"/><path d="M34.5,59h-24A10.51,10.51,0,0,1,0,48.5v-31A10.51,10.51,0,0,1,10.5,7h24A10.51,10.51,0,0,1,45,17.5v31A10.51,10.51,0,0,1,34.5,59Zm-24-47A5.51,5.51,0,0,0,5,17.5v31A5.51,5.51,0,0,0,10.5,54h24A5.51,5.51,0,0,0,40,48.5v-31A5.51,5.51,0,0,0,34.5,12Z"/><path d="M29.5,9.5a7,7,0,0,0-14,0Z"/><path d="M29.5,12h-14A2.5,2.5,0,0,1,13,9.5a9.5,9.5,0,0,1,19,0A2.5,2.5,0,0,1,29.5,12ZM18.76,7h7.48a4.5,4.5,0,0,0-7.48,0Z"/><circle class="cls-1" cx="22.5" cy="7" r="2.5"/></g></g></g></svg>