<svg xmlns="http://www.w3.org/2000/svg" viewBox="0 0 59 57.04"><title>atm machine</title><g id="Layer_2" data-name="Layer 2"><g id="Layer_1-2" data-name="Layer 1"><g id="atm_machine" data-name="atm machine"><path d="M47.5,17.67h-36a2.5,2.5,0,1,1,0-5h36a2.5,2.5,0,0,1,0,5Z"/><path d="M38.12,57H20.88a8.51,8.51,0,0,1-8.5-8.5V15.17h5V48.54a3.5,3.5,0,0,0,3.5,3.5H38.12a3.5,3.5,0,0,0,3.5-3.5V15.17h5V48.54A8.51,8.51,0,0,1,38.12,57Z"/><path d="M50.5,30H44.12a2.5,2.5,0,0,1,0-5H50.5A3.5,3.5,0,0,0,54,21.5V8.5A3.5,3.5,0,0,0,50.5,5H8.5A3.5,3.5,0,0,0,5,8.5v13A3.5,3.5,0,0,0,8.5,25h6.38a2.5,2.5,0,0,1,0,5H8.5A8.51,8.51,0,0,1,0,21.5V8.5A8.51,8.51,0,0,1,8.5,0h42A8.51,8.51,0,0,1,59,8.5v13A8.51,8.51,0,0,1,50.5,30Z"/><path d="M29.5,45.45H26.35a2.5,2.5,0,0,1,0-5H29.5a1.55,1.55,0,1,0,0-3.1,6.55,6.55,0,0,1,0-13.1h3.15a2.5,2.5,0,0,1,0,5H29.5a1.55,1.55,0,0,0,0,3.1,6.55,6.55,0,1,1,0,13.1Z"/><path d="M29.5,29.25a2.49,2.49,0,0,1-2.5-2.5V23.6a2.5,2.5,0,0,1,5,0v3.15A2.49,2.49,0,0,1,29.5,29.25Z"/><path d="M29.5,48.6A2.49,2.49,0,0,1,27,46.1V43a2.5,2.5,0,0,1,5,0V46.1A2.49,2.49,0,0,1,29.5,48.6Z"/></g></g></g></svg>