<svg xmlns="http://www.w3.org/2000/svg" viewBox="0 0 59 39"><title>attachment</title><g id="Layer_2" data-name="Layer 2"><g id="Layer_1-2" data-name="Layer 1"><g id="attachment"><path d="M43.5,39h-33A10.51,10.51,0,0,1,0,28.5v-18A10.51,10.51,0,0,1,10.5,0h40A8.51,8.51,0,0,1,59,8.5v11A8.51,8.51,0,0,1,50.5,28h-31A6.51,6.51,0,0,1,13,21.5v-4A6.51,6.51,0,0,1,19.5,11h24a2.5,2.5,0,0,1,0,5h-24A1.5,1.5,0,0,0,18,17.5v4A1.5,1.5,0,0,0,19.5,23h31A3.5,3.5,0,0,0,54,19.5V8.5A3.5,3.5,0,0,0,50.5,5h-40A5.51,5.51,0,0,0,5,10.5v18A5.51,5.51,0,0,0,10.5,34h33a2.5,2.5,0,0,1,0,5Z"/></g></g></g></svg>