<svg xmlns="http://www.w3.org/2000/svg" viewBox="0 0 57.15 59"><title>attach file-2</title><g id="Layer_2" data-name="Layer 2"><g id="Layer_1-2" data-name="Layer 1"><g id="attach_file-2" data-name="attach file-2"><path d="M26.45,59a10.62,10.62,0,0,1-5.3-1.42L5.31,48.43A10.65,10.65,0,0,1,1.42,33.91l16.77-29a2.5,2.5,0,0,1,4.33,2.5l-16.77,29A5.64,5.64,0,0,0,7.81,44.1l15.84,9.15a5.64,5.64,0,0,0,7.69-2.06L51.66,16a3.61,3.61,0,0,0-1.31-4.92L40.67,5.49A3.61,3.61,0,0,0,35.75,6.8L20,34.08a1.57,1.57,0,0,0,.58,2.14l3.52,2a1.53,1.53,0,0,0,1.18.16,1.55,1.55,0,0,0,.95-.73l12.2-21.12a2.5,2.5,0,1,1,4.33,2.5L30.56,40.18a6.55,6.55,0,0,1-9,2.4l-3.52-2a6.57,6.57,0,0,1-2.41-9L31.42,4.3A8.61,8.61,0,0,1,43.17,1.16l9.68,5.58A8.61,8.61,0,0,1,56,18.49L35.67,53.69A10.65,10.65,0,0,1,26.45,59Z"/></g></g></g></svg>