<svg xmlns="http://www.w3.org/2000/svg" viewBox="0 0 39 59"><title>attach file-1</title><g id="Layer_2" data-name="Layer 2"><g id="Layer_1-2" data-name="Layer 1"><g id="attach_file-1" data-name="attach file-1"><path d="M28.5,59h-18A10.51,10.51,0,0,1,0,48.5V8.5A8.51,8.51,0,0,1,8.5,0h11A8.51,8.51,0,0,1,28,8.5v31A6.51,6.51,0,0,1,21.5,46h-4A6.51,6.51,0,0,1,11,39.5v-24a2.5,2.5,0,0,1,5,0v24A1.5,1.5,0,0,0,17.5,41h4A1.5,1.5,0,0,0,23,39.5V8.5A3.5,3.5,0,0,0,19.5,5H8.5A3.5,3.5,0,0,0,5,8.5v40A5.51,5.51,0,0,0,10.5,54h18A5.51,5.51,0,0,0,34,48.5v-33a2.5,2.5,0,0,1,5,0v33A10.51,10.51,0,0,1,28.5,59Z"/></g></g></g></svg>