<svg xmlns="http://www.w3.org/2000/svg" viewBox="0 0 59 37"><title>backspace</title><g id="Layer_2" data-name="Layer 2"><g id="Layer_1-2" data-name="Layer 1"><g id="backspace"><path d="M27.5,28a2.49,2.49,0,0,1-1.77-.73,2.52,2.52,0,0,1,0-3.54l14-14a2.5,2.5,0,0,1,3.54,3.54l-14,14A2.49,2.49,0,0,1,27.5,28Z"/><path d="M41.5,28a2.49,2.49,0,0,1-1.77-.73l-14-14a2.5,2.5,0,0,1,3.54-3.54l14,14a2.52,2.52,0,0,1,0,3.54A2.49,2.49,0,0,1,41.5,28Z"/><path d="M56.5,37h-41a2.51,2.51,0,0,1-1.94-.92l-13-16a2.5,2.5,0,0,1,0-3.16l13-16A2.51,2.51,0,0,1,15.5,0h41A2.5,2.5,0,0,1,59,2.5v32A2.5,2.5,0,0,1,56.5,37ZM16.69,32H54V5H16.69l-11,13.5Z"/></g></g></g></svg>