<svg xmlns="http://www.w3.org/2000/svg" viewBox="0 0 57.61 58"><title>bag</title><g id="Layer_2" data-name="Layer 2"><g id="Layer_1-2" data-name="Layer 1"><g id="bag"><path d="M40.17,28.69a2.5,2.5,0,0,1-2.5-2.5V13.86A8.88,8.88,0,0,0,28.8,5a9,9,0,0,0-8.86,8.86V26.19a2.5,2.5,0,1,1-5,0V13.86a13.87,13.87,0,0,1,27.73,0V26.19A2.5,2.5,0,0,1,40.17,28.69Z"/><path d="M47.11,58H10.5A10.5,10.5,0,0,1,.16,45.67l4.5-25.48a7,7,0,0,1,6.94-5.82H46A7,7,0,0,1,53,20.19l4.5,25.48A10.5,10.5,0,0,1,47.11,58ZM11.6,19.37a2,2,0,0,0-2,1.68L5.08,46.54A5.51,5.51,0,0,0,10.5,53H47.11a5.51,5.51,0,0,0,5.42-6.46L48,21.06a2,2,0,0,0-2-1.69Z"/></g></g></g></svg>