<svg xmlns="http://www.w3.org/2000/svg" viewBox="0 0 34.81 59"><title>balloon</title><g id="Layer_2" data-name="Layer 2"><g id="Layer_1-2" data-name="Layer 1"><g id="balloon"><path d="M17.4,41.12C7.81,41.12,0,31.89,0,20.56S7.81,0,17.4,0,34.81,9.22,34.81,20.56,27,41.12,17.4,41.12ZM17.4,5C10.56,5,5,12,5,20.56s5.56,15.56,12.4,15.56,12.41-7,12.41-15.56S24.24,5,17.4,5Z"/><path d="M17.4,47.08C11,47.08,11,41.57,11,38.62a2.5,2.5,0,0,1,5,0c0,3.46.08,3.46,1.39,3.46s1.4,0,1.4-3.46a2.5,2.5,0,0,1,5,0C23.8,41.57,23.8,47.08,17.4,47.08Z"/><path d="M18.17,59a2.6,2.6,0,0,1-.61-.07,2.51,2.51,0,0,1-1.82-3,5.4,5.4,0,0,0,0-3.3,6.94,6.94,0,0,0-.59-1.05,6.72,6.72,0,0,1-1.21-2.85,7.62,7.62,0,0,1,1.42-5.5A2.5,2.5,0,0,1,19.49,46a3,3,0,0,0-.64,1.95c0,.24.12.38.45.89a10,10,0,0,1,1.06,2,10.23,10.23,0,0,1,.23,6.35A2.5,2.5,0,0,1,18.17,59Z"/></g></g></g></svg>