<svg xmlns="http://www.w3.org/2000/svg" viewBox="0 0 55 59"><title>bank</title><g id="Layer_2" data-name="Layer 2"><g id="Layer_1-2" data-name="Layer 1"><g id="bank"><path d="M52.5,28H2.5A2.5,2.5,0,0,1,0,25.5V18.28a2.5,2.5,0,0,1,1.17-2.12L26.17.39a2.46,2.46,0,0,1,2.66,0l25,15.77A2.5,2.5,0,0,1,55,18.28V25.5A2.5,2.5,0,0,1,52.5,28ZM5,23H50V19.66L27.5,5.46,5,19.66Z"/><path d="M43.24,51.5a2.5,2.5,0,0,1-2.5-2.5V33a2.5,2.5,0,0,1,5,0V49A2.5,2.5,0,0,1,43.24,51.5Z"/><path d="M27.5,51.5A2.5,2.5,0,0,1,25,49V33a2.5,2.5,0,0,1,5,0V49A2.5,2.5,0,0,1,27.5,51.5Z"/><path d="M11.76,51.5A2.5,2.5,0,0,1,9.26,49V33a2.5,2.5,0,0,1,5,0V49A2.5,2.5,0,0,1,11.76,51.5Z"/><path d="M52.5,59H2.5a2.5,2.5,0,0,1,0-5h50a2.5,2.5,0,0,1,0,5Z"/><circle cx="27.5" cy="17.38" r="4"/></g></g></g></svg>