<svg xmlns="http://www.w3.org/2000/svg" viewBox="0 0 40.14 59"><title>bar</title><g id="Layer_2" data-name="Layer 2"><g id="Layer_1-2" data-name="Layer 1"><g id="bar"><path d="M20.07,38.77A20.09,20.09,0,0,1,0,18.7c0-.1,0-.2,0-.3L2,2.2A2.5,2.5,0,0,1,4.45,0H35.68a2.51,2.51,0,0,1,2.49,2.2l1.95,16.2c0,.1,0,.2,0,.3A20.09,20.09,0,0,1,20.07,38.77ZM5,18.85a15.07,15.07,0,0,0,30.13,0L33.47,5H6.67Z"/><path d="M20.07,59a2.5,2.5,0,0,1-2.5-2.5V36.27a2.5,2.5,0,0,1,5,0V56.5A2.5,2.5,0,0,1,20.07,59Z"/><path d="M30.85,59H9.29a2.5,2.5,0,1,1,0-5H30.85a2.5,2.5,0,0,1,0,5Z"/></g></g></g></svg>