<svg xmlns="http://www.w3.org/2000/svg" viewBox="0 0 58.97 58.97"><title>baseball</title><g id="Layer_2" data-name="Layer 2"><g id="Layer_1-2" data-name="Layer 1"><g id="baseball"><path d="M29.49,59A29.49,29.49,0,1,1,50.35,8.63h0A29.48,29.48,0,0,1,29.49,59Zm0-54a24.49,24.49,0,1,0,17.32,7.16h0A24.45,24.45,0,0,0,29.49,5Z"/><path d="M55,33.53A29.49,29.49,0,0,1,25.49,2.39a2.5,2.5,0,1,1,5,.28A24.5,24.5,0,0,0,56.3,28.49a2.5,2.5,0,1,1,.28,5C56,33.52,55.49,33.53,55,33.53Z"/><path d="M31,58.94h-.14a2.51,2.51,0,0,1-2.36-2.63,24.49,24.49,0,0,0-7.14-18.69A24.59,24.59,0,0,0,2.67,30.48a2.5,2.5,0,1,1-.28-5A29.49,29.49,0,0,1,33.48,56.58,2.49,2.49,0,0,1,31,58.94Z"/></g></g></g></svg>