<svg xmlns="http://www.w3.org/2000/svg" viewBox="0 0 59 59"><title>basketball</title><g id="Layer_2" data-name="Layer 2"><g id="Layer_1-2" data-name="Layer 1"><g id="basketball"><path d="M29.5,59A29.5,29.5,0,1,1,59,29.5,29.53,29.53,0,0,1,29.5,59Zm0-54A24.5,24.5,0,1,0,54,29.5,24.53,24.53,0,0,0,29.5,5Z"/><path d="M47.5,52.12a2.5,2.5,0,0,1-1.89-.86C40.77,45.7,38,37.76,38,29.5s2.77-16.2,7.61-21.76A2.5,2.5,0,1,1,49.39,11C45.33,15.69,43,22.42,43,29.5S45.33,43.31,49.39,48a2.5,2.5,0,0,1-1.89,4.14Z"/><path d="M11.5,52.12A2.5,2.5,0,0,1,9.61,48C13.67,43.31,16,36.58,16,29.5S13.67,15.69,9.61,11a2.5,2.5,0,0,1,3.78-3.28C18.23,13.3,21,21.24,21,29.5s-2.77,16.2-7.61,21.76A2.5,2.5,0,0,1,11.5,52.12Z"/><path d="M56.5,32H2.5a2.5,2.5,0,0,1,0-5h54a2.5,2.5,0,0,1,0,5Z"/><path d="M29.5,59A2.5,2.5,0,0,1,27,56.5V2.5a2.5,2.5,0,0,1,5,0v54A2.5,2.5,0,0,1,29.5,59Z"/></g></g></g></svg>