<svg xmlns="http://www.w3.org/2000/svg" viewBox="0 0 59 58.65"><title>bathtub</title><g id="Layer_2" data-name="Layer 2"><g id="Layer_1-2" data-name="Layer 1"><g id="bathtub"><path d="M37.27,54.5H21.73A21.76,21.76,0,0,1,0,32.77a2.5,2.5,0,0,1,2.5-2.5h54a2.5,2.5,0,0,1,2.5,2.5A21.76,21.76,0,0,1,37.27,54.5ZM5.19,35.27A16.75,16.75,0,0,0,21.73,49.5H37.27A16.75,16.75,0,0,0,53.81,35.27Z"/><path d="M12.65,35.27a2.5,2.5,0,0,1-2.5-2.5V10.48a9,9,0,0,1,2.67-6.42l1.42-1.42A9.07,9.07,0,0,1,28.11,3.93,2.5,2.5,0,1,1,24,6.76a4.07,4.07,0,0,0-6.22-.57L16.35,7.6a4,4,0,0,0-1.2,2.88V32.77A2.5,2.5,0,0,1,12.65,35.27Z"/><path d="M21.89,16.84a2.51,2.51,0,0,1-2.37-1.68A9.6,9.6,0,0,1,37.68,8.9a2.51,2.51,0,0,1-1.55,3.18L22.7,16.7A2.3,2.3,0,0,1,21.89,16.84ZM28.6,7.42A4.66,4.66,0,0,0,24.46,10a5.23,5.23,0,0,0-.33.91L31.44,8.4a4.9,4.9,0,0,0-.82-.51A4.64,4.64,0,0,0,28.6,7.42Z"/><path d="M42.14,58.65a2.43,2.43,0,0,1-1.62-.6L35.65,53.9a2.5,2.5,0,1,1,3.24-3.8l4.87,4.15a2.5,2.5,0,0,1-1.62,4.4Z"/><path d="M16.86,58.65a2.5,2.5,0,0,1-1.62-4.4l4.87-4.15a2.5,2.5,0,1,1,3.24,3.8l-4.87,4.15A2.45,2.45,0,0,1,16.86,58.65Z"/></g></g></g></svg>