<svg xmlns="http://www.w3.org/2000/svg" viewBox="0 0 59 55.68"><title>bed</title><g id="Layer_2" data-name="Layer 2"><g id="Layer_1-2" data-name="Layer 1"><g id="bed"><path d="M2.5,55.68A2.5,2.5,0,0,1,0,53.18V19.72a2.5,2.5,0,0,1,5,0V53.18A2.5,2.5,0,0,1,2.5,55.68Z"/><path d="M56.5,48.61H2.5a2.5,2.5,0,0,1,0-5h54a2.5,2.5,0,0,1,0,5Z"/><path d="M56.5,55.68a2.5,2.5,0,0,1-2.5-2.5v-13a3.5,3.5,0,0,0-3.5-3.5H20a2.5,2.5,0,0,1-2.5-2.5V31a1.5,1.5,0,0,0-1.5-1.5H2.5a2.5,2.5,0,0,1,0-5H16a6.51,6.51,0,0,1,6.5,6.5v.76h28a8.51,8.51,0,0,1,8.5,8.5v13A2.5,2.5,0,0,1,56.5,55.68Z"/><path d="M20,48.61a2.5,2.5,0,0,1-2.5-2.5V34.23a2.5,2.5,0,0,1,5,0V46.11A2.5,2.5,0,0,1,20,48.61Z"/><path d="M36.48,23.11H28a2.5,2.5,0,0,1-1.76-4.27l4.25-4.25H28.1a2.5,2.5,0,0,1,0-5h8.38a2.5,2.5,0,0,1,1.77,4.27L34,18.11h2.48a2.5,2.5,0,0,1,0,5Z"/><path d="M56.5,13.52H48a2.5,2.5,0,0,1-1.77-4.27L50.46,5H48.11a2.5,2.5,0,0,1,0-5H56.5a2.5,2.5,0,0,1,1.77,4.27L54,8.52H56.5a2.5,2.5,0,0,1,0,5Z"/></g></g></g></svg>