<svg xmlns="http://www.w3.org/2000/svg" viewBox="0 0 59 38.94"><title>behance</title><g id="Layer_2" data-name="Layer 2"><g id="Layer_1-2" data-name="Layer 1"><g id="behance"><path d="M12.87,22H2.5a2.5,2.5,0,0,1,0-5H12.87a6,6,0,1,0,0-12H2.5a2.5,2.5,0,0,1,0-5H12.87a11,11,0,1,1,0,22Z"/><path d="M2.5,38.94A2.5,2.5,0,0,1,0,36.44V2.5a2.5,2.5,0,0,1,5,0V36.44A2.5,2.5,0,0,1,2.5,38.94Z"/><path d="M16.64,38.94H2.5a2.5,2.5,0,0,1,0-5H16.64a6,6,0,1,0,0-12H2.5a2.5,2.5,0,0,1,0-5H16.64a11,11,0,1,1,0,22Z"/><path d="M45.19,38.94A13.82,13.82,0,1,1,59,25.13a2.5,2.5,0,0,1-2.5,2.5H36.73A8.81,8.81,0,0,0,51.78,31a2.5,2.5,0,0,1,3.75,3.32A13.84,13.84,0,0,1,45.19,38.94ZM36.73,22.63H53.64a8.82,8.82,0,0,0-16.91,0Z"/><path d="M51.28,6.89H39.09a2.5,2.5,0,0,1,0-5H51.28a2.5,2.5,0,0,1,0,5Z"/></g></g></g></svg>