<svg xmlns="http://www.w3.org/2000/svg" viewBox="0 0 59 43.19"><title>bicycle</title><g id="Layer_2" data-name="Layer 2"><g id="Layer_1-2" data-name="Layer 1"><g id="bicycle"><path d="M11.5,43.19A11.5,11.5,0,1,1,23,31.69,11.51,11.51,0,0,1,11.5,43.19Zm0-18a6.5,6.5,0,1,0,6.5,6.5A6.51,6.51,0,0,0,11.5,25.19Z"/><path d="M47.5,43.19A11.5,11.5,0,1,1,59,31.69,11.51,11.51,0,0,1,47.5,43.19Zm0-18a6.5,6.5,0,1,0,6.5,6.5A6.51,6.51,0,0,0,47.5,25.19Z"/><path d="M29.5,34.19h-18a2.5,2.5,0,0,1-2.28-3.52l9-20.2a2.5,2.5,0,1,1,4.56,2L15.35,29.19H29.5a2.5,2.5,0,0,1,0,5Z"/><path d="M29.5,34.19a2.5,2.5,0,0,1-2.28-3.52l13-29.19a2.5,2.5,0,0,1,4.57,2l-13,29.19A2.48,2.48,0,0,1,29.5,34.19Z"/><path d="M38.5,14h-18a2.5,2.5,0,0,1,0-5h18a2.5,2.5,0,0,1,0,5Z"/><path d="M47.5,34.19a2.51,2.51,0,0,1-2.44-1.94L38.94,5.6a2.5,2.5,0,0,1,4.87-1.12l6.13,26.65a2.5,2.5,0,0,1-1.88,3A2.74,2.74,0,0,1,47.5,34.19Z"/><path d="M43.71,5H35.27a2.5,2.5,0,0,1,0-5h8.44a2.5,2.5,0,0,1,0,5Z"/><path d="M23.5,8h-6a2.5,2.5,0,0,1,0-5h6a2.5,2.5,0,0,1,0,5Z"/><path d="M29.5,34.19a2.49,2.49,0,0,1-2.27-1.46l-12-26.2a2.5,2.5,0,0,1,4.54-2.08l12,26.2A2.49,2.49,0,0,1,30.54,34,2.42,2.42,0,0,1,29.5,34.19Z"/></g></g></g></svg>