<svg xmlns="http://www.w3.org/2000/svg" viewBox="0 0 34.5 59"><title>bluetooth</title><g id="Layer_2" data-name="Layer 2"><g id="Layer_1-2" data-name="Layer 1"><g id="bluetooth"><path d="M32,45.5a2.49,2.49,0,0,1-1.77-.73L.73,15.27a2.5,2.5,0,0,1,3.54-3.54l29.5,29.5a2.52,2.52,0,0,1,0,3.54A2.49,2.49,0,0,1,32,45.5Z"/><path d="M18.5,59A2.5,2.5,0,0,1,16,56.5v-21L4.27,47.27A2.5,2.5,0,0,1,.73,43.73L16,28.46V2.5A2.5,2.5,0,0,1,20.27.73l13.5,13.5a2.52,2.52,0,0,1,0,3.54L21,30.54V50.46l9.23-9.23a2.5,2.5,0,0,1,3.54,3.54l-13.5,13.5A2.5,2.5,0,0,1,18.5,59ZM21,8.54V23.46L28.46,16Z"/></g></g></g></svg>