<svg xmlns="http://www.w3.org/2000/svg" viewBox="0 0 59 59"><title>bluetooth off</title><g id="Layer_2" data-name="Layer 2"><g id="Layer_1-2" data-name="Layer 1"><g id="bluetooth_off" data-name="bluetooth off"><path d="M30.75,59a2.5,2.5,0,0,1-2.5-2.5V30.75a2.5,2.5,0,0,1,5,0V50.46l8.61-8.6a2.5,2.5,0,0,1,3.53,3.53L32.52,58.27A2.5,2.5,0,0,1,30.75,59Z"/><path d="M37.2,25.55a2.5,2.5,0,0,1-1.77-4.26L40.71,16,33.25,8.54v8.07a2.5,2.5,0,0,1-5,0V2.5A2.5,2.5,0,0,1,32.52.73L46,14.23a2.52,2.52,0,0,1,0,3.54L39,24.82A2.45,2.45,0,0,1,37.2,25.55Z"/><path d="M14.75,48A2.49,2.49,0,0,1,13,47.27a2.52,2.52,0,0,1,0-3.54L28.36,28.36a2.5,2.5,0,0,1,3.53,3.53L16.52,47.27A2.49,2.49,0,0,1,14.75,48Z"/><path d="M56.5,59a2.49,2.49,0,0,1-1.77-.73l-54-54A2.5,2.5,0,0,1,4.27.73l54,54a2.52,2.52,0,0,1,0,3.54A2.49,2.49,0,0,1,56.5,59Z"/></g></g></g></svg>