<svg xmlns="http://www.w3.org/2000/svg" viewBox="0 0 49 59"><title>bookmark</title><g id="Layer_2" data-name="Layer 2"><g id="Layer_1-2" data-name="Layer 1"><g id="bookmark"><path d="M46.5,59a2.48,2.48,0,0,1-1-.22l-21-9.53-21,9.53A2.51,2.51,0,0,1,0,56.5v-46A10.51,10.51,0,0,1,10.5,0h28A10.51,10.51,0,0,1,49,10.5v46a2.49,2.49,0,0,1-1.15,2.1A2.45,2.45,0,0,1,46.5,59Zm-22-15a2.45,2.45,0,0,1,1,.22L44,52.62V10.5A5.51,5.51,0,0,0,38.5,5h-28A5.51,5.51,0,0,0,5,10.5V52.62l18.47-8.4A2.45,2.45,0,0,1,24.5,44Z"/></g></g></g></svg>