<svg xmlns="http://www.w3.org/2000/svg" viewBox="0 0 45 59"><title>book</title><g id="Layer_2" data-name="Layer 2"><g id="Layer_1-2" data-name="Layer 1"><g id="book"><path d="M42.5,59h-32A10.51,10.51,0,0,1,0,48.5V8.5a2.5,2.5,0,0,1,5,0v40A5.51,5.51,0,0,0,10.5,54H40V17H25.89a2.5,2.5,0,0,1,0-5H42.5A2.5,2.5,0,0,1,45,14.5v42A2.5,2.5,0,0,1,42.5,59Z"/><path d="M36.5,17H8.5a8.5,8.5,0,0,1,0-17h28A2.5,2.5,0,0,1,39,2.5v12A2.5,2.5,0,0,1,36.5,17ZM8.5,5a3.5,3.5,0,0,0,0,7H34V5Z"/><path d="M32.5,31.33h-20a2.5,2.5,0,0,1,0-5h20a2.5,2.5,0,0,1,0,5Z"/><path d="M32.5,44.67h-20a2.5,2.5,0,0,1,0-5h20a2.5,2.5,0,0,1,0,5Z"/></g></g></g></svg>