<svg xmlns="http://www.w3.org/2000/svg" viewBox="0 0 59 57.21"><title>brush</title><g id="Layer_2" data-name="Layer 2"><g id="Layer_1-2" data-name="Layer 1"><g id="brush"><path d="M12.83,57.21A30.8,30.8,0,0,1,1.59,55a2.49,2.49,0,0,1-.26-4.53c3.4-1.81,5.54-4,6.36-6.5.7-2.12.27-3.92-.19-5.82C7,36,6.37,33.42,7.8,30.71h0c1.36-2.59,4.37-4.69,8-5.61a14.76,14.76,0,0,1,11.85,1.75c7.17,4.82,6.71,15.29,3.62,21C28.05,53.84,20.88,57.21,12.83,57.21Zm-4.6-5.4c8.72,1.71,16-1.48,18.67-6.34C29,41.54,29.54,34.12,24.9,31A10,10,0,0,0,17.05,30c-2.24.56-4.14,1.78-4.83,3.09-.53,1-.31,2.06.15,4a14.56,14.56,0,0,1,.07,8.54A14.38,14.38,0,0,1,8.23,51.81Z"/><path d="M30.5,37.61a2.5,2.5,0,0,1-1.68-4.36L52.7,11.82a3.92,3.92,0,0,0,.16-5.68A4,4,0,0,0,50,5a3.88,3.88,0,0,0-2.81,1.3L26.26,29.6a2.5,2.5,0,0,1-3.72-3.34L43.46,3A8.91,8.91,0,0,1,59,9.15a8.84,8.84,0,0,1-3,6.39L32.16,37A2.46,2.46,0,0,1,30.5,37.61Z"/></g></g></g></svg>