<svg xmlns="http://www.w3.org/2000/svg" viewBox="0 0 57.28 59"><title>bug report</title><g id="Layer_2" data-name="Layer 2"><g id="Layer_1-2" data-name="Layer 1"><g id="bug_report" data-name="bug report"><path d="M28.64,59C17.53,59,8.49,48.38,8.49,35.32s9-23.69,20.15-23.69S48.79,22.26,48.79,35.32,39.75,59,28.64,59Zm0-42.37c-8.35,0-15.15,8.39-15.15,18.69S20.29,54,28.64,54s15.15-8.38,15.15-18.68S37,16.63,28.64,16.63Z"/><path d="M54.78,37.82H46.29a2.5,2.5,0,0,1,0-5h8.49a2.5,2.5,0,0,1,0,5Z"/><path d="M11,37.82H2.5a2.5,2.5,0,0,1,0-5H11a2.5,2.5,0,1,1,0,5Z"/><path d="M21.39,17.76a2.49,2.49,0,0,1-2.45-2.05l-.61-3.32a10.49,10.49,0,1,1,20.63,0l-.62,3.32a2.5,2.5,0,1,1-4.91-.9L34,11.48a5.49,5.49,0,1,0-10.8,0l.62,3.33a2.5,2.5,0,0,1-2,2.91A2.38,2.38,0,0,1,21.39,17.76Z"/><path d="M49.22,24.87h-5.9a2.5,2.5,0,0,1,0-5H48L52,14.93a2.5,2.5,0,1,1,3.91,3.12l-4.68,5.88A2.5,2.5,0,0,1,49.22,24.87Z"/><path d="M14,24.87H8.06a2.47,2.47,0,0,1-1.95-.94L1.42,18.05a2.5,2.5,0,1,1,3.91-3.12l3.94,4.94H14a2.5,2.5,0,0,1,0,5Z"/><path d="M53.91,56.65a2.51,2.51,0,0,1-2-.95L48,50.76h-4.7a2.5,2.5,0,0,1,0-5h5.9a2.53,2.53,0,0,1,2,.94l4.68,5.89a2.5,2.5,0,0,1-.4,3.51A2.45,2.45,0,0,1,53.91,56.65Z"/><path d="M3.37,56.65a2.47,2.47,0,0,1-1.55-.55,2.5,2.5,0,0,1-.4-3.51L6.1,46.7a2.53,2.53,0,0,1,2-.94H14a2.5,2.5,0,0,1,0,5H9.27L5.33,55.7A2.5,2.5,0,0,1,3.37,56.65Z"/><path d="M34.64,31.55h-12a2.5,2.5,0,0,1,0-5h12a2.5,2.5,0,0,1,0,5Z"/><path d="M34.64,44.08h-12a2.5,2.5,0,0,1,0-5h12a2.5,2.5,0,0,1,0,5Z"/></g></g></g></svg>