<svg xmlns="http://www.w3.org/2000/svg" viewBox="0 0 53 59"><title>bus (2)</title><g id="Layer_2" data-name="Layer 2"><g id="Layer_1-2" data-name="Layer 1"><g id="bus"><path d="M42.5,51.59h-32A10.51,10.51,0,0,1,0,41.09V10.5A10.51,10.51,0,0,1,10.5,0h32A10.51,10.51,0,0,1,53,10.5V41.09A10.51,10.51,0,0,1,42.5,51.59ZM10.5,5A5.51,5.51,0,0,0,5,10.5V41.09a5.51,5.51,0,0,0,5.5,5.5h32a5.51,5.51,0,0,0,5.5-5.5V10.5A5.51,5.51,0,0,0,42.5,5Z"/><path d="M50.5,31.38H2.5a2.5,2.5,0,0,1,0-5h48a2.5,2.5,0,0,1,0,5Z"/><path d="M36.23,34.45A4.23,4.23,0,1,0,39.74,38,4.24,4.24,0,0,0,36.23,34.45Z"/><path d="M18.11,34.45A4.23,4.23,0,1,0,21.63,38,4.24,4.24,0,0,0,18.11,34.45Z"/><path d="M43.62,59H41.5A2.5,2.5,0,0,1,39,56.5V49.09a2.51,2.51,0,0,1,3.56-2.27,2.51,2.51,0,0,1,3.56,2.27V56.5A2.5,2.5,0,0,1,43.62,59Z"/><path d="M11.5,59H9.38a2.5,2.5,0,0,1-2.5-2.5V49.09a2.51,2.51,0,0,1,3.56-2.27A2.51,2.51,0,0,1,14,49.09V56.5A2.5,2.5,0,0,1,11.5,59Z"/></g></g></g></svg>