<svg xmlns="http://www.w3.org/2000/svg" viewBox="0 0 59 39.34"><title>bus</title><g id="Layer_2" data-name="Layer 2"><g id="Layer_1-2" data-name="Layer 1"><g id="bus"><path d="M14.5,39.34a7.5,7.5,0,1,1,7.5-7.5A7.5,7.5,0,0,1,14.5,39.34Zm0-10a2.5,2.5,0,1,0,2.5,2.5A2.5,2.5,0,0,0,14.5,29.34Z"/><path d="M44.5,39.34a7.5,7.5,0,1,1,7.5-7.5A7.5,7.5,0,0,1,44.5,39.34Zm0-10a2.5,2.5,0,1,0,2.5,2.5A2.5,2.5,0,0,0,44.5,29.34Z"/><path d="M56.5,34.34h-7a2.5,2.5,0,1,1,0-5H54V12.5A7.5,7.5,0,0,0,46.5,5H5V29.34H9.5a2.5,2.5,0,0,1,0,5h-7A2.5,2.5,0,0,1,0,31.84V2.5A2.5,2.5,0,0,1,2.5,0h44A12.52,12.52,0,0,1,59,12.5V31.84A2.5,2.5,0,0,1,56.5,34.34Z"/><path d="M39.5,34.34h-20a2.5,2.5,0,1,1,0-5h20a2.5,2.5,0,1,1,0,5Z"/><path d="M56.5,23.62a2.31,2.31,0,0,1-.85-.15L41.56,18.38H2.5a2.5,2.5,0,0,1,0-5H42a2.45,2.45,0,0,1,.85.15l14.5,5.24a2.5,2.5,0,0,1-.85,4.85Z"/><path d="M15,18.38a2.5,2.5,0,0,1-2.5-2.5V2.5a2.5,2.5,0,0,1,5,0V15.88A2.5,2.5,0,0,1,15,18.38Z"/><path d="M28.5,18.38a2.5,2.5,0,0,1-2.5-2.5V2.5a2.5,2.5,0,0,1,5,0V15.88A2.5,2.5,0,0,1,28.5,18.38Z"/><path d="M42,18.38a2.5,2.5,0,0,1-2.5-2.5V2.5a2.5,2.5,0,0,1,5,0V15.88A2.5,2.5,0,0,1,42,18.38Z"/></g></g></g></svg>