<svg xmlns="http://www.w3.org/2000/svg" viewBox="0 0 59 45.21"><title>cached</title><g id="Layer_2" data-name="Layer 2"><g id="Layer_1-2" data-name="Layer 1"><g id="cached"><path d="M28.17,45.21A24.07,24.07,0,0,1,19,43.37a2.5,2.5,0,1,1,1.92-4.62A19,19,0,0,0,46.21,15.13,2.5,2.5,0,1,1,51,13.54,24,24,0,0,1,28.17,45.21Z"/><path d="M56.5,25.33a2.49,2.49,0,0,1-1.83-.8l-6.21-6.66-6.67,6.21a2.5,2.5,0,0,1-3.41-3.66l8.5-7.92a2.54,2.54,0,0,1,1.79-.67,2.51,2.51,0,0,1,1.74.8l7.92,8.49a2.51,2.51,0,0,1-1.83,4.21Z"/><path d="M10.42,33.37a2.5,2.5,0,0,1-2.37-1.7A24,24,0,0,1,40,1.84a2.5,2.5,0,1,1-1.92,4.61A19,19,0,0,0,12.79,30.08a2.49,2.49,0,0,1-1.57,3.16A2.53,2.53,0,0,1,10.42,33.37Z"/><path d="M10.42,33.37a2.48,2.48,0,0,1-1.83-.79L.67,24.09a2.5,2.5,0,1,1,3.66-3.41l6.21,6.66,6.67-6.21a2.5,2.5,0,1,1,3.41,3.65l-8.5,7.92A2.47,2.47,0,0,1,10.42,33.37Z"/></g></g></g></svg>