<svg xmlns="http://www.w3.org/2000/svg" viewBox="0 0 59 59"><title>cafe</title><g id="Layer_2" data-name="Layer 2"><g id="Layer_1-2" data-name="Layer 1"><g id="cafe"><path d="M22.14,59A22.16,22.16,0,0,1,0,36.86V22.92H44.27V36.86A22.16,22.16,0,0,1,22.14,59ZM5,27.92v8.94a17.14,17.14,0,1,0,34.27,0V27.92Z"/><path d="M48.65,43.63H39.27V22.92h9.38a10.36,10.36,0,0,1,0,20.71Zm-4.38-5h4.38a5.36,5.36,0,0,0,0-10.71H44.27Z"/><path d="M9.14,19a2.49,2.49,0,0,1-1.77-.73,7.45,7.45,0,0,1,0-10.54,2.44,2.44,0,0,0,0-3.46A2.5,2.5,0,0,1,10.9.73a7.44,7.44,0,0,1,0,10.54,2.46,2.46,0,0,0,0,3.46,2.5,2.5,0,0,1,0,3.54A2.45,2.45,0,0,1,9.14,19Z"/><path d="M22.14,19a2.49,2.49,0,0,1-1.77-.73,7.45,7.45,0,0,1,0-10.54,2.44,2.44,0,0,0,0-3.46A2.5,2.5,0,1,1,23.9.73a7.44,7.44,0,0,1,0,10.54,2.46,2.46,0,0,0,0,3.46,2.5,2.5,0,0,1,0,3.54A2.45,2.45,0,0,1,22.14,19Z"/><path d="M35.14,19a2.49,2.49,0,0,1-1.77-.73,7.45,7.45,0,0,1,0-10.54,2.44,2.44,0,0,0,0-3.46A2.5,2.5,0,0,1,36.9.73a7.44,7.44,0,0,1,0,10.54,2.46,2.46,0,0,0,0,3.46,2.5,2.5,0,0,1,0,3.54A2.45,2.45,0,0,1,35.14,19Z"/></g></g></g></svg>