<svg xmlns="http://www.w3.org/2000/svg" viewBox="0 0 45 59"><title>calc</title><g id="Layer_2" data-name="Layer 2"><g id="Layer_1-2" data-name="Layer 1"><g id="calc"><path d="M36.5,59H8.5A8.51,8.51,0,0,1,0,50.5V8.5A8.51,8.51,0,0,1,8.5,0h28A8.51,8.51,0,0,1,45,8.5v42A8.51,8.51,0,0,1,36.5,59ZM8.5,5A3.5,3.5,0,0,0,5,8.5v42A3.5,3.5,0,0,0,8.5,54h28A3.5,3.5,0,0,0,40,50.5V8.5A3.5,3.5,0,0,0,36.5,5Z"/><path d="M42.5,22H2.5a2.5,2.5,0,0,1,0-5h40a2.5,2.5,0,0,1,0,5Z"/><path d="M13,34.16H11a2.5,2.5,0,0,1,0-5h2a2.5,2.5,0,1,1,0,5Z"/><path d="M23.5,34.16h-2a2.5,2.5,0,0,1,0-5h2a2.5,2.5,0,0,1,0,5Z"/><path d="M34,34.16H32a2.5,2.5,0,0,1,0-5h2a2.5,2.5,0,1,1,0,5Z"/><path d="M13,46.22H11a2.5,2.5,0,0,1,0-5h2a2.5,2.5,0,0,1,0,5Z"/><path d="M23.5,46.22h-2a2.5,2.5,0,0,1,0-5h2a2.5,2.5,0,0,1,0,5Z"/><path d="M34,46.22H32a2.5,2.5,0,0,1,0-5h2a2.5,2.5,0,0,1,0,5Z"/></g></g></g></svg>