<svg xmlns="http://www.w3.org/2000/svg" viewBox="0 0 59 32.45"><title>call missed outgoing</title><g id="Layer_2" data-name="Layer 2"><g id="Layer_1-2" data-name="Layer 1"><g id="call_missed_outgoing" data-name="call missed outgoing"><path d="M56.5,20.63a2.49,2.49,0,0,1-2.5-2.5V5H40.87a2.5,2.5,0,0,1,0-5H56.5A2.5,2.5,0,0,1,59,2.5V18.13A2.49,2.49,0,0,1,56.5,20.63Z"/><path d="M30,32.45a2.49,2.49,0,0,1-1.77-.73L.73,4.27A2.5,2.5,0,0,1,4.27.73L30,26.42,54.73,1.64a2.5,2.5,0,0,1,3.54,3.53L31.72,31.72A2.49,2.49,0,0,1,30,32.45Z"/></g></g></g></svg>