<svg xmlns="http://www.w3.org/2000/svg" viewBox="0 0 59 22"><title>call end</title><g id="Layer_2" data-name="Layer 2"><g id="Layer_1-2" data-name="Layer 1"><g id="call_end" data-name="call end"><path d="M56.5,22H41.4a2.5,2.5,0,0,1-2.5-2.5V14.39a39.07,39.07,0,0,0-18.8,0V19.5A2.5,2.5,0,0,1,17.6,22H2.5A2.5,2.5,0,0,1,0,19.5V13.16A9.8,9.8,0,0,1,6.53,3.9a69.59,69.59,0,0,1,45.94,0A9.8,9.8,0,0,1,59,13.16V19.5A2.5,2.5,0,0,1,56.5,22ZM43.9,17H54V13.16a4.8,4.8,0,0,0-3.18-4.54,64.59,64.59,0,0,0-42.64,0A4.8,4.8,0,0,0,5,13.16V17H15.1V12.48a2.51,2.51,0,0,1,1.78-2.39,44.08,44.08,0,0,1,25.24,0,2.5,2.5,0,0,1,1.78,2.39Z"/></g></g></g></svg>