<svg xmlns="http://www.w3.org/2000/svg" viewBox="0 0 59 51"><title>camera</title><g id="Layer_2" data-name="Layer 2"><g id="Layer_1-2" data-name="Layer 1"><g id="camera"><path d="M29.5,39A10.5,10.5,0,1,1,40,28.5,10.51,10.51,0,0,1,29.5,39Zm0-16A5.5,5.5,0,1,0,35,28.5,5.51,5.51,0,0,0,29.5,23Z"/><path d="M48.5,51h-38A10.51,10.51,0,0,1,0,40.5v-24A10.51,10.51,0,0,1,10.5,6h6.35l2.08-4.54A2.48,2.48,0,0,1,21.2,0H37.8a2.48,2.48,0,0,1,2.27,1.46L42.15,6H48.5A10.51,10.51,0,0,1,59,16.5v24A10.51,10.51,0,0,1,48.5,51Zm-38-40A5.51,5.51,0,0,0,5,16.5v24A5.51,5.51,0,0,0,10.5,46h38A5.51,5.51,0,0,0,54,40.5v-24A5.51,5.51,0,0,0,48.5,11h-8a2.5,2.5,0,0,1-2.27-1.46L36.19,5H22.81L20.73,9.54A2.5,2.5,0,0,1,18.46,11Z"/></g></g></g></svg>