<svg xmlns="http://www.w3.org/2000/svg" viewBox="0 0 59 59"><title>cancel</title><g id="Layer_2" data-name="Layer 2"><g id="Layer_1-2" data-name="Layer 1"><g id="cancel"><path d="M29.5,59A29.5,29.5,0,1,1,59,29.5,29.53,29.53,0,0,1,29.5,59Zm0-54A24.5,24.5,0,1,0,54,29.5,24.53,24.53,0,0,0,29.5,5Z"/><path d="M19.5,42a2.49,2.49,0,0,1-1.77-.73,2.52,2.52,0,0,1,0-3.54l20-20a2.5,2.5,0,0,1,3.54,3.54l-20,20A2.49,2.49,0,0,1,19.5,42Z"/><path d="M39.5,42a2.49,2.49,0,0,1-1.77-.73l-20-20a2.5,2.5,0,0,1,3.54-3.54l20,20a2.52,2.52,0,0,1,0,3.54A2.49,2.49,0,0,1,39.5,42Z"/></g></g></g></svg>