<svg xmlns="http://www.w3.org/2000/svg" viewBox="0 0 59 46.19"><title>car trailer</title><g id="Layer_2" data-name="Layer 2"><g id="Layer_1-2" data-name="Layer 1"><g id="car_trailer" data-name="car trailer"><path d="M14.05,46.19a7.53,7.53,0,1,1,7.52-7.52A7.54,7.54,0,0,1,14.05,46.19Zm0-10a2.53,2.53,0,1,0,2.52,2.53A2.53,2.53,0,0,0,14.05,36.14Z"/><path d="M47.91,41.17H19.07a2.5,2.5,0,0,1,0-5H45.41V6.52A1.52,1.52,0,0,0,43.89,5H6.52A1.52,1.52,0,0,0,5,6.52V36.17H9a2.5,2.5,0,0,1,0,5H2.5A2.5,2.5,0,0,1,0,38.67V6.52A6.52,6.52,0,0,1,6.52,0H43.89a6.52,6.52,0,0,1,6.52,6.52V38.67A2.5,2.5,0,0,1,47.91,41.17Z"/><path d="M47.91,46.19a2.5,2.5,0,0,1-2.5-2.5v-5a2.49,2.49,0,0,1,2.5-2.5H56.5a2.5,2.5,0,0,1,0,5H50.41v2.52A2.5,2.5,0,0,1,47.91,46.19Z"/><path d="M39.93,41.17H28.77a2.5,2.5,0,0,1-2.5-2.5V18.57a2.5,2.5,0,0,1,2.5-2.5H39.93a2.5,2.5,0,0,1,2.5,2.5v20.1A2.5,2.5,0,0,1,39.93,41.17Zm-8.66-5h6.16V21.07H31.27Z"/><path d="M21.21,24.09H10.05a2.5,2.5,0,0,1-2.5-2.5V12.44a2.5,2.5,0,0,1,2.5-2.5H21.21a2.49,2.49,0,0,1,2.5,2.5v9.15A2.49,2.49,0,0,1,21.21,24.09Zm-8.66-5h6.16V14.94H12.55Z"/></g></g></g></svg>