<svg xmlns="http://www.w3.org/2000/svg" viewBox="0 0 59 54.47"><title>car</title><g id="Layer_2" data-name="Layer 2"><g id="Layer_1-2" data-name="Layer 1"><g id="car"><path d="M56.5,46.47H2.5A2.5,2.5,0,0,1,0,44V25.85a10.54,10.54,0,0,1,1.22-4.92L7.71,6.26A10.49,10.49,0,0,1,17.31,0H41.69a10.51,10.51,0,0,1,9.6,6.26l6.49,14.67A10.57,10.57,0,0,1,59,25.85V44A2.5,2.5,0,0,1,56.5,46.47ZM5,41.47H54V25.85a5.53,5.53,0,0,0-.67-2.63L53.24,23,46.72,8.28a5.5,5.5,0,0,0-5-3.28H17.31a5.5,5.5,0,0,0-5,3.28L5.76,23l-.09.19A5.46,5.46,0,0,0,5,25.85Z"/><path d="M56.5,54.47h-2A2.5,2.5,0,0,1,52,52V44a2.5,2.5,0,0,1,2.5-2.5,2.39,2.39,0,0,1,1,.21,2.39,2.39,0,0,1,1-.21A2.5,2.5,0,0,1,59,44v8A2.5,2.5,0,0,1,56.5,54.47Z"/><path d="M4.5,54.47h-2A2.5,2.5,0,0,1,0,52V44a2.5,2.5,0,0,1,2.5-2.5,2.39,2.39,0,0,1,1,.21,2.39,2.39,0,0,1,1-.21A2.5,2.5,0,0,1,7,44v8A2.5,2.5,0,0,1,4.5,54.47Z"/><circle cx="42" cy="33.89" r="4"/><circle cx="17" cy="33.89" r="4"/><path d="M56.21,26.23H2.79a2.5,2.5,0,0,1,0-5H56.21a2.5,2.5,0,0,1,0,5Z"/></g></g></g></svg>