<svg xmlns="http://www.w3.org/2000/svg" viewBox="0 0 59 49"><title>cast</title><g id="Layer_2" data-name="Layer 2"><g id="Layer_1-2" data-name="Layer 1"><g id="cast"><path d="M48.5,49h-11a2.5,2.5,0,0,1,0-5h11A5.51,5.51,0,0,0,54,38.5v-28A5.51,5.51,0,0,0,48.5,5h-38A5.51,5.51,0,0,0,5,10.5v1a2.5,2.5,0,0,1-5,0v-1A10.51,10.51,0,0,1,10.5,0h38A10.51,10.51,0,0,1,59,10.5v28A10.51,10.51,0,0,1,48.5,49Z"/><path d="M29.5,49A2.5,2.5,0,0,1,27,46.5,24.53,24.53,0,0,0,2.5,22a2.5,2.5,0,0,1,0-5A29.53,29.53,0,0,1,32,46.5,2.5,2.5,0,0,1,29.5,49Z"/><path d="M21.79,49a2.5,2.5,0,0,1-2.5-2.5A16.81,16.81,0,0,0,2.5,29.71a2.5,2.5,0,0,1,0-5A21.82,21.82,0,0,1,24.29,46.5,2.5,2.5,0,0,1,21.79,49Z"/><path d="M14.07,49a2.5,2.5,0,0,1-2.5-2.5A9.08,9.08,0,0,0,2.5,37.43a2.5,2.5,0,0,1,0-5A14.08,14.08,0,0,1,16.57,46.5,2.5,2.5,0,0,1,14.07,49Z"/><path d="M6.36,49H2.5A2.5,2.5,0,0,1,0,46.5V42.64a2.5,2.5,0,0,1,2.5-2.5A6.36,6.36,0,0,1,8.86,46.5,2.5,2.5,0,0,1,6.36,49Z"/></g></g></g></svg>