<svg xmlns="http://www.w3.org/2000/svg" viewBox="0 0 60.2 59.06"><title>cctv-1</title><g id="Layer_2" data-name="Layer 2"><g id="Layer_1-2" data-name="Layer 1"><g id="cctv-1"><path d="M36.48,40.74a2.48,2.48,0,0,1-1.09-.25L9.61,27.92a10.51,10.51,0,0,1-4.83-14l3.89-8a10.5,10.5,0,0,1,14-4.83h0l35,17.09a2.5,2.5,0,0,1,1.38,1.91,2.46,2.46,0,0,1-.82,2.21L38.14,40.12A2.52,2.52,0,0,1,36.48,40.74ZM18.11,5a5.49,5.49,0,0,0-4.95,3.08l-3.89,8a5.49,5.49,0,0,0,2.53,7.35L36.08,35.26,52.2,21,20.51,5.56A5.54,5.54,0,0,0,18.11,5Z"/><path d="M51.44,41.57a8.77,8.77,0,0,1-3.83-.89L40,37a2.5,2.5,0,1,1,2.19-4.49l7.65,3.73a3.76,3.76,0,0,0,5-1.73A3.74,3.74,0,0,0,55,31.6a3.7,3.7,0,0,0-1.9-2.15L50.1,28a2.5,2.5,0,1,1,2.19-4.49l3,1.46a8.75,8.75,0,0,1-1,16.13A8.85,8.85,0,0,1,51.44,41.57Z"/><path d="M4.67,59.06H2.5A2.5,2.5,0,0,1,0,56.56v-16a2.5,2.5,0,0,1,2.5-2.5H4.67A10.34,10.34,0,0,1,15,48.39v.35A10.33,10.33,0,0,1,4.67,59.06Zm.33-16v11a5.33,5.33,0,0,0,5-5.31v-.35A5.33,5.33,0,0,0,5,43.07Z"/><path d="M19,51.06H12.5a2.5,2.5,0,0,1,0-5H19a2.5,2.5,0,0,1,0,5Z"/><path d="M19,51.06a2.44,2.44,0,0,1-1.25-.33,2.5,2.5,0,0,1-.92-3.42l8.49-14.69a2.5,2.5,0,0,1,4.33,2.5L21.2,49.81A2.49,2.49,0,0,1,19,51.06Z"/></g></g></g></svg>