<svg xmlns="http://www.w3.org/2000/svg" viewBox="0 0 59 48.8"><title>cctv-2</title><g id="Layer_2" data-name="Layer 2"><g id="Layer_1-2" data-name="Layer 1"><g id="cctv-2"><path d="M56.5,17H2.5A2.5,2.5,0,0,1,0,14.5V2.5A2.5,2.5,0,0,1,2.5,0h54A2.5,2.5,0,0,1,59,2.5v12A2.5,2.5,0,0,1,56.5,17ZM5,12H54V5H5Z"/><path d="M29.5,48.8A24.66,24.66,0,0,1,4.87,24.17V14.5a2.5,2.5,0,1,1,5,0v9.67a19.63,19.63,0,0,0,39.26,0V14.5a2.5,2.5,0,1,1,5,0v9.67A24.66,24.66,0,0,1,29.5,48.8Z"/><path d="M40.78,45.71a2.5,2.5,0,0,1-2.5-2.5V35.37a8.78,8.78,0,0,0-17.56,0v7.84a2.5,2.5,0,0,1-5,0V35.37a13.78,13.78,0,0,1,27.56,0v7.84A2.5,2.5,0,0,1,40.78,45.71Z"/><circle cx="29.5" cy="35.34" r="4"/></g></g></g></svg>