<svg xmlns="http://www.w3.org/2000/svg" viewBox="0 0 42.24 59"><title>chair</title><g id="Layer_2" data-name="Layer 2"><g id="Layer_1-2" data-name="Layer 1"><g id="chair"><path d="M22,42.63a2.49,2.49,0,0,1-1.29-.36L1.21,30.49a2.5,2.5,0,0,1,0-4.28L19,15.45a2.47,2.47,0,0,1,2.59,0L41,27.23a2.51,2.51,0,0,1,0,4.28L23.26,42.27A2.52,2.52,0,0,1,22,42.63ZM7.33,28.35,22,37.21l13-7.84L20.28,20.51Z"/><path d="M2.5,19.49a2.5,2.5,0,0,1-1.29-4.64L19,4.08a2.5,2.5,0,0,1,2.59,4.28L3.8,19.12A2.49,2.49,0,0,1,2.5,19.49Z"/><path d="M2.5,44A2.49,2.49,0,0,1,1.21,39.4l10.88-6.6a2.5,2.5,0,1,1,2.59,4.28L3.8,43.67A2.48,2.48,0,0,1,2.5,44Z"/><path d="M22,55.82a2.52,2.52,0,0,1-1.29-.36L1.21,43.67A2.5,2.5,0,1,1,3.8,39.4L23.26,51.18A2.5,2.5,0,0,1,22,55.82Z"/><path d="M39.74,47.23a2.42,2.42,0,0,1-1.29-.36L25.76,39.19a2.5,2.5,0,1,1,2.59-4.28L41,42.59a2.5,2.5,0,0,1-1.3,4.64Z"/><path d="M20.28,20.08a2.5,2.5,0,0,1-2.5-2.5V2.5a2.5,2.5,0,0,1,5,0V17.58A2.5,2.5,0,0,1,20.28,20.08Z"/><path d="M2.5,54A2.5,2.5,0,0,1,0,51.5V10a2.5,2.5,0,0,1,5,0V51.5A2.5,2.5,0,0,1,2.5,54Z"/><path d="M22,59a2.5,2.5,0,0,1-2.5-2.5V40.13a2.5,2.5,0,0,1,5,0V56.5A2.5,2.5,0,0,1,22,59Z"/><path d="M39.74,50.82a2.5,2.5,0,0,1-2.5-2.5V29.37a2.5,2.5,0,1,1,5,0v19A2.5,2.5,0,0,1,39.74,50.82Z"/></g></g></g></svg>