<svg xmlns="http://www.w3.org/2000/svg" viewBox="0 0 47.36 59"><title>charger</title><g id="Layer_2" data-name="Layer 2"><g id="Layer_1-2" data-name="Layer 1"><g id="charger"><path d="M23,43H4.5A4.51,4.51,0,0,1,0,38.48V14.41a4.51,4.51,0,0,1,4.5-4.5H23a4.51,4.51,0,0,1,4.5,4.5V38.48A4.51,4.51,0,0,1,23,43ZM5,38H22.47V14.91H5ZM23,14.91h0Z"/><path d="M18.84,14.91a2.5,2.5,0,0,1-2.5-2.5V5H11.13v7.41a2.5,2.5,0,1,1-5,0V2.5A2.5,2.5,0,0,1,8.63,0H18.84a2.5,2.5,0,0,1,2.5,2.5v9.91A2.5,2.5,0,0,1,18.84,14.91Z"/><path d="M17.73,47.16h-8a2.5,2.5,0,0,1-2.5-2.5V40.48a2.5,2.5,0,0,1,5,0v1.68h3V40.48a2.5,2.5,0,0,1,5,0v4.18A2.5,2.5,0,0,1,17.73,47.16Z"/><path d="M36.69,59H21.9A10.76,10.76,0,0,1,11.23,48.18V44.66a2.5,2.5,0,0,1,5,0v3.52A5.76,5.76,0,0,0,21.9,54H36.69a5.76,5.76,0,0,0,5.67-5.82V12.72a2.5,2.5,0,1,1,5,0V48.18A10.76,10.76,0,0,1,36.69,59Z"/><path d="M11.87,35.71a2.51,2.51,0,0,1-2-4L11.94,29H10.51a2.51,2.51,0,0,1-2-4l5.11-6.78a2.5,2.5,0,1,1,4,3L15.52,24H17a2.5,2.5,0,0,1,2,4l-5.08,6.75A2.5,2.5,0,0,1,11.87,35.71Z"/></g></g></g></svg>