<svg xmlns="http://www.w3.org/2000/svg" viewBox="0 0 59 59"><title>check circle</title><g id="Layer_2" data-name="Layer 2"><g id="Layer_1-2" data-name="Layer 1"><g id="check_circle" data-name="check circle"><path d="M29.5,59A29.5,29.5,0,1,1,59,29.5,29.53,29.53,0,0,1,29.5,59Zm0-54A24.5,24.5,0,1,0,54,29.5,24.53,24.53,0,0,0,29.5,5Z"/><path d="M26.37,39.24a2.49,2.49,0,0,1-1.77-.73l-7.22-7.22a2.5,2.5,0,0,1,3.53-3.54l5.46,5.46L38.09,21.49A2.5,2.5,0,1,1,41.62,25L28.14,38.51A2.49,2.49,0,0,1,26.37,39.24Z"/></g></g></g></svg>