<svg xmlns="http://www.w3.org/2000/svg" viewBox="0 0 59 59"><title>cloud off</title><g id="Layer_2" data-name="Layer 2"><g id="Layer_1-2" data-name="Layer 1"><g id="cloud_off" data-name="cloud off"><path d="M45.5,50h-32a13.5,13.5,0,0,1-1.89-26.87,17.45,17.45,0,0,1,3.55-7.56,2.5,2.5,0,0,1,3.89,3.15,12.34,12.34,0,0,0-2.75,7A2.49,2.49,0,0,1,13.81,28H13.5a8.5,8.5,0,0,0,0,17h32a9.33,9.33,0,0,0,1.4-.11,2.5,2.5,0,1,1,.82,4.93A13.76,13.76,0,0,1,45.5,50Z"/><path d="M56.16,41.69a2.7,2.7,0,0,1-.62-.08,2.5,2.5,0,0,1-1.8-3A8.71,8.71,0,0,0,54,36.46,8.51,8.51,0,0,0,45.5,28H43.73a2.49,2.49,0,0,1-2.49-2.32A12.53,12.53,0,0,0,28.77,14a2.5,2.5,0,0,1,0-5A17.56,17.56,0,0,1,45.9,23,13.51,13.51,0,0,1,59,36.46a13.35,13.35,0,0,1-.42,3.34A2.51,2.51,0,0,1,56.16,41.69Z"/><path d="M56.5,59a2.49,2.49,0,0,1-1.77-.73l-54-54A2.5,2.5,0,0,1,4.27.73l54,54a2.52,2.52,0,0,1,0,3.54A2.49,2.49,0,0,1,56.5,59Z"/></g></g></g></svg>