<svg xmlns="http://www.w3.org/2000/svg" viewBox="0 0 59 58.46"><title>cloud download</title><g id="Layer_2" data-name="Layer 2"><g id="Layer_1-2" data-name="Layer 1"><g id="cloud_download" data-name="cloud download"><path d="M45.5,40.92h-6a2.5,2.5,0,0,1,0-5h6a8.5,8.5,0,0,0,0-17H43.73a2.49,2.49,0,0,1-2.49-2.32,12.5,12.5,0,0,0-24.94,0,2.49,2.49,0,0,1-2.49,2.32H13.5a8.5,8.5,0,0,0,0,17h6a2.5,2.5,0,0,1,0,5h-6a13.5,13.5,0,0,1-1.89-26.87,17.5,17.5,0,0,1,34.29-.12,13.5,13.5,0,0,1-.4,27Z"/><path d="M29.5,58.46A2.5,2.5,0,0,1,27,56V25a2.5,2.5,0,0,1,5,0V56A2.5,2.5,0,0,1,29.5,58.46Z"/><path d="M29.5,58.46a2.49,2.49,0,0,1-1.77-.73l-8-8a2.5,2.5,0,1,1,3.54-3.54l6.23,6.24,6.23-6.24a2.5,2.5,0,1,1,3.54,3.54l-8,8A2.49,2.49,0,0,1,29.5,58.46Z"/></g></g></g></svg>