<svg xmlns="http://www.w3.org/2000/svg" viewBox="0 0 59 48.96"><title>cloud upload</title><g id="Layer_2" data-name="Layer 2"><g id="Layer_1-2" data-name="Layer 1"><g id="cloud_upload" data-name="cloud upload"><path d="M29.5,49a2.5,2.5,0,0,1-2.5-2.5v-26a2.5,2.5,0,0,1,5,0v26A2.5,2.5,0,0,1,29.5,49Z"/><path d="M37.5,31a2.49,2.49,0,0,1-1.77-.73L29.5,24l-6.23,6.23a2.5,2.5,0,0,1-3.54-3.54l8-8a2.52,2.52,0,0,1,3.54,0l8,8a2.52,2.52,0,0,1,0,3.54A2.49,2.49,0,0,1,37.5,31Z"/><path d="M45.5,40.92h-6a2.5,2.5,0,0,1,0-5h6a8.5,8.5,0,0,0,0-17H43.73a2.49,2.49,0,0,1-2.49-2.32,12.5,12.5,0,0,0-24.94,0,2.49,2.49,0,0,1-2.49,2.32H13.5a8.5,8.5,0,0,0,0,17h6a2.5,2.5,0,0,1,0,5h-6a13.5,13.5,0,0,1-1.89-26.87,17.5,17.5,0,0,1,34.29-.12,13.5,13.5,0,0,1-.4,27Z"/></g></g></g></svg>