<svg xmlns="http://www.w3.org/2000/svg" viewBox="0 0 59 45"><title>cloudy</title><g id="Layer_2" data-name="Layer 2"><g id="Layer_1-2" data-name="Layer 1"><g id="cloudy"><path d="M36.5,9.44A2.49,2.49,0,0,1,34,6.94V2.5a2.5,2.5,0,0,1,5,0V6.94A2.49,2.49,0,0,1,36.5,9.44Z"/><path d="M56.5,25H52.06a2.5,2.5,0,0,1,0-5H56.5a2.5,2.5,0,0,1,0,5Z"/><path d="M47.5,14a2.49,2.49,0,0,1-1.77-.73,2.52,2.52,0,0,1,0-3.54l2.1-2.09a2.5,2.5,0,1,1,3.53,3.53l-2.09,2.1A2.49,2.49,0,0,1,47.5,14Z"/><path d="M25.5,14a2.49,2.49,0,0,1-1.77-.73l-2.09-2.1a2.5,2.5,0,0,1,3.53-3.53l2.1,2.09a2.52,2.52,0,0,1,0,3.54A2.49,2.49,0,0,1,25.5,14Z"/><path d="M49.59,38.09a2.47,2.47,0,0,1-1.76-.73l-2.1-2.09a2.5,2.5,0,1,1,3.54-3.54l2.09,2.1a2.5,2.5,0,0,1-1.77,4.26Z"/><path d="M32.76,45H10.24A10.24,10.24,0,0,1,8.3,24.7a13.05,13.05,0,0,1,25.34-.14A10.24,10.24,0,0,1,32.76,45ZM10.24,29.52a5.24,5.24,0,0,0,0,10.48H32.76a5.24,5.24,0,1,0,0-10.48H31.51A2.5,2.5,0,0,1,29,27.2,8.06,8.06,0,0,0,13,27.2a2.5,2.5,0,0,1-2.49,2.32Z"/><path d="M40.29,33.24l-1.66-4.71a6.39,6.39,0,1,0-8.24-7.91l-4.78-1.46A11.39,11.39,0,1,1,40.29,33.24Z"/></g></g></g></svg>