<svg xmlns="http://www.w3.org/2000/svg" viewBox="0 0 59 37"><title>code</title><g id="Layer_2" data-name="Layer 2"><g id="Layer_1-2" data-name="Layer 1"><g id="code"><path d="M40.5,37a2.49,2.49,0,0,1-1.77-.73,2.52,2.52,0,0,1,0-3.54L53,18.5,38.73,4.27A2.5,2.5,0,0,1,42.27.73l16,16a2.52,2.52,0,0,1,0,3.54l-16,16A2.49,2.49,0,0,1,40.5,37Z"/><path d="M18.5,37a2.49,2.49,0,0,1-1.77-.73l-16-16a2.52,2.52,0,0,1,0-3.54l16-16a2.5,2.5,0,0,1,3.54,3.54L6,18.5,20.27,32.73a2.52,2.52,0,0,1,0,3.54A2.49,2.49,0,0,1,18.5,37Z"/></g></g></g></svg>