<svg xmlns="http://www.w3.org/2000/svg" viewBox="0 0 59 59"><title>computer</title><g id="Layer_2" data-name="Layer 2"><g id="Layer_1-2" data-name="Layer 1"><g id="computer"><path d="M19.35,59H6.5A6.51,6.51,0,0,1,0,52.5V6.5A6.51,6.51,0,0,1,6.5,0H19.35a6.51,6.51,0,0,1,6.5,6.5v46A6.51,6.51,0,0,1,19.35,59ZM6.5,5A1.5,1.5,0,0,0,5,6.5v46A1.5,1.5,0,0,0,6.5,54H19.35a1.5,1.5,0,0,0,1.5-1.5V6.5A1.5,1.5,0,0,0,19.35,5Z"/><path d="M50.65,46.23H23.35v-5h27.3A3.35,3.35,0,0,0,54,37.88V19.62a3.35,3.35,0,0,0-3.35-3.35H23.35v-5h27.3A8.35,8.35,0,0,1,59,19.62V37.88A8.35,8.35,0,0,1,50.65,46.23Z"/><path d="M43.54,55.73H30a2.5,2.5,0,1,1,0-5H43.54a2.5,2.5,0,0,1,0,5Z"/><path d="M36.77,55.73a2.5,2.5,0,0,1-2.5-2.5v-9.5a2.5,2.5,0,0,1,5,0v9.5A2.5,2.5,0,0,1,36.77,55.73Z"/><path d="M23.35,19.13H2.5a2.5,2.5,0,0,1,0-5H23.35a2.5,2.5,0,1,1,0,5Z"/><path d="M23.35,30.13H2.5a2.5,2.5,0,0,1,0-5H23.35a2.5,2.5,0,0,1,0,5Z"/><path d="M15.92,41.13h-6a2.5,2.5,0,0,1,0-5h6a2.5,2.5,0,1,1,0,5Z"/><path d="M13.42,49.13h-1a2.5,2.5,0,0,1,0-5h1a2.5,2.5,0,1,1,0,5Z"/></g></g></g></svg>