<svg xmlns="http://www.w3.org/2000/svg" viewBox="0 0 59 44.58"><title>concrete truck</title><g id="Layer_2" data-name="Layer 2"><g id="Layer_1-2" data-name="Layer 1"><g id="concrete_truck" data-name="concrete truck"><path d="M22.93,26.54a11.55,11.55,0,0,1-5.57-1.43L1.56,16.46A2.51,2.51,0,0,1,.41,13.41L4.69,1.64A2.51,2.51,0,0,1,7.53.05L25.2,3.57a11.6,11.6,0,0,1,8.62,15.34h0a11.61,11.61,0,0,1-10.89,7.63ZM5.84,13.1l13.92,7.63a6.6,6.6,0,0,0,9.36-3.53h0a6.58,6.58,0,0,0-4.9-8.72L8.66,5.37Z"/><path d="M47.51,44.58A6.62,6.62,0,1,1,54.12,38,6.62,6.62,0,0,1,47.51,44.58Zm0-8.23A1.62,1.62,0,1,0,49.12,38,1.61,1.61,0,0,0,47.51,36.35Z"/><path d="M21.87,44.58A6.62,6.62,0,1,1,28.49,38,6.63,6.63,0,0,1,21.87,44.58Zm0-8.23a1.62,1.62,0,0,0,0,3.23,1.62,1.62,0,1,0,0-3.23Z"/><path d="M11.18,44.58A6.62,6.62,0,1,1,17.79,38,6.63,6.63,0,0,1,11.18,44.58Zm0-8.23A1.62,1.62,0,1,0,12.79,38,1.61,1.61,0,0,0,11.18,36.35Z"/><path d="M56.5,40.46H51.63a2.5,2.5,0,0,1,0-5H54V20l-8-9.24H41V35.46h2.36a2.5,2.5,0,0,1,0,5H38.52A2.49,2.49,0,0,1,36,38V8.28a2.49,2.49,0,0,1,2.5-2.5h8.57A2.51,2.51,0,0,1,49,6.64l9.41,10.81A2.52,2.52,0,0,1,59,19.09V38A2.5,2.5,0,0,1,56.5,40.46Z"/><path d="M38.52,40.46H26a2.5,2.5,0,0,1,0-5H38.52a2.5,2.5,0,0,1,0,5Z"/><path d="M56.5,23.42h-18a2.5,2.5,0,0,1,0-5h18a2.5,2.5,0,0,1,0,5Z"/><path d="M6.8,29.67a2.5,2.5,0,0,1-2.5-2.5V16.48a2.5,2.5,0,0,1,5,0V27.17A2.5,2.5,0,0,1,6.8,29.67Z"/><path d="M7.07,40.46H2.5A2.5,2.5,0,0,1,0,38V28.09a2.5,2.5,0,0,1,2.5-2.5h36a2.5,2.5,0,0,1,0,5H5v4.87H7.07a2.5,2.5,0,0,1,0,5Z"/></g></g></g></svg>