<svg xmlns="http://www.w3.org/2000/svg" viewBox="0 0 59 59"><title>confetti</title><g id="Layer_2" data-name="Layer 2"><g id="Layer_1-2" data-name="Layer 1"><g id="confetti"><path d="M2.5,59A2.5,2.5,0,0,1,.21,55.49L15.55,20.75A2.49,2.49,0,0,1,19.6,20L39,39.4a2.51,2.51,0,0,1,.69,2.23,2.47,2.47,0,0,1-1.45,1.82L3.51,58.79A2.58,2.58,0,0,1,2.5,59ZM18.65,26.11,7.39,51.61l25.5-11.26Z"/><path d="M33.06,28.44a2.49,2.49,0,0,1-1.77-.73,2.52,2.52,0,0,1,0-3.54l19.05-19a2.5,2.5,0,1,1,3.53,3.53l-19,19.05A2.49,2.49,0,0,1,33.06,28.44Z"/><path d="M56.5,26.74A2.49,2.49,0,0,1,54.73,26,4.77,4.77,0,0,0,48,26a2.5,2.5,0,1,1-3.54-3.53,9.78,9.78,0,0,1,13.82,0,2.5,2.5,0,0,1-1.77,4.26Z"/><path d="M52.48,37.25a2.18,2.18,0,0,1-.61-.08L41.54,34.59a2.5,2.5,0,0,1,1.22-4.85l10.33,2.58a2.5,2.5,0,0,1-.61,4.93Z"/><path d="M34.76,15.28A2.5,2.5,0,0,1,33,11a4.77,4.77,0,0,0,0-6.74A2.5,2.5,0,0,1,36.52.73a9.78,9.78,0,0,1,0,13.82A2.45,2.45,0,0,1,34.76,15.28Z"/><path d="M26.84,19.35a2.52,2.52,0,0,1-2.43-1.89L21.83,7.13a2.5,2.5,0,0,1,4.85-1.22l2.58,10.33a2.49,2.49,0,0,1-1.82,3A2.06,2.06,0,0,1,26.84,19.35Z"/></g></g></g></svg>