<svg xmlns="http://www.w3.org/2000/svg" viewBox="0 0 51 59"><title>copy</title><g id="Layer_2" data-name="Layer 2"><g id="Layer_1-2" data-name="Layer 1"><g id="copy"><path d="M40.5,59h-18A10.51,10.51,0,0,1,12,48.5v-26A10.51,10.51,0,0,1,22.5,12h18A10.51,10.51,0,0,1,51,22.5v26A10.51,10.51,0,0,1,40.5,59Zm-18-42A5.51,5.51,0,0,0,17,22.5v26A5.51,5.51,0,0,0,22.5,54h18A5.51,5.51,0,0,0,46,48.5v-26A5.51,5.51,0,0,0,40.5,17Z"/><path d="M2.5,39A2.5,2.5,0,0,1,0,36.5v-26A10.51,10.51,0,0,1,10.5,0h20a2.5,2.5,0,0,1,0,5h-20A5.51,5.51,0,0,0,5,10.5v26A2.5,2.5,0,0,1,2.5,39Z"/></g></g></g></svg>