<svg xmlns="http://www.w3.org/2000/svg" viewBox="0 0 59 39"><title>coupon-1</title><g id="Layer_2" data-name="Layer 2"><g id="Layer_1-2" data-name="Layer 1"><g id="coupon-1"><path d="M56.5,31a11.5,11.5,0,0,1,0-23,2.5,2.5,0,0,1,0,5,6.5,6.5,0,0,0,0,13,2.5,2.5,0,0,1,0,5Z"/><path d="M2.5,31a2.5,2.5,0,0,1,0-5,6.5,6.5,0,0,0,0-13,2.5,2.5,0,0,1,0-5,11.5,11.5,0,0,1,0,23Z"/><path d="M56.5,13A2.5,2.5,0,0,1,54,10.5V5H5v5.5a2.5,2.5,0,0,1-5,0v-8A2.5,2.5,0,0,1,2.5,0h54A2.5,2.5,0,0,1,59,2.5v8A2.5,2.5,0,0,1,56.5,13Z"/><path d="M56.5,39H2.5A2.5,2.5,0,0,1,0,36.5v-8a2.5,2.5,0,0,1,5,0V34H54V28.5a2.5,2.5,0,0,1,5,0v8A2.5,2.5,0,0,1,56.5,39Z"/><path d="M39,31.5a2.49,2.49,0,0,1-1.77-.73l-19-19a2.5,2.5,0,0,1,3.54-3.54l19,19a2.52,2.52,0,0,1,0,3.54A2.49,2.49,0,0,1,39,31.5Z"/><path d="M37.13,16.81a2.49,2.49,0,0,1-1.76-.73l-2.45-2.45a2.5,2.5,0,1,1,3.54-3.53l2.44,2.44a2.5,2.5,0,0,1,0,3.54A2.53,2.53,0,0,1,37.13,16.81Z"/><path d="M24.31,29.63a2.49,2.49,0,0,1-1.77-.73L20.1,26.46a2.5,2.5,0,0,1,3.53-3.54l2.45,2.45a2.5,2.5,0,0,1-1.77,4.26Z"/></g></g></g></svg>