<svg xmlns="http://www.w3.org/2000/svg" viewBox="0 0 59 59"><title>coupon-2</title><g id="Layer_2" data-name="Layer 2"><g id="Layer_1-2" data-name="Layer 1"><g id="coupon-2"><path d="M40.54,54.09a2.48,2.48,0,0,1-1.76-.73,10.32,10.32,0,0,1,0-14.58,10.31,10.31,0,0,1,14.58,0,2.5,2.5,0,1,1-3.54,3.53,5.32,5.32,0,0,0-7.51,0,5.32,5.32,0,0,0,0,7.51,2.5,2.5,0,0,1-1.77,4.27Z"/><path d="M12.93,23.24a10.28,10.28,0,0,1-7.29-3,2.5,2.5,0,1,1,3.54-3.53,5.31,5.31,0,0,0,9.06-3.76,5.26,5.26,0,0,0-1.55-3.75,2.5,2.5,0,1,1,3.53-3.54,10.31,10.31,0,0,1-7.29,17.6Z"/><path d="M51.59,43.05a2.51,2.51,0,0,1-1.77-4.27L53,35.64,23.36,6,20.22,9.18a2.5,2.5,0,1,1-3.53-3.54L21.6.73a2.5,2.5,0,0,1,3.53,0L58.27,33.87a2.5,2.5,0,0,1,0,3.53l-4.91,4.91A2.5,2.5,0,0,1,51.59,43.05Z"/><path d="M35.64,59a2.49,2.49,0,0,1-1.77-.73L.73,25.13a2.5,2.5,0,0,1,0-3.53l4.91-4.91a2.5,2.5,0,1,1,3.54,3.53L6,23.36,35.64,53l3.14-3.14a2.5,2.5,0,0,1,3.53,3.54L37.4,58.27A2.47,2.47,0,0,1,35.64,59Z"/><path d="M29.5,43.66a2.5,2.5,0,0,1-2.5-2.5V17.84a2.5,2.5,0,0,1,5,0V41.16A2.5,2.5,0,0,1,29.5,43.66Z"/><path d="M37.37,33.5a2.5,2.5,0,0,1-2.5-2.5V28a2.5,2.5,0,0,1,5,0v3A2.5,2.5,0,0,1,37.37,33.5Z"/><path d="M21.63,33.5a2.5,2.5,0,0,1-2.5-2.5V28a2.5,2.5,0,0,1,5,0v3A2.5,2.5,0,0,1,21.63,33.5Z"/></g></g></g></svg>