<svg xmlns="http://www.w3.org/2000/svg" viewBox="0 0 59 59"><title>creative cloud</title><g id="Layer_2" data-name="Layer 2"><g id="Layer_1-2" data-name="Layer 1"><g id="creative_cloud" data-name="creative cloud"><path d="M21.05,43.41a11.05,11.05,0,1,1,7.82-18.87l3.6,3.6a2.5,2.5,0,0,1-3.53,3.53l-3.6-3.6a6.06,6.06,0,0,0-8.57,8.56,6,6,0,0,0,4.42,1.78h.06a2.5,2.5,0,0,1,.05,5Z"/><path d="M35.09,43.4a13.86,13.86,0,0,1-9.83-4.07L20.91,35a2.5,2.5,0,1,1,3.54-3.53L28.8,35.8a8.91,8.91,0,1,0,2.86-14.52,2.5,2.5,0,0,1-1.93-4.61A13.9,13.9,0,1,1,35.09,43.4Z"/><path d="M48.5,59h-38A10.51,10.51,0,0,1,0,48.5v-38A10.51,10.51,0,0,1,10.5,0h38A10.51,10.51,0,0,1,59,10.5v38A10.51,10.51,0,0,1,48.5,59ZM10.5,5A5.51,5.51,0,0,0,5,10.5v38A5.51,5.51,0,0,0,10.5,54h38A5.51,5.51,0,0,0,54,48.5v-38A5.51,5.51,0,0,0,48.5,5Z"/></g></g></g></svg>