<svg xmlns="http://www.w3.org/2000/svg" viewBox="0 0 59 45"><title>credit card</title><g id="Layer_2" data-name="Layer 2"><g id="Layer_1-2" data-name="Layer 1"><g id="credit_card" data-name="credit card"><path d="M48.5,45h-38A10.51,10.51,0,0,1,0,34.5v-24A10.51,10.51,0,0,1,10.5,0h38A10.51,10.51,0,0,1,59,10.5v24A10.51,10.51,0,0,1,48.5,45ZM10.5,5A5.51,5.51,0,0,0,5,10.5v24A5.51,5.51,0,0,0,10.5,40h38A5.51,5.51,0,0,0,54,34.5v-24A5.51,5.51,0,0,0,48.5,5Z"/><path d="M56.5,18.33H2.5a2.5,2.5,0,0,1,0-5h54a2.5,2.5,0,1,1,0,5Z"/><path d="M26.5,31.67h-16a2.5,2.5,0,0,1,0-5h16a2.5,2.5,0,0,1,0,5Z"/></g></g></g></svg>