<svg xmlns="http://www.w3.org/2000/svg" viewBox="0 0 59 58"><title>curtain</title><g id="Layer_2" data-name="Layer 2"><g id="Layer_1-2" data-name="Layer 1"><g id="curtain"><path d="M56.5,5H2.5a2.5,2.5,0,0,1,0-5h54a2.5,2.5,0,0,1,0,5Z"/><path d="M52.5,38.21H46.16a2.53,2.53,0,0,1-1.5-.5A31.27,31.27,0,0,1,32,12.46V2.5a2.5,2.5,0,0,1,5,0v10A26.29,26.29,0,0,0,47,33.21H52.5a2.5,2.5,0,0,1,0,5Z"/><path d="M52.5,58H41.43a2.5,2.5,0,0,1-2.5-2.5V52c0-6.5,1.91-12,6.18-17.73a2.5,2.5,0,1,1,4,3c-3.63,4.92-5.19,9.33-5.19,14.76v1H50V2.5a2.5,2.5,0,0,1,5,0v53A2.5,2.5,0,0,1,52.5,58Z"/><path d="M12.84,38.21H6.5a2.5,2.5,0,0,1,0-5H12A26.3,26.3,0,0,0,22,12.46V2.5a2.5,2.5,0,0,1,5,0v10A31.27,31.27,0,0,1,14.34,37.71,2.53,2.53,0,0,1,12.84,38.21Z"/><path d="M17.57,58H6.5A2.5,2.5,0,0,1,4,55.5V2.5a2.5,2.5,0,0,1,5,0V53h6.07V52c0-5.43-1.56-9.84-5.2-14.76a2.5,2.5,0,0,1,4-3C18.16,40,20.07,45.45,20.07,52V55.5A2.5,2.5,0,0,1,17.57,58Z"/></g></g></g></svg>