<svg xmlns="http://www.w3.org/2000/svg" viewBox="0 0 59 59"><title>dashboard</title><g id="Layer_2" data-name="Layer 2"><g id="Layer_1-2" data-name="Layer 1"><g id="dashboard"><path d="M23.5,18H2.5A2.5,2.5,0,0,1,0,15.5V2.5A2.5,2.5,0,0,1,2.5,0h21A2.5,2.5,0,0,1,26,2.5v13A2.5,2.5,0,0,1,23.5,18ZM5,13H21V5H5Z"/><path d="M56.5,35h-21A2.5,2.5,0,0,1,33,32.5V2.5A2.5,2.5,0,0,1,35.5,0h21A2.5,2.5,0,0,1,59,2.5v30A2.5,2.5,0,0,1,56.5,35ZM38,30H54V5H38Z"/><path d="M23.5,59H2.5A2.5,2.5,0,0,1,0,56.5v-30A2.5,2.5,0,0,1,2.5,24h21A2.5,2.5,0,0,1,26,26.5v30A2.5,2.5,0,0,1,23.5,59ZM5,54H21V29H5Z"/><path d="M56.5,59h-21A2.5,2.5,0,0,1,33,56.5v-13A2.5,2.5,0,0,1,35.5,41h21A2.5,2.5,0,0,1,59,43.5v13A2.5,2.5,0,0,1,56.5,59ZM38,54H54V46H38Z"/></g></g></g></svg>