<svg xmlns="http://www.w3.org/2000/svg" viewBox="0 0 55.78 59"><title>delete</title><g id="Layer_2" data-name="Layer 2"><g id="Layer_1-2" data-name="Layer 1"><g id="delete"><path d="M35.56,59H20.21a10.08,10.08,0,0,1-10-9.18L7.18,13.52l5-.42,3.05,36.3a5,5,0,0,0,5,4.6H35.56a5.06,5.06,0,0,0,5-4.6l3-36.3,5,.42-3.05,36.3A10.08,10.08,0,0,1,35.56,59Z"/><path d="M53.28,15.81H2.5a2.5,2.5,0,0,1,0-5H53.28a2.5,2.5,0,0,1,0,5Z"/><path d="M41.2,15.81h-5v-2.5A8.32,8.32,0,0,0,27.89,5a8.42,8.42,0,0,0-8.31,8.31v2.5h-5v-2.5a13.31,13.31,0,0,1,26.62,0Z"/><path d="M32.56,45.39h-.17a2.5,2.5,0,0,1-2.33-2.66l1-14.41a2.5,2.5,0,1,1,5,.33l-1,14.41A2.51,2.51,0,0,1,32.56,45.39Z"/><path d="M23.22,45.39a2.5,2.5,0,0,1-2.49-2.34l-1-14.41a2.5,2.5,0,1,1,5-.33l1,14.41a2.5,2.5,0,0,1-2.33,2.66Z"/></g></g></g></svg>