<svg xmlns="http://www.w3.org/2000/svg" viewBox="0 0 42 59"><title>directions</title><g id="Layer_2" data-name="Layer 2"><g id="Layer_1-2" data-name="Layer 1"><g id="directions"><path d="M29.5,42a2.49,2.49,0,0,1-1.77-.73,2.52,2.52,0,0,1,0-3.54L36,29.5l-8.23-8.23a2.5,2.5,0,0,1,3.54-3.54l10,10a2.52,2.52,0,0,1,0,3.54l-10,10A2.49,2.49,0,0,1,29.5,42Z"/><path d="M22.5,15a2.49,2.49,0,0,1-1.77-.73L12.5,6,4.27,14.27A2.5,2.5,0,0,1,.73,10.73l10-10a2.52,2.52,0,0,1,3.54,0l10,10a2.52,2.52,0,0,1,0,3.54A2.49,2.49,0,0,1,22.5,15Z"/><path d="M12.5,27.22a2.5,2.5,0,0,1-2.5-2.5v-22a2.5,2.5,0,0,1,5,0v22A2.5,2.5,0,0,1,12.5,27.22Z"/><path d="M12.5,59A2.5,2.5,0,0,1,10,56.5V43A16,16,0,0,1,26,27H39.5a2.5,2.5,0,0,1,0,5H26A11,11,0,0,0,15,43V56.5A2.5,2.5,0,0,1,12.5,59Z"/></g></g></g></svg>