<svg xmlns="http://www.w3.org/2000/svg" viewBox="0 0 56.71 58.99"><title>discount</title><g id="Layer_2" data-name="Layer 2"><g id="Layer_1-2" data-name="Layer 1"><g id="discount"><path d="M28.35,59A6.07,6.07,0,0,1,24,57.21L20.9,54.08a1.1,1.1,0,0,0-1-.31l-4.39.69a6.12,6.12,0,0,1-7-5.08L7.87,45a1.14,1.14,0,0,0-.59-.82l-3.95-2A6.13,6.13,0,0,1,.66,34l2-4a1.12,1.12,0,0,0,0-1L.66,25a6.13,6.13,0,0,1,2.67-8.21l4-2A1.12,1.12,0,0,0,7.87,14l.7-4.38a6.11,6.11,0,0,1,7-5.07l4.38.68a1.11,1.11,0,0,0,1-.31L24,1.78a6.13,6.13,0,0,1,8.63,0l3.14,3.13a1.1,1.1,0,0,0,1,.31l4.38-.68a6.12,6.12,0,0,1,7,5.07l.7,4.38a1.09,1.09,0,0,0,.59.82l4,2A6.13,6.13,0,0,1,56.05,25L54,29h0a1.12,1.12,0,0,0,0,1l2,4a6.14,6.14,0,0,1-2.67,8.22l-4,2a1.11,1.11,0,0,0-.59.82l-.7,4.38a6.13,6.13,0,0,1-7,5.08l-4.38-.69a1.1,1.1,0,0,0-1,.31l-3.14,3.13A6.08,6.08,0,0,1,28.35,59ZM20.1,48.75a6.16,6.16,0,0,1,4.33,1.79l3.14,3.13a1.12,1.12,0,0,0,1.57,0l3.14-3.13a6.13,6.13,0,0,1,5.27-1.71l4.38.69a1.12,1.12,0,0,0,1.27-.93l.7-4.38a6.15,6.15,0,0,1,3.25-4.48l4-2a1.1,1.1,0,0,0,.49-1.49l-2-4a6.12,6.12,0,0,1,0-5.53l2-4a1.11,1.11,0,0,0-.49-1.49l-4-2a6.13,6.13,0,0,1-3.25-4.48l-.7-4.38a1.11,1.11,0,0,0-1.27-.92l-4.38.68a6.15,6.15,0,0,1-5.27-1.71L29.14,5.32a1.12,1.12,0,0,0-1.57,0L24.43,8.45a6.09,6.09,0,0,1-5.27,1.71l-4.38-.68a1.1,1.1,0,0,0-1.27.92l-.7,4.38a6.16,6.16,0,0,1-3.26,4.48l-4,2a1.11,1.11,0,0,0-.48,1.49l2,4a6.12,6.12,0,0,1,0,5.53l-2,4a1.11,1.11,0,0,0,.48,1.49l4,2a6.16,6.16,0,0,1,3.26,4.48l.7,4.38a1.11,1.11,0,0,0,1.27.93l4.38-.69A6.07,6.07,0,0,1,20.1,48.75ZM51.81,27.86h0Z"/><path d="M37.85,41.5a2.46,2.46,0,0,1-1.76-.74l-19-19a2.5,2.5,0,0,1,3.53-3.53l19,19a2.51,2.51,0,0,1-1.77,4.27Z"/><path d="M35.47,26.29a2.45,2.45,0,0,1-1.76-.73l-1.42-1.42a2.5,2.5,0,0,1,3.54-3.53L37.24,22a2.5,2.5,0,0,1-1.77,4.27Z"/><path d="M22.65,39.11a2.49,2.49,0,0,1-1.77-.73L19.47,37A2.5,2.5,0,0,1,23,33.43l1.42,1.42a2.5,2.5,0,0,1-1.77,4.26Z"/></g></g></g></svg>