<svg xmlns="http://www.w3.org/2000/svg" viewBox="0 0 58.49 53.34"><title>dislike</title><g id="Layer_2" data-name="Layer 2"><g id="Layer_1-2" data-name="Layer 1"><g id="dislike"><path d="M24,53.34a4.26,4.26,0,0,1-4.25-4.25V39.17a1.76,1.76,0,0,0-.37-1.08l-6.65-8.55H6.15A6.16,6.16,0,0,1,0,23.39V11.92A6.16,6.16,0,0,1,6.15,5.77h7l4.74-3.34A13.17,13.17,0,0,1,25.48,0H43.79a8,8,0,0,1,7.55,5.32L58,24a8,8,0,0,1-7.55,10.71H35.12v7.46A11.14,11.14,0,0,1,24,53.34ZM6.15,10.27A1.65,1.65,0,0,0,4.5,11.92V23.39A1.65,1.65,0,0,0,6.15,25h7.67a2.23,2.23,0,0,1,1.77.87l7.33,9.42a6.27,6.27,0,0,1,1.32,3.84v9.67a6.64,6.64,0,0,0,6.38-6.63V32.5a2.25,2.25,0,0,1,2.25-2.25H50.48a3.52,3.52,0,0,0,3.31-4.7L47.1,6.83A3.53,3.53,0,0,0,43.79,4.5H25.48a8.71,8.71,0,0,0-5.05,1.6L15.11,9.86a2.3,2.3,0,0,1-1.29.41Z"/><path d="M13.82,29.54a2.24,2.24,0,0,1-2.25-2.25V8a2.25,2.25,0,0,1,4.5,0V27.29A2.25,2.25,0,0,1,13.82,29.54Z"/></g></g></g></svg>