<svg xmlns="http://www.w3.org/2000/svg" viewBox="0 0 58.78 59"><defs><style>.cls-1{fill:#fff;}</style></defs><title>document view</title><g id="Layer_2" data-name="Layer 2"><g id="Layer_1-2" data-name="Layer 1"><g id="document_view" data-name="document view"><path d="M46.5,21h-16A2.5,2.5,0,0,1,28,18.5V2.5a2.5,2.5,0,0,1,5,0V16H46.5a2.5,2.5,0,0,1,0,5Z"/><path d="M29.75,59H10.5A10.51,10.51,0,0,1,0,48.5v-38A10.51,10.51,0,0,1,10.5,0h24a2.51,2.51,0,0,1,1.77.73l12,12A2.51,2.51,0,0,1,49,14.5v11a2.5,2.5,0,0,1-5,0v-10L33.46,5h-23A5.51,5.51,0,0,0,5,10.5v38A5.51,5.51,0,0,0,10.5,54H29.75a2.5,2.5,0,0,1,0,5Z"/><path d="M25.62,33.67H11.5a2.5,2.5,0,0,1,0-5H25.62a2.5,2.5,0,1,1,0,5Z"/><path d="M21.5,46.33h-10a2.5,2.5,0,0,1,0-5h10a2.5,2.5,0,0,1,0,5Z"/><path d="M36.68,43.22a1.67,1.67,0,0,0,0,2.18C38.29,47.28,42,51,46.28,51s8-3.69,9.6-5.57a1.69,1.69,0,0,0,0-2.18c-1.61-1.88-5.31-5.57-9.6-5.57S38.29,41.34,36.68,43.22Z"/><path d="M46.28,53.47c-5.22,0-9.45-4-11.5-6.45a4.16,4.16,0,0,1,0-5.42h0c2-2.41,6.28-6.45,11.5-6.45s9.44,4,11.5,6.45a4.16,4.16,0,0,1,0,5.42C55.72,49.43,51.5,53.47,46.28,53.47Zm-7.22-9.16c1.43,1.57,4.26,4.16,7.22,4.16s5.78-2.59,7.22-4.16c-1.44-1.57-4.26-4.16-7.22-4.16S40.49,42.74,39.06,44.31Zm-.48.54h0Z"/><circle class="cls-1" cx="46.28" cy="44.31" r="3.5"/></g></g></g></svg>