<svg xmlns="http://www.w3.org/2000/svg" viewBox="0 0 49 59"><title>document</title><g id="Layer_2" data-name="Layer 2"><g id="Layer_1-2" data-name="Layer 1"><g id="document"><path d="M46.5,21h-16A2.5,2.5,0,0,1,28,18.5V2.5a2.5,2.5,0,0,1,5,0V16H46.5a2.5,2.5,0,0,1,0,5Z"/><path d="M38.5,59h-28A10.51,10.51,0,0,1,0,48.5v-38A10.51,10.51,0,0,1,10.5,0h24a2.51,2.51,0,0,1,1.77.73l12,12A2.51,2.51,0,0,1,49,14.5v34A10.51,10.51,0,0,1,38.5,59ZM10.5,5A5.51,5.51,0,0,0,5,10.5v38A5.51,5.51,0,0,0,10.5,54h28A5.51,5.51,0,0,0,44,48.5v-33L33.46,5Z"/><path d="M27.5,33.67h-16a2.5,2.5,0,0,1,0-5h16a2.5,2.5,0,0,1,0,5Z"/><path d="M35.5,46.33h-24a2.5,2.5,0,0,1,0-5h24a2.5,2.5,0,0,1,0,5Z"/></g></g></g></svg>