<svg xmlns="http://www.w3.org/2000/svg" viewBox="0 0 59 59"><title>document search</title><g id="Layer_2" data-name="Layer 2"><g id="Layer_1-2" data-name="Layer 1"><g id="document_search" data-name="document search"><path d="M46.5,21h-16A2.5,2.5,0,0,1,28,18.5V2.5a2.5,2.5,0,0,1,5,0V16H46.5a2.5,2.5,0,0,1,0,5Z"/><path d="M29.75,59H10.5A10.51,10.51,0,0,1,0,48.5v-38A10.51,10.51,0,0,1,10.5,0h24a2.51,2.51,0,0,1,1.77.73l12,12A2.51,2.51,0,0,1,49,14.5v11a2.5,2.5,0,0,1-5,0v-10L33.46,5h-23A5.51,5.51,0,0,0,5,10.5v38A5.51,5.51,0,0,0,10.5,54H29.75a2.5,2.5,0,0,1,0,5Z"/><path d="M25.62,33.67H11.5a2.5,2.5,0,0,1,0-5H25.62a2.5,2.5,0,1,1,0,5Z"/><path d="M21.5,46.33h-10a2.5,2.5,0,0,1,0-5h10a2.5,2.5,0,0,1,0,5Z"/><path d="M44.28,54.56A10.28,10.28,0,1,1,54.56,44.28,10.29,10.29,0,0,1,44.28,54.56Zm0-15.56a5.28,5.28,0,1,0,5.28,5.28A5.29,5.29,0,0,0,44.28,39Z"/><path d="M56.5,59a2.49,2.49,0,0,1-1.77-.73L48,51.54A2.5,2.5,0,0,1,51.54,48l6.73,6.72a2.52,2.52,0,0,1,0,3.54A2.49,2.49,0,0,1,56.5,59Z"/></g></g></g></svg>