<svg xmlns="http://www.w3.org/2000/svg" viewBox="0 0 59 59"><title>dribbble</title><g id="Layer_2" data-name="Layer 2"><g id="Layer_1-2" data-name="Layer 1"><g id="dribbble"><path d="M29.5,59A29.5,29.5,0,1,1,59,29.5,29.53,29.53,0,0,1,29.5,59Zm0-54A24.5,24.5,0,1,0,54,29.5,24.53,24.53,0,0,0,29.5,5Z"/><path d="M41.94,56a2.5,2.5,0,0,1-2.46-2.08A106.43,106.43,0,0,0,18,5.82a2.5,2.5,0,1,1,3.91-3.11A111.42,111.42,0,0,1,44.41,53a2.49,2.49,0,0,1-2,2.88A2.15,2.15,0,0,1,41.94,56Z"/><path d="M11.36,52a2.45,2.45,0,0,1-1.25-.34,2.49,2.49,0,0,1-.91-3.41C16.93,34.94,29.81,27,43.66,27a36.46,36.46,0,0,1,13.66,2.66,2.5,2.5,0,0,1-1.87,4.64A31.29,31.29,0,0,0,43.66,32c-12,0-23.31,7-30.13,18.76A2.51,2.51,0,0,1,11.36,52Z"/><path d="M9.42,29.76a67.18,67.18,0,0,1-7-.38,2.5,2.5,0,1,1,.53-5c17.72,1.9,34.7-4.08,44.24-15.16a2.5,2.5,0,0,1,3.79,3.26C41.63,23.31,26.11,29.76,9.42,29.76Z"/></g></g></g></svg>