<svg xmlns="http://www.w3.org/2000/svg" viewBox="0 0 59 44.01"><title>drill</title><g id="Layer_2" data-name="Layer 2"><g id="Layer_1-2" data-name="Layer 1"><g id="drill"><path d="M15.07,44a7,7,0,0,1-7-7V23.5a2.5,2.5,0,0,1,2.5-2.5h9a2.5,2.5,0,0,1,2.5,2.5V37A7,7,0,0,1,15.07,44Zm-2-18V37a2,2,0,0,0,4,0V26Z"/><path d="M36.5,21.5h-2A2.5,2.5,0,0,1,32,19V7a2.5,2.5,0,0,1,2.5-2.5h2a8.5,8.5,0,0,1,0,17Zm.5-12v6.92a3.5,3.5,0,0,0,0-6.92Z"/><path d="M28.5,26H8.5A8.51,8.51,0,0,1,0,17.5v-9A8.51,8.51,0,0,1,8.5,0h20A8.51,8.51,0,0,1,37,8.5v9A8.51,8.51,0,0,1,28.5,26ZM8.5,5A3.5,3.5,0,0,0,5,8.5v9A3.5,3.5,0,0,0,8.5,21h20A3.5,3.5,0,0,0,32,17.5v-9A3.5,3.5,0,0,0,28.5,5Z"/><path d="M56.5,15.5h-14a2.5,2.5,0,0,1,0-5h14a2.5,2.5,0,0,1,0,5Z"/></g></g></g></svg>