<svg xmlns="http://www.w3.org/2000/svg" viewBox="0 0 59 56.88"><title>dropbox</title><g id="Layer_2" data-name="Layer 2"><g id="Layer_1-2" data-name="Layer 1"><g id="dropbox"><path d="M16,39.51a2.58,2.58,0,0,1-1.36-.39L1.15,30.42a2.5,2.5,0,0,1,0-4.21l10.2-6.52L1.16,13.24A2.5,2.5,0,0,1,1.16,9L14.67.39a2.51,2.51,0,0,1,2.69,0L30.88,9a2.5,2.5,0,0,1,0,4.22L20.66,19.76l10.22,6.52a2.49,2.49,0,0,1,0,4.21L17.36,39.12A2.49,2.49,0,0,1,16,39.51ZM7.13,28.32,16,34l8.87-5.65L16,22.69Zm0-17.2,8.91,5.64,8.82-5.63L16,5.47Z"/><path d="M29.46,56.88a2.47,2.47,0,0,1-1.23-.33l-19-10.79A2.52,2.52,0,0,1,8,43.56l.1-10.08A2.5,2.5,0,0,1,10.56,31h0a2.5,2.5,0,0,1,2.48,2.52L13,42.14,29.46,51.5,46,42.13V33.52a2.5,2.5,0,1,1,5,0V43.58a2.52,2.52,0,0,1-1.26,2.18l-19,10.79A2.48,2.48,0,0,1,29.46,56.88Z"/><path d="M43,39.51a2.5,2.5,0,0,1-1.36-.4l-13.44-8.7A2.45,2.45,0,0,1,27,28.31a2.49,2.49,0,0,1,1.15-2.1l10.2-6.52L28.2,13.24A2.5,2.5,0,0,1,27,11.14,2.47,2.47,0,0,1,28.19,9L41.63.4a2.51,2.51,0,0,1,2.7,0L57.84,9a2.5,2.5,0,0,1,0,4.22L47.63,19.76l10.21,6.52a2.49,2.49,0,0,1,0,4.21L44.33,39.12A2.52,2.52,0,0,1,43,39.51ZM34.16,28.33,43,34l8.86-5.65L43,22.71Zm0-17.22,8.88,5.63,8.78-5.61L43,5.47Z"/></g></g></g></svg>