<svg xmlns="http://www.w3.org/2000/svg" viewBox="0 0 59 48.71"><title>dumper</title><g id="Layer_2" data-name="Layer 2"><g id="Layer_1-2" data-name="Layer 1"><g id="dumper"><path d="M44.62,48.71a8.5,8.5,0,1,1,8.5-8.5A8.51,8.51,0,0,1,44.62,48.71Zm0-12a3.5,3.5,0,1,0,3.5,3.5A3.5,3.5,0,0,0,44.62,36.71Z"/><path d="M12,48.71a8.5,8.5,0,1,1,8.5-8.5A8.51,8.51,0,0,1,12,48.71Zm0-12a3.5,3.5,0,1,0,3.5,3.5A3.5,3.5,0,0,0,12,36.71Z"/><path d="M56.5,42.71H51.63a2.5,2.5,0,0,1,0-5H54V24.09L46.74,13H38.52a2.5,2.5,0,0,1,0-5h9.57a2.49,2.49,0,0,1,2.09,1.13L58.59,22A2.47,2.47,0,0,1,59,23.34V40.21A2.49,2.49,0,0,1,56.5,42.71Z"/><path d="M38.52,42.71H19a2.5,2.5,0,0,1,0-5H38.52a2.5,2.5,0,0,1,0,5Z"/><path d="M56.5,25.67H34.32a2.5,2.5,0,0,1,0-5H56.5a2.5,2.5,0,0,1,0,5Z"/><path d="M31.38,34.5a2.45,2.45,0,0,1-.8-.14L7.7,26.63a2.51,2.51,0,0,1-1.54-1.48L.16,9.42A2.5,2.5,0,0,1,2.5,6H26.33a8.54,8.54,0,0,1,8.15-6h7a2.5,2.5,0,0,1,0,5h-7A3.53,3.53,0,0,0,31,8.53a2.5,2.5,0,0,1-2.5,2.5H6.13l4.29,11.24L29.8,28.82,36.14,9.74a2.5,2.5,0,0,1,4.75,1.58L33.76,32.78a2.51,2.51,0,0,1-1.26,1.45A2.43,2.43,0,0,1,31.38,34.5Z"/></g></g></g></svg>