<svg xmlns="http://www.w3.org/2000/svg" viewBox="0 0 59 59"><title>eject circle</title><g id="Layer_2" data-name="Layer 2"><g id="Layer_1-2" data-name="Layer 1"><g id="eject_circle" data-name="eject circle"><path d="M41.7,35.41H17.3a2.5,2.5,0,0,1-2.05-3.93l12.2-17.41a2.5,2.5,0,0,1,4.1,0l12.2,17.41a2.5,2.5,0,0,1-2,3.93Zm-19.6-5H36.9L29.5,19.86Z"/><path d="M41.7,44H17.3a2.5,2.5,0,1,1,0-5H41.7a2.5,2.5,0,0,1,0,5Z"/><path d="M29.5,59A29.5,29.5,0,1,1,59,29.5,29.53,29.53,0,0,1,29.5,59Zm0-54A24.5,24.5,0,1,0,54,29.5,24.53,24.53,0,0,0,29.5,5Z"/></g></g></g></svg>