<svg xmlns="http://www.w3.org/2000/svg" viewBox="0 0 55 59"><title>elevator</title><g id="Layer_2" data-name="Layer 2"><g id="Layer_1-2" data-name="Layer 1"><g id="elevator"><path d="M44,59H11V18.5A6.51,6.51,0,0,1,17.5,12h20A6.51,6.51,0,0,1,44,18.5ZM16,54H39V18.5A1.5,1.5,0,0,0,37.5,17h-20A1.5,1.5,0,0,0,16,18.5Z"/><path d="M27.5,49.59a2.5,2.5,0,0,1-1.77-.74l-5-5a2.5,2.5,0,1,1,3.54-3.53l3.23,3.23,3.23-3.23a2.5,2.5,0,0,1,3.54,3.53l-5,5A2.5,2.5,0,0,1,27.5,49.59Z"/><path d="M32.5,32.59a2.5,2.5,0,0,1-1.77-.74L27.5,28.62l-3.23,3.23a2.5,2.5,0,0,1-3.54-3.53l5-5a2.5,2.5,0,0,1,3.54,0l5,5a2.51,2.51,0,0,1-1.77,4.27Z"/><path d="M50.5,59H4.5A4.51,4.51,0,0,1,0,54.5v-44A10.51,10.51,0,0,1,10.5,0h34A10.51,10.51,0,0,1,55,10.5v44A4.51,4.51,0,0,1,50.5,59ZM5,54H50V10.5A5.51,5.51,0,0,0,44.5,5h-34A5.51,5.51,0,0,0,5,10.5Z"/></g></g></g></svg>