<svg xmlns="http://www.w3.org/2000/svg" viewBox="0 0 57.85 59"><title>equalizer-2</title><g id="Layer_2" data-name="Layer 2"><g id="Layer_1-2" data-name="Layer 1"><g id="equalizer-2"><path d="M16.5,23H2.5a2.5,2.5,0,0,1,0-5h14a2.5,2.5,0,0,1,0,5Z"/><path d="M9.5,59A2.5,2.5,0,0,1,7,56.5v-26a2.5,2.5,0,0,1,5,0v26A2.5,2.5,0,0,1,9.5,59Z"/><path d="M9.5,21.17A2.5,2.5,0,0,1,7,18.67V2.5a2.5,2.5,0,0,1,5,0V18.67A2.5,2.5,0,0,1,9.5,21.17Z"/><path d="M55.35,23h-14a2.5,2.5,0,0,1,0-5h14a2.5,2.5,0,0,1,0,5Z"/><path d="M55.35,23h-14a2.5,2.5,0,0,1,0-5h14a2.5,2.5,0,0,1,0,5Z"/><path d="M48.35,59a2.5,2.5,0,0,1-2.5-2.5v-27a2.5,2.5,0,1,1,5,0v27A2.5,2.5,0,0,1,48.35,59Z"/><path d="M48.35,59a2.5,2.5,0,0,1-2.5-2.5v-27a2.5,2.5,0,1,1,5,0v27A2.5,2.5,0,0,1,48.35,59Z"/><path d="M48.35,21.17a2.5,2.5,0,0,1-2.5-2.5V2.5a2.5,2.5,0,0,1,5,0V18.67A2.5,2.5,0,0,1,48.35,21.17Z"/><path d="M48.35,21.17a2.5,2.5,0,0,1-2.5-2.5V2.5a2.5,2.5,0,0,1,5,0V18.67A2.5,2.5,0,0,1,48.35,21.17Z"/><path d="M35.93,41h-14a2.5,2.5,0,0,1,0-5h14a2.5,2.5,0,1,1,0,5Z"/><path d="M35.93,41h-14a2.5,2.5,0,0,1,0-5h14a2.5,2.5,0,1,1,0,5Z"/><path d="M28.93,32a2.5,2.5,0,0,1-2.5-2.5V2.5a2.5,2.5,0,0,1,5,0v27A2.5,2.5,0,0,1,28.93,32Z"/><path d="M28.93,32a2.5,2.5,0,0,1-2.5-2.5V2.5a2.5,2.5,0,0,1,5,0v27A2.5,2.5,0,0,1,28.93,32Z"/><path d="M28.93,59a2.5,2.5,0,0,1-2.5-2.5V40.33a2.5,2.5,0,0,1,5,0V56.5A2.5,2.5,0,0,1,28.93,59Z"/><path d="M28.93,59a2.5,2.5,0,0,1-2.5-2.5V40.33a2.5,2.5,0,0,1,5,0V56.5A2.5,2.5,0,0,1,28.93,59Z"/></g></g></g></svg>