<svg xmlns="http://www.w3.org/2000/svg" viewBox="0 0 59 57.85"><title>equalizer-3</title><g id="Layer_2" data-name="Layer 2"><g id="Layer_1-2" data-name="Layer 1"><g id="equalizer-3"><path d="M38.5,19A2.5,2.5,0,0,1,36,16.5V2.5a2.5,2.5,0,0,1,5,0v14A2.5,2.5,0,0,1,38.5,19Z"/><path d="M28.5,12H2.5a2.5,2.5,0,0,1,0-5h26a2.5,2.5,0,0,1,0,5Z"/><path d="M56.5,12H40.33a2.5,2.5,0,0,1,0-5H56.5a2.5,2.5,0,0,1,0,5Z"/><path d="M38.5,57.85a2.49,2.49,0,0,1-2.5-2.5v-14a2.5,2.5,0,1,1,5,0v14A2.49,2.49,0,0,1,38.5,57.85Z"/><path d="M38.5,57.85a2.49,2.49,0,0,1-2.5-2.5v-14a2.5,2.5,0,1,1,5,0v14A2.49,2.49,0,0,1,38.5,57.85Z"/><path d="M29.5,50.85H2.5a2.5,2.5,0,0,1,0-5h27a2.5,2.5,0,0,1,0,5Z"/><path d="M29.5,50.85H2.5a2.5,2.5,0,0,1,0-5h27a2.5,2.5,0,0,1,0,5Z"/><path d="M56.5,50.85H40.33a2.5,2.5,0,0,1,0-5H56.5a2.5,2.5,0,0,1,0,5Z"/><path d="M56.5,50.85H40.33a2.5,2.5,0,0,1,0-5H56.5a2.5,2.5,0,0,1,0,5Z"/><path d="M20.5,38.43a2.5,2.5,0,0,1-2.5-2.5v-14a2.5,2.5,0,0,1,5,0v14A2.5,2.5,0,0,1,20.5,38.43Z"/><path d="M20.5,38.43a2.5,2.5,0,0,1-2.5-2.5v-14a2.5,2.5,0,0,1,5,0v14A2.5,2.5,0,0,1,20.5,38.43Z"/><path d="M56.5,31.43h-27a2.5,2.5,0,0,1,0-5h27a2.5,2.5,0,0,1,0,5Z"/><path d="M56.5,31.43h-27a2.5,2.5,0,0,1,0-5h27a2.5,2.5,0,0,1,0,5Z"/><path d="M18.67,31.43H2.5a2.5,2.5,0,0,1,0-5H18.67a2.5,2.5,0,0,1,0,5Z"/><path d="M18.67,31.43H2.5a2.5,2.5,0,0,1,0-5H18.67a2.5,2.5,0,0,1,0,5Z"/></g></g></g></svg>