<svg xmlns="http://www.w3.org/2000/svg" viewBox="0 0 59 59"><title>equalizer-1</title><g id="Layer_2" data-name="Layer 2"><g id="Layer_1-2" data-name="Layer 1"><g id="equalizer-1"><path d="M29.5,49A9.5,9.5,0,1,1,39,39.5,9.51,9.51,0,0,1,29.5,49Zm0-14A4.5,4.5,0,1,0,34,39.5,4.51,4.51,0,0,0,29.5,35Z"/><path d="M29.5,59A2.5,2.5,0,0,1,27,56.5v-10a2.5,2.5,0,0,1,5,0v10A2.5,2.5,0,0,1,29.5,59Z"/><path d="M29.5,35A2.5,2.5,0,0,1,27,32.5V2.5a2.5,2.5,0,0,1,5,0v30A2.5,2.5,0,0,1,29.5,35Z"/><path d="M9.5,29A9.5,9.5,0,1,1,19,19.5,9.51,9.51,0,0,1,9.5,29Zm0-14A4.5,4.5,0,1,0,14,19.5,4.51,4.51,0,0,0,9.5,15Z"/><path d="M9.5,15A2.5,2.5,0,0,1,7,12.5V2.5a2.5,2.5,0,0,1,5,0v10A2.5,2.5,0,0,1,9.5,15Z"/><path d="M9.5,59A2.5,2.5,0,0,1,7,56.5v-30a2.5,2.5,0,0,1,5,0v30A2.5,2.5,0,0,1,9.5,59Z"/><path d="M49.5,29A9.5,9.5,0,1,1,59,19.5,9.51,9.51,0,0,1,49.5,29Zm0-14A4.5,4.5,0,1,0,54,19.5,4.51,4.51,0,0,0,49.5,15Z"/><path d="M49.5,15A2.5,2.5,0,0,1,47,12.5V2.5a2.5,2.5,0,0,1,5,0v10A2.5,2.5,0,0,1,49.5,15Z"/><path d="M49.5,59A2.5,2.5,0,0,1,47,56.5v-30a2.5,2.5,0,0,1,5,0v30A2.5,2.5,0,0,1,49.5,59Z"/></g></g></g></svg>