<svg xmlns="http://www.w3.org/2000/svg" viewBox="0 0 59 53.1"><title>eraser</title><g id="Layer_2" data-name="Layer 2"><g id="Layer_1-2" data-name="Layer 1"><g id="eraser"><path d="M26.27,53.1a2.49,2.49,0,0,1-1.77-.73,2.52,2.52,0,0,1,0-3.54L52.85,20.48a3.9,3.9,0,0,0,0-5.53l-8.8-8.8a4,4,0,0,0-5.53,0L10.17,34.5a3.9,3.9,0,0,0,0,5.53l8.8,8.8a2.5,2.5,0,0,1-3.53,3.54l-8.81-8.8A8.94,8.94,0,0,1,6.63,31L35,2.61a8.92,8.92,0,0,1,12.61,0l8.8,8.81a8.93,8.93,0,0,1,0,12.6L28,52.37A2.49,2.49,0,0,1,26.27,53.1Z"/><path d="M32.26,47.12a2.5,2.5,0,0,1-1.77-.74L12.62,28.51A2.5,2.5,0,0,1,16.15,25L34,42.85a2.51,2.51,0,0,1-1.77,4.27Z"/><path d="M41,53.1H2.5a2.5,2.5,0,0,1,0-5H41a2.5,2.5,0,0,1,0,5Z"/></g></g></g></svg>