<svg xmlns="http://www.w3.org/2000/svg" viewBox="0 0 59 59"><title>error</title><g id="Layer_2" data-name="Layer 2"><g id="Layer_1-2" data-name="Layer 1"><g id="error"><path d="M29.5,34.05a2.5,2.5,0,0,1-2.5-2.5v-14a2.5,2.5,0,0,1,5,0V31.55A2.5,2.5,0,0,1,29.5,34.05Z"/><path d="M29.5,44A2.5,2.5,0,0,1,27,41.5V40.33a2.5,2.5,0,0,1,5,0V41.5A2.5,2.5,0,0,1,29.5,44Z"/><path d="M29.5,59A29.5,29.5,0,1,1,59,29.5,29.53,29.53,0,0,1,29.5,59Zm0-54A24.5,24.5,0,1,0,54,29.5,24.53,24.53,0,0,0,29.5,5Z"/></g></g></g></svg>