<svg xmlns="http://www.w3.org/2000/svg" viewBox="0 0 53 59"><title>event available</title><g id="Layer_2" data-name="Layer 2"><g id="Layer_1-2" data-name="Layer 1"><g id="event_available" data-name="event available"><path d="M39,12a2.5,2.5,0,0,1-2.5-2.5v-7a2.5,2.5,0,0,1,5,0v7A2.5,2.5,0,0,1,39,12Z"/><path d="M14,12a2.5,2.5,0,0,1-2.5-2.5v-7a2.5,2.5,0,0,1,5,0v7A2.5,2.5,0,0,1,14,12Z"/><path d="M42.5,59h-32A10.51,10.51,0,0,1,0,48.5v-31A10.51,10.51,0,0,1,10.5,7h32A10.51,10.51,0,0,1,53,17.5v31A10.51,10.51,0,0,1,42.5,59Zm-32-47A5.51,5.51,0,0,0,5,17.5v31A5.51,5.51,0,0,0,10.5,54h32A5.51,5.51,0,0,0,48,48.5v-31A5.51,5.51,0,0,0,42.5,12Z"/><path d="M23.45,49a2.5,2.5,0,0,1-1.77-.74l-7.95-7.94a2.5,2.5,0,1,1,3.54-3.54L23.45,43,35.73,30.71a2.5,2.5,0,0,1,3.54,3.53l-14.06,14A2.46,2.46,0,0,1,23.45,49Z"/><path d="M50.5,25H2.5a2.5,2.5,0,0,1,0-5h48a2.5,2.5,0,0,1,0,5Z"/></g></g></g></svg>