<svg xmlns="http://www.w3.org/2000/svg" viewBox="0 0 53 59"><title>event busy</title><g id="Layer_2" data-name="Layer 2"><g id="Layer_1-2" data-name="Layer 1"><g id="event_busy" data-name="event busy"><path d="M39,12a2.5,2.5,0,0,1-2.5-2.5v-7a2.5,2.5,0,0,1,5,0v7A2.5,2.5,0,0,1,39,12Z"/><path d="M14,12a2.5,2.5,0,0,1-2.5-2.5v-7a2.5,2.5,0,0,1,5,0v7A2.5,2.5,0,0,1,14,12Z"/><path d="M42.5,59h-32A10.51,10.51,0,0,1,0,48.5v-31A10.51,10.51,0,0,1,10.5,7h32A10.51,10.51,0,0,1,53,17.5v31A10.51,10.51,0,0,1,42.5,59Zm-32-47A5.51,5.51,0,0,0,5,17.5v31A5.51,5.51,0,0,0,10.5,54h32A5.51,5.51,0,0,0,48,48.5v-31A5.51,5.51,0,0,0,42.5,12Z"/><path d="M50.5,25H2.5a2.5,2.5,0,0,1,0-5h48a2.5,2.5,0,0,1,0,5Z"/><path d="M18.5,49.8a2.49,2.49,0,0,1-1.77-.73,2.52,2.52,0,0,1,0-3.54l16-16a2.5,2.5,0,0,1,3.54,3.54l-16,16A2.49,2.49,0,0,1,18.5,49.8Z"/><path d="M34.5,49.8a2.49,2.49,0,0,1-1.77-.73l-16-16a2.5,2.5,0,0,1,3.54-3.54l16,16a2.52,2.52,0,0,1,0,3.54A2.49,2.49,0,0,1,34.5,49.8Z"/></g></g></g></svg>