<svg xmlns="http://www.w3.org/2000/svg" viewBox="0 0 59 57.28"><title>excavator</title><g id="Layer_2" data-name="Layer 2"><g id="Layer_1-2" data-name="Layer 1"><g id="excavator"><path d="M45.85,57.28H26.59a7.32,7.32,0,1,1,0-14.63H45.85a7.32,7.32,0,0,1,0,14.63ZM26.59,47.65a2.32,2.32,0,1,0,0,4.63H45.85a2.32,2.32,0,0,0,0-4.63Z"/><path d="M53.5,47.65H27.55a2.5,2.5,0,0,1-2.5-2.5V22a2.5,2.5,0,0,1,2.5-2.5H39.8a6.48,6.48,0,0,1,6.32,5l2,8.53h5.32A5.53,5.53,0,0,1,59,38.5c0,1.16,0,2.48,0,3.65a5.5,5.5,0,0,1-5.5,5.5Zm-23.45-5H53.5a.51.51,0,0,0,.5-.5c0-1.15,0-2.46,0-3.6a.51.51,0,0,0-.5-.5H46.19a2.5,2.5,0,0,1-2.44-1.92L41.26,25.69a1.5,1.5,0,0,0-1.46-1.16H30.05Z"/><path d="M2.5,36.88A2.5,2.5,0,0,1,0,34.38V2.46H0A2.5,2.5,0,0,1,.63.84a1.89,1.89,0,0,1,.2-.2A2.48,2.48,0,0,1,2.25,0h.31a2.49,2.49,0,0,1,1.5.55l25,19.51a2.53,2.53,0,0,1,1,2V27a2.5,2.5,0,0,1-4.25,1.79L5,8.44V34.38A2.5,2.5,0,0,1,2.5,36.88Z"/><path d="M10.2,44.76A10.22,10.22,0,0,1,0,34.55a2.5,2.5,0,0,1,2.5-2.5H17.91a2.5,2.5,0,0,1,2.5,2.5A10.22,10.22,0,0,1,10.2,44.76ZM5.64,37.05a5.2,5.2,0,0,0,9.13,0Z"/></g></g></g></svg>