<svg xmlns="http://www.w3.org/2000/svg" viewBox="0 0 59 59"><title>exit full screen</title><g id="Layer_2" data-name="Layer 2"><g id="Layer_1-2" data-name="Layer 1"><g id="exit_full_screen" data-name="exit full screen"><path d="M20.5,23H4.5a2.5,2.5,0,0,1,0-5H18V4.5a2.5,2.5,0,0,1,5,0v16A2.5,2.5,0,0,1,20.5,23Z"/><path d="M54.5,23h-16A2.5,2.5,0,0,1,36,20.5V4.5a2.5,2.5,0,0,1,5,0V18H54.5a2.5,2.5,0,0,1,0,5Z"/><path d="M38.5,57A2.5,2.5,0,0,1,36,54.5v-16A2.5,2.5,0,0,1,38.5,36h16a2.5,2.5,0,0,1,0,5H41V54.5A2.5,2.5,0,0,1,38.5,57Z"/><path d="M20.5,57A2.5,2.5,0,0,1,18,54.5V41H4.5a2.5,2.5,0,0,1,0-5h16A2.5,2.5,0,0,1,23,38.5v16A2.5,2.5,0,0,1,20.5,57Z"/><path d="M38.5,23a2.49,2.49,0,0,1-1.77-.73,2.52,2.52,0,0,1,0-3.54l18-18a2.5,2.5,0,0,1,3.54,3.54l-18,18A2.49,2.49,0,0,1,38.5,23Z"/><path d="M20.5,23a2.49,2.49,0,0,1-1.77-.73l-18-18A2.5,2.5,0,0,1,4.27.73l18,18a2.52,2.52,0,0,1,0,3.54A2.49,2.49,0,0,1,20.5,23Z"/><path d="M56.5,59a2.49,2.49,0,0,1-1.77-.73l-18-18a2.5,2.5,0,0,1,3.54-3.54l18,18a2.52,2.52,0,0,1,0,3.54A2.49,2.49,0,0,1,56.5,59Z"/><path d="M2.5,59a2.49,2.49,0,0,1-1.77-.73,2.52,2.52,0,0,1,0-3.54l18-18a2.5,2.5,0,0,1,3.54,3.54l-18,18A2.49,2.49,0,0,1,2.5,59Z"/></g></g></g></svg>