<svg xmlns="http://www.w3.org/2000/svg" viewBox="0 0 59.03 59.03"><title>explore off</title><g id="Layer_2" data-name="Layer 2"><g id="Layer_1-2" data-name="Layer 1"><g id="explore_off" data-name="explore off"><path d="M56.5,59a2.53,2.53,0,0,1-1.77-.73l-54-54A2.5,2.5,0,0,1,4.27.76l54,54A2.5,2.5,0,0,1,56.5,59Z"/><path d="M29.5,59A29.48,29.48,0,0,1,8.64,8.67a2.5,2.5,0,1,1,3.54,3.53A24.5,24.5,0,0,0,46.82,46.85a2.5,2.5,0,0,1,3.54,3.54A29.41,29.41,0,0,1,29.5,59Z"/><path d="M54.31,42.7A2.51,2.51,0,0,1,52,39.21,24.5,24.5,0,0,0,19.82,7a2.5,2.5,0,0,1-2-4.6A29.51,29.51,0,0,1,56.61,41.18,2.51,2.51,0,0,1,54.31,42.7Z"/><path d="M38.72,27.11a2.44,2.44,0,0,1-.91-.17A2.49,2.49,0,0,1,36.4,23.7L37.08,22l-1.75.68A2.5,2.5,0,1,1,33.51,18l7.08-2.78a2.5,2.5,0,0,1,3.24,3.24l-2.78,7.08A2.5,2.5,0,0,1,38.72,27.11Z"/><path d="M17.5,44a2.54,2.54,0,0,1-1.77-.73,2.51,2.51,0,0,1-.56-2.68L21.9,23.4a2.49,2.49,0,1,1,4.65,1.81L21.9,37.13l11.91-4.65a2.5,2.5,0,1,1,1.82,4.65L18.41,43.86A2.62,2.62,0,0,1,17.5,44Z"/></g></g></g></svg>