<svg xmlns="http://www.w3.org/2000/svg" viewBox="0 0 59 58.97"><title>explore</title><g id="Layer_2" data-name="Layer 2"><g id="Layer_1-2" data-name="Layer 1"><g id="explore"><path d="M29.5,59a29.46,29.46,0,1,1,20.86-8.62A29.4,29.4,0,0,1,29.5,59Zm0-54a24.48,24.48,0,1,0,17.32,7.16A24.43,24.43,0,0,0,29.5,5Z"/><path d="M17.5,44a2.51,2.51,0,0,1-2.33-3.41l6.72-17.23a2.49,2.49,0,0,1,1.42-1.41l17.28-6.78a2.5,2.5,0,0,1,3.24,3.24L37.05,35.68a2.49,2.49,0,0,1-1.42,1.41L18.41,43.81A2.42,2.42,0,0,1,17.5,44Zm8.65-17.8L21.9,37.08l10.89-4.25L37.08,21.9Zm8.57,8.57h0Z"/></g></g></g></svg>