<svg xmlns="http://www.w3.org/2000/svg" viewBox="0 0 59 59"><title>extension</title><g id="Layer_2" data-name="Layer 2"><g id="Layer_1-2" data-name="Layer 1"><g id="extension"><path d="M56.5,59H43.93a2.5,2.5,0,0,1-2.5-2.5V54.57a6.48,6.48,0,1,0-12.95,0V56.5A2.5,2.5,0,0,1,26,59H13.41a2.5,2.5,0,0,1-2.5-2.5V46.42a11.48,11.48,0,0,1,0-22.93V13.41a2.5,2.5,0,0,1,2.5-2.5H23.49a11.48,11.48,0,0,1,22.93,0H56.5a2.5,2.5,0,0,1,2.5,2.5V26a2.5,2.5,0,0,1-2.5,2.5H54.57a6.48,6.48,0,1,0,0,13H56.5a2.5,2.5,0,0,1,2.5,2.5V56.5A2.5,2.5,0,0,1,56.5,59ZM46.42,54H54V46.42a11.48,11.48,0,0,1,0-22.93V15.91H43.93a2.5,2.5,0,0,1-2.5-2.5V11.48a6.48,6.48,0,1,0-12.95,0v1.93a2.5,2.5,0,0,1-2.5,2.5H15.91V26a2.5,2.5,0,0,1-2.5,2.5H11.48a6.48,6.48,0,1,0,0,13h1.93a2.5,2.5,0,0,1,2.5,2.5V54h7.58a11.48,11.48,0,0,1,22.93,0Z"/></g></g></g></svg>