<svg xmlns="http://www.w3.org/2000/svg" viewBox="0 0 59 59"><title>facebook</title><g id="Layer_2" data-name="Layer 2"><g id="Layer_1-2" data-name="Layer 1"><g id="facebook"><path d="M45.6,21.17h-4c-3.13,0-3.73,1.49-3.73,3.67v4.8h7.45l-1,7.54H37.88V56.5H30.1V37.18H23.6V29.64h6.5V24.09c0-6.44,3.94-9.95,9.69-9.95a54.51,54.51,0,0,1,5.81.29Z"/><path d="M48.5,59h-38A10.51,10.51,0,0,1,0,48.5v-38A10.51,10.51,0,0,1,10.5,0h38A10.51,10.51,0,0,1,59,10.5v38A10.51,10.51,0,0,1,48.5,59ZM10.5,5A5.51,5.51,0,0,0,5,10.5v38A5.51,5.51,0,0,0,10.5,54h38A5.51,5.51,0,0,0,54,48.5v-38A5.51,5.51,0,0,0,48.5,5Z"/></g></g></g></svg>