<svg xmlns="http://www.w3.org/2000/svg" viewBox="0 0 59 59"><title>face id</title><g id="Layer_2" data-name="Layer 2"><g id="Layer_1-2" data-name="Layer 1"><g id="face_id" data-name="face id"><path d="M56.5,15A2.5,2.5,0,0,1,54,12.5V5H46.5a2.5,2.5,0,0,1,0-5h10A2.5,2.5,0,0,1,59,2.5v10A2.5,2.5,0,0,1,56.5,15Z"/><path d="M2.5,15A2.5,2.5,0,0,1,0,12.5V2.5A2.5,2.5,0,0,1,2.5,0h10a2.5,2.5,0,0,1,0,5H5v7.5A2.5,2.5,0,0,1,2.5,15Z"/><path d="M56.5,59h-10a2.5,2.5,0,0,1,0-5H54V46.5a2.5,2.5,0,0,1,5,0v10A2.5,2.5,0,0,1,56.5,59Z"/><path d="M12.5,59H2.5A2.5,2.5,0,0,1,0,56.5v-10a2.5,2.5,0,0,1,5,0V54h7.5a2.5,2.5,0,0,1,0,5Z"/><path d="M29.5,45.61a17.89,17.89,0,0,1-12.45-5A2.5,2.5,0,0,1,20.52,37a13,13,0,0,0,18,0A2.5,2.5,0,0,1,42,40.64,17.89,17.89,0,0,1,29.5,45.61Z"/><path d="M45,24.65a2.48,2.48,0,0,1-1.94-.93A3.7,3.7,0,0,0,38,23.1a2.5,2.5,0,0,1-3-4,8.74,8.74,0,0,1,11.95,1.46A2.51,2.51,0,0,1,45,24.65Z"/><path d="M14,24.65a2.51,2.51,0,0,1-1.94-4.08,8.74,8.74,0,0,1,12-1.46,2.5,2.5,0,0,1-3,4,3.7,3.7,0,0,0-5.06.62A2.48,2.48,0,0,1,14,24.65Z"/></g></g></g></svg>