<svg xmlns="http://www.w3.org/2000/svg" viewBox="0 0 50.99 59"><title>fan-1</title><g id="Layer_2" data-name="Layer 2"><g id="Layer_1-2" data-name="Layer 1"><g id="fan-1"><path d="M25.5,51A25.5,25.5,0,1,1,51,25.5,25.53,25.53,0,0,1,25.5,51Zm0-46A20.5,20.5,0,1,0,46,25.5,20.52,20.52,0,0,0,25.5,5Z"/><path d="M32,59H19a2.5,2.5,0,0,1-1.55-4.46,3,3,0,0,0,0-5.09,2.5,2.5,0,0,1,3.1-3.92A8.31,8.31,0,0,1,23.82,52a7.53,7.53,0,0,1-.27,2h3.89a7.53,7.53,0,0,1-.27-2,8.31,8.31,0,0,1,3.31-6.47,2.5,2.5,0,1,1,3.1,3.92,3,3,0,0,0,0,5.09A2.5,2.5,0,0,1,32,59Z"/><path d="M25.5,28.42a2.49,2.49,0,0,1-2.5-2.5V9.81a2.49,2.49,0,0,1,2.5-2.5,10.56,10.56,0,0,1,0,21.11ZM28,12.91v9.91a5.55,5.55,0,0,0,0-9.91Z"/><path d="M11.55,36.47a2.36,2.36,0,0,1-.65-.08,2.48,2.48,0,0,1-1.52-1.17A10.55,10.55,0,0,1,27.66,24.67a2.5,2.5,0,0,1-.91,3.41L12.8,36.14A2.54,2.54,0,0,1,11.55,36.47Zm7-12.08a5.5,5.5,0,0,0-2.77.75A5.56,5.56,0,0,0,13,30.26l8.59-5A5.65,5.65,0,0,0,18.51,24.39Z"/><path d="M32.47,40.5a10.56,10.56,0,0,1-9.12-15.83,2.56,2.56,0,0,1,1.52-1.17,2.53,2.53,0,0,1,1.9.25l14,8.06a2.5,2.5,0,0,1,.91,3.41A10.55,10.55,0,0,1,32.47,40.5ZM27,29.63a5.22,5.22,0,0,0,.18,1.75,5.55,5.55,0,0,0,8.41,3.21Z"/></g></g></g></svg>