<svg xmlns="http://www.w3.org/2000/svg" viewBox="0 0 50.99 59"><title>fan-3</title><g id="Layer_2" data-name="Layer 2"><g id="Layer_1-2" data-name="Layer 1"><g id="fan-3"><path d="M25.5,51A25.5,25.5,0,1,1,51,25.5,25.53,25.53,0,0,1,25.5,51Zm0-46A20.5,20.5,0,1,0,46,25.5,20.52,20.52,0,0,0,25.5,5Z"/><path d="M32,59H19a2.5,2.5,0,0,1-1.55-4.46,3,3,0,0,0,0-5.09,2.5,2.5,0,0,1,3.1-3.92A8.31,8.31,0,0,1,23.82,52a7.53,7.53,0,0,1-.27,2h3.89a7.53,7.53,0,0,1-.27-2,8.31,8.31,0,0,1,3.31-6.47,2.5,2.5,0,1,1,3.1,3.92,3,3,0,0,0,0,5.09A2.5,2.5,0,0,1,32,59Z"/><path d="M25.5,32.12a7,7,0,1,1,7-7A7,7,0,0,1,25.5,32.12Zm0-8.91a2,2,0,1,0,1.95,1.95A2,2,0,0,0,25.5,23.21Z"/><path d="M23.77,23.55A2.48,2.48,0,0,1,21.47,22l-4-9.57A2.51,2.51,0,0,1,18,9.71a10.65,10.65,0,0,1,15,0,2.51,2.51,0,0,1,.54,2.74l-4,9.57a2.52,2.52,0,0,1-3.28,1.34,2.29,2.29,0,0,1-.75-.5,2.45,2.45,0,0,1-.76.5A2.58,2.58,0,0,1,23.77,23.55Zm-1-11.26,2.7,6.41,2.69-6.41A5.66,5.66,0,0,0,22.8,12.29Z"/><path d="M16.52,39.48a2.43,2.43,0,0,1-.65-.09,10.62,10.62,0,0,1-7.51-13,2.48,2.48,0,0,1,2.1-1.83l10.27-1.3a2.48,2.48,0,0,1,2.79,2.16,2.4,2.4,0,0,1-.05.89,2.37,2.37,0,0,1,.84.42,2.49,2.49,0,0,1,.48,3.5l-6.28,8.27A2.51,2.51,0,0,1,16.52,39.48ZM13,29.27a5.66,5.66,0,0,0,2.69,4.66l4.21-5.54Z"/><path d="M34.47,39.48a2.51,2.51,0,0,1-2-1L26.2,30.22a2.5,2.5,0,0,1,.48-3.5,2.43,2.43,0,0,1,.8-.41,2.7,2.7,0,0,1,0-.9,2.49,2.49,0,0,1,2.79-2.17l10.3,1.31a2.48,2.48,0,0,1,2.1,1.83,10.62,10.62,0,0,1-7.51,13A2.43,2.43,0,0,1,34.47,39.48ZM31.09,28.39l4.21,5.54A5.63,5.63,0,0,0,38,29.27Z"/></g></g></g></svg>