<svg xmlns="http://www.w3.org/2000/svg" viewBox="0 0 59 55.18"><title>fan-2</title><g id="Layer_2" data-name="Layer 2"><g id="Layer_1-2" data-name="Layer 1"><g id="fan-2"><path d="M29.5,41.93A10.52,10.52,0,1,1,40,31.41,10.53,10.53,0,0,1,29.5,41.93Zm0-16A5.52,5.52,0,1,0,35,31.41,5.53,5.53,0,0,0,29.5,25.89Z"/><path d="M32.6,26.52a2.59,2.59,0,0,1-1-.2,2.49,2.49,0,0,1-1.33-3.27L36.84,7.47a12.14,12.14,0,0,0-14.68,0L28.7,23.05A2.5,2.5,0,1,1,24.09,25L16.85,7.75A2.49,2.49,0,0,1,17.39,5,17.12,17.12,0,0,1,41.61,5a2.49,2.49,0,0,1,.53,2.73L34.91,25A2.5,2.5,0,0,1,32.6,26.52Z"/><path d="M13.34,55.18a2.48,2.48,0,0,1-.65-.09,17.13,17.13,0,0,1-12.1-21,2.49,2.49,0,0,1,2.1-1.83L21.16,30A2.49,2.49,0,0,1,24,32.11a2.51,2.51,0,0,1-2.17,2.8L5.1,37a12.16,12.16,0,0,0,7.34,12.72L22.66,36.28a2.5,2.5,0,1,1,4,3L15.33,54.19A2.51,2.51,0,0,1,13.34,55.18Z"/><path d="M45.66,55.18a2.51,2.51,0,0,1-2-1L32.36,39.31a2.5,2.5,0,0,1,4-3L46.56,49.74A12.16,12.16,0,0,0,53.9,37L37.14,34.9a2.5,2.5,0,1,1,.63-5l18.54,2.35a2.49,2.49,0,0,1,2.1,1.83,17.14,17.14,0,0,1-12.11,21A2.35,2.35,0,0,1,45.66,55.18Z"/></g></g></g></svg>