<svg xmlns="http://www.w3.org/2000/svg" viewBox="0 0 59 34.77"><title>fast rewind</title><g id="Layer_2" data-name="Layer 2"><g id="Layer_1-2" data-name="Layer 1"><g id="fast_rewind" data-name="fast rewind"><path d="M54,34.77a5,5,0,0,1-2.44-.64L29.53,21.71a5,5,0,0,1,0-8.65L51.6.64A5,5,0,0,1,59,5V29.8a4.92,4.92,0,0,1-2.46,4.29A5,5,0,0,1,54,34.77ZM54,5,32,17.42,54.05,29.77Z"/><path d="M27,34.77a5,5,0,0,1-2.44-.64L2.53,21.71a5,5,0,0,1,0-8.65L24.6.64A5,5,0,0,1,32,5V29.8a4.92,4.92,0,0,1-2.46,4.29A5,5,0,0,1,27,34.77ZM27,5,5,17.42,27.05,29.77Z"/></g></g></g></svg>