<svg xmlns="http://www.w3.org/2000/svg" viewBox="0 0 59 34.77"><title>fast forward</title><g id="Layer_2" data-name="Layer 2"><g id="Layer_1-2" data-name="Layer 1"><g id="fast_forward" data-name="fast forward"><path d="M5,34.77a5,5,0,0,1-2.5-.68A4.92,4.92,0,0,1,0,29.8V5A4.91,4.91,0,0,1,2.46.69,4.93,4.93,0,0,1,7.4.64L29.47,13.06a5,5,0,0,1,0,8.65L7.4,34.13A5,5,0,0,1,5,34.77ZM5,5V29.8L27,17.35Z"/><path d="M32,34.77a5,5,0,0,1-2.5-.68A4.92,4.92,0,0,1,27,29.8V5A5,5,0,0,1,34.4.64L56.47,13.06a5,5,0,0,1,0,8.65L34.4,34.13A5,5,0,0,1,32,34.77ZM32,5V29.8L54,17.35Z"/></g></g></g></svg>