<svg xmlns="http://www.w3.org/2000/svg" viewBox="0 0 58.79 46.48"><title>faucet</title><g id="Layer_2" data-name="Layer 2"><g id="Layer_1-2" data-name="Layer 1"><g id="faucet"><path d="M56.29,46.48H46.19a2.5,2.5,0,0,1-2.5-2.5V38.37a2.51,2.51,0,0,0-2.5-2.5H36.35a2.5,2.5,0,0,1,0-5h4.84a7.52,7.52,0,0,1,7.5,7.5v3.11h5.1V38.37a2.5,2.5,0,0,1,5,0V44A2.5,2.5,0,0,1,56.29,46.48Z"/><path d="M56.29,40.87a2.5,2.5,0,0,1-2.5-2.5,11.51,11.51,0,0,0-11.5-11.5H36.58a2.5,2.5,0,0,1,0-5h5.71a16.52,16.52,0,0,1,16.5,16.5A2.5,2.5,0,0,1,56.29,40.87Z"/><path d="M19.73,37H2.5A2.5,2.5,0,0,1,0,34.49V24.06a2.5,2.5,0,0,1,2.5-2.5H19.14a2.5,2.5,0,0,1,0,5H5V32H19.73a2.5,2.5,0,0,1,0,5Z"/><path d="M36.58,26.87a2.5,2.5,0,0,1-2.5-2.5V18.58H21.63v5.48a2.5,2.5,0,1,1-5,0V17.19c0-3,1.41-3.61,2.6-3.61H36.58a2.5,2.5,0,0,1,2.5,2.5v8.29A2.5,2.5,0,0,1,36.58,26.87Z"/><path d="M28.58,42H27.14a10.47,10.47,0,0,1-9.73-6.53A2.5,2.5,0,1,1,22,33.54,5.48,5.48,0,0,0,27.14,37h1.44a5.48,5.48,0,0,0,5.34-4.18A2.5,2.5,0,0,1,38.78,34,10.47,10.47,0,0,1,28.58,42Z"/><path d="M36.58,5H19.14a2.5,2.5,0,0,1,0-5H36.58a2.5,2.5,0,0,1,0,5Z"/><path d="M28,18.58a2.5,2.5,0,0,1-2.5-2.5V2.5a2.5,2.5,0,0,1,5,0V16.08A2.5,2.5,0,0,1,28,18.58Z"/></g></g></g></svg>