<svg xmlns="http://www.w3.org/2000/svg" viewBox="0 0 59 57.27"><title>favorite</title><g id="Layer_2" data-name="Layer 2"><g id="Layer_1-2" data-name="Layer 1"><g id="favorite"><path d="M29.5,57.27l-1.08-.51A65,65,0,0,1,14.32,47C5,38.54,0,28.68,0,18.5A18.49,18.49,0,0,1,29.5,3.64,18.49,18.49,0,0,1,59,18.5c0,10.18-5,20-14.32,28.52a65,65,0,0,1-14.1,9.74ZM18.5,5A13.52,13.52,0,0,0,5,18.5C5,37.2,24.63,49,29.5,51.68,34.36,49,54,37.2,54,18.5A13.49,13.49,0,0,0,31.22,8.71L29.5,10.35,27.78,8.71A13.46,13.46,0,0,0,18.5,5Z"/></g></g></g></svg>