<svg xmlns="http://www.w3.org/2000/svg" viewBox="0 0 59 57"><title>feedback</title><g id="Layer_2" data-name="Layer 2"><g id="Layer_1-2" data-name="Layer 1"><g id="feedback"><g id="message-1"><path d="M16.45,57a2.54,2.54,0,0,1-1.28-.35A2.5,2.5,0,0,1,14,54.5V44.37a2.5,2.5,0,0,1,5,0V50.3l14.76-8a2.5,2.5,0,0,1,2.38,4.4l-18.45,10A2.5,2.5,0,0,1,16.45,57Z"/><path d="M40.5,47H34.9a2.5,2.5,0,0,1,0-5h5.6A13.52,13.52,0,0,0,54,28.5v-10A13.52,13.52,0,0,0,40.5,5h-22A13.52,13.52,0,0,0,5,18.5v10A13.52,13.52,0,0,0,16.77,41.89a2.5,2.5,0,1,1-.64,5A18.53,18.53,0,0,1,0,28.5v-10A18.52,18.52,0,0,1,18.5,0h22A18.52,18.52,0,0,1,59,18.5v10A18.52,18.52,0,0,1,40.5,47Z"/><path d="M29.5,27.71a2.5,2.5,0,0,1-2.5-2.5V13.5a2.5,2.5,0,0,1,5,0V25.21A2.5,2.5,0,0,1,29.5,27.71Z"/><path d="M29.5,36A2.5,2.5,0,0,1,27,33.5v-1a2.5,2.5,0,1,1,5,0v1A2.5,2.5,0,0,1,29.5,36Z"/></g></g></g></g></svg>