<svg xmlns="http://www.w3.org/2000/svg" viewBox="0 0 51 59"><title>file copy</title><g id="Layer_2" data-name="Layer 2"><g id="Layer_1-2" data-name="Layer 1"><g id="file_copy" data-name="file copy"><path d="M41.38,59H11.14A11.16,11.16,0,0,1,0,47.86v-41a2.5,2.5,0,0,1,5,0v41A6.14,6.14,0,0,0,11.14,54H41.38a2.5,2.5,0,0,1,0,5Z"/><path d="M48.5,17.8H35.7a2.5,2.5,0,0,1-2.5-2.5V2.5a2.5,2.5,0,0,1,5,0V12.8H48.5a2.5,2.5,0,0,1,0,5Z"/><path d="M42.1,48.2H19.7a8.91,8.91,0,0,1-8.9-8.9V8.9A8.91,8.91,0,0,1,19.7,0H38.9a2.51,2.51,0,0,1,1.77.73l9.6,9.6A2.51,2.51,0,0,1,51,12.1V39.3A8.91,8.91,0,0,1,42.1,48.2ZM19.7,5a3.91,3.91,0,0,0-3.9,3.9V39.3a3.91,3.91,0,0,0,3.9,3.9H42.1A3.91,3.91,0,0,0,46,39.3V13.14L37.87,5Z"/></g></g></g></svg>