<svg xmlns="http://www.w3.org/2000/svg" viewBox="0 0 51.47 59"><title>filter</title><g id="Layer_2" data-name="Layer 2"><g id="Layer_1-2" data-name="Layer 1"><g id="filter"><path d="M19,59a2.5,2.5,0,0,1-2.5-2.51l.06-24.63a21.66,21.66,0,0,0-6.3-15.25L1.32,7.68A4.5,4.5,0,0,1,4.5,0H47a4.5,4.5,0,0,1,3.24,7.62l-8.71,9a21.39,21.39,0,0,0-6,14.92V48.5a2.49,2.49,0,0,1-1.26,2.17l-14,8A2.53,2.53,0,0,1,19,59ZM5.71,5l8.07,8.07a26.73,26.73,0,0,1,7.77,18.8L21.5,52.19l9-5.14V31.58A26.37,26.37,0,0,1,37.9,13.19L45.79,5ZM33,48.5h0Z"/></g></g></g></svg>