<svg xmlns="http://www.w3.org/2000/svg" viewBox="0 0 59 59"><title>find in page</title><g id="Layer_2" data-name="Layer 2"><g id="Layer_1-2" data-name="Layer 1"><g id="find_in_page" data-name="find in page"><path d="M48.5,59h-38A10.51,10.51,0,0,1,0,48.5v-38A10.51,10.51,0,0,1,10.5,0h38A10.51,10.51,0,0,1,59,10.5v38A10.51,10.51,0,0,1,48.5,59ZM10.5,5A5.51,5.51,0,0,0,5,10.5v38A5.51,5.51,0,0,0,10.5,54h38A5.51,5.51,0,0,0,54,48.5v-38A5.51,5.51,0,0,0,48.5,5Z"/><path d="M56.5,21H2.5a2.5,2.5,0,0,1,0-5h54a2.5,2.5,0,0,1,0,5Z"/><path d="M27.05,46.28A11.06,11.06,0,1,1,38.11,35.22,11.07,11.07,0,0,1,27.05,46.28Zm0-17.11a6.06,6.06,0,1,0,6.06,6A6.06,6.06,0,0,0,27.05,29.17Z"/><path d="M40.5,51.17a2.5,2.5,0,0,1-1.77-.74L31.34,43a2.5,2.5,0,1,1,3.53-3.54l7.4,7.4a2.51,2.51,0,0,1-1.77,4.27Z"/><path d="M25,13H23a2.5,2.5,0,0,1,0-5h2a2.5,2.5,0,1,1,0,5Z"/><path d="M14,13H12a2.5,2.5,0,1,1,0-5h2a2.5,2.5,0,1,1,0,5Z"/></g></g></g></svg>