<svg xmlns="http://www.w3.org/2000/svg" viewBox="0 0 59 59"><title>fingerprint-1</title><g id="Layer_2" data-name="Layer 2"><g id="Layer_1-2" data-name="Layer 1"><g id="fingerprint-1"><path d="M13.6,51.26a2.5,2.5,0,0,1,0-5A13.76,13.76,0,0,0,27.35,32.52V24.05a2.5,2.5,0,0,1,5,0v8.47A18.76,18.76,0,0,1,13.6,51.26Z"/><path d="M29.51,53a2.5,2.5,0,0,1-1.65-4.37,21.56,21.56,0,0,0,7.26-16.11V24.05a5.28,5.28,0,0,0-10.55,0v8.47a11,11,0,0,1-11,11,2.5,2.5,0,0,1,0-5,6,6,0,0,0,6-6V24.05a10.28,10.28,0,0,1,20.55,0v8.47a26.53,26.53,0,0,1-8.95,19.85A2.51,2.51,0,0,1,29.51,53Z"/><path d="M39.84,53a2.5,2.5,0,0,1-2.06-3.92A29.11,29.11,0,0,0,42.9,32.52V24.4a13.4,13.4,0,0,0-26.8,0v3.54a2.5,2.5,0,0,1-5,0V24.4a18.4,18.4,0,0,1,36.8,0v8.12a34.14,34.14,0,0,1-6,19.38A2.49,2.49,0,0,1,39.84,53Z"/><path d="M56.5,15A2.5,2.5,0,0,1,54,12.5V5H46.5a2.5,2.5,0,0,1,0-5h10A2.5,2.5,0,0,1,59,2.5v10A2.5,2.5,0,0,1,56.5,15Z"/><path d="M2.5,15A2.5,2.5,0,0,1,0,12.5V2.5A2.5,2.5,0,0,1,2.5,0h10a2.5,2.5,0,0,1,0,5H5v7.5A2.5,2.5,0,0,1,2.5,15Z"/><path d="M56.5,59h-10a2.5,2.5,0,0,1,0-5H54V46.5a2.5,2.5,0,0,1,5,0v10A2.5,2.5,0,0,1,56.5,59Z"/><path d="M12.5,59H2.5A2.5,2.5,0,0,1,0,56.5v-10a2.5,2.5,0,0,1,5,0V54h7.5a2.5,2.5,0,0,1,0,5Z"/></g></g></g></svg>