<svg xmlns="http://www.w3.org/2000/svg" viewBox="0 0 59 59"><title>first aid</title><g id="Layer_2" data-name="Layer 2"><g id="Layer_1-2" data-name="Layer 1"><g id="first_aid" data-name="first aid"><path d="M44,17H39V14.5A9.51,9.51,0,0,0,29.5,5,9.63,9.63,0,0,0,20,14.5V17H15V14.5a14.5,14.5,0,0,1,29,0Z"/><path d="M48.5,59h-38A10.51,10.51,0,0,1,0,48.5v-26A10.51,10.51,0,0,1,10.5,12h38A10.51,10.51,0,0,1,59,22.5v26A10.51,10.51,0,0,1,48.5,59Zm-38-42A5.51,5.51,0,0,0,5,22.5v26A5.51,5.51,0,0,0,10.5,54h38A5.51,5.51,0,0,0,54,48.5v-26A5.51,5.51,0,0,0,48.5,17Z"/><path d="M34.12,49.08H24.88a2.5,2.5,0,0,1-2.5-2.5v-4H17.5a2.5,2.5,0,0,1-2.5-2.5V30.88a2.5,2.5,0,0,1,2.5-2.5h4.88v-4a2.5,2.5,0,0,1,2.5-2.5h9.24a2.5,2.5,0,0,1,2.5,2.5v4H41.5a2.5,2.5,0,0,1,2.5,2.5v9.24a2.5,2.5,0,0,1-2.5,2.5H36.62v4A2.5,2.5,0,0,1,34.12,49.08Zm-6.74-5h4.24v-4a2.49,2.49,0,0,1,2.5-2.5H39V33.38H34.12a2.49,2.49,0,0,1-2.5-2.5v-4H27.38v4a2.49,2.49,0,0,1-2.5,2.5H20v4.24h4.88a2.49,2.49,0,0,1,2.5,2.5Z"/></g></g></g></svg>