<svg xmlns="http://www.w3.org/2000/svg" viewBox="0 0 58.89 48.61"><title>fish</title><g id="Layer_2" data-name="Layer 2"><g id="Layer_1-2" data-name="Layer 1"><g id="fish"><path d="M5.69,41.45A15.74,15.74,0,0,1,2.14,41a2.49,2.49,0,0,1-1.91-2A16.91,16.91,0,0,1,4.52,25l.07-.07-.07-.09a16.83,16.83,0,0,1-4.29-14,2.51,2.51,0,0,1,1.91-2C7.3,7.61,12.1,9,15.3,12.52a13.61,13.61,0,0,1,2.29,3.6,26.42,26.42,0,0,1,17.2-6.67c9.13,0,17.76,5.13,23.69,14.08a2.5,2.5,0,0,1,0,2.76c-5.94,9-14.57,14.08-23.68,14.08A26.35,26.35,0,0,1,17.6,33.69a13.43,13.43,0,0,1-2.3,3.59A12.64,12.64,0,0,1,5.69,41.45Zm-.69-5a7.77,7.77,0,0,0,6.58-2.49,9.53,9.53,0,0,0,2.25-5.29,2.51,2.51,0,0,1,4.35-1.38c4.67,5.23,10.57,8.1,16.61,8.1,6.94,0,13.63-3.79,18.55-10.46-4.91-6.67-11.6-10.46-18.55-10.46-6,0-11.95,2.87-16.61,8.09a2.5,2.5,0,0,1-4.35-1.36,9.67,9.67,0,0,0-2.26-5.32A7.84,7.84,0,0,0,5,13.39a12.2,12.2,0,0,0,3.24,8.1A7.09,7.09,0,0,0,9.78,22.8,2.5,2.5,0,0,1,11,24.91,2.53,2.53,0,0,1,9.78,27a6.8,6.8,0,0,0-1.53,1.28A12.25,12.25,0,0,0,5,36.43Z"/><path d="M40.85,39.22a2.49,2.49,0,0,1-1.8-.76,26,26,0,0,1-5.58-27.3,2.5,2.5,0,0,1,4.67,1.78A21,21,0,0,0,42.65,35a2.49,2.49,0,0,1-1.8,4.23Z"/><path d="M42.62,23.4a2.49,2.49,0,0,1-2.5-2.5,2,2,0,0,1,.05-.49,2.43,2.43,0,0,1,.37-.9,2.24,2.24,0,0,1,.31-.38,1.91,1.91,0,0,1,.38-.31,2.43,2.43,0,0,1,.9-.37,2.31,2.31,0,0,1,1,0,2.44,2.44,0,0,1,.46.14,2.64,2.64,0,0,1,.44.23,2.72,2.72,0,0,1,.38.31,2.85,2.85,0,0,1,.31.38,3.55,3.55,0,0,1,.23.43,2.54,2.54,0,0,1,.14.47,2.63,2.63,0,0,1,0,.49,2.55,2.55,0,0,1-.73,1.77,2.44,2.44,0,0,1-.82.54,2.44,2.44,0,0,1-.46.14A2.81,2.81,0,0,1,42.62,23.4Z"/><path d="M25.27,16.37a2.5,2.5,0,0,1-2.35-1.65L19.06,4.12A2.5,2.5,0,0,1,20.55.91a15,15,0,0,1,19.21,9,2.5,2.5,0,0,1-4.7,1.71A10,10,0,0,0,24.72,5.05l2.9,8a2.51,2.51,0,0,1-1.5,3.21A2.54,2.54,0,0,1,25.27,16.37Z"/><path d="M27.26,48.61a13.33,13.33,0,0,1-4.6-.82,2.5,2.5,0,0,1-1.5-3.2l3.18-8.72A2.5,2.5,0,1,1,29,37.58l-2.2,6a8.42,8.42,0,0,0,8.32-5.53,2.5,2.5,0,1,1,4.7,1.71,13.47,13.47,0,0,1-12.6,8.84Z"/></g></g></g></svg>