<svg xmlns="http://www.w3.org/2000/svg" viewBox="0 0 59 58.99"><title>fishing</title><g id="Layer_2" data-name="Layer 2"><g id="Layer_1-2" data-name="Layer 1"><g id="fishing"><path d="M6.81,59A6.81,6.81,0,0,1,2,47.37L14.37,35a2.5,2.5,0,1,1,3.54,3.53L5.53,50.9a1.82,1.82,0,0,0,0,2.57,1.86,1.86,0,0,0,2.56,0L20.47,41.08A2.5,2.5,0,1,1,24,44.62L11.62,57A6.76,6.76,0,0,1,6.81,59Z"/><path d="M23.59,45.34a9.94,9.94,0,1,1,7-2.91A9.9,9.9,0,0,1,23.59,45.34Zm0-14.88a4.91,4.91,0,0,0-3.5,1.45h0a4.95,4.95,0,1,0,7,0A4.91,4.91,0,0,0,23.59,30.46Zm-5.26-.32h0Z"/><path d="M56.49,47.58a2.5,2.5,0,0,1-2.5-2.5V8.54L30.62,31.91a2.5,2.5,0,0,1-3.53-3.54L54.73.73A2.5,2.5,0,0,1,59,2.5V45.08A2.5,2.5,0,0,1,56.49,47.58Z"/><path d="M33.48,33.8a19.6,19.6,0,0,1-4.55-.57,2.5,2.5,0,1,1,1.17-4.86c3.74.89,6.82.37,8.67-1.48s2.37-4.92,1.47-8.67a2.5,2.5,0,1,1,4.86-1.17c1.32,5.5.33,10.26-2.79,13.38A12.15,12.15,0,0,1,33.48,33.8Z"/><path d="M46.81,20.8a19.6,19.6,0,0,1-4.55-.57,2.5,2.5,0,1,1,1.16-4.86c3.75.9,6.83.38,8.68-1.47S54.47,9,53.57,5.22a2.5,2.5,0,1,1,4.86-1.16c1.32,5.5.33,10.25-2.79,13.38A12.14,12.14,0,0,1,46.81,20.8Z"/><path d="M18.33,32.64a2.53,2.53,0,0,1-1.77-.73l-3.2-3.2-1.45,1.45a2.5,2.5,0,0,1-3.54-3.54l3.22-3.22a2.51,2.51,0,0,1,1.77-.73h0a2.51,2.51,0,0,1,1.77.73l5,5a2.5,2.5,0,0,1-1.76,4.27Z"/><path d="M52,52.08a7,7,0,0,1-7-7,2.5,2.5,0,0,1,5,0,2,2,0,0,0,4,0,2.5,2.5,0,0,1,5,0A7,7,0,0,1,52,52.08Z"/></g></g></g></svg>