<svg xmlns="http://www.w3.org/2000/svg" viewBox="0 0 59 59"><title>flashlight</title><g id="Layer_2" data-name="Layer 2"><g id="Layer_1-2" data-name="Layer 1"><g id="flashlight"><path d="M8.47,59a8.46,8.46,0,0,1-6-14.45L16.54,30.49A5.87,5.87,0,0,0,18.23,27l.38-3.57a10.89,10.89,0,0,1,3.12-6.53l4.78-4.78a2.5,2.5,0,0,1,3.54,0L46.92,29a2.5,2.5,0,0,1,0,3.54l-4.78,4.78a10.89,10.89,0,0,1-6.53,3.12L32,40.77a5.82,5.82,0,0,0-3.52,1.69L14.45,56.52A8.4,8.4,0,0,1,8.47,59ZM28.28,17.38l-3,3a5.82,5.82,0,0,0-1.69,3.52l-.38,3.57A10.89,10.89,0,0,1,20.08,34h0L6,48.08A3.46,3.46,0,0,0,6,53a3.57,3.57,0,0,0,4.9,0L25,38.92a10.89,10.89,0,0,1,6.53-3.12l3.57-.38a5.87,5.87,0,0,0,3.53-1.69l3-3Zm-10,14.87h0Z"/><path d="M50.64,25.17a2.5,2.5,0,0,1-1.44-4.55l5.87-4.1a2.5,2.5,0,1,1,2.86,4.09l-5.86,4.11A2.47,2.47,0,0,1,50.64,25.17Z"/><path d="M36.33,10.87a2.51,2.51,0,0,1-2-3.94l4.11-5.86a2.5,2.5,0,1,1,4.09,2.86L38.38,9.8A2.53,2.53,0,0,1,36.33,10.87Z"/><path d="M45.13,16.37a2.49,2.49,0,0,1-1.77-.73,2.52,2.52,0,0,1,0-3.54L48.43,7A2.5,2.5,0,0,1,52,10.58L46.9,15.64A2.49,2.49,0,0,1,45.13,16.37Z"/></g></g></g></svg>