<svg xmlns="http://www.w3.org/2000/svg" viewBox="0 0 59 59"><title>flash off</title><g id="Layer_2" data-name="Layer 2"><g id="Layer_1-2" data-name="Layer 1"><g id="flash_off" data-name="flash off"><path d="M56.5,59a2.49,2.49,0,0,1-1.77-.73l-54-54A2.5,2.5,0,0,1,4.27.73l54,54a2.52,2.52,0,0,1,0,3.54A2.49,2.49,0,0,1,56.5,59Z"/><g id="flash"><path d="M44.43,32.79a2.5,2.5,0,0,1-2-3.93l1.67-2.41h-6a2.5,2.5,0,0,1,0-5H48.84a2.5,2.5,0,0,1,2,3.93l-4.41,6.33A2.5,2.5,0,0,1,44.43,32.79Z"/></g><g id="flash-2" data-name="flash"><path d="M31.45,19.8h-.24A2.49,2.49,0,0,1,29,17.07l.5-5.36-1.23,1.76a2.5,2.5,0,1,1-4.1-2.86l6.65-9.54a2.5,2.5,0,0,1,4.54,1.66L33.94,17.54A2.51,2.51,0,0,1,31.45,19.8Z"/></g><g id="flash-3" data-name="flash"><path d="M26.17,59a2.55,2.55,0,0,1-.86-.15,2.49,2.49,0,0,1-1.63-2.58l1.75-18.74H10.16A2.5,2.5,0,0,1,8.11,33.6L18.32,18.94a2.5,2.5,0,0,1,4.1,2.86L15,32.53H28.18a2.48,2.48,0,0,1,1.84.81,2.51,2.51,0,0,1,.65,1.92l-1.13,12,7-10.1a2.5,2.5,0,1,1,4.1,2.86L28.22,57.93A2.49,2.49,0,0,1,26.17,59Z"/></g></g></g></g></svg>