<svg xmlns="http://www.w3.org/2000/svg" viewBox="0 0 43.68 59"><title>flash</title><g id="Layer_2" data-name="Layer 2"><g id="Layer_1-2" data-name="Layer 1"><g id="flash"><path d="M18.51,59a2.55,2.55,0,0,1-.86-.15A2.51,2.51,0,0,1,16,56.27l1.75-18.75H2.5a2.5,2.5,0,0,1-2-3.93L23.12,1.07a2.5,2.5,0,0,1,4.54,1.66L25.91,21.45H41.18a2.5,2.5,0,0,1,2,3.93L20.56,57.93A2.51,2.51,0,0,1,18.51,59ZM7.29,32.52H20.52A2.5,2.5,0,0,1,23,35.26l-1.13,12L36.39,26.45H23.17a2.49,2.49,0,0,1-1.85-.82,2.45,2.45,0,0,1-.64-1.91l1.12-12Z"/></g></g></g></svg>