<svg xmlns="http://www.w3.org/2000/svg" viewBox="0 0 59 44.8"><defs><style>.cls-1{opacity:0.41;}</style></defs><title>flight takeoff</title><g id="Layer_2" data-name="Layer 2"><g id="Layer_1-2" data-name="Layer 1"><g id="flight_takeoff" data-name="flight takeoff"><path d="M16.64,34.62a11.83,11.83,0,0,1-7-2.3L2.17,26.83a2.49,2.49,0,0,1,.17-4.14l7.09-4.33a2.47,2.47,0,0,1,2.8.13l3.66,2.73,6.8-4.51L14.93,10.5a4.5,4.5,0,0,1,.64-7.45L20.05.57A4.49,4.49,0,0,1,24.29.5L37,7,47.38,1.27a7.09,7.09,0,0,1,7.13,12.26L22.82,32.88h0A11.9,11.9,0,0,1,16.64,34.62Zm4.88-3.87ZM8.13,25l4.47,3.28a6.81,6.81,0,0,0,7.61.32L51.91,9.26A2.1,2.1,0,0,0,49.8,5.64L38.23,12.05a2.5,2.5,0,0,1-2.36,0l-13.63-7-3.6,2L28.5,15a2.51,2.51,0,0,1-.19,4L17.18,26.36a2.51,2.51,0,0,1-2.88-.08L10.59,23.5Z"/><path d="M56.5,44.8H2.5a2.5,2.5,0,0,1,0-5h54a2.5,2.5,0,0,1,0,5Z"/></g></g></g></svg>