<svg xmlns="http://www.w3.org/2000/svg" viewBox="0 0 59 50.59"><defs><style>.cls-1{opacity:0.41;}</style></defs><title>flight land</title><g id="Layer_2" data-name="Layer 2"><g id="Layer_1-2" data-name="Layer 1"><g id="flight_land" data-name="flight land"><path d="M49,40.41a7,7,0,0,1-3.18-.76L12.65,23h0a11.8,11.8,0,0,1-6.5-11.47l.69-9.25A2.47,2.47,0,0,1,8.1.33,2.51,2.51,0,0,1,10.45.26L17.88,4a2.51,2.51,0,0,1,1.37,2.45L18.87,11l7.43,3.39,1.16-9.88A4.48,4.48,0,0,1,29.87,1a4.54,4.54,0,0,1,4.24.07l4.48,2.49a4.47,4.47,0,0,1,2.3,3.56l1.18,14.22,10.41,5.77A7.1,7.1,0,0,1,49,40.41ZM14.89,18.56,48.1,35.18a2.09,2.09,0,0,0,1.95-3.7L38.48,25.06a2.48,2.48,0,0,1-1.28-2L35.93,7.8l-3.59-2L30.86,18.35a2.5,2.5,0,0,1-3.52,2L15.2,14.8a2.5,2.5,0,0,1-1.46-2.49l.39-4.61L11.55,6.4l-.42,5.53a6.84,6.84,0,0,0,3.76,6.63Z"/><path d="M56.5,50.59H2.5a2.5,2.5,0,0,1,0-5h54a2.5,2.5,0,0,1,0,5Z"/></g></g></g></svg>