<svg xmlns="http://www.w3.org/2000/svg" viewBox="0 0 37.2 58.99"><defs><style>.cls-1{fill:#fff;}</style></defs><title>flower</title><g id="Layer_2" data-name="Layer 2"><g id="Layer_1-2" data-name="Layer 1"><g id="flower"><circle class="cls-1" cx="18.6" cy="17.11" r="5.03"/><path d="M18.61,24.64a7.53,7.53,0,0,1-6.1-3.1h0a7.52,7.52,0,1,1,6.1,3.1Zm-2.06-6a2.54,2.54,0,0,0,3.54.56,2.54,2.54,0,0,0,.56-3.54,2.53,2.53,0,1,0-4.1,3Z"/><path d="M10.55,17a2.35,2.35,0,0,1-.77-.13A8.64,8.64,0,1,1,21.1,8.65a2.5,2.5,0,0,1-5,0,3.65,3.65,0,1,0-4.77,3.47A2.5,2.5,0,0,1,10.55,17Z"/><path d="M18.6,36.21a8.65,8.65,0,0,1-7-13.73,2.5,2.5,0,0,1,4.05,2.94,3.65,3.65,0,1,0,5.9,0,2.5,2.5,0,1,1,4-2.94,8.65,8.65,0,0,1-7,13.73Z"/><path d="M28.52,29a8.59,8.59,0,0,1-7-3.57l-2-2.77a2.5,2.5,0,0,1,4-2.94l2,2.77a3.65,3.65,0,0,0,6.42-1,3.65,3.65,0,0,0-4.59-4.6,2.5,2.5,0,1,1-1.55-4.75,8.64,8.64,0,1,1,4,16.76A8.94,8.94,0,0,1,28.52,29Z"/><path d="M23.38,18.06a2.5,2.5,0,0,1-.77-4.88l3.26-1.06a3.57,3.57,0,0,0,2.47-2.9,3.64,3.64,0,1,0-7.24-.57v3.43a2.5,2.5,0,0,1-5,0V8.65a8.64,8.64,0,1,1,11.32,8.22l-3.26,1.06A2.36,2.36,0,0,1,23.38,18.06Z"/><path d="M8.67,29a9.14,9.14,0,0,1-1.37-.11,8.65,8.65,0,1,1,4-16.76l3.26,1.06A2.5,2.5,0,0,1,13,17.93L9.78,16.87a3.65,3.65,0,1,0,1.82,5.61l2-2.77a2.5,2.5,0,0,1,4,2.94l-2,2.77A8.61,8.61,0,0,1,8.67,29Z"/><path d="M18.6,59a2.49,2.49,0,0,1-2.5-2.5A18.61,18.61,0,0,1,34.7,37.9a2.5,2.5,0,0,1,2.5,2.5A18.62,18.62,0,0,1,18.6,59ZM31.91,43.18A13.63,13.63,0,0,0,21.39,53.71,13.64,13.64,0,0,0,31.91,43.18Z"/><path d="M18.6,59A18.61,18.61,0,0,1,0,40.4a2.5,2.5,0,0,1,2.5-2.5A18.61,18.61,0,0,1,21.1,56.49,2.49,2.49,0,0,1,18.6,59ZM5.29,43.18A13.64,13.64,0,0,0,15.81,53.71,13.64,13.64,0,0,0,5.29,43.18Z"/></g></g></g></svg>