<svg xmlns="http://www.w3.org/2000/svg" viewBox="0 0 59.01 58.71"><title>folder view</title><g id="Layer_2" data-name="Layer 2"><g id="Layer_1-2" data-name="Layer 1"><g id="folder_view" data-name="folder view"><path d="M17.5,58.71h-7A10.51,10.51,0,0,1,0,48.21v-35a2.5,2.5,0,0,1,2.5-2.5h46A10.51,10.51,0,0,1,59,21.21v9a2.5,2.5,0,1,1-5,0v-9a5.51,5.51,0,0,0-5.5-5.5H5v32.5a5.51,5.51,0,0,0,5.5,5.5h7a2.5,2.5,0,1,1,0,5Z"/><path d="M31.76,15.71H2.5A2.5,2.5,0,0,1,0,13.21V2.5A2.5,2.5,0,0,1,2.5,0H22.06a2.52,2.52,0,0,1,1.85.82l9.71,10.71a2.5,2.5,0,0,1-1.86,4.18ZM5,10.71H26.12L21,5H5Z"/><path d="M39.48,58.71c-8.1,0-14.83-6-18.12-9.58a5.09,5.09,0,0,1,0-7h0c3.29-3.57,10-9.57,18.12-9.57s14.9,6,18.2,9.65a5,5,0,0,1,0,6.79C54.38,52.66,47.63,58.71,39.48,58.71Zm0-21.1c-6.42,0-12.24,5.56-14.44,8h0a.13.13,0,0,0,0,.18c2.2,2.39,8,8,14.44,8s12.3-5.62,14.51-8C51.78,43.22,45.94,37.61,39.48,37.61ZM23.2,43.87h0Z"/><circle cx="39.48" cy="45.66" r="3.96"/></g></g></g></svg>