<svg xmlns="http://www.w3.org/2000/svg" viewBox="0 0 59 58.71"><title>folder settings</title><g id="Layer_2" data-name="Layer 2"><g id="Layer_1-2" data-name="Layer 1"><g id="folder_settings" data-name="folder settings"><path d="M20.5,58.71h-10A10.51,10.51,0,0,1,0,48.21v-35a2.5,2.5,0,0,1,2.5-2.5h46A10.51,10.51,0,0,1,59,21.21a2.5,2.5,0,1,1-5,0,5.51,5.51,0,0,0-5.5-5.5H5v32.5a5.51,5.51,0,0,0,5.5,5.5h10a2.5,2.5,0,1,1,0,5Z"/><path d="M31.76,15.71H2.5A2.5,2.5,0,0,1,0,13.21V2.5A2.5,2.5,0,0,1,2.5,0H22.06a2.52,2.52,0,0,1,1.85.82l9.71,10.71a2.5,2.5,0,0,1-1.86,4.18ZM5,10.71H26.12L21,5H5Z"/><path d="M44.39,58.71H37.27a2.5,2.5,0,0,1-2.5-2.5V53.06a1.39,1.39,0,0,0-.69-1.2,1.43,1.43,0,0,0-1.39,0L30,53.44a2.52,2.52,0,0,1-1.9.25,2.58,2.58,0,0,1-1.52-1.17L23,46.36a2.51,2.51,0,0,1,.91-3.42l2.73-1.57a1.39,1.39,0,0,0,0-2.4L23.91,37.4A2.51,2.51,0,0,1,23,34l3.55-6.16A2.5,2.5,0,0,1,30,26.9l2.72,1.58a1.43,1.43,0,0,0,1.39,0,1.39,1.39,0,0,0,.69-1.2V24.13a2.5,2.5,0,0,1,2.5-2.5h7.12a2.5,2.5,0,0,1,2.5,2.5v3.15a1.36,1.36,0,0,0,.69,1.19,1.41,1.41,0,0,0,1.39,0l2.72-1.58a2.52,2.52,0,0,1,1.9-.25,2.48,2.48,0,0,1,1.52,1.17L58.67,34a2.5,2.5,0,0,1-.92,3.42L55,39a1.38,1.38,0,0,0,0,2.4l2.72,1.57a2.5,2.5,0,0,1,.92,3.42l-3.56,6.16a2.58,2.58,0,0,1-1.52,1.17,2.52,2.52,0,0,1-1.9-.25L49,51.86a1.43,1.43,0,0,0-1.39,0,1.39,1.39,0,0,0-.69,1.2v3.15A2.5,2.5,0,0,1,44.39,58.71Zm-4.62-5h2.12v-.65a6.39,6.39,0,0,1,9.58-5.53l.56.33,1-1.84-.55-.32a6.38,6.38,0,0,1,0-11.06l.55-.32-1-1.84-.56.33a6.39,6.39,0,0,1-9.58-5.53v-.65H39.77v.65a6.39,6.39,0,0,1-9.58,5.53l-.56-.33-1.05,1.84.56.32a6.39,6.39,0,0,1,0,11.06l-.56.32,1.05,1.84.56-.33a6.39,6.39,0,0,1,9.58,5.53Z"/><path d="M40.83,46.83a6.66,6.66,0,1,1,6.66-6.66A6.67,6.67,0,0,1,40.83,46.83Zm0-8.32a1.66,1.66,0,1,0,1.66,1.66A1.66,1.66,0,0,0,40.83,38.51Z"/></g></g></g></svg>