<svg xmlns="http://www.w3.org/2000/svg" viewBox="0 0 59 58.71"><title>folder open</title><g id="Layer_2" data-name="Layer 2"><g id="Layer_1-2" data-name="Layer 1"><g id="folder_open" data-name="folder open"><path d="M48.5,58.71h-38A10.51,10.51,0,0,1,0,48.21v-35a2.5,2.5,0,0,1,2.5-2.5h46A10.51,10.51,0,0,1,59,21.21v27A10.51,10.51,0,0,1,48.5,58.71ZM5,15.71v32.5a5.51,5.51,0,0,0,5.5,5.5h38a5.51,5.51,0,0,0,5.5-5.5v-27a5.51,5.51,0,0,0-5.5-5.5Z"/><path d="M31.76,15.71H2.5A2.5,2.5,0,0,1,0,13.21V2.5A2.5,2.5,0,0,1,2.5,0H22.06a2.52,2.52,0,0,1,1.85.82l9.71,10.71a2.5,2.5,0,0,1-1.86,4.18ZM5,10.71H26.12L21,5H5Z"/></g></g></g></svg>