<svg xmlns="http://www.w3.org/2000/svg" viewBox="0 0 59 58.71"><title>folder editing</title><g id="Layer_2" data-name="Layer 2"><g id="Layer_1-2" data-name="Layer 1"><g id="folder_editing" data-name="folder editing"><path d="M20.5,58.71h-10A10.51,10.51,0,0,1,0,48.21v-35a2.5,2.5,0,0,1,2.5-2.5h46A10.51,10.51,0,0,1,59,21.21a2.5,2.5,0,1,1-5,0,5.51,5.51,0,0,0-5.5-5.5H5v32.5a5.51,5.51,0,0,0,5.5,5.5h10a2.5,2.5,0,1,1,0,5Z"/><path d="M31.76,15.71H2.5A2.5,2.5,0,0,1,0,13.21V2.5A2.5,2.5,0,0,1,2.5,0H22.06a2.52,2.52,0,0,1,1.85.82l9.71,10.71a2.5,2.5,0,0,1-1.86,4.18ZM5,10.71H26.12L21,5H5Z"/><path d="M31.5,58.71a2.49,2.49,0,0,1-2.42-3.12l2-7.67a2.42,2.42,0,0,1,.66-1.15L49,29.44a2.5,2.5,0,0,1,3.54,0l5.71,5.71a2.52,2.52,0,0,1,0,3.54L40.94,56a2.56,2.56,0,0,1-1.15.66l-7.67,2A2.57,2.57,0,0,1,31.5,58.71Zm7.67-4.47h0Zm-3.45-4.42L35,52.74,37.89,52,53,36.92l-2.17-2.18Z"/></g></g></g></svg>