<svg xmlns="http://www.w3.org/2000/svg" viewBox="0 0 59 59"><title>football</title><g id="Layer_2" data-name="Layer 2"><g id="Layer_1-2" data-name="Layer 1"><g id="football"><path d="M29.48,59A29.5,29.5,0,0,1,3.23,16.11,29.49,29.49,0,1,1,38.62,57.55h0A29.69,29.69,0,0,1,29.48,59Zm0-54a24.49,24.49,0,1,0,7.59,47.79h0A24.5,24.5,0,0,0,29.49,5Z"/><path d="M29.35,19.74h0a2.51,2.51,0,0,1-2.49-2.52l0-4.59a2.51,2.51,0,0,1,2.5-2.49h0a2.49,2.49,0,0,1,2.48,2.51l0,4.6A2.5,2.5,0,0,1,29.35,19.74Z"/><path d="M41.35,28.2a2.5,2.5,0,0,1-.88-4.84l4.16-1.55a2.5,2.5,0,0,1,1.74,4.69L42.22,28A2.43,2.43,0,0,1,41.35,28.2Z"/><path d="M56.5,32.52a2.54,2.54,0,0,1-1.16-.28l-11-5.74a2.51,2.51,0,0,1-1.08-3.33l5.5-11.08a2.5,2.5,0,0,1,4.48,2.23L48.87,23.2l8.79,4.61a2.5,2.5,0,0,1-1.16,4.71Z"/><path d="M39.53,45.56a2.49,2.49,0,0,1-2-1L35,41.24a2.5,2.5,0,1,1,4-3l2.53,3.32a2.5,2.5,0,0,1-2,4Z"/><path d="M37.35,57.82a3.07,3.07,0,0,1-.42,0,2.49,2.49,0,0,1-2-2.88L37,42.72a2.51,2.51,0,0,1,2.83-2.06L52,42.46a2.5,2.5,0,0,1-.73,4.95L41.47,46l-1.65,9.77A2.51,2.51,0,0,1,37.35,57.82Z"/><path d="M21.66,57.82a2.5,2.5,0,0,1-2.46-2.08L17.54,46,7.73,47.41A2.5,2.5,0,1,1,7,42.47l12.23-1.81a2.51,2.51,0,0,1,2.83,2.06l2.07,12.19a2.5,2.5,0,0,1-2.05,2.88A3,3,0,0,1,21.66,57.82Z"/><path d="M19.71,45.72a2.5,2.5,0,0,1-2-4.06l2.6-3.28a2.5,2.5,0,1,1,3.92,3.11l-2.6,3.28A2.52,2.52,0,0,1,19.71,45.72Z"/><path d="M17.59,28.53a2.66,2.66,0,0,1-.91-.17l-4.15-1.61a2.5,2.5,0,0,1,1.81-4.67l4.15,1.61a2.5,2.5,0,0,1-.9,4.84Z"/><path d="M2.52,32.52A2.5,2.5,0,0,1,1.36,27.8l8.79-4.6L5.74,14.32a2.5,2.5,0,1,1,4.48-2.22l5.49,11.08a2.49,2.49,0,0,1-1.08,3.32l-11,5.73A2.39,2.39,0,0,1,2.52,32.52Z"/><path d="M29.51,15.14a2.53,2.53,0,0,1-1.75-.71L18.92,5.78a2.5,2.5,0,1,1,3.5-3.58l7.09,6.94L36.6,2.2a2.5,2.5,0,0,1,3.5,3.58l-8.84,8.65A2.53,2.53,0,0,1,29.51,15.14Z"/><path d="M22.31,42.43A2.49,2.49,0,0,1,20,40.74L15.22,26.83A2.5,2.5,0,0,1,16.09,24l11.76-8.79a2.52,2.52,0,0,1,2.94,0l12,8.47a2.5,2.5,0,0,1,.94,2.78l-4.34,14A2.49,2.49,0,0,1,37,42.23l-14.68.2ZM37,39.73h0ZM20.54,26.94,24.1,37.41l11-.15L38.42,26.7l-9-6.37Z"/></g></g></g></svg>