<svg xmlns="http://www.w3.org/2000/svg" viewBox="0 0 59 48.07"><title>forklift</title><g id="Layer_2" data-name="Layer 2"><g id="Layer_1-2" data-name="Layer 1"><g id="forklift"><path d="M31.78,48.07a7.5,7.5,0,1,1,7.5-7.5A7.5,7.5,0,0,1,31.78,48.07Zm0-10a2.5,2.5,0,1,0,2.5,2.5A2.5,2.5,0,0,0,31.78,38.07Z"/><path d="M13.76,48.07a7.5,7.5,0,1,1,7.5-7.5A7.5,7.5,0,0,1,13.76,48.07Zm0-10a2.5,2.5,0,1,0,2.5,2.5A2.5,2.5,0,0,0,13.76,38.07Z"/><path d="M26.45,43.07H19a2.5,2.5,0,0,1,0-5h7.46a2.5,2.5,0,0,1,0,5Z"/><path d="M56.5,43.07H43.73a2.5,2.5,0,0,1-2.5-2.5V2.5a2.5,2.5,0,0,1,5,0V38.07H56.5a2.5,2.5,0,0,1,0,5Z"/><path d="M43.73,43.07H37a2.5,2.5,0,0,1,0-5h6.72a2.5,2.5,0,0,1,0,5Z"/><path d="M8.53,43.07h-6A2.5,2.5,0,0,1,0,40.57V29.26a7.74,7.74,0,0,1,7.73-7.73H17a2.5,2.5,0,0,1,0,5H7.73A2.73,2.73,0,0,0,5,29.26v8.81H8.53a2.5,2.5,0,1,1,0,5Z"/><path d="M37,31.69H17a2.5,2.5,0,0,1-2.5-2.5V7.45A2.5,2.5,0,0,1,17,5H26.6A7.69,7.69,0,0,1,34,10.46l4.87,16.23h4.86a2.5,2.5,0,0,1,0,5H37Zm-17.51-5H33.65L29.21,11.9a2.71,2.71,0,0,0-2.61-2H19.49Z"/></g></g></g></svg>