<svg xmlns="http://www.w3.org/2000/svg" viewBox="0 0 49 59"><title>form</title><g id="Layer_2" data-name="Layer 2"><g id="Layer_1-2" data-name="Layer 1"><g id="form"><path d="M36.5,32.17h-24a2.5,2.5,0,0,1,0-5h24a2.5,2.5,0,0,1,0,5Z"/><path d="M36.5,19.17h-24a2.5,2.5,0,0,1,0-5h24a2.5,2.5,0,0,1,0,5Z"/><path d="M24.5,44.83h-12a2.5,2.5,0,0,1,0-5h12a2.5,2.5,0,0,1,0,5Z"/><path d="M38.5,59h-28A10.51,10.51,0,0,1,0,48.5v-38A10.51,10.51,0,0,1,10.5,0h28A10.51,10.51,0,0,1,49,10.5v38A10.51,10.51,0,0,1,38.5,59ZM10.5,5A5.51,5.51,0,0,0,5,10.5v38A5.51,5.51,0,0,0,10.5,54h28A5.51,5.51,0,0,0,44,48.5v-38A5.51,5.51,0,0,0,38.5,5Z"/></g></g></g></svg>