<svg xmlns="http://www.w3.org/2000/svg" viewBox="0 0 59 59"><title>format shapes</title><g id="Layer_2" data-name="Layer 2"><g id="Layer_1-2" data-name="Layer 1"><g id="format_shapes" data-name="format shapes"><path d="M38.83,24.61a2.5,2.5,0,0,1-2.5-2.5V21.5H22.67v.61a2.5,2.5,0,0,1-5,0V19l2.5-2.5H38.83l2.5,2.5v3.11A2.5,2.5,0,0,1,38.83,24.61Z"/><path d="M29.5,42.5A2.5,2.5,0,0,1,27,40V19a2.5,2.5,0,0,1,5,0V40A2.5,2.5,0,0,1,29.5,42.5Z"/><path d="M33,42.5H26a2.5,2.5,0,0,1,0-5h7a2.5,2.5,0,0,1,0,5Z"/><path d="M56.5,14.64H46.86l-2.5-2.5V2.5L46.86,0H56.5L59,2.5v9.64Zm-7.14-5H54V5H49.36Z"/><path d="M12.14,14.64H2.5L0,12.14V2.5L2.5,0h9.64l2.5,2.5v9.64ZM5,9.64H9.64V5H5Z"/><path d="M12.14,59H2.5L0,56.5V46.86l2.5-2.5h9.64l2.5,2.5V56.5ZM5,54H9.64V49.36H5Z"/><path d="M56.5,59H46.86l-2.5-2.5V46.86l2.5-2.5H56.5l2.5,2.5V56.5Zm-7.14-5H54V49.36H49.36Z"/><path d="M46.86,9.82H12.14a2.5,2.5,0,0,1,0-5H46.86a2.5,2.5,0,0,1,0,5Z"/><path d="M7.32,49.36a2.5,2.5,0,0,1-2.5-2.5V12.14a2.5,2.5,0,0,1,5,0V46.86A2.5,2.5,0,0,1,7.32,49.36Z"/><path d="M46.86,54.18H12.14a2.5,2.5,0,0,1,0-5H46.86a2.5,2.5,0,0,1,0,5Z"/><path d="M51.68,49.36a2.5,2.5,0,0,1-2.5-2.5V12.14a2.5,2.5,0,0,1,5,0V46.86A2.5,2.5,0,0,1,51.68,49.36Z"/></g></g></g></svg>