<svg xmlns="http://www.w3.org/2000/svg" viewBox="0 0 59 53"><title>format align center</title><g id="Layer_2" data-name="Layer 2"><g id="Layer_1-2" data-name="Layer 1"><g id="format_align_center" data-name="format align center"><path d="M56.5,5H2.5a2.5,2.5,0,0,1,0-5h54a2.5,2.5,0,0,1,0,5Z"/><path d="M47.5,21h-36a2.5,2.5,0,0,1,0-5h36a2.5,2.5,0,0,1,0,5Z"/><path d="M56.5,37H2.5a2.5,2.5,0,0,1,0-5h54a2.5,2.5,0,0,1,0,5Z"/><path d="M47.5,53h-36a2.5,2.5,0,0,1,0-5h36a2.5,2.5,0,0,1,0,5Z"/></g></g></g></svg>