<svg xmlns="http://www.w3.org/2000/svg" viewBox="0 0 44.8 60"><title>format bold</title><g id="Layer_2" data-name="Layer 2"><g id="Layer_1-2" data-name="Layer 1"><g id="format_bold" data-name="format bold"><path d="M9.8,60a3,3,0,0,1-3-3V3a3,3,0,1,1,6,0V57A3,3,0,0,1,9.8,60Z"/><path d="M28.3,60H3a3,3,0,0,1,0-6H28.3a10.5,10.5,0,0,0,0-21H9.8a3,3,0,0,1,0-6H28.3a16.5,16.5,0,0,1,0,33Z"/><path d="M23.3,33H9.8a3,3,0,0,1,0-6H23.3a10.5,10.5,0,0,0,0-21H3A3,3,0,0,1,3,0H23.3a16.5,16.5,0,0,1,0,33Z"/></g></g></g></svg>