<svg xmlns="http://www.w3.org/2000/svg" viewBox="0 0 59 48.14"><title>format size</title><g id="Layer_2" data-name="Layer 2"><g id="Layer_1-2" data-name="Layer 1"><g id="format_size" data-name="format size"><path d="M40.85,11.39a2.5,2.5,0,0,1-2.5-2.5V5H5V8.89a2.5,2.5,0,0,1-5,0V2.5L2.5,0H40.85l2.5,2.5V8.89A2.5,2.5,0,0,1,40.85,11.39Z"/><path d="M21.67,48.14a2.5,2.5,0,0,1-2.5-2.5V2.5a2.5,2.5,0,0,1,5,0V45.64A2.49,2.49,0,0,1,21.67,48.14Z"/><path d="M28.87,48.14H14.48a2.5,2.5,0,0,1,0-5H28.87a2.5,2.5,0,1,1,0,5Z"/><path d="M56.5,24.41a2.5,2.5,0,0,1-2.5-2.5V20.28H34.23v1.63a2.5,2.5,0,0,1-5,0V17.78l2.5-2.5H56.5l2.5,2.5v4.13A2.5,2.5,0,0,1,56.5,24.41Z"/><path d="M44.12,48.14a2.5,2.5,0,0,1-2.5-2.5V17.78a2.5,2.5,0,0,1,5,0V45.64A2.5,2.5,0,0,1,44.12,48.14Z"/><path d="M48.76,48.14H39.47a2.5,2.5,0,0,1,0-5h9.29a2.5,2.5,0,1,1,0,5Z"/></g></g></g></svg>