<svg xmlns="http://www.w3.org/2000/svg" viewBox="0 0 53 59"><title>format underlined</title><g id="Layer_2" data-name="Layer 2"><g id="Layer_1-2" data-name="Layer 1"><g id="format_underlined" data-name="format underlined"><path d="M26.5,49A21.38,21.38,0,0,1,5.14,27.64V2.5a2.5,2.5,0,0,1,5,0V27.64a16.36,16.36,0,0,0,32.72,0V2.5a2.5,2.5,0,0,1,5,0V27.64A21.38,21.38,0,0,1,26.5,49Z"/><path d="M12.53,5H2.75a2.5,2.5,0,0,1,0-5h9.78a2.5,2.5,0,0,1,0,5Z"/><path d="M50.25,5H40.47a2.5,2.5,0,0,1,0-5h9.78a2.5,2.5,0,0,1,0,5Z"/><path d="M50.5,59H2.5a2.5,2.5,0,0,1,0-5h48a2.5,2.5,0,0,1,0,5Z"/></g></g></g></svg>