<svg xmlns="http://www.w3.org/2000/svg" viewBox="0 0 53 59"><title>format strikethrough</title><g id="Layer_2" data-name="Layer 2"><g id="Layer_1-2" data-name="Layer 1"><g id="format_strikethrough" data-name="format strikethrough"><path d="M48.5,35H4.5a2.5,2.5,0,0,1,0-5h44a2.5,2.5,0,0,1,0,5Z"/><path d="M50.5,13A2.5,2.5,0,0,1,48,10.5V5H5v5.5a2.5,2.5,0,0,1-5,0v-8L2.5,0h48L53,2.5v8A2.5,2.5,0,0,1,50.5,13Z"/><path d="M26.5,59A2.5,2.5,0,0,1,24,56.5v-24a2.5,2.5,0,0,1,5,0v24A2.5,2.5,0,0,1,26.5,59Z"/><path d="M26.5,25.6A2.5,2.5,0,0,1,24,23.1V2.5a2.5,2.5,0,0,1,5,0V23.1A2.5,2.5,0,0,1,26.5,25.6Z"/><path d="M35.5,59h-18a2.5,2.5,0,0,1,0-5h18a2.5,2.5,0,0,1,0,5Z"/></g></g></g></svg>