<svg xmlns="http://www.w3.org/2000/svg" viewBox="0 0 59 51.79"><title>forum</title><g id="Layer_2" data-name="Layer 2"><g id="Layer_1-2" data-name="Layer 1"><g id="forum"><path d="M46.54,42.14a2.54,2.54,0,0,1-1.25-.33L32.83,34.67a2.5,2.5,0,1,1,2.48-4.34l8.73,5V32.41a2.5,2.5,0,0,1,5,0v7.23a2.49,2.49,0,0,1-2.5,2.5Z"/><path d="M34.07,35H27.36A14,14,0,0,1,13.43,21.07V13.93A14,14,0,0,1,27.36,0H45.07A14,14,0,0,1,59,13.93v7.14A14,14,0,0,1,46.85,34.89a2.5,2.5,0,0,1-.63-5A9,9,0,0,0,54,21.07V13.93A9,9,0,0,0,45.07,5H27.36a8.94,8.94,0,0,0-8.93,8.93v7.14A8.94,8.94,0,0,0,27.36,30h6.71a2.5,2.5,0,0,1,0,5Z"/><path d="M12.46,51.79a2.55,2.55,0,0,1-1.25-.34A2.51,2.51,0,0,1,10,49.29V42.05a2.5,2.5,0,0,1,5,0V45l8.73-5a2.5,2.5,0,1,1,2.48,4.34L13.71,51.46A2.54,2.54,0,0,1,12.46,51.79Z"/><path d="M29.64,44.64H24.93a2.5,2.5,0,1,1,0-5h4.71a8.87,8.87,0,0,0,8-4.94,2.5,2.5,0,0,1,4.47,2.24A13.85,13.85,0,0,1,29.64,44.64Z"/><path d="M12.47,44.55l-.32,0A14,14,0,0,1,0,30.71V23.57A14,14,0,0,1,13.93,9.64h2.14a2.5,2.5,0,0,1,0,5H13.93A8.94,8.94,0,0,0,5,23.57v7.14a8.93,8.93,0,0,0,7.78,8.86,2.5,2.5,0,0,1-.31,5Z"/><path d="M44.21,24.75h-16a2.5,2.5,0,0,1,0-5h16a2.5,2.5,0,1,1,0,5Z"/><path d="M44.21,15.25h-16a2.5,2.5,0,0,1,0-5h16a2.5,2.5,0,0,1,0,5Z"/></g></g></g></svg>