<svg xmlns="http://www.w3.org/2000/svg" viewBox="0 0 51.57 59"><title>forward 10</title><g id="Layer_2" data-name="Layer 2"><g id="Layer_1-2" data-name="Layer 1"><g id="forward_10" data-name="forward 10"><path d="M23.42,21.41a2.5,2.5,0,0,1-1.77-4.26l6.44-6.44L21.65,4.27A2.5,2.5,0,0,1,25.19.73l8.2,8.21a2.49,2.49,0,0,1,0,3.53l-8.2,8.21A2.49,2.49,0,0,1,23.42,21.41Z"/><path d="M25.76,59A25.78,25.78,0,0,1,7.54,15,25.9,25.9,0,0,1,32.25,8.28,2.5,2.5,0,1,1,31,13.12a20.78,20.78,0,0,0-19.93,34.8A20.78,20.78,0,0,0,43.35,22.17a2.5,2.5,0,0,1,4.23-2.66A25.78,25.78,0,0,1,25.76,59Z"/><path d="M18.63,43.23a2,2,0,0,1-2-2V32.06l-.94.94a2,2,0,1,1-2.83-2.83l4.36-4.36a2,2,0,0,1,3.41,1.42v14A2,2,0,0,1,18.63,43.23Z"/><path d="M32,43.23c-4,0-7.25-4-7.25-9s3.25-9,7.25-9,7.25,4,7.25,9S36,43.23,32,43.23Zm0-14c-1.76,0-3.25,2.29-3.25,5s1.49,5,3.25,5,3.25-2.29,3.25-5S33.75,29.23,32,29.23Z"/></g></g></g></svg>