<svg xmlns="http://www.w3.org/2000/svg" viewBox="0 0 51.57 59"><title>forward 5</title><g id="Layer_2" data-name="Layer 2"><g id="Layer_1-2" data-name="Layer 1"><g id="forward_5" data-name="forward 5"><path d="M23.42,21.41a2.5,2.5,0,0,1-1.77-4.26l6.44-6.44L21.65,4.27A2.5,2.5,0,0,1,25.19.73l8.2,8.21a2.49,2.49,0,0,1,0,3.53l-8.2,8.21A2.49,2.49,0,0,1,23.42,21.41Z"/><path d="M25.76,59A25.78,25.78,0,0,1,7.54,15,25.9,25.9,0,0,1,32.25,8.28,2.5,2.5,0,1,1,31,13.12a20.78,20.78,0,0,0-19.93,34.8A20.78,20.78,0,0,0,43.35,22.17a2.5,2.5,0,0,1,4.23-2.66A25.78,25.78,0,0,1,25.76,59Z"/><path d="M25.51,46.16a7.11,7.11,0,0,1-6.38-4,2,2,0,1,1,3.6-1.73A3.08,3.08,0,1,0,25.51,36H22.7a2,2,0,0,1-2-2V28.16a2,2,0,0,1,2-2H30a2,2,0,0,1,0,4H24.7V32h.81a7.08,7.08,0,1,1,0,14.15Z"/></g></g></g></svg>