<svg xmlns="http://www.w3.org/2000/svg" viewBox="0 0 51.57 59"><title>forward 30</title><g id="Layer_2" data-name="Layer 2"><g id="Layer_1-2" data-name="Layer 1"><g id="forward_30" data-name="forward 30"><path d="M23.42,21.41a2.49,2.49,0,0,1-1.77-.73,2.52,2.52,0,0,1,0-3.54l6.44-6.43L21.65,4.27A2.5,2.5,0,0,1,25.19.73l8.2,8.21a2.47,2.47,0,0,1,0,3.53l-8.2,8.21A2.49,2.49,0,0,1,23.42,21.41Z"/><path d="M25.76,59A25.78,25.78,0,0,1,7.54,15,25.9,25.9,0,0,1,32.25,8.28,2.5,2.5,0,1,1,31,13.12a20.78,20.78,0,0,0-19.93,34.8A20.78,20.78,0,0,0,43.35,22.17a2.5,2.5,0,0,1,4.23-2.66A25.78,25.78,0,0,1,25.76,59Z"/><path d="M32.81,43.62c-3.64,0-6.6-3.64-6.6-8.12s2.9-8.13,6.6-8.13,6.59,3.57,6.59,8.13S36.51,43.62,32.81,43.62Zm0-12.25c-1.23,0-2.6,1.7-2.6,4.13s1.37,4.12,2.6,4.12,2.59-1.69,2.59-4.12S34,31.37,32.81,31.37Z"/><path d="M17.62,37.5a2,2,0,0,1,0-4,1.5,1.5,0,1,0-1.34-2.18,2,2,0,1,1-3.57-1.8,5.5,5.5,0,1,1,4.91,8Z"/><path d="M17.62,44.5a5.48,5.48,0,0,1-4.91-3,2,2,0,1,1,3.57-1.81,1.49,1.49,0,0,0,1.34.83,1.5,1.5,0,1,0,0-3,2,2,0,0,1,0-4,5.5,5.5,0,1,1,0,11Z"/></g></g></g></svg>