<svg xmlns="http://www.w3.org/2000/svg" viewBox="0 0 59 38.6"><title>frying pan</title><g id="Layer_2" data-name="Layer 2"><g id="Layer_1-2" data-name="Layer 1"><g id="frying_pan" data-name="frying pan"><path d="M24.9,38.6H10.75A10.76,10.76,0,0,1,0,27.85v-4a2.49,2.49,0,0,1,2.5-2.5H33.15a2.49,2.49,0,0,1,2.5,2.5v4A10.77,10.77,0,0,1,24.9,38.6ZM5,26.35v1.5a5.75,5.75,0,0,0,5.75,5.75H24.9a5.75,5.75,0,0,0,5.75-5.75v-1.5Z"/><path d="M6.44,17.26a2.53,2.53,0,0,1-1.77-.73,6.84,6.84,0,0,1,0-9.67,1.82,1.82,0,0,0,.54-1.3,1.78,1.78,0,0,0-.54-1.29A2.5,2.5,0,0,1,8.21.73a6.84,6.84,0,0,1,0,9.67,1.78,1.78,0,0,0-.54,1.29A1.82,1.82,0,0,0,8.21,13a2.5,2.5,0,0,1-1.77,4.27Z"/><path d="M17.82,17.26a2.49,2.49,0,0,1-1.76-.73,6.82,6.82,0,0,1,0-9.67,1.86,1.86,0,0,0,.53-1.3,1.81,1.81,0,0,0-.53-1.29A2.5,2.5,0,0,1,19.59.73a6.84,6.84,0,0,1,0,9.67,1.82,1.82,0,0,0-.54,1.29,1.87,1.87,0,0,0,.54,1.3,2.5,2.5,0,0,1,0,3.54A2.53,2.53,0,0,1,17.82,17.26Z"/><path d="M29.21,17.26a2.53,2.53,0,0,1-1.77-.73,6.84,6.84,0,0,1,0-9.67A1.87,1.87,0,0,0,28,5.56a1.82,1.82,0,0,0-.54-1.29A2.5,2.5,0,1,1,31,.73a6.82,6.82,0,0,1,0,9.67,1.81,1.81,0,0,0-.53,1.29A1.86,1.86,0,0,0,31,13a2.5,2.5,0,0,1-1.76,4.27Z"/><path d="M42.31,29.92H33.15a2.5,2.5,0,0,1,0-5h9.16a2.5,2.5,0,0,1,0,5Z"/><path d="M52.92,33.5H42.31a2.5,2.5,0,0,1-2.5-2.5V23.85a2.49,2.49,0,0,1,2.5-2.5H52.92a6.08,6.08,0,1,1,0,12.15Zm-8.11-5h8.11a1.08,1.08,0,1,0,0-2.15H44.81Z"/></g></g></g></svg>