<svg xmlns="http://www.w3.org/2000/svg" viewBox="0 0 59 59"><title>fullscreen</title><g id="Layer_2" data-name="Layer 2"><g id="Layer_1-2" data-name="Layer 1"><g id="fullscreen"><g id="arrow_drop_down" data-name="arrow drop down"><path d="M56.5,17A2.5,2.5,0,0,1,54,14.5V5H44.5a2.5,2.5,0,0,1,0-5h12A2.5,2.5,0,0,1,59,2.5v12A2.5,2.5,0,0,1,56.5,17Z"/></g><g id="arrow_drop_down-2" data-name="arrow drop down"><path d="M2.5,17A2.5,2.5,0,0,1,0,14.5V2.5A2.5,2.5,0,0,1,2.5,0h12a2.5,2.5,0,0,1,0,5H5v9.5A2.5,2.5,0,0,1,2.5,17Z"/></g><g id="arrow_drop_down-3" data-name="arrow drop down"><path d="M14.5,59H2.5A2.5,2.5,0,0,1,0,56.5v-12a2.5,2.5,0,0,1,5,0V54h9.5a2.5,2.5,0,0,1,0,5Z"/></g><g id="arrow_drop_down-4" data-name="arrow drop down"><path d="M56.5,59h-12a2.5,2.5,0,0,1,0-5H54V44.5a2.5,2.5,0,0,1,5,0v12A2.5,2.5,0,0,1,56.5,59Z"/></g></g></g></g></svg>