<svg xmlns="http://www.w3.org/2000/svg" viewBox="0 0 59 59"><title>full screen</title><g id="Layer_2" data-name="Layer 2"><g id="Layer_1-2" data-name="Layer 1"><g id="full_screen" data-name="full screen"><path d="M2.5,21A2.5,2.5,0,0,1,0,18.5V2.5A2.5,2.5,0,0,1,2.5,0h16a2.5,2.5,0,0,1,0,5H5V18.5A2.5,2.5,0,0,1,2.5,21Z"/><path d="M56.5,21A2.5,2.5,0,0,1,54,18.5V5H40.5a2.5,2.5,0,0,1,0-5h16A2.5,2.5,0,0,1,59,2.5v16A2.5,2.5,0,0,1,56.5,21Z"/><path d="M56.5,59h-16a2.5,2.5,0,0,1,0-5H54V40.5a2.5,2.5,0,0,1,5,0v16A2.5,2.5,0,0,1,56.5,59Z"/><path d="M18.5,59H2.5A2.5,2.5,0,0,1,0,56.5v-16a2.5,2.5,0,0,1,5,0V54H18.5a2.5,2.5,0,0,1,0,5Z"/><path d="M38.5,23a2.49,2.49,0,0,1-1.77-.73,2.52,2.52,0,0,1,0-3.54l18-18a2.5,2.5,0,0,1,3.54,3.54l-18,18A2.49,2.49,0,0,1,38.5,23Z"/><path d="M20.5,23a2.49,2.49,0,0,1-1.77-.73l-18-18A2.5,2.5,0,0,1,4.27.73l18,18a2.52,2.52,0,0,1,0,3.54A2.49,2.49,0,0,1,20.5,23Z"/><path d="M56.5,59a2.49,2.49,0,0,1-1.77-.73l-18-18a2.5,2.5,0,0,1,3.54-3.54l18,18a2.52,2.52,0,0,1,0,3.54A2.49,2.49,0,0,1,56.5,59Z"/><path d="M2.5,59a2.49,2.49,0,0,1-1.77-.73,2.52,2.52,0,0,1,0-3.54l18-18a2.5,2.5,0,0,1,3.54,3.54l-18,18A2.49,2.49,0,0,1,2.5,59Z"/></g></g></g></svg>