<svg xmlns="http://www.w3.org/2000/svg" viewBox="0 0 59 59"><title>fullscreen exit</title><g id="Layer_2" data-name="Layer 2"><g id="Layer_1-2" data-name="Layer 1"><g id="fullscreen_exit" data-name="fullscreen exit"><g id="arrow_drop_down" data-name="arrow drop down"><path d="M56.5,17h-12A2.5,2.5,0,0,1,42,14.5V2.5a2.5,2.5,0,0,1,5,0V12h9.5a2.5,2.5,0,0,1,0,5Z"/></g><g id="arrow_drop_down-2" data-name="arrow drop down"><path d="M14.5,17H2.5a2.5,2.5,0,0,1,0-5H12V2.5a2.5,2.5,0,0,1,5,0v12A2.5,2.5,0,0,1,14.5,17Z"/></g><g id="arrow_drop_down-3" data-name="arrow drop down"><path d="M14.5,59A2.5,2.5,0,0,1,12,56.5V47H2.5a2.5,2.5,0,0,1,0-5h12A2.5,2.5,0,0,1,17,44.5v12A2.5,2.5,0,0,1,14.5,59Z"/></g><g id="arrow_drop_down-4" data-name="arrow drop down"><path d="M44.5,59A2.5,2.5,0,0,1,42,56.5v-12A2.5,2.5,0,0,1,44.5,42h12a2.5,2.5,0,0,1,0,5H47v9.5A2.5,2.5,0,0,1,44.5,59Z"/></g></g></g></g></svg>