<svg xmlns="http://www.w3.org/2000/svg" viewBox="0 0 59 59"><title>g translate</title><g id="Layer_2" data-name="Layer 2"><g id="Layer_1-2" data-name="Layer 1"><g id="g_translate" data-name="g translate"><path d="M30.85,18.63H10.15a2.5,2.5,0,1,1,0-5h20.7a2.5,2.5,0,1,1,0,5Z"/><path d="M28.06,32.17a16.06,16.06,0,0,1-16-16,2.5,2.5,0,0,1,5,0,11.05,11.05,0,0,0,11,11,2.5,2.5,0,1,1,0,5Z"/><path d="M12.94,32.17a2.5,2.5,0,1,1,0-5,11.05,11.05,0,0,0,11-11,2.5,2.5,0,0,1,5,0A16.06,16.06,0,0,1,12.94,32.17Z"/><path d="M20.5,18.63a2.5,2.5,0,0,1-2.5-2.5v-4.8a2.5,2.5,0,1,1,5,0v4.8A2.5,2.5,0,0,1,20.5,18.63Z"/><path d="M51.1,59H25.9A7.9,7.9,0,0,1,18,51.1V41H7.9A7.9,7.9,0,0,1,0,33.1V7.9A7.9,7.9,0,0,1,7.9,0H33.1A7.9,7.9,0,0,1,41,7.9V18H51.1A7.9,7.9,0,0,1,59,25.9V51.1A7.9,7.9,0,0,1,51.1,59ZM7.9,5A2.9,2.9,0,0,0,5,7.9V33.1A2.9,2.9,0,0,0,7.9,36H20.5A2.5,2.5,0,0,1,23,38.5V51.1A2.9,2.9,0,0,0,25.9,54H51.1A2.9,2.9,0,0,0,54,51.1V25.9A2.9,2.9,0,0,0,51.1,23H38.5A2.5,2.5,0,0,1,36,20.5V7.9A2.9,2.9,0,0,0,33.1,5Z"/><path d="M32.2,49.36a2.61,2.61,0,0,1-.94-.18,2.5,2.5,0,0,1-1.38-3.25l6.3-15.61a2.5,2.5,0,0,1,4.64,0l6.3,15.61a2.5,2.5,0,0,1-4.64,1.87l-4-9.87-4,9.87A2.5,2.5,0,0,1,32.2,49.36Z"/><path d="M42.86,45.9H34.14a2.5,2.5,0,0,1,0-5h8.72a2.5,2.5,0,0,1,0,5Z"/></g></g></g></svg>