<svg xmlns="http://www.w3.org/2000/svg" viewBox="0 0 59 58.43"><title>garage</title><g id="Layer_2" data-name="Layer 2"><g id="Layer_1-2" data-name="Layer 1"><g id="garage"><path d="M45.5,53.44h-32a2.25,2.25,0,0,1-2.25-2.25V40.46a7.07,7.07,0,0,1,.8-3.25l3.83-8.68a7,7,0,0,1,6.4-4.16H36.72a7,7,0,0,1,6.4,4.16L47,37.21a7.07,7.07,0,0,1,.8,3.25V51.19A2.25,2.25,0,0,1,45.5,53.44Zm-29.75-4.5h27.5V40.46a2.45,2.45,0,0,0-.3-1.19,1.3,1.3,0,0,1-.08-.17L39,30.35a2.49,2.49,0,0,0-2.28-1.48H22.28A2.49,2.49,0,0,0,20,30.35L16.13,39.1a1.3,1.3,0,0,1-.08.17,2.45,2.45,0,0,0-.3,1.19Z"/><path d="M45.5,58.18H44.31a2.25,2.25,0,0,1-2.25-2.25V51.19a2.25,2.25,0,0,1,2.25-2.25,2.35,2.35,0,0,1,.6.08,2.25,2.25,0,0,1,2.84,2.17v4.74A2.25,2.25,0,0,1,45.5,58.18Z"/><path d="M14.69,58.18H13.5a2.25,2.25,0,0,1-2.25-2.25V51.19A2.25,2.25,0,0,1,14.09,49a2.35,2.35,0,0,1,.6-.08,2.25,2.25,0,0,1,2.25,2.25v4.74A2.25,2.25,0,0,1,14.69,58.18Z"/><path d="M44.92,40.45H14.08a2.25,2.25,0,1,1,0-4.5H44.92a2.25,2.25,0,0,1,0,4.5Z"/><path d="M37.5,42.5a2.37,2.37,0,1,0,1.71,1.71A2.38,2.38,0,0,0,37.5,42.5Z"/><path d="M22.68,42.5a2.38,2.38,0,0,0-2.89,2.89,2.37,2.37,0,1,0,2.89-2.89Z"/><path d="M56.5,58.43a2.5,2.5,0,0,1-2.5-2.5V17.83a3.51,3.51,0,0,0-2.08-3.2l-21-9.33a3.51,3.51,0,0,0-2.84,0l-21,9.33A3.51,3.51,0,0,0,5,17.83v38.1a2.5,2.5,0,0,1-5,0V17.83a8.52,8.52,0,0,1,5.05-7.77l21-9.33a8.54,8.54,0,0,1,6.9,0l21,9.33a8.52,8.52,0,0,1,5,7.77v38.1A2.5,2.5,0,0,1,56.5,58.43Z"/></g></g></g></svg>