<svg xmlns="http://www.w3.org/2000/svg" viewBox="0 0 58 59"><title>gas station</title><g id="Layer_2" data-name="Layer 2"><g id="Layer_1-2" data-name="Layer 1"><g id="gas_station" data-name="gas station"><path d="M28.5,59h-18A10.51,10.51,0,0,1,0,48.5v-38A10.51,10.51,0,0,1,10.5,0h18A10.51,10.51,0,0,1,39,10.5v38A10.51,10.51,0,0,1,28.5,59ZM10.5,5A5.51,5.51,0,0,0,5,10.5v38A5.51,5.51,0,0,0,10.5,54h18A5.51,5.51,0,0,0,34,48.5v-38A5.51,5.51,0,0,0,28.5,5Z"/><path d="M50.5,52.68a7.51,7.51,0,0,1-7.5-7.5v-7a1.5,1.5,0,0,0-1.5-1.5h-5a2.5,2.5,0,0,1,0-5h5a6.51,6.51,0,0,1,6.5,6.5v7a2.5,2.5,0,1,0,5,0v-22a9.46,9.46,0,0,0-2.78-6.72L43.82,10A2.5,2.5,0,0,1,47.35,6.5l6.4,6.4A14.39,14.39,0,0,1,58,23.15v22A7.51,7.51,0,0,1,50.5,52.68Z"/><path d="M55.5,27.65H48.29a2.5,2.5,0,0,1-2.5-2.5V11a2.5,2.5,0,0,1,5,0V22.65H55.5a2.5,2.5,0,0,1,0,5Z"/><path d="M36.5,23.56H2.5a2.5,2.5,0,0,1,0-5h34a2.5,2.5,0,0,1,0,5Z"/><path d="M19.5,46.47a6.94,6.94,0,0,1-6.94-6.94c0-5.31,4.88-9.14,5.44-9.56a2.52,2.52,0,0,1,3,0c.56.42,5.44,4.25,5.44,9.56A6.94,6.94,0,0,1,19.5,46.47Zm0-11.06a6.77,6.77,0,0,0-1.94,4.12,1.94,1.94,0,0,0,3.88,0A6.77,6.77,0,0,0,19.5,35.41Z"/></g></g></g></svg>