<svg xmlns="http://www.w3.org/2000/svg" viewBox="0 0 59 58.45"><title>gavel</title><g id="Layer_2" data-name="Layer 2"><g id="Layer_1-2" data-name="Layer 1"><g id="gavel"><path d="M25.58,21.46a2.51,2.51,0,0,1-1.77-4.27L34.33,6.67a2.5,2.5,0,0,1,3.53,3.54L27.35,20.72A2.5,2.5,0,0,1,25.58,21.46Z"/><path d="M41.9,38.39a2.49,2.49,0,0,1-1.77-.73l-4.42-4.42a6.22,6.22,0,0,1-1.33-2A20.92,20.92,0,0,0,24.32,21.15a6.07,6.07,0,0,1-2-1.33L17.87,15.4a2.5,2.5,0,0,1,0-3.53L29,.73A2.48,2.48,0,0,1,30.77,0h0a2.49,2.49,0,0,1,1.77.73L37,5.15a6,6,0,0,1,1.33,2,21,21,0,0,0,10.06,10,6.22,6.22,0,0,1,2,1.33L54.8,23a2.5,2.5,0,0,1,0,3.54L43.67,37.66A2.49,2.49,0,0,1,41.9,38.39ZM23.18,13.63l2.64,2.65a1.2,1.2,0,0,0,.41.25A25.78,25.78,0,0,1,39,29.3a1.2,1.2,0,0,0,.25.41l2.65,2.65,7.6-7.6-2.65-2.65a1.2,1.2,0,0,0-.41-.25A25.78,25.78,0,0,1,33.67,9.09a1.2,1.2,0,0,0-.25-.41L30.77,6Z"/><path d="M36.58,32.45a2.5,2.5,0,0,1-1.77-4.27L45.32,17.67a2.5,2.5,0,1,1,3.54,3.53L38.34,31.72A2.48,2.48,0,0,1,36.58,32.45Z"/><path d="M7.45,55.53a2.49,2.49,0,0,1-1.77-.73L.73,49.85a2.5,2.5,0,0,1,0-3.53L27.09,20a2.5,2.5,0,0,1,3.53,3.54L6,48.08,7.45,49.5,32.09,24.85a2.5,2.5,0,0,1,3.54,3.54L9.22,54.8A2.49,2.49,0,0,1,7.45,55.53Z"/><path d="M56.5,58.45H39a2.5,2.5,0,0,1-2.5-2.5V51.71a7,7,0,0,1,7-7H52a7,7,0,0,1,7,7V56A2.5,2.5,0,0,1,56.5,58.45Zm-15-5H54V51.71a2,2,0,0,0-2-2H43.49a2,2,0,0,0-2,2Z"/></g></g></g></svg>