<svg xmlns="http://www.w3.org/2000/svg" viewBox="0 0 38.81 58.99"><title>gesture</title><g id="Layer_2" data-name="Layer 2"><g id="Layer_1-2" data-name="Layer 1"><g id="gesture"><path d="M25.85,59C13.65,59,3.4,53.89,2.06,46.67A9.78,9.78,0,0,1,3.36,40C1.18,37.64,0,35.14,0,32.77c0-5.42,5.94-8.44,11.65-11.35,3.92-2,8.79-4.48,8.77-6.75,0-1-1.22-4.82-16.19-9.8A2.5,2.5,0,1,1,5.81.13c13.31,4.43,19.54,9,19.61,14.48S19.6,23,13.92,25.87C10,27.9,5,30.42,5,32.8a5.55,5.55,0,0,0,1.49,3.14A28.44,28.44,0,0,1,9,33.75a44.91,44.91,0,0,1,14.41-7.48c3.46-1,10.64-3.11,14,.89,1.35,1.64,1.79,4,1.28,6.83A18.65,18.65,0,0,1,30.18,46.2C23.5,50,14.88,47.79,9,44.39c-.59-.34-1.16-.7-1.7-1.06A4.33,4.33,0,0,0,7,45.75c.79,4.24,9.85,9.34,22.81,8A2.47,2.47,0,0,1,32.51,56a2.5,2.5,0,0,1-2.23,2.74C28.78,58.92,27.3,59,25.85,59ZM10.26,39.26q.62.42,1.29.81c4.42,2.57,11.29,4.58,16.14,1.79a13.76,13.76,0,0,0,6-8.76,3.76,3.76,0,0,0-.22-2.75c-.36-.44-1.94-1.26-8.7.72A35,35,0,0,0,10.26,39.26Z"/></g></g></g></svg>