<svg xmlns="http://www.w3.org/2000/svg" viewBox="0 0 57 59"><title>gif</title><g id="Layer_2" data-name="Layer 2"><g id="Layer_1-2" data-name="Layer 1"><g id="gif"><path d="M38.5,59h-28A10.51,10.51,0,0,1,0,48.5v-38A10.51,10.51,0,0,1,10.5,0h24a2.51,2.51,0,0,1,1.77.73l12,12A2.51,2.51,0,0,1,49,14.5v4A2.5,2.5,0,0,1,46.5,21h-16A2.5,2.5,0,0,1,28,18.5V5H10.5A5.51,5.51,0,0,0,5,10.5v38A5.51,5.51,0,0,0,10.5,54h28a2.5,2.5,0,0,1,0,5ZM33,16H44v-.46L33.46,5H33Z"/><path d="M18.29,49A8.3,8.3,0,0,1,10,40.71V34.1a8.29,8.29,0,0,1,16-3,2.5,2.5,0,1,1-4.68,1.78A3.29,3.29,0,0,0,15,34.1v6.61a3.29,3.29,0,0,0,6.46.85H19.94a2.5,2.5,0,1,1,0-5h4.14a2.5,2.5,0,0,1,2.5,2.5v1.65A8.3,8.3,0,0,1,18.29,49Z"/><path d="M33.69,49a2.5,2.5,0,0,1-2.5-2.5V28.31a2.5,2.5,0,1,1,5,0V46.5A2.5,2.5,0,0,1,33.69,49Z"/><path d="M44.58,49a2.5,2.5,0,0,1-2.5-2.5V31.62a5.81,5.81,0,0,1,5.8-5.81H54.5a2.5,2.5,0,0,1,0,5H47.88a.8.8,0,0,0-.8.81V46.5A2.5,2.5,0,0,1,44.58,49Z"/><path d="M54.5,39.9H44.58a2.5,2.5,0,0,1,0-5H54.5a2.5,2.5,0,0,1,0,5Z"/></g></g></g></svg>