<svg xmlns="http://www.w3.org/2000/svg" viewBox="0 0 51 59"><title>gift</title><g id="Layer_2" data-name="Layer 2"><g id="Layer_1-2" data-name="Layer 1"><g id="gift"><path d="M27.83,19H25.5A2.49,2.49,0,0,1,23,16.48V14.57c-.06-3,.38-8.4,4-12A8.8,8.8,0,1,1,39.42,15C36,18.42,30.91,19,27.83,19ZM33.2,5a3.78,3.78,0,0,0-2.68,1.11C28.39,8.24,28,11.78,28,14c2.07,0,5.76-.38,7.89-2.51A3.8,3.8,0,0,0,33.2,5Z"/><path d="M23.13,19c-3,0-8.15-.58-11.55-4A8.8,8.8,0,0,1,24,2.57c3.6,3.6,4,9,4,12v1.91A2.49,2.49,0,0,1,25.5,19H23.13ZM17.8,5a3.8,3.8,0,0,0-2.69,1.11,3.8,3.8,0,0,0,0,5.37C17.25,13.62,21,14,23,14c0-2.22-.39-5.76-2.52-7.89A3.78,3.78,0,0,0,17.8,5Z"/><path d="M36.67,59H14.33A10.51,10.51,0,0,1,3.83,48.5v-18A2.5,2.5,0,0,1,6.33,28H44.67a2.5,2.5,0,0,1,2.5,2.5v18A10.51,10.51,0,0,1,36.67,59ZM8.83,33V48.5a5.51,5.51,0,0,0,5.5,5.5H36.67a5.51,5.51,0,0,0,5.5-5.5V33Z"/><path d="M48.5,33H2.5A2.5,2.5,0,0,1,0,30.5v-4A10.51,10.51,0,0,1,10.5,16h30A10.51,10.51,0,0,1,51,26.5v4A2.5,2.5,0,0,1,48.5,33ZM5,28H46V26.5A5.5,5.5,0,0,0,40.5,21h-30A5.5,5.5,0,0,0,5,26.5Z"/><path d="M25.5,59A2.5,2.5,0,0,1,23,56.5v-26a2.5,2.5,0,0,1,5,0v26A2.5,2.5,0,0,1,25.5,59Z"/></g></g></g></svg>