<svg xmlns="http://www.w3.org/2000/svg" viewBox="0 0 59 59"><title>github</title><g id="Layer_2" data-name="Layer 2"><g id="Layer_1-2" data-name="Layer 1"><g id="github"><path d="M29.5,59A29.5,29.5,0,1,1,59,29.5,29.53,29.53,0,0,1,29.5,59Zm0-54A24.5,24.5,0,1,0,54,29.5,24.53,24.53,0,0,0,29.5,5Z"/><path d="M24.48,57.69a2.5,2.5,0,0,1-2.5-2.5V46.12a12.87,12.87,0,0,1,.87-5c.17-.34.34-.66.51-1-7.92-2.51-8.88-8.46-8.88-11.18a11.28,11.28,0,0,1,2.29-6.63c-.49-2.3-.83-5.88,1.19-7.9a2.53,2.53,0,0,1,1.77-.73,10.18,10.18,0,0,1,6.56,2.44,19.22,19.22,0,0,1,9.47,0,10.14,10.14,0,0,1,6.56-2.44,2.55,2.55,0,0,1,1.77.73c2.06,2.07,1.59,5.85,1.14,7.9A11.36,11.36,0,0,1,47.45,29c0,5.33-3.18,9.27-8.71,11.06A10.64,10.64,0,0,1,40,44.77v9.82a2.5,2.5,0,0,1-5,0V44.77a5.39,5.39,0,0,0-2.17-4.09A2.52,2.52,0,0,1,31.53,38a2.48,2.48,0,0,1,2.19-2c4-.42,8.73-2,8.73-7a6.62,6.62,0,0,0-1.82-4.37,2.47,2.47,0,0,1-.52-2.44A11.49,11.49,0,0,0,40.63,19a5.79,5.79,0,0,0-2.32,1.61,2.49,2.49,0,0,1-2.65.7,14.42,14.42,0,0,0-9.27,0,2.51,2.51,0,0,1-2.65-.69A5.73,5.73,0,0,0,21.38,19a12.78,12.78,0,0,0,.52,3.23,2.49,2.49,0,0,1-.52,2.34,7,7,0,0,0-1.9,4.4c0,5,4.83,6.65,8.87,7.13a2.5,2.5,0,0,1,.86,4.7,6.16,6.16,0,0,0-1.88,2.53A9.18,9.18,0,0,0,27,46.09v9.1A2.5,2.5,0,0,1,24.48,57.69Z"/><path d="M23.52,49.4a8,8,0,0,1-5.61-1.89,7.91,7.91,0,0,1-2.07-3.37c-.3-.8-.44-1.13-.74-1.35a2.91,2.91,0,0,0-1.86-.32,2.5,2.5,0,1,1-.47-5,7.49,7.49,0,0,1,5.32,1.29,7.24,7.24,0,0,1,2.44,3.62,3.46,3.46,0,0,0,.74,1.41,4.35,4.35,0,0,0,3,.56,2.5,2.5,0,0,1,.41,5C24.28,49.39,23.89,49.4,23.52,49.4Z"/></g></g></g></svg>