<svg xmlns="http://www.w3.org/2000/svg" viewBox="0 0 59 58.94"><title>golf</title><g id="Layer_2" data-name="Layer 2"><g id="Layer_1-2" data-name="Layer 1"><g id="golf"><path d="M29.5,58.94C10.13,58.94,0,52.53,0,46.21c0-5.77,7.63-10.4,19.92-12.09a2.5,2.5,0,1,1,.68,5C9.84,40.55,5,44.14,5,46.21c0,3.15,9.54,7.73,24.5,7.73S54,49.36,54,46.21c0-2-5-5.73-15.83-7.17a2.5,2.5,0,1,1,.66-5C51.27,35.75,59,40.39,59,46.21,59,52.53,48.87,58.94,29.5,58.94Z"/><path d="M29.5,49A2.5,2.5,0,0,1,27,46.5V2.5a2.5,2.5,0,0,1,5,0v44A2.5,2.5,0,0,1,29.5,49Z"/><path d="M29.5,23.14a2.5,2.5,0,0,1-1.29-4.64l11.51-6.93L28.21,4.64A2.5,2.5,0,0,1,30.79.36L45.86,9.43a2.5,2.5,0,0,1,0,4.28L30.79,22.78A2.42,2.42,0,0,1,29.5,23.14Z"/></g></g></g></svg>