<svg xmlns="http://www.w3.org/2000/svg" viewBox="0 0 50.92 56.17"><title>google play</title><g id="Layer_2" data-name="Layer 2"><g id="Layer_1-2" data-name="Layer 1"><g id="google_play" data-name="google play"><path d="M4.5,56.17a4.44,4.44,0,0,1-2.27-.62A4.44,4.44,0,0,1,0,51.67V4.51A4.5,4.5,0,0,1,6.71.59L48.63,24.17a4.5,4.5,0,0,1,0,7.84L6.71,55.59A4.51,4.51,0,0,1,4.5,56.17ZM5,5.36V50.81L45.4,28.09Z"/><path d="M34.21,39.75A2.49,2.49,0,0,1,32.43,39L.72,6.84A2.5,2.5,0,0,1,4.28,3.33L36,35.49a2.51,2.51,0,0,1-1.79,4.26Z"/><path d="M2.5,53.59A2.5,2.5,0,0,1,.72,49.33L32.43,17.17A2.5,2.5,0,0,1,36,20.68L4.28,52.84A2.48,2.48,0,0,1,2.5,53.59Z"/></g></g></g></svg>