<svg xmlns="http://www.w3.org/2000/svg" viewBox="0 0 59 37.25"><title>graduation</title><g id="Layer_2" data-name="Layer 2"><g id="Layer_1-2" data-name="Layer 1"><g id="graduation"><path d="M29.5,25a11.47,11.47,0,0,1-4.17-.78L1.58,14.82a2.5,2.5,0,0,1,0-4.65L25.33.79a11.43,11.43,0,0,1,8.34,0l23.75,9.38a2.5,2.5,0,0,1,0,4.65L33.67,24.21A11.47,11.47,0,0,1,29.5,25ZM9.3,12.5l17.87,7.06a6.46,6.46,0,0,0,4.66,0L49.7,12.5,31.83,5.44a6.36,6.36,0,0,0-4.66,0Z"/><path d="M39.08,37.25H19.92A8.93,8.93,0,0,1,11,28.33V16.84a2.5,2.5,0,0,1,5,0V28.33a3.92,3.92,0,0,0,3.92,3.92H39.08A3.92,3.92,0,0,0,43,28.33V16.84a2.5,2.5,0,0,1,5,0V28.33A8.93,8.93,0,0,1,39.08,37.25Z"/><path d="M56.5,37.25a2.49,2.49,0,0,1-2.5-2.5V12.5a2.5,2.5,0,0,1,5,0V34.75A2.49,2.49,0,0,1,56.5,37.25Z"/></g></g></g></svg>