<svg xmlns="http://www.w3.org/2000/svg" viewBox="0 0 51.61 59"><title>grape</title><g id="Layer_2" data-name="Layer 2"><g id="Layer_1-2" data-name="Layer 1"><g id="grape"><path d="M25.81,40.11a12,12,0,1,1,12-12A12,12,0,0,1,25.81,40.11Zm0-19a7,7,0,1,0,7,7A7,7,0,0,0,25.81,21.12Z"/><path d="M26.1,21.05a2.5,2.5,0,0,1-2.5-2.5V15a15,15,0,0,1,15-15,2.5,2.5,0,0,1,0,5,10,10,0,0,0-10,10v3.54A2.5,2.5,0,0,1,26.1,21.05Z"/><path d="M23.43,20.54A12.89,12.89,0,0,1,11,4.3a2.48,2.48,0,0,1,1.76-1.76,12.89,12.89,0,0,1,15.8,9.12A2.5,2.5,0,0,1,23.68,13a7.8,7.8,0,0,0-2-3.54,7.93,7.93,0,0,0-6.11-2.3,7.89,7.89,0,0,0,9.93,8.16,2.5,2.5,0,0,1,1.28,4.83A12.92,12.92,0,0,1,23.43,20.54Z"/><path d="M10.27,38.38a10.27,10.27,0,1,1,9-15.22,2.5,2.5,0,1,1-4.38,2.42,5.27,5.27,0,1,0,0,5.07,2.5,2.5,0,1,1,4.38,2.41A10.29,10.29,0,0,1,10.27,38.38Z"/><path d="M41.35,38.38a10.27,10.27,0,0,1-9-5.37,2.5,2.5,0,0,1,4.39-2.39,5.27,5.27,0,1,0,0-5,2.5,2.5,0,0,1-4.38-2.42,10.27,10.27,0,1,1,9,15.22Z"/><path d="M33.58,49.55a10.27,10.27,0,0,1-10-12.48,2.5,2.5,0,1,1,4.88,1.07,5.38,5.38,0,0,0-.12,1.14,5.27,5.27,0,1,0,10.54,0A5.19,5.19,0,0,0,38.3,37a2.5,2.5,0,0,1,4.48-2.22,10.08,10.08,0,0,1,1.07,4.55A10.29,10.29,0,0,1,33.58,49.55Z"/><path d="M18,49.55A10.27,10.27,0,0,1,8.83,34.73a2.5,2.5,0,0,1,4.48,2.21,5.27,5.27,0,1,0,10,2.34,5.38,5.38,0,0,0-.12-1.14,2.5,2.5,0,1,1,4.88-1.07,10.18,10.18,0,0,1,.24,2.21A10.29,10.29,0,0,1,18,49.55Z"/><path d="M25.81,59a9.09,9.09,0,0,1-9.08-9.08,9,9,0,0,1,.93-4,2.5,2.5,0,1,1,4.48,2.21,4.17,4.17,0,0,0-.41,1.81,4.08,4.08,0,0,0,8.16,0,4,4,0,0,0-.42-1.81A2.5,2.5,0,1,1,34,45.9a9,9,0,0,1,.94,4A9.09,9.09,0,0,1,25.81,59Z"/></g></g></g></svg>