<svg xmlns="http://www.w3.org/2000/svg" viewBox="0 0 49.95 59"><title>grill</title><g id="Layer_2" data-name="Layer 2"><g id="Layer_1-2" data-name="Layer 1"><g id="grill"><path d="M10.15,59A7.9,7.9,0,1,1,18,51.11,7.9,7.9,0,0,1,10.15,59Zm0-10.79A2.9,2.9,0,1,0,13,51.11,2.9,2.9,0,0,0,10.15,48.21Z"/><path d="M21.38,40.06A21.4,21.4,0,0,1,0,18.68a2.5,2.5,0,0,1,2.5-2.5H40.25a2.49,2.49,0,0,1,2.5,2.5A21.39,21.39,0,0,1,21.38,40.06ZM5.19,21.18a16.38,16.38,0,0,0,32.37,0Z"/><path d="M34.41,58.55A2.5,2.5,0,0,1,32,56.74L26.32,37a2.5,2.5,0,1,1,4.8-1.39l5.69,19.78a2.48,2.48,0,0,1-1.71,3.09A2.35,2.35,0,0,1,34.41,58.55Z"/><path d="M11.58,48.41a2.64,2.64,0,0,1-.62-.08,2.5,2.5,0,0,1-1.81-3l2.46-9.63a2.5,2.5,0,0,1,4.85,1.23L14,46.53A2.5,2.5,0,0,1,11.58,48.41Z"/><path d="M9.73,14A2.47,2.47,0,0,1,8,13.26a5.67,5.67,0,0,1,0-8,.69.69,0,0,0,0-1A2.5,2.5,0,0,1,11.5.73a5.66,5.66,0,0,1,0,8,.69.69,0,0,0,0,1A2.5,2.5,0,0,1,9.73,14Z"/><path d="M21.38,14a2.49,2.49,0,0,1-1.77-.73,5.69,5.69,0,0,1,0-8,.69.69,0,0,0,0-1A2.5,2.5,0,0,1,23.14.73a5.66,5.66,0,0,1,0,8,.68.68,0,0,0,0,1,2.51,2.51,0,0,1,0,3.54A2.45,2.45,0,0,1,21.38,14Z"/><path d="M33,14a2.49,2.49,0,0,1-1.77-.73,5.69,5.69,0,0,1,0-8,.67.67,0,0,0,0-1A2.5,2.5,0,1,1,34.79.73a5.69,5.69,0,0,1,0,8,.67.67,0,0,0,0,1,2.52,2.52,0,0,1,0,3.54A2.49,2.49,0,0,1,33,14Z"/><path d="M47.45,24.63H42.06a2.5,2.5,0,0,1,0-5h5.39a2.5,2.5,0,0,1,0,5Z"/><path d="M32.84,53.61H15.54a2.5,2.5,0,0,1,0-5h17.3a2.5,2.5,0,0,1,0,5Z"/></g></g></g></svg>