<svg xmlns="http://www.w3.org/2000/svg" viewBox="0 0 59 59"><title>gym</title><g id="Layer_2" data-name="Layer 2"><g id="Layer_1-2" data-name="Layer 1"><g id="gym"><path d="M48.61,31.72a7.53,7.53,0,0,1-5.34-2.2L29.48,15.73A7.57,7.57,0,0,1,29.48,5l1.05-1A7.56,7.56,0,0,1,41.21,4L55,17.79a7.56,7.56,0,0,1,0,10.68h0l-1,1.05A7.51,7.51,0,0,1,48.61,31.72ZM35.87,6.79a2.52,2.52,0,0,0-1.81.75l-1,1a2.55,2.55,0,0,0,0,3.61L46.8,26a2.56,2.56,0,0,0,3.62,0l1-1.05a2.55,2.55,0,0,0,0-3.61L37.67,7.54A2.49,2.49,0,0,0,35.87,6.79ZM53.23,26.7h0Z"/><path d="M53.16,22a2.53,2.53,0,0,1-1.77-.73L37.74,7.6a2.49,2.49,0,0,1,0-3.53l.54-.55a12,12,0,0,1,17,0l.18.18a12,12,0,0,1,0,17h0l-.54.55A2.49,2.49,0,0,1,53.16,22Zm.55-3h0ZM43.19,6,53,15.8a7,7,0,0,0-1.07-8.56l-.18-.18A7,7,0,0,0,43.19,6Z"/><path d="M23.12,57.21A7.52,7.52,0,0,1,17.78,55L4,41.21A7.57,7.57,0,0,1,4,30.53l1-1a7.55,7.55,0,0,1,10.68,0L29.51,43.28a7.56,7.56,0,0,1,0,10.68l-1,1A7.52,7.52,0,0,1,23.12,57.21ZM10.38,32.28A2.55,2.55,0,0,0,8.57,33l-1,1a2.55,2.55,0,0,0,0,3.61L21.32,51.47a2.57,2.57,0,0,0,3.61,0l1-1a2.55,2.55,0,0,0,0-3.61L12.19,33A2.55,2.55,0,0,0,10.38,32.28Z"/><path d="M12.2,59a12,12,0,0,1-8.5-3.52l-.18-.18a12,12,0,0,1,0-17l.54-.54A2.52,2.52,0,0,1,5.83,37h0a2.52,2.52,0,0,1,1.77.74L21.25,51.4a2.5,2.5,0,0,1,0,3.54l-.54.54h0A12,12,0,0,1,12.2,59ZM6,43.2a7.07,7.07,0,0,0,1.07,8.57l.18.18A7.07,7.07,0,0,0,15.8,53Zm13,10.51h0Z"/><path d="M23.68,43.48h0a2.53,2.53,0,0,1-1.77-.73l-5.66-5.66a2.52,2.52,0,0,1,0-3.54l17.3-17.29a2.48,2.48,0,0,1,1.76-.73h0a2.49,2.49,0,0,1,1.77.73l5.66,5.66a2.49,2.49,0,0,1,0,3.53l-17.3,17.3A2.51,2.51,0,0,1,23.68,43.48Zm-2.12-8.16,2.12,2.12L37.44,23.68l-2.13-2.12Z"/></g></g></g></svg>