<svg xmlns="http://www.w3.org/2000/svg" viewBox="0 0 59 45.71"><title>hairdryer</title><g id="Layer_2" data-name="Layer 2"><g id="Layer_1-2" data-name="Layer 1"><g id="hairdryer"><path d="M34.79,22.91a2.5,2.5,0,0,1-2.5-2.5V8.22a2.5,2.5,0,1,1,5,0V20.41A2.5,2.5,0,0,1,34.79,22.91Z"/><path d="M14.26,28.63A14.32,14.32,0,0,1,0,14.31,14.3,14.3,0,0,1,18.47.63l16.36,5,9-2.49A2.53,2.53,0,0,1,46,3.54a2.49,2.49,0,0,1,1,2V23.09a2.46,2.46,0,0,1-1,2,2.44,2.44,0,0,1-2.18.42l-9-2.49L18.47,28A14.57,14.57,0,0,1,14.26,28.63ZM14.27,5A9.31,9.31,0,1,0,17,23.21L34.06,18a2.56,2.56,0,0,1,1.4,0L42,19.81v-11l-6.54,1.81a2.56,2.56,0,0,1-1.4,0L17,5.42A9.21,9.21,0,0,0,14.27,5Z"/><path d="M56.5,8.81h-3a2.5,2.5,0,0,1,0-5h3a2.5,2.5,0,0,1,0,5Z"/><path d="M56.5,16.81h-3a2.5,2.5,0,0,1,0-5h3a2.5,2.5,0,1,1,0,5Z"/><path d="M56.5,24.81h-3a2.5,2.5,0,0,1,0-5h3a2.5,2.5,0,0,1,0,5Z"/><path d="M17.78,45.71a6.46,6.46,0,0,1-6.34-5.23L8.66,26.16a2.5,2.5,0,0,1,4.9-1l2.78,14.32a1.48,1.48,0,0,0,1.44,1.19,1.44,1.44,0,0,0,1.13-.53A1.41,1.41,0,0,0,19.22,39l-2.58-13.3a2.5,2.5,0,0,1,4.91-1L24.13,38a6.47,6.47,0,0,1-6.35,7.7Z"/></g></g></g></svg>