<svg xmlns="http://www.w3.org/2000/svg" viewBox="0 0 59 58.48"><title>hatchet</title><g id="Layer_2" data-name="Layer 2"><g id="Layer_1-2" data-name="Layer 1"><g id="hatchet"><path d="M9.18,58.48A2.54,2.54,0,0,1,7.75,58L1.07,53.35a2.5,2.5,0,0,1-.62-3.49l22-31.39L20.77,17.3a2.49,2.49,0,0,1-.61-3.48L28.48,1.93A2.5,2.5,0,0,1,32,1.32L42.47,8.67a15.71,15.71,0,0,0,9.75,2.81l4.11-.21A2.49,2.49,0,0,1,59,13.6c.72,10.72-7.09,21.87-17.4,24.86a2.5,2.5,0,0,1-3.09-1.67l-1.21-3.93a15.67,15.67,0,0,0-4-6.61l-22,31.17A2.51,2.51,0,0,1,9.18,58.48ZM6,50.68l2.6,1.82L30.66,21.17a2.5,2.5,0,0,1,3.48-.61A20.76,20.76,0,0,1,42,31.39l.43,1.41A20.5,20.5,0,0,0,53.94,16.4l-1.47.07a20.71,20.71,0,0,1-12.87-3.7L31.14,6.85l-5.45,7.79,1.66,1.16A2.51,2.51,0,0,1,28,19.29Z"/><path d="M32.71,25.11a2.49,2.49,0,0,1-1.44-.46L24.49,19.9a2.5,2.5,0,1,1,2.86-4.1l6.79,4.76A2.5,2.5,0,0,1,34.76,24,2.53,2.53,0,0,1,32.71,25.11Z"/><path d="M39.86,12.4A2.47,2.47,0,0,1,38.43,12a2.5,2.5,0,0,1-.61-3.48l1.56-2.24L39,6,37.46,8.21a2.5,2.5,0,1,1-4.1-2.86l3-4.28A2.5,2.5,0,0,1,39.84.45L44.3,3.57a2.49,2.49,0,0,1,.61,3.48l-3,4.29A2.49,2.49,0,0,1,39.86,12.4Z"/></g></g></g></svg>