<svg xmlns="http://www.w3.org/2000/svg" viewBox="0 0 59 57"><title>hd</title><g id="Layer_2" data-name="Layer 2"><g id="Layer_1-2" data-name="Layer 1"><g id="hd"><path d="M48.5,46h-38A10.51,10.51,0,0,1,0,35.5v-25A10.51,10.51,0,0,1,10.5,0h38A10.51,10.51,0,0,1,59,10.5v25A10.51,10.51,0,0,1,48.5,46ZM10.5,5A5.51,5.51,0,0,0,5,10.5v25A5.51,5.51,0,0,0,10.5,41h38A5.51,5.51,0,0,0,54,35.5v-25A5.51,5.51,0,0,0,48.5,5Z"/><path d="M41.5,57h-24a2.5,2.5,0,0,1,0-5h24a2.5,2.5,0,0,1,0,5Z"/><path d="M29.5,57A2.5,2.5,0,0,1,27,54.5v-11a2.5,2.5,0,0,1,5,0v11A2.5,2.5,0,0,1,29.5,57Z"/><path d="M23.23,25.52H12.5a2.5,2.5,0,1,1,0-5H23.23a2.5,2.5,0,0,1,0,5Z"/><path d="M23.23,34.23a2.5,2.5,0,0,1-2.5-2.5V14.3a2.5,2.5,0,0,1,5,0V31.73A2.5,2.5,0,0,1,23.23,34.23Z"/><path d="M37.79,34.23H32.45a2.5,2.5,0,0,1-2.5-2.5V14.3a2.5,2.5,0,0,1,2.5-2.5h5.34a11.22,11.22,0,0,1,0,22.43Zm-2.84-5h2.84a6.22,6.22,0,0,0,0-12.43H35Z"/><path d="M12.5,34.23a2.5,2.5,0,0,1-2.5-2.5V14.3a2.5,2.5,0,0,1,5,0V31.73A2.5,2.5,0,0,1,12.5,34.23Z"/></g></g></g></svg>