<svg xmlns="http://www.w3.org/2000/svg" viewBox="0 0 59 59"><title>headset</title><g id="Layer_2" data-name="Layer 2"><g id="Layer_1-2" data-name="Layer 1"><g id="headset"><path d="M56.5,46.5A2.5,2.5,0,0,1,54,44V29.5a24.5,24.5,0,0,0-49,0V44a2.5,2.5,0,0,1-5,0V29.5a29.5,29.5,0,0,1,59,0V44A2.5,2.5,0,0,1,56.5,46.5Z"/><path d="M10.5,59A10.51,10.51,0,0,1,0,48.5v-10A2.5,2.5,0,0,1,2.5,36h8A8.51,8.51,0,0,1,19,44.5v6A8.51,8.51,0,0,1,10.5,59ZM5,41v7.5A5.51,5.51,0,0,0,10.5,54,3.5,3.5,0,0,0,14,50.5v-6A3.5,3.5,0,0,0,10.5,41Z"/><path d="M48.5,59A8.51,8.51,0,0,1,40,50.5v-6A8.51,8.51,0,0,1,48.5,36h8A2.5,2.5,0,0,1,59,38.5v10A10.51,10.51,0,0,1,48.5,59Zm0-18A3.5,3.5,0,0,0,45,44.5v6A3.5,3.5,0,0,0,48.5,54,5.51,5.51,0,0,0,54,48.5V41Z"/></g></g></g></svg>