<svg xmlns="http://www.w3.org/2000/svg" viewBox="0 0 50.69 59"><title>headset mic</title><g id="Layer_2" data-name="Layer 2"><g id="Layer_1-2" data-name="Layer 1"><g id="headset_mic" data-name="headset mic"><path d="M48.19,39.07a2.5,2.5,0,0,1-2.5-2.5V25.35A20.35,20.35,0,1,0,5,25.35V36.57a2.5,2.5,0,0,1-5,0V25.35a25.35,25.35,0,1,1,50.69,0V36.57A2.5,2.5,0,0,1,48.19,39.07Z"/><path d="M9.46,49.65H9a9,9,0,0,1-9-9V31.92a2.5,2.5,0,0,1,2.5-2.5h7a7.4,7.4,0,0,1,7.39,7.39v5.45A7.4,7.4,0,0,1,9.46,49.65ZM5,34.42v6.21a4,4,0,0,0,4,4h.44a2.4,2.4,0,0,0,2.39-2.39V36.81a2.4,2.4,0,0,0-2.39-2.39Z"/><path d="M41.67,49.65h-.44a7.39,7.39,0,0,1-7.38-7.39V36.81a7.4,7.4,0,0,1,7.38-7.39h7a2.5,2.5,0,0,1,2.5,2.5v8.71A9,9,0,0,1,41.67,49.65Zm-.44-15.23a2.39,2.39,0,0,0-2.38,2.39v5.45a2.39,2.39,0,0,0,2.38,2.39h.44a4,4,0,0,0,4-4V34.42Z"/><path d="M42.19,59H39.88a2.5,2.5,0,1,1,0-5h2.31a3.5,3.5,0,0,0,3.5-3.5V40.38a2.5,2.5,0,1,1,5,0V50.5A8.51,8.51,0,0,1,42.19,59Z"/></g></g></g></svg>