<svg xmlns="http://www.w3.org/2000/svg" viewBox="0 0 59 45.33"><title>helicopter</title><g id="Layer_2" data-name="Layer 2"><g id="Layer_1-2" data-name="Layer 1"><g id="helicopter"><path d="M52.5,36H31.27a10.49,10.49,0,0,1-8.62-4.5l-.54-.77-18-2.83A2.49,2.49,0,0,1,2,25.77L0,12.78a2.47,2.47,0,0,1,.58-2A2.49,2.49,0,0,1,2.5,9.91H11a2.5,2.5,0,0,1,2.5,2.5V16h8.79L25,12a2.49,2.49,0,0,1,2.05-1.07h17.4A14.53,14.53,0,0,1,59,25.43v4A6.51,6.51,0,0,1,52.5,36ZM6.65,23.21l17.29,2.72a2.51,2.51,0,0,1,1.66,1l1.15,1.64A5.51,5.51,0,0,0,31.27,31H52.5a1.5,1.5,0,0,0,1.5-1.5v-4a9.53,9.53,0,0,0-9.51-9.52H28.39l-2.79,4A2.5,2.5,0,0,1,23.55,21H11a2.5,2.5,0,0,1-2.5-2.5V14.91H5.4Z"/><path d="M35,15.91a2.5,2.5,0,0,1-2.5-2.5V2.5a2.5,2.5,0,0,1,5,0V13.41A2.5,2.5,0,0,1,35,15.91Z"/><path d="M56.5,5h-43a2.5,2.5,0,0,1,0-5h43a2.5,2.5,0,0,1,0,5Z"/><path d="M56.5,27.93h-8A6.51,6.51,0,0,1,42,21.42v-8a2.5,2.5,0,0,1,5,0v8a1.51,1.51,0,0,0,1.5,1.51h8a2.5,2.5,0,0,1,0,5Z"/><path d="M33.27,45.33h-6a2.5,2.5,0,0,1,0-5h3.51V33.47a2.5,2.5,0,0,1,5,0v9.36A2.5,2.5,0,0,1,33.27,45.33Z"/><path d="M50.28,45.33h-6a2.5,2.5,0,0,1-2.5-2.5V33.47a2.5,2.5,0,0,1,5,0v6.86h3.5a2.5,2.5,0,0,1,0,5Z"/><path d="M44.28,45.33h-13a2.5,2.5,0,1,1,0-5h13a2.5,2.5,0,0,1,0,5Z"/></g></g></g></svg>