<svg xmlns="http://www.w3.org/2000/svg" viewBox="0 0 59 59"><title>help</title><g id="Layer_2" data-name="Layer 2"><g id="Layer_1-2" data-name="Layer 1"><g id="help"><path d="M29.5,59A29.5,29.5,0,1,1,59,29.5,29.53,29.53,0,0,1,29.5,59Zm0-54A24.5,24.5,0,1,0,54,29.5,24.53,24.53,0,0,0,29.5,5Z"/><path d="M29.5,46A16.5,16.5,0,1,1,46,29.5,16.52,16.52,0,0,1,29.5,46Zm0-28A11.5,11.5,0,1,0,41,29.5,11.51,11.51,0,0,0,29.5,18Z"/><path d="M17.53,24.74a2.47,2.47,0,0,1-1.39-.43L5.33,17.07a2.5,2.5,0,0,1,2.79-4.15l10.8,7.24a2.5,2.5,0,0,1-1.39,4.58Z"/><path d="M22.24,20a2.49,2.49,0,0,1-2.08-1.11L12.92,8.12a2.5,2.5,0,1,1,4.15-2.78l7.24,10.8a2.51,2.51,0,0,1-.68,3.47A2.54,2.54,0,0,1,22.24,20Z"/><path d="M44,54.8A2.49,2.49,0,0,1,42,53.69l-7.25-10.8a2.5,2.5,0,0,1,4.16-2.79l7.24,10.81a2.51,2.51,0,0,1-.68,3.47A2.56,2.56,0,0,1,44,54.8Z"/><path d="M52.3,46.54a2.45,2.45,0,0,1-1.39-.43L40.1,38.87a2.5,2.5,0,0,1,2.79-4.15L53.69,42a2.5,2.5,0,0,1-1.39,4.58Z"/><path d="M36.79,20a2.54,2.54,0,0,1-1.39-.42,2.51,2.51,0,0,1-.69-3.47L42,5.34a2.5,2.5,0,1,1,4.15,2.78l-7.24,10.8A2.5,2.5,0,0,1,36.79,20Z"/><path d="M41.5,24.74a2.5,2.5,0,0,1-1.4-4.58l10.81-7.24a2.5,2.5,0,1,1,2.78,4.15l-10.8,7.24A2.47,2.47,0,0,1,41.5,24.74Z"/><path d="M6.73,46.53A2.5,2.5,0,0,1,5.33,42l10.81-7.24a2.5,2.5,0,1,1,2.78,4.15L8.12,46.11A2.46,2.46,0,0,1,6.73,46.53Z"/><path d="M15,54.8a2.54,2.54,0,0,1-1.39-.42,2.5,2.5,0,0,1-.68-3.47L20.16,40.1a2.5,2.5,0,0,1,4.15,2.79l-7.24,10.8A2.49,2.49,0,0,1,15,54.8Z"/></g></g></g></svg>