<svg xmlns="http://www.w3.org/2000/svg" viewBox="0 0 59 50.81"><title>history</title><g id="Layer_2" data-name="Layer 2"><g id="Layer_1-2" data-name="Layer 1"><g id="history"><path d="M33.6,50.81a25.18,25.18,0,0,1-14.78-4.75A2.5,2.5,0,1,1,21.73,42,20.4,20.4,0,1,0,14,30.92a2.5,2.5,0,0,1-4.82,1.35A25.41,25.41,0,1,1,33.6,50.81Z"/><path d="M40.21,36.17A2.44,2.44,0,0,1,39,35.84L32.35,32a2.49,2.49,0,0,1-1.25-2.16V17.13a2.5,2.5,0,1,1,5,0V28.41l5.36,3.1a2.5,2.5,0,0,1-1.25,4.66Z"/><path d="M11.54,34.4a2.51,2.51,0,0,1-1.77-.73l-9-9a2.5,2.5,0,1,1,3.54-3.53l7.27,7.27,7.28-7.27a2.5,2.5,0,0,1,3.53,3.53l-9,9.05A2.49,2.49,0,0,1,11.54,34.4Z"/></g></g></g></svg>