<svg xmlns="http://www.w3.org/2000/svg" viewBox="0 0 59 57.86"><title>home</title><g id="Layer_2" data-name="Layer 2"><g id="Layer_1-2" data-name="Layer 1"><g id="home"><path d="M2.5,32A2.5,2.5,0,0,1,.73,27.76l27-27A2.51,2.51,0,0,1,29.47,0h0a2.51,2.51,0,0,1,1.77.73l27,27a2.5,2.5,0,0,1-3.54,3.54L29.47,6,4.27,31.29A2.5,2.5,0,0,1,2.5,32Z"/><path d="M41.55,57.86H17.45A10.49,10.49,0,0,1,7,47.37V22.57a2.5,2.5,0,0,1,5,0v24.8a5.49,5.49,0,0,0,5.49,5.49h24.1A5.49,5.49,0,0,0,47,47.37V22.57a2.5,2.5,0,0,1,5,0v24.8A10.49,10.49,0,0,1,41.55,57.86Z"/><path d="M36.5,48.86h-14a2.49,2.49,0,0,1-2.5-2.5V39.51a9.5,9.5,0,0,1,19,0v6.85A2.49,2.49,0,0,1,36.5,48.86Zm-11.5-5h9V39.51a4.5,4.5,0,1,0-9,0Z"/></g></g></g></svg>