<svg xmlns="http://www.w3.org/2000/svg" viewBox="0 0 45 59"><title>hourglass</title><g id="Layer_2" data-name="Layer 2"><g id="Layer_1-2" data-name="Layer 1"><g id="hourglass"><path d="M42.5,5H2.5a2.5,2.5,0,0,1,0-5h40a2.5,2.5,0,0,1,0,5Z"/><path d="M22.74,32a2.46,2.46,0,0,1-1.38-.42L12.63,25.8A15.24,15.24,0,0,1,5.81,13.08V2.5a2.5,2.5,0,1,1,5,0V13.08a10.21,10.21,0,0,0,4.59,8.55l7.34,4.87,7.34-4.87a10.24,10.24,0,0,0,4.59-8.55V2.5a2.5,2.5,0,0,1,5,0V13.08A15.22,15.22,0,0,1,32.84,25.8l-8.72,5.78A2.48,2.48,0,0,1,22.74,32Z"/><path d="M42.5,59H2.5a2.5,2.5,0,0,1,0-5h40a2.5,2.5,0,0,1,0,5Z"/><path d="M37.17,59a2.5,2.5,0,0,1-2.5-2.5V45.92a10.24,10.24,0,0,0-4.59-8.55L22.74,32.5,15.4,37.37a10.21,10.21,0,0,0-4.59,8.55V56.5a2.5,2.5,0,0,1-5,0V45.92A15.23,15.23,0,0,1,12.63,33.2l8.73-5.78a2.48,2.48,0,0,1,2.76,0l8.72,5.78a15.21,15.21,0,0,1,6.83,12.72V56.5A2.5,2.5,0,0,1,37.17,59Z"/></g></g></g></svg>