<svg xmlns="http://www.w3.org/2000/svg" viewBox="0 0 59 53.6"><title>http</title><g id="Layer_2" data-name="Layer 2"><g id="Layer_1-2" data-name="Layer 1"><g id="http"><path d="M43.9,53.6H9.7A9.71,9.71,0,0,1,0,43.9V9.7A9.71,9.71,0,0,1,9.7,0H43.9a9.71,9.71,0,0,1,9.7,9.7v7.2a2.5,2.5,0,0,1-2.5,2.5H5V43.9a4.71,4.71,0,0,0,4.7,4.7H43.9a2.5,2.5,0,0,1,0,5ZM5,14.4H48.6V9.7A4.71,4.71,0,0,0,43.9,5H9.7A4.71,4.71,0,0,0,5,9.7Z"/><path d="M22.76,12.2H21a2.5,2.5,0,0,1,0-5h1.8a2.5,2.5,0,1,1,0,5Z"/><path d="M12.86,12.2h-1.8a2.5,2.5,0,0,1,0-5h1.8a2.5,2.5,0,1,1,0,5Z"/><path d="M18.29,42.8a2.5,2.5,0,0,1-2.5-2.5V29.22a2.5,2.5,0,0,1,5,0V40.3A2.5,2.5,0,0,1,18.29,42.8Z"/><path d="M27.31,42.8a2.5,2.5,0,0,1-2.5-2.5V29.22a2.5,2.5,0,0,1,5,0V40.3A2.5,2.5,0,0,1,27.31,42.8Z"/><path d="M11.5,42.8A2.5,2.5,0,0,1,9,40.3V29.22a2.5,2.5,0,0,1,5,0V40.3A2.5,2.5,0,0,1,11.5,42.8Z"/><path d="M18.29,37.26H11.5a2.5,2.5,0,0,1,0-5h6.79a2.5,2.5,0,0,1,0,5Z"/><path d="M30.71,31.72H23.92a2.5,2.5,0,0,1,0-5h6.79a2.5,2.5,0,0,1,0,5Z"/><path d="M40.05,42.8a2.5,2.5,0,0,1-2.5-2.5V29.22a2.5,2.5,0,0,1,5,0V40.3A2.5,2.5,0,0,1,40.05,42.8Z"/><path d="M49.39,42.8a2.49,2.49,0,0,1-2.5-2.5V29.22a2.49,2.49,0,0,1,2.5-2.5h4.34a5.27,5.27,0,1,1,0,10.54H51.89v3A2.5,2.5,0,0,1,49.39,42.8Zm2.5-10.54h1.84a.27.27,0,0,0,0-.54H51.89Z"/><path d="M43.44,31.72H36.65a2.5,2.5,0,0,1,0-5h6.79a2.5,2.5,0,0,1,0,5Z"/></g></g></g></svg>