<svg xmlns="http://www.w3.org/2000/svg" viewBox="0 0 33 59"><title>ice cream</title><g id="Layer_2" data-name="Layer 2"><g id="Layer_1-2" data-name="Layer 1"><g id="ice_cream" data-name="ice cream"><path d="M30.5,45H2.5A2.5,2.5,0,0,1,0,42.5v-26A16.52,16.52,0,0,1,16.5,0a16.16,16.16,0,0,1,2.06.13,2.46,2.46,0,0,1,1.72,1,2.51,2.51,0,0,1,.42,2,8,8,0,0,0,7.81,9.66A7.67,7.67,0,0,0,30,12.66a2.49,2.49,0,0,1,3,2.18c0,.53.08,1.07.08,1.66v26A2.5,2.5,0,0,1,30.5,45ZM5,40H28V17.78A13,13,0,0,1,15.52,5,11.52,11.52,0,0,0,5,16.5Z"/><path d="M21,36.13a2.5,2.5,0,0,1-2.5-2.5v-11a2.5,2.5,0,1,1,5,0v11A2.5,2.5,0,0,1,21,36.13Z"/><path d="M12,36.13a2.5,2.5,0,0,1-2.5-2.5v-11a2.5,2.5,0,1,1,5,0v11A2.5,2.5,0,0,1,12,36.13Z"/><path d="M16.5,59A6.51,6.51,0,0,1,10,52.5v-10A2.5,2.5,0,0,1,12.5,40h8A2.5,2.5,0,0,1,23,42.5v10A6.51,6.51,0,0,1,16.5,59ZM15,45v7.5a1.5,1.5,0,0,0,3,0V45Z"/></g></g></g></svg>