<svg xmlns="http://www.w3.org/2000/svg" viewBox="0 0 59 45"><title>id</title><g id="Layer_2" data-name="Layer 2"><g id="Layer_1-2" data-name="Layer 1"><g id="id"><path d="M50.5,45H8.5A8.51,8.51,0,0,1,0,36.5V8.5A8.51,8.51,0,0,1,8.5,0h42A8.51,8.51,0,0,1,59,8.5v28A8.51,8.51,0,0,1,50.5,45ZM8.5,5A3.5,3.5,0,0,0,5,8.5v28A3.5,3.5,0,0,0,8.5,40h42A3.5,3.5,0,0,0,54,36.5V8.5A3.5,3.5,0,0,0,50.5,5Z"/><path d="M26.92,36.07H14.07a4.05,4.05,0,0,1-3.2-1.55,4,4,0,0,1-.76-3.4,10.68,10.68,0,0,1,20.78,0,4,4,0,0,1-.76,3.4A4.06,4.06,0,0,1,26.92,36.07Zm-11.52-5H25.6a5.69,5.69,0,0,0-10.2,0Z"/><path d="M20.5,21.93a6.5,6.5,0,1,1,6.5-6.5A6.51,6.51,0,0,1,20.5,21.93Zm0-8a1.5,1.5,0,1,0,1.5,1.5A1.5,1.5,0,0,0,20.5,13.93Z"/><path d="M46.5,19h-9a2.5,2.5,0,0,1,0-5h9a2.5,2.5,0,0,1,0,5Z"/><path d="M46.5,31h-9a2.5,2.5,0,0,1,0-5h9a2.5,2.5,0,0,1,0,5Z"/></g></g></g></svg>