<svg xmlns="http://www.w3.org/2000/svg" viewBox="0 0 59 59"><title>idea</title><g id="Layer_2" data-name="Layer 2"><g id="Layer_1-2" data-name="Layer 1"><g id="idea"><path d="M56.5,32H53.18a2.5,2.5,0,0,1,0-5H56.5a2.5,2.5,0,0,1,0,5Z"/><path d="M5.82,32H2.5a2.5,2.5,0,0,1,0-5H5.82a2.5,2.5,0,0,1,0,5Z"/><path d="M29.5,8.32A2.5,2.5,0,0,1,27,5.82V2.5a2.5,2.5,0,0,1,5,0V5.82A2.5,2.5,0,0,1,29.5,8.32Z"/><path d="M10.41,51.09a2.5,2.5,0,0,1-1.77-4.27L11,44.48A2.5,2.5,0,0,1,14.52,48l-2.34,2.35A2.49,2.49,0,0,1,10.41,51.09Z"/><path d="M46.24,15.25A2.5,2.5,0,0,1,44.48,11l2.34-2.35a2.5,2.5,0,1,1,3.54,3.54L48,14.52A2.49,2.49,0,0,1,46.24,15.25Z"/><path d="M48.59,51.09a2.49,2.49,0,0,1-1.77-.73L44.48,48A2.5,2.5,0,0,1,48,44.48l2.35,2.34a2.5,2.5,0,0,1-1.77,4.27Z"/><path d="M12.76,15.25A2.49,2.49,0,0,1,11,14.52L8.64,12.18a2.5,2.5,0,0,1,3.54-3.54L14.52,11a2.49,2.49,0,0,1,0,3.53A2.45,2.45,0,0,1,12.76,15.25Z"/><path d="M29.5,59A9.51,9.51,0,0,1,20,49.5V44.2a17.38,17.38,0,0,1-8-15.42A17.6,17.6,0,0,1,28.68,12,17.5,17.5,0,0,1,39,44.2v5.3A9.51,9.51,0,0,1,29.5,59Zm0-42h-.59A12.57,12.57,0,0,0,17,29a12.44,12.44,0,0,0,6.66,11.58A2.49,2.49,0,0,1,25,42.77V49.5a4.5,4.5,0,0,0,9,0V42.77a2.49,2.49,0,0,1,1.33-2.21A12.5,12.5,0,0,0,42,29.5,12.5,12.5,0,0,0,29.5,17Z"/></g></g></g></svg>