<svg xmlns="http://www.w3.org/2000/svg" viewBox="0 0 59 55"><title>inbox</title><g id="Layer_2" data-name="Layer 2"><g id="Layer_1-2" data-name="Layer 1"><g id="inbox"><path d="M48.5,55h-38A10.51,10.51,0,0,1,0,44.5v-17a2.58,2.58,0,0,1,.17-.91l9.8-25A2.5,2.5,0,0,1,12.3,0H46.7A2.5,2.5,0,0,1,49,1.59l9.8,25a2.58,2.58,0,0,1,.17.91v17A10.51,10.51,0,0,1,48.5,55ZM5,28V44.5A5.51,5.51,0,0,0,10.5,50h38A5.51,5.51,0,0,0,54,44.5V28L45,5H14Z"/><path d="M29.5,43A15.48,15.48,0,0,1,14.24,30H4.5a2.5,2.5,0,0,1,0-5h12A2.5,2.5,0,0,1,19,27.5,10.46,10.46,0,0,0,40,27.5a2.5,2.5,0,0,1,2.5-2.5h12a2.5,2.5,0,0,1,0,5H44.76A15.48,15.48,0,0,1,29.5,43Z"/></g></g></g></svg>