<svg xmlns="http://www.w3.org/2000/svg" viewBox="0 0 59 59"><title>injection</title><g id="Layer_2" data-name="Layer 2"><g id="Layer_1-2" data-name="Layer 1"><g id="injection"><path d="M56.5,15.41a2.49,2.49,0,0,1-1.77-.73L44.32,4.27A2.5,2.5,0,0,1,47.86.73L58.27,11.14a2.52,2.52,0,0,1,0,3.54A2.49,2.49,0,0,1,56.5,15.41Z"/><path d="M51.51,32.07a2.46,2.46,0,0,1-1.76-.74L27.67,9.25A2.5,2.5,0,0,1,31.2,5.72L53.28,27.8a2.51,2.51,0,0,1-1.77,4.27Z"/><path d="M40.47,21a2.46,2.46,0,0,1-1.76-.74,2.49,2.49,0,0,1,0-3.53L49.53,5.94a2.5,2.5,0,1,1,3.53,3.53L42.24,20.29A2.5,2.5,0,0,1,40.47,21Z"/><path d="M2.5,59a2.49,2.49,0,0,1-1.77-.73,2.52,2.52,0,0,1,0-3.54l9.56-9.55a2.5,2.5,0,0,1,3.53,3.53L4.27,58.27A2.49,2.49,0,0,1,2.5,59Z"/><path d="M19.89,50.31a11.62,11.62,0,0,1-1.31-.07l-6.82-.81a2.51,2.51,0,0,1-2.19-2.19l-.81-6.82a10.94,10.94,0,0,1,3.16-9.09L32.6,10.65a2.5,2.5,0,1,1,3.53,3.53L15.45,34.86a6,6,0,0,0-1.72,5l.57,4.86,4.86.57a6,6,0,0,0,5-1.72L44.82,22.87a2.5,2.5,0,1,1,3.53,3.53L27.67,47.08A11,11,0,0,1,19.89,50.31Z"/><path d="M30.86,42.86a2.46,2.46,0,0,1-1.76-.74l-3.62-3.61A2.5,2.5,0,1,1,29,35l3.61,3.62a2.51,2.51,0,0,1-1.77,4.27Z"/><path d="M37.19,36.53a2.49,2.49,0,0,1-1.77-.73l-3.61-3.62a2.5,2.5,0,0,1,3.53-3.53L39,32.26a2.52,2.52,0,0,1,0,3.54A2.49,2.49,0,0,1,37.19,36.53Z"/></g></g></g></svg>