<svg xmlns="http://www.w3.org/2000/svg" viewBox="0 0 59 59"><title>instagram</title><g id="Layer_2" data-name="Layer 2"><g id="Layer_1-2" data-name="Layer 1"><g id="instagram"><path d="M48.5,59h-38A10.51,10.51,0,0,1,0,48.5v-38A10.51,10.51,0,0,1,10.5,0h38A10.51,10.51,0,0,1,59,10.5v38A10.51,10.51,0,0,1,48.5,59ZM10.5,5A5.51,5.51,0,0,0,5,10.5v38A5.51,5.51,0,0,0,10.5,54h38A5.51,5.51,0,0,0,54,48.5v-38A5.51,5.51,0,0,0,48.5,5Z"/><path d="M46,18a5,5,0,1,1,5-5A5,5,0,0,1,46,18Zm0-5Z"/><path d="M29.5,42A12.5,12.5,0,1,1,42,29.5,12.52,12.52,0,0,1,29.5,42Zm0-20A7.5,7.5,0,1,0,37,29.5,7.5,7.5,0,0,0,29.5,22Z"/></g></g></g></svg>