<svg xmlns="http://www.w3.org/2000/svg" viewBox="0 0 41 59"><title>intercom</title><g id="Layer_2" data-name="Layer 2"><g id="Layer_1-2" data-name="Layer 1"><g id="intercom"><path d="M32.5,59H8.5A8.51,8.51,0,0,1,0,50.5V8.5A8.51,8.51,0,0,1,8.5,0h24A8.51,8.51,0,0,1,41,8.5v42A8.51,8.51,0,0,1,32.5,59ZM8.5,5A3.5,3.5,0,0,0,5,8.5v42A3.5,3.5,0,0,0,8.5,54h24A3.5,3.5,0,0,0,36,50.5V8.5A3.5,3.5,0,0,0,32.5,5Z"/><path d="M20.5,25.22a8.5,8.5,0,1,1,8.5-8.5A8.51,8.51,0,0,1,20.5,25.22Zm0-12a3.5,3.5,0,1,0,3.5,3.5A3.5,3.5,0,0,0,20.5,13.22Z"/><circle cx="27.88" cy="43.56" r="4.03"/><circle cx="11.59" cy="40.2" r="2.5"/><circle cx="18.59" cy="40.2" r="2.5"/><circle cx="18.59" cy="46.92" r="2.5"/><circle cx="11.59" cy="46.92" r="2.5"/><path d="M30.5,33.86h-20a2.5,2.5,0,0,1,0-5h20a2.5,2.5,0,0,1,0,5Z"/></g></g></g></svg>