<svg xmlns="http://www.w3.org/2000/svg" viewBox="0 0 49 59"><title>invoice</title><g id="Layer_2" data-name="Layer 2"><g id="Layer_1-2" data-name="Layer 1"><g id="invoice"><path d="M38.5,59h-28A10.51,10.51,0,0,1,0,48.5v-38A10.51,10.51,0,0,1,10.5,0h28A10.51,10.51,0,0,1,49,10.5v38A10.51,10.51,0,0,1,38.5,59ZM10.5,5A5.51,5.51,0,0,0,5,10.5v38A5.51,5.51,0,0,0,10.5,54h28A5.51,5.51,0,0,0,44,48.5v-38A5.51,5.51,0,0,0,38.5,5Z"/><path d="M35.78,45.83h-24a2.5,2.5,0,0,1,0-5h24a2.5,2.5,0,0,1,0,5Z"/><path d="M21.78,19.17h-10a2.5,2.5,0,0,1,0-5h10a2.5,2.5,0,0,1,0,5Z"/><path d="M21.78,32.5h-10a2.5,2.5,0,0,1,0-5h10a2.5,2.5,0,0,1,0,5Z"/><path d="M33.62,33.37h-2.8a2.5,2.5,0,0,1,0-5h2.8a1.1,1.1,0,1,0,0-2.2,6.1,6.1,0,1,1,0-12.2h2.8a2.5,2.5,0,1,1,0,5h-2.8a1.1,1.1,0,0,0,0,2.2,6.1,6.1,0,1,1,0,12.2Z"/><path d="M33.62,19a2.5,2.5,0,0,1-2.5-2.5v-2.8a2.5,2.5,0,0,1,5,0v2.8A2.5,2.5,0,0,1,33.62,19Z"/><path d="M33.62,36.17a2.5,2.5,0,0,1-2.5-2.5v-2.8a2.5,2.5,0,0,1,5,0v2.8A2.5,2.5,0,0,1,33.62,36.17Z"/></g></g></g></svg>