<svg xmlns="http://www.w3.org/2000/svg" viewBox="0 0 59 58.99"><title>islamic art</title><g id="Layer_2" data-name="Layer 2"><g id="Layer_1-2" data-name="Layer 1"><g id="islamic_art" data-name="islamic art"><path d="M29.5,59a4.46,4.46,0,0,1-3.18-1.31l-6-6H11.82a4.5,4.5,0,0,1-4.5-4.5V38.68l-6-6a4.5,4.5,0,0,1,0-6.37l6-6V11.82a4.51,4.51,0,0,1,4.5-4.5h8.49l6-6a4.5,4.5,0,0,1,6.36,0l6,6h8.49a4.51,4.51,0,0,1,4.5,4.5v8.49l6,6a4.49,4.49,0,0,1,0,6.36l-6,6v8.49a4.5,4.5,0,0,1-4.5,4.5H38.69l-6,6A4.47,4.47,0,0,1,29.5,59ZM12.32,46.67h9a2.52,2.52,0,0,1,1.77.74l6.38,6.38,6.38-6.38a2.52,2.52,0,0,1,1.77-.74h9v-9a2.49,2.49,0,0,1,.73-1.77l6.38-6.38-6.38-6.39a2.47,2.47,0,0,1-.73-1.76v-9h-9a2.51,2.51,0,0,1-1.77-.73L29.5,5.2l-6.38,6.39a2.51,2.51,0,0,1-1.77.73h-9v9a2.47,2.47,0,0,1-.73,1.76L5.21,29.5l6.38,6.38a2.49,2.49,0,0,1,.73,1.77ZM54.15,29.85h0Z"/></g></g></g></svg>