<svg xmlns="http://www.w3.org/2000/svg" viewBox="0 0 59 56.35"><title>keyboard</title><g id="Layer_2" data-name="Layer 2"><g id="Layer_1-2" data-name="Layer 1"><g id="keyboard"><path d="M29.32,24.35a2.5,2.5,0,0,1-2.5-2.5V16.61a7.85,7.85,0,0,1,7.85-7.84,2.84,2.84,0,0,0,2.84-2.84V2.5a2.5,2.5,0,0,1,5,0V5.93a7.85,7.85,0,0,1-7.84,7.84,2.85,2.85,0,0,0-2.85,2.84v5.24A2.5,2.5,0,0,1,29.32,24.35Z"/><path d="M50.5,56.35H8.5A8.51,8.51,0,0,1,0,47.85v-20a8.51,8.51,0,0,1,8.5-8.5h42a8.51,8.51,0,0,1,8.5,8.5v20A8.51,8.51,0,0,1,50.5,56.35Zm-42-32A3.5,3.5,0,0,0,5,27.85v20a3.5,3.5,0,0,0,3.5,3.5h42a3.5,3.5,0,0,0,3.5-3.5v-20a3.5,3.5,0,0,0-3.5-3.5Z"/><path d="M47,32.35H46a2.5,2.5,0,0,1,0-5h1a2.5,2.5,0,0,1,0,5Z"/><path d="M47,40.35H46a2.5,2.5,0,0,1,0-5h1a2.5,2.5,0,0,1,0,5Z"/><path d="M35.67,32.35h-1a2.5,2.5,0,0,1,0-5h1a2.5,2.5,0,0,1,0,5Z"/><path d="M35.67,40.35h-1a2.5,2.5,0,0,1,0-5h1a2.5,2.5,0,0,1,0,5Z"/><path d="M24.33,32.35h-1a2.5,2.5,0,0,1,0-5h1a2.5,2.5,0,0,1,0,5Z"/><path d="M24.33,40.35h-1a2.5,2.5,0,0,1,0-5h1a2.5,2.5,0,0,1,0,5Z"/><path d="M35.67,48.35H23.33a2.5,2.5,0,0,1,0-5H35.67a2.5,2.5,0,0,1,0,5Z"/><path d="M13,32.35H12a2.5,2.5,0,0,1,0-5h1a2.5,2.5,0,0,1,0,5Z"/><path d="M13,40.35H12a2.5,2.5,0,0,1,0-5h1a2.5,2.5,0,0,1,0,5Z"/><path d="M13,48.35H12a2.5,2.5,0,0,1,0-5h1a2.5,2.5,0,0,1,0,5Z"/><path d="M47,48.35H46a2.5,2.5,0,0,1,0-5h1a2.5,2.5,0,0,1,0,5Z"/></g></g></g></svg>