<svg xmlns="http://www.w3.org/2000/svg" viewBox="0 0 59 56.91"><title>kiosk</title><g id="Layer_2" data-name="Layer 2"><g id="Layer_1-2" data-name="Layer 1"><g id="kiosk"><path d="M20.12,56.91a8.5,8.5,0,1,1,8.5-8.5A8.51,8.51,0,0,1,20.12,56.91Zm0-12a3.5,3.5,0,1,0,3.5,3.5A3.5,3.5,0,0,0,20.12,44.91Z"/><path d="M14.12,50.91H7.68a2.5,2.5,0,0,1-2.5-2.5V23.92a2.5,2.5,0,0,1,5,0v22h3.94a2.5,2.5,0,1,1,0,5Z"/><path d="M49.55,50.91H26.12a2.5,2.5,0,0,1,0-5H47.05v-22a2.5,2.5,0,0,1,5,0V48.41A2.5,2.5,0,0,1,49.55,50.91Z"/><path d="M22.09,26.56a9,9,0,0,1-9-9V13.9a2.5,2.5,0,1,1,5,0v3.63a4,4,0,1,0,8.06,0V13.9a2.5,2.5,0,0,1,5,0v3.63A9,9,0,0,1,22.09,26.56Z"/><path d="M35.14,26.56a9,9,0,0,1-9-9V13.9a2.5,2.5,0,0,1,5,0v3.63a4,4,0,1,0,8.05,0V13.9a2.5,2.5,0,1,1,5,0v3.63A9,9,0,0,1,35.14,26.56Z"/><path d="M48.2,26.56a9,9,0,0,1-9-9V13.9a2.5,2.5,0,1,1,5,0v3.63a4,4,0,1,0,8.06,0V16a5.31,5.31,0,0,0-.72-2.66L48.12,7.59A5.23,5.23,0,0,0,43.61,5h-30A5.26,5.26,0,0,0,9.11,7.59L5.72,13.35A5.31,5.31,0,0,0,5,16v1.52a4,4,0,1,0,8.06,0V13.9a2.5,2.5,0,1,1,5,0v3.63A9,9,0,0,1,0,17.53V16a10.29,10.29,0,0,1,1.41-5.19L4.8,5.05a10.28,10.28,0,0,1,8.82-5h30a10.28,10.28,0,0,1,8.82,5.05l3.39,5.77A10.29,10.29,0,0,1,57.23,16v1.52A9,9,0,0,1,48.2,26.56Z"/><path d="M49.55,55.86a2.49,2.49,0,0,1-2.5-2.5v-5a2.49,2.49,0,0,1,2.5-2.5h7a2.5,2.5,0,0,1,0,5H52.05v2.45A2.49,2.49,0,0,1,49.55,55.86Z"/></g></g></g></svg>