<svg xmlns="http://www.w3.org/2000/svg" viewBox="0 0 57.09 58.97"><title>knife</title><g id="Layer_2" data-name="Layer 2"><g id="Layer_1-2" data-name="Layer 1"><g id="knife"><path d="M31.22,46.16a2.49,2.49,0,0,1-1.77-.73L18.22,34.2a2.52,2.52,0,0,1,0-3.54l30-30a2.59,2.59,0,0,1,3.54,0,18.42,18.42,0,0,1,0,26L33,45.43A2.49,2.49,0,0,1,31.22,46.16Zm-7.7-13.73,7.7,7.7,17-17a13.4,13.4,0,0,0,1.6-17Z"/><path d="M7.13,59a7.13,7.13,0,0,1-5-12.18L18.22,30.66a2.5,2.5,0,1,1,3.54,3.54L5.62,50.33a2.14,2.14,0,1,0,3,3L24.77,37.21a2.5,2.5,0,0,1,3.54,3.54L12.18,56.88A7.12,7.12,0,0,1,7.13,59Z"/></g></g></g></svg>