<svg xmlns="http://www.w3.org/2000/svg" viewBox="0 0 59 59"><title>language</title><g id="Layer_2" data-name="Layer 2"><g id="Layer_1-2" data-name="Layer 1"><g id="language"><path d="M29.5,59A29.5,29.5,0,1,1,59,29.5,29.53,29.53,0,0,1,29.5,59Zm0-54A24.5,24.5,0,1,0,54,29.5,24.53,24.53,0,0,0,29.5,5Z"/><path d="M29.5,59a2.47,2.47,0,0,1-1.7-.67A38.87,38.87,0,0,1,27.8.67a2.5,2.5,0,0,1,3.4,3.66,33.88,33.88,0,0,0,0,50.34A2.5,2.5,0,0,1,29.5,59Z"/><path d="M29.5,59a2.5,2.5,0,0,1-1.7-4.33,33.88,33.88,0,0,0,0-50.34A2.5,2.5,0,1,1,31.2.67a38.87,38.87,0,0,1,0,57.66A2.47,2.47,0,0,1,29.5,59Z"/><path d="M54.5,41H4.5a2.5,2.5,0,0,1,0-5h50a2.5,2.5,0,0,1,0,5Z"/><path d="M54.5,23H4.5a2.5,2.5,0,0,1,0-5h50a2.5,2.5,0,0,1,0,5Z"/></g></g></g></svg>