<svg xmlns="http://www.w3.org/2000/svg" viewBox="0 0 58.99 53.15"><title>laptop</title><g id="Layer_2" data-name="Layer 2"><g id="Layer_1-2" data-name="Layer 1"><g id="laptop"><path d="M52,36H7a2.5,2.5,0,0,1-2.5-2.5V6.5A6.51,6.51,0,0,1,11,0H48a6.51,6.51,0,0,1,6.5,6.5v27A2.5,2.5,0,0,1,52,36ZM9.52,31h40V6.5A1.5,1.5,0,0,0,48,5H11a1.5,1.5,0,0,0-1.5,1.5Z"/><path d="M52.21,53.15H6.78A6.78,6.78,0,0,1,.43,44L4.68,32.65A2.51,2.51,0,0,1,7,31H52a2.51,2.51,0,0,1,2.34,1.62L58.56,44a6.78,6.78,0,0,1-6.35,9.16ZM8.76,36,5.11,45.75a1.78,1.78,0,0,0,1.67,2.4H52.21a1.78,1.78,0,0,0,1.47-.76,1.81,1.81,0,0,0,.2-1.64L50.24,36Z"/><path d="M39.5,50.43h-20a2.5,2.5,0,0,1,0-5h20a2.5,2.5,0,0,1,0,5Z"/></g></g></g></svg>