<svg xmlns="http://www.w3.org/2000/svg" viewBox="0 0 62.87 46.74"><title>lawnmower</title><g id="Layer_2" data-name="Layer 2"><g id="Layer_1-2" data-name="Layer 1"><g id="lawnmower"><path d="M53.37,46.74a9.5,9.5,0,1,1,9.5-9.5A9.51,9.51,0,0,1,53.37,46.74Zm0-14a4.5,4.5,0,1,0,4.5,4.5A4.51,4.51,0,0,0,53.37,32.74Z"/><path d="M13.51,46.74a9.5,9.5,0,1,1,9.5-9.5A9.51,9.51,0,0,1,13.51,46.74Zm0-14a4.5,4.5,0,1,0,4.5,4.5A4.51,4.51,0,0,0,13.51,32.74Z"/><path d="M46.44,43.24h-26a2.5,2.5,0,0,1,0-5h26a2.5,2.5,0,0,1,0,5Z"/><path d="M8.32,5H2.5a2.5,2.5,0,0,1,0-5H8.32a2.5,2.5,0,0,1,0,5Z"/><path d="M18.86,35.24a2.51,2.51,0,0,1-2.36-1.68L6,3.32a2.5,2.5,0,0,1,4.72-1.64l8.44,24.19a9.93,9.93,0,0,1,7.2-3.09H37.6a10.51,10.51,0,0,1,8.73,4.65l2.4,3.6a2.5,2.5,0,0,1-4.15,2.78l-2.41-3.59a5.48,5.48,0,0,0-4.57-2.44H26.32a5,5,0,0,0-4.95,5,2.49,2.49,0,0,1-2.09,2.46A2,2,0,0,1,18.86,35.24Z"/></g></g></g></svg>