<svg xmlns="http://www.w3.org/2000/svg" viewBox="0 0 59 59"><title>lighter</title><g id="Layer_2" data-name="Layer 2"><g id="Layer_1-2" data-name="Layer 1"><g id="lighter"><path d="M50.5,59h-21A8.51,8.51,0,0,1,21,50.5v-19A2.5,2.5,0,0,1,23.5,29h33A2.5,2.5,0,0,1,59,31.5v19A8.51,8.51,0,0,1,50.5,59ZM26,34V50.5A3.5,3.5,0,0,0,29.5,54h21A3.5,3.5,0,0,0,54,50.5V34Z"/><path d="M48,34H32a2.5,2.5,0,0,1-2.5-2.5v-11A2.5,2.5,0,0,1,32,18H48a2.5,2.5,0,0,1,2.5,2.5v11A2.5,2.5,0,0,1,48,34ZM34.5,29h11V23h-11Z"/><path d="M23.5,34H8.5A8.51,8.51,0,0,1,0,25.5V8.5A8.51,8.51,0,0,1,8.5,0h15A2.5,2.5,0,0,1,26,2.5v29A2.5,2.5,0,0,1,23.5,34ZM8.5,5A3.5,3.5,0,0,0,5,8.5v17A3.5,3.5,0,0,0,8.5,29H21V5Z"/><path d="M20.5,39A2.5,2.5,0,0,1,18,36.5v-5a2.5,2.5,0,0,1,5,0v5A2.5,2.5,0,0,1,20.5,39Z"/><path d="M40,19a7.7,7.7,0,0,1-7.69-7.69C32.31,5.22,38.25.69,38.5.5a2.49,2.49,0,0,1,3,0c.25.19,6.18,4.72,6.18,10.81A7.69,7.69,0,0,1,40,19ZM40,5.89c-1.27,1.36-2.69,3.39-2.69,5.42a2.69,2.69,0,1,0,5.37,0C42.68,9.28,41.27,7.25,40,5.89Z"/><path d="M50.33,28V21a3.5,3.5,0,0,1,0,7Z"/></g></g></g></svg>