<svg xmlns="http://www.w3.org/2000/svg" viewBox="0 0 58.49 53.34"><title>like</title><g id="Layer_2" data-name="Layer 2"><g id="Layer_1-2" data-name="Layer 1"><g id="like"><path d="M43.79,53.34H25.48a13.21,13.21,0,0,1-7.64-2.42L13.1,47.57H6.15A6.16,6.16,0,0,1,0,41.42V30A6.16,6.16,0,0,1,6.15,23.8h6.57l6.65-8.55a1.74,1.74,0,0,0,.37-1.07V4.25A4.26,4.26,0,0,1,24,0,11.14,11.14,0,0,1,35.12,11.13v7.46H50.48A8,8,0,0,1,58,29.3L51.34,48A8,8,0,0,1,43.79,53.34ZM6.15,28.3A1.65,1.65,0,0,0,4.5,30V41.42a1.65,1.65,0,0,0,1.65,1.65h7.67a2.3,2.3,0,0,1,1.29.41l5.32,3.76a8.71,8.71,0,0,0,5.05,1.6H43.79a3.53,3.53,0,0,0,3.31-2.33l6.69-18.72a3.52,3.52,0,0,0-3.31-4.7H32.87a2.25,2.25,0,0,1-2.25-2.25V11.13A6.65,6.65,0,0,0,24.24,4.5v9.68A6.31,6.31,0,0,1,22.92,18l-7.33,9.41a2.23,2.23,0,0,1-1.77.87Z"/><path d="M13.82,47.57a2.25,2.25,0,0,1-2.25-2.25V26.05a2.25,2.25,0,0,1,4.5,0V45.32A2.25,2.25,0,0,1,13.82,47.57Z"/></g></g></g></svg>