<svg xmlns="http://www.w3.org/2000/svg" viewBox="0 0 59 59"><title>link off</title><g id="Layer_2" data-name="Layer 2"><g id="Layer_1-2" data-name="Layer 1"><g id="link_off" data-name="link off"><path d="M56.5,59a2.49,2.49,0,0,1-1.77-.73l-54-54A2.5,2.5,0,0,1,4.27.73l54,54a2.52,2.52,0,0,1,0,3.54A2.49,2.49,0,0,1,56.5,59Z"/><path d="M18.84,44.84C8.45,44.84,0,38,0,29.5c0-7.74,7.1-14.29,16.52-15.22a2.5,2.5,0,1,1,.49,5c-6.84.68-12,5.09-12,10.25,0,5.7,6.21,10.34,13.84,10.34,5.78,0,11-2.75,13-6.84a2.5,2.5,0,0,1,4.49,2.19C33.48,41.05,26.61,44.84,18.84,44.84Z"/><path d="M40.16,44.84a2.5,2.5,0,0,1,0-5q.92,0,1.83-.09a2.5,2.5,0,0,1,.49,5A22.53,22.53,0,0,1,40.16,44.84Z"/><path d="M52.27,40.62a2.5,2.5,0,0,1-1.64-4.39A9,9,0,0,0,54,29.5c0-5.7-6.21-10.34-13.84-10.34a17.36,17.36,0,0,0-6.81,1.36,2.5,2.5,0,1,1-2-4.6,22.49,22.49,0,0,1,8.78-1.76C50.55,14.16,59,21,59,29.5A13.87,13.87,0,0,1,53.9,40,2.47,2.47,0,0,1,52.27,40.62Z"/><path d="M23.83,32a2.5,2.5,0,0,1-2.5-2.5,12.77,12.77,0,0,1,1.33-5.69A2.5,2.5,0,1,1,27.15,26a7.88,7.88,0,0,0-.82,3.5A2.5,2.5,0,0,1,23.83,32Z"/></g></g></g></svg>