<svg xmlns="http://www.w3.org/2000/svg" viewBox="0 0 59 30.67"><title>link</title><g id="Layer_2" data-name="Layer 2"><g id="Layer_1-2" data-name="Layer 1"><g id="link"><path d="M18.84,30.67C8.45,30.67,0,23.79,0,15.34S8.45,0,18.84,0a2.5,2.5,0,0,1,0,5C11.21,5,5,9.64,5,15.34s6.21,10.33,13.84,10.33S32.67,21,32.67,15.34a2.5,2.5,0,0,1,5,0C37.67,23.79,29.22,30.67,18.84,30.67Z"/><path d="M40.16,30.67a2.5,2.5,0,0,1,0-5C47.79,25.67,54,21,54,15.34S47.79,5,40.16,5,26.33,9.64,26.33,15.34a2.5,2.5,0,1,1-5,0C21.33,6.88,29.78,0,40.16,0S59,6.88,59,15.34,50.55,30.67,40.16,30.67Z"/></g></g></g></svg>