<svg xmlns="http://www.w3.org/2000/svg" viewBox="0 0 59 59"><title>linkedin</title><g id="Layer_2" data-name="Layer 2"><g id="Layer_1-2" data-name="Layer 1"><g id="linkedin"><path d="M48.5,59h-38A10.51,10.51,0,0,1,0,48.5v-38A10.51,10.51,0,0,1,10.5,0h38A10.51,10.51,0,0,1,59,10.5v38A10.51,10.51,0,0,1,48.5,59ZM10.5,5A5.51,5.51,0,0,0,5,10.5v38A5.51,5.51,0,0,0,10.5,54h38A5.51,5.51,0,0,0,54,48.5v-38A5.51,5.51,0,0,0,48.5,5Z"/><path d="M44.49,44.5h0v-11c0-5.39-1.16-9.53-7.45-9.53a6.54,6.54,0,0,0-5.89,3.23h-.08V24.47h-6v20h6.21V34.58c0-2.61.5-5.14,3.73-5.14s3.24,3,3.24,5.31V44.5Z"/><path d="M15,24.47h6.22v20H15Z"/><path d="M18.1,14.5a3.62,3.62,0,1,0,3.6,3.6A3.6,3.6,0,0,0,18.1,14.5Z"/></g></g></g></svg>