<svg xmlns="http://www.w3.org/2000/svg" viewBox="0 0 59 35"><title>list</title><g id="Layer_2" data-name="Layer 2"><g id="Layer_1-2" data-name="Layer 1"><g id="list"><path d="M56.5,20h-36a2.5,2.5,0,0,1,0-5h36a2.5,2.5,0,0,1,0,5Z"/><path d="M8.5,20h-6a2.5,2.5,0,0,1,0-5h6a2.5,2.5,0,0,1,0,5Z"/><path d="M56.5,35h-36a2.5,2.5,0,0,1,0-5h36a2.5,2.5,0,0,1,0,5Z"/><path d="M8.5,35h-6a2.5,2.5,0,0,1,0-5h6a2.5,2.5,0,0,1,0,5Z"/><path d="M56.5,5h-36a2.5,2.5,0,0,1,0-5h36a2.5,2.5,0,0,1,0,5Z"/><path d="M8.5,5h-6a2.5,2.5,0,0,1,0-5h6a2.5,2.5,0,0,1,0,5Z"/></g></g></g></svg>