<svg xmlns="http://www.w3.org/2000/svg" viewBox="0 0 59 58.84"><title>live</title><g id="Layer_2" data-name="Layer 2"><g id="Layer_1-2" data-name="Layer 1"><g id="live"><path d="M10.49,58.84H3a2.5,2.5,0,0,1-2.5-2.5V36.88a2.5,2.5,0,0,1,5,0v17h5a2.5,2.5,0,0,1,0,5Z"/><path d="M19.32,58.84a2.5,2.5,0,0,1-2.5-2.5V36.88a2.5,2.5,0,0,1,5,0V56.34A2.5,2.5,0,0,1,19.32,58.84Z"/><path d="M34.16,58.84a2.48,2.48,0,0,1-2.37-1.72L25.37,37.67a2.5,2.5,0,0,1,4.75-1.57l4,12.26,4-12.26A2.5,2.5,0,1,1,43,37.67L36.54,57.12A2.5,2.5,0,0,1,34.16,58.84Z"/><path d="M56.5,58.84H49a2.5,2.5,0,0,1-2.5-2.5V36.88a2.5,2.5,0,0,1,2.5-2.5h7.5a2.5,2.5,0,0,1,0,5h-5V53.84h5a2.5,2.5,0,0,1,0,5Z"/><path d="M56.5,49.11H49a2.5,2.5,0,0,1,0-5h7.5a2.5,2.5,0,0,1,0,5Z"/><path d="M36.13,12a2.45,2.45,0,0,1-1.76-.73,21.31,21.31,0,0,0-30.1,0A2.5,2.5,0,0,1,.73,7.68a26.33,26.33,0,0,1,37.17,0A2.5,2.5,0,0,1,36.13,12Z"/><path d="M29.41,18.68A2.53,2.53,0,0,1,27.64,18,11.78,11.78,0,0,0,11,18a2.5,2.5,0,0,1-3.54-3.54,16.77,16.77,0,0,1,23.71,0,2.5,2.5,0,0,1-1.76,4.27Z"/><path d="M23.68,28.77a2.5,2.5,0,0,1-2.5-2.5,1.86,1.86,0,0,0-3.72,0,2.5,2.5,0,1,1-5,0,6.86,6.86,0,0,1,13.72,0A2.5,2.5,0,0,1,23.68,28.77Z"/></g></g></g></svg>