<svg xmlns="http://www.w3.org/2000/svg" viewBox="0 0 45 59"><title>lock open</title><g id="Layer_2" data-name="Layer 2"><g id="Layer_1-2" data-name="Layer 1"><g id="lock_open" data-name="lock open"><path d="M24.5,39h-4a2.5,2.5,0,0,1,0-5h4a2.5,2.5,0,0,1,0,5Z"/><path d="M34.5,59h-24A10.51,10.51,0,0,1,0,48.5v-23A6.51,6.51,0,0,1,6.5,19h32A6.51,6.51,0,0,1,45,25.5v23A10.51,10.51,0,0,1,34.5,59ZM6.5,24A1.5,1.5,0,0,0,5,25.5v23A5.51,5.51,0,0,0,10.5,54h24A5.51,5.51,0,0,0,40,48.5v-23A1.5,1.5,0,0,0,38.5,24Z"/><path d="M34.5,24A2.5,2.5,0,0,1,32,21.5v-11A5.51,5.51,0,0,0,26.5,5h-8A5.51,5.51,0,0,0,13,10.5a2.5,2.5,0,0,1-5,0A10.51,10.51,0,0,1,18.5,0h8A10.51,10.51,0,0,1,37,10.5v11A2.5,2.5,0,0,1,34.5,24Z"/><path d="M22.5,47A2.5,2.5,0,0,1,20,44.5v-8a2.5,2.5,0,0,1,5,0v8A2.5,2.5,0,0,1,22.5,47Z"/></g></g></g></svg>