<svg xmlns="http://www.w3.org/2000/svg" viewBox="0 0 52 59"><title>logout</title><g id="Layer_2" data-name="Layer 2"><g id="Layer_1-2" data-name="Layer 1"><g id="logout"><path d="M41.5,59h-31A10.51,10.51,0,0,1,0,48.5v-9a2.5,2.5,0,0,1,5,0v9A5.51,5.51,0,0,0,10.5,54h31A5.51,5.51,0,0,0,47,48.5v-38A5.51,5.51,0,0,0,41.5,5h-31A5.51,5.51,0,0,0,5,10.5v9a2.5,2.5,0,0,1-5,0v-9A10.51,10.51,0,0,1,10.5,0h31A10.51,10.51,0,0,1,52,10.5v38A10.51,10.51,0,0,1,41.5,59Z"/><path d="M35,32H2.5a2.5,2.5,0,0,1,0-5H35a2.5,2.5,0,0,1,0,5Z"/><path d="M23,44a2.49,2.49,0,0,1-1.77-.73,2.52,2.52,0,0,1,0-3.54L31.46,29.5,21.23,19.27a2.5,2.5,0,0,1,3.54-3.54l12,12a2.52,2.52,0,0,1,0,3.54l-12,12A2.49,2.49,0,0,1,23,44Z"/></g></g></g></svg>