<svg xmlns="http://www.w3.org/2000/svg" viewBox="0 0 59 51"><title>mail</title><g id="Layer_2" data-name="Layer 2"><g id="Layer_1-2" data-name="Layer 1"><g id="mail"><path d="M48.5,51h-38A10.51,10.51,0,0,1,0,40.5v-30A10.51,10.51,0,0,1,10.5,0h38A10.51,10.51,0,0,1,59,10.5v30A10.51,10.51,0,0,1,48.5,51ZM10.5,5A5.51,5.51,0,0,0,5,10.5v30A5.51,5.51,0,0,0,10.5,46h38A5.51,5.51,0,0,0,54,40.5v-30A5.51,5.51,0,0,0,48.5,5Z"/><path d="M29.5,28.51a10.45,10.45,0,0,1-5.15-1.34L1.42,14.28A2.5,2.5,0,1,1,3.88,9.92L26.8,22.82a5.56,5.56,0,0,0,5.39,0L55.12,9.92a2.5,2.5,0,1,1,2.46,4.36L34.65,27.17A10.45,10.45,0,0,1,29.5,28.51Z"/></g></g></g></svg>