<svg xmlns="http://www.w3.org/2000/svg" viewBox="0 0 59.01 59"><title>meat</title><g id="Layer_2" data-name="Layer 2"><g id="Layer_1-2" data-name="Layer 1"><g id="meat"><path d="M33.18,42.85A17,17,0,0,1,21,38C13.74,30.76,14.76,18,23.26,9.45l6.83-6.83a2.5,2.5,0,0,1,3.53,3.54L26.8,13c-6.56,6.56-7.58,16.2-2.28,21.5S39.46,38.75,46,32.2l6.83-6.82a2.5,2.5,0,0,1,3.54,3.53l-6.83,6.83A23.51,23.51,0,0,1,33.18,42.85Z"/><path d="M49.48,31.53c-4.65,0-10.18-2.51-14.84-7.17C27.27,17,25.27,7.44,30.09,2.62h0C34.91-2.2,44.45-.2,51.82,7.17a25,25,0,0,1,6.71,11.21c1.08,4.32.31,8.06-2.15,10.53A9.52,9.52,0,0,1,49.48,31.53ZM33.62,6.16c-2.39,2.39-1.11,9,4.55,14.67s12.28,6.94,14.67,4.55c1.16-1.17,1.47-3.27.84-5.79a20.22,20.22,0,0,0-5.39-8.88C42.63,5.05,36,3.76,33.62,6.16Z"/><path d="M44.82,19.86a2.53,2.53,0,0,1-1.77-.73l-3.18-3.19a2.5,2.5,0,0,1,3.54-3.53l3.18,3.18a2.51,2.51,0,0,1-1.77,4.27Z"/><path d="M11.92,59A7.24,7.24,0,0,1,5,54,7.22,7.22,0,0,1,5.59,40a4.34,4.34,0,0,1,3.66.86l9.42-9.41A2.5,2.5,0,0,1,22.2,35L12.43,44.8A4.48,4.48,0,0,1,6.36,45a2.25,2.25,0,0,0-1.36,2,2.21,2.21,0,0,0,2.21,2.21,2.5,2.5,0,0,1,2.5,2.5,2.21,2.21,0,0,0,4.26.85,4.38,4.38,0,0,1-1.08-2.9,4.44,4.44,0,0,1,1.31-3.16L24,36.8a2.5,2.5,0,0,1,3.53,3.53l-9.42,9.42A4.27,4.27,0,0,1,19,53.41,7.17,7.17,0,0,1,11.92,59Z"/></g></g></g></svg>