<svg xmlns="http://www.w3.org/2000/svg" viewBox="0 0 48.94 59"><title>medal-1</title><g id="Layer_2" data-name="Layer 2"><g id="Layer_1-2" data-name="Layer 1"><g id="medal-1"><path d="M40.66,5H8.28a2.5,2.5,0,1,1,0-5H40.66a2.5,2.5,0,0,1,0,5Z"/><path d="M34.88,15H14.06a2.5,2.5,0,0,1,0-5H34.88a2.5,2.5,0,0,1,0,5Z"/><path d="M24.47,59A17.52,17.52,0,1,1,42,41.48,17.54,17.54,0,0,1,24.47,59Zm0-30A12.52,12.52,0,1,0,37,41.48,12.53,12.53,0,0,0,24.47,29Z"/><path d="M35.55,33.86a2.44,2.44,0,0,1-1.24-.34,2.49,2.49,0,0,1-.92-3.41l10.16-17.6-2.89-5L28.89,27.88a2.5,2.5,0,1,1-4.33-2.5L38.49,1.25a2.5,2.5,0,0,1,4.33,0l5.78,10a2.48,2.48,0,0,1,0,2.5L37.72,32.61A2.5,2.5,0,0,1,35.55,33.86Z"/><path d="M13.38,33.86a2.49,2.49,0,0,1-2.16-1.25L.34,13.76a2.48,2.48,0,0,1,0-2.5l5.77-10A2.52,2.52,0,0,1,8.28,0a2.5,2.5,0,0,1,2.16,1.25L24.38,25.38a2.5,2.5,0,1,1-4.33,2.5L8.28,7.5l-2.89,5,10.16,17.6a2.49,2.49,0,0,1-.92,3.41A2.45,2.45,0,0,1,13.38,33.86Z"/><path d="M27.56,48.74a2.49,2.49,0,0,1-1.16-.29l-1.93-1-1.93,1a2.5,2.5,0,0,1-3.63-2.63l.37-2.15-1.56-1.52a2.51,2.51,0,0,1-.63-2.56,2.48,2.48,0,0,1,2-1.7l2.15-.32,1-2a2.5,2.5,0,0,1,4.48,0l1,2,2.16.32a2.49,2.49,0,0,1,1.38,4.26l-1.56,1.52L30,45.82a2.5,2.5,0,0,1-2.46,2.92Zm-3.09-6.63h.09c0-.07,0-.12.06-.18l-.15-.12-.16.12a.55.55,0,0,1,.06.18Z"/></g></g></g></svg>