<svg xmlns="http://www.w3.org/2000/svg" viewBox="0 0 58.99 45.21"><title>megaphone</title><g id="Layer_2" data-name="Layer 2"><g id="Layer_1-2" data-name="Layer 1"><g id="megaphone"><path d="M39,35.56a2.58,2.58,0,0,1-.91-.17L15.72,26.71H4.29A4.3,4.3,0,0,1,0,22.41V13.15a4.3,4.3,0,0,1,4.29-4.3H15.72L38,.17A2.51,2.51,0,0,1,41.45,2.5V33.06a2.51,2.51,0,0,1-2.5,2.5ZM5,21.71H16.19a2.37,2.37,0,0,1,.91.17L36.45,29.4V6.16L17.1,13.68a2.58,2.58,0,0,1-.91.17H5Z"/><path d="M16.19,26.71a2.5,2.5,0,0,1-2.5-2.5V11.35a2.5,2.5,0,0,1,5,0V24.21A2.5,2.5,0,0,1,16.19,26.71Z"/><path d="M51.77,31.69A2.49,2.49,0,0,1,50,31a2.52,2.52,0,0,1,0-3.54A13.65,13.65,0,0,0,50,8.13a2.5,2.5,0,1,1,3.54-3.54,18.67,18.67,0,0,1,0,26.37A2.49,2.49,0,0,1,51.77,31.69Z"/><path d="M46.62,24.08a2.5,2.5,0,0,1-1.76-4.27,2.89,2.89,0,0,0,0-4.07,2.5,2.5,0,0,1,3.53-3.53,7.87,7.87,0,0,1,0,11.14A2.49,2.49,0,0,1,46.62,24.08Z"/><path d="M13.07,45.21A6.48,6.48,0,0,1,6.72,40l-3-15.3a2.5,2.5,0,1,1,4.9-.95l3,15.29a1.48,1.48,0,0,0,1.44,1.19,1.44,1.44,0,0,0,1.13-.53,1.41,1.41,0,0,0,.31-1.21L11.84,24.68a2.5,2.5,0,1,1,4.91-.95l2.67,13.78a6.47,6.47,0,0,1-6.35,7.7Z"/></g></g></g></svg>