<svg xmlns="http://www.w3.org/2000/svg" viewBox="0 0 59 59"><title>memory</title><g id="Layer_2" data-name="Layer 2"><g id="Layer_1-2" data-name="Layer 1"><g id="memory"><path d="M45.3,51.8H13.7a6.51,6.51,0,0,1-6.5-6.5V13.7a6.51,6.51,0,0,1,6.5-6.5H45.3a6.51,6.51,0,0,1,6.5,6.5V45.3A6.51,6.51,0,0,1,45.3,51.8ZM13.7,12.2a1.5,1.5,0,0,0-1.5,1.5V45.3a1.5,1.5,0,0,0,1.5,1.5H45.3a1.5,1.5,0,0,0,1.5-1.5V13.7a1.5,1.5,0,0,0-1.5-1.5Z"/><path d="M39.5,42h-20A2.5,2.5,0,0,1,17,39.5v-20A2.5,2.5,0,0,1,19.5,17h20A2.5,2.5,0,0,1,42,19.5v20A2.5,2.5,0,0,1,39.5,42ZM22,37H37V22H22Z"/><path d="M14.2,12.2a2.5,2.5,0,0,1-2.5-2.5V2.5a2.5,2.5,0,0,1,5,0V9.7A2.5,2.5,0,0,1,14.2,12.2Z"/><path d="M24.4,12.2a2.5,2.5,0,0,1-2.5-2.5V2.5a2.5,2.5,0,0,1,5,0V9.7A2.5,2.5,0,0,1,24.4,12.2Z"/><path d="M34.6,12.2a2.5,2.5,0,0,1-2.5-2.5V2.5a2.5,2.5,0,0,1,5,0V9.7A2.5,2.5,0,0,1,34.6,12.2Z"/><path d="M44.8,12.2a2.5,2.5,0,0,1-2.5-2.5V2.5a2.5,2.5,0,0,1,5,0V9.7A2.5,2.5,0,0,1,44.8,12.2Z"/><path d="M14.2,59a2.5,2.5,0,0,1-2.5-2.5V49.3a2.5,2.5,0,0,1,5,0v7.2A2.5,2.5,0,0,1,14.2,59Z"/><path d="M24.4,59a2.5,2.5,0,0,1-2.5-2.5V49.3a2.5,2.5,0,0,1,5,0v7.2A2.5,2.5,0,0,1,24.4,59Z"/><path d="M34.6,59a2.5,2.5,0,0,1-2.5-2.5V49.3a2.5,2.5,0,0,1,5,0v7.2A2.5,2.5,0,0,1,34.6,59Z"/><path d="M44.8,59a2.5,2.5,0,0,1-2.5-2.5V49.3a2.5,2.5,0,0,1,5,0v7.2A2.5,2.5,0,0,1,44.8,59Z"/><path d="M56.5,16.7H49.3a2.5,2.5,0,0,1,0-5h7.2a2.5,2.5,0,0,1,0,5Z"/><path d="M56.5,26.9H49.3a2.5,2.5,0,0,1,0-5h7.2a2.5,2.5,0,0,1,0,5Z"/><path d="M56.5,37.1H49.3a2.5,2.5,0,0,1,0-5h7.2a2.5,2.5,0,0,1,0,5Z"/><path d="M56.5,47.3H49.3a2.5,2.5,0,0,1,0-5h7.2a2.5,2.5,0,0,1,0,5Z"/><path d="M9.7,16.7H2.5a2.5,2.5,0,0,1,0-5H9.7a2.5,2.5,0,0,1,0,5Z"/><path d="M9.7,26.9H2.5a2.5,2.5,0,0,1,0-5H9.7a2.5,2.5,0,0,1,0,5Z"/><path d="M9.7,37.1H2.5a2.5,2.5,0,0,1,0-5H9.7a2.5,2.5,0,0,1,0,5Z"/><path d="M9.7,47.3H2.5a2.5,2.5,0,0,1,0-5H9.7a2.5,2.5,0,1,1,0,5Z"/></g></g></g></svg>