<svg xmlns="http://www.w3.org/2000/svg" viewBox="0 0 58.67 59"><title>messenger</title><g id="Layer_2" data-name="Layer 2"><g id="Layer_1-2" data-name="Layer 1"><g id="messenger"><path d="M12.5,59A2.51,2.51,0,0,1,10,56.5V48.18A26.67,26.67,0,0,1,0,27.5C0,12.34,13.16,0,29.33,0S58.67,12.34,58.67,27.5,45.51,55,29.33,55A30.81,30.81,0,0,1,22,54.12l-8.26,4.57A2.48,2.48,0,0,1,12.5,59ZM29.33,5C15.92,5,5,15.09,5,27.5A21.83,21.83,0,0,0,14,45a2.49,2.49,0,0,1,1,2v5.29l5.43-3a2.47,2.47,0,0,1,1.88-.22,26.24,26.24,0,0,0,7,1c13.42,0,24.34-10.09,24.34-22.5S42.75,5,29.33,5Z"/><polygon points="32 36.17 25.17 28.83 11.83 36.17 26.5 20.5 33.5 27.83 46.67 20.5 32 36.17"/></g></g></g></svg>