<svg xmlns="http://www.w3.org/2000/svg" viewBox="0 0 59 54.44"><title>message-</title><g id="Layer_2" data-name="Layer 2"><g id="Layer_1-2" data-name="Layer 1"><g id="message-"><path d="M55.67,54.44a2.51,2.51,0,0,1-.76-.12L41.53,50a2.5,2.5,0,1,1,1.53-4.76l8.8,2.83-2.32-7.48a2.5,2.5,0,0,1,4.78-1.49L58.06,51.2a2.46,2.46,0,0,1-.63,2.51A2.5,2.5,0,0,1,55.67,54.44Z"/><path d="M29.5,53C13.23,53,0,41.11,0,26.5S13.23,0,29.5,0,59,11.89,59,26.5a24.53,24.53,0,0,1-5.08,14.87,2.5,2.5,0,0,1-4-3A19.57,19.57,0,0,0,54,26.5C54,14.64,43,5,29.5,5S5,14.64,5,26.5,16,48,29.5,48a27.25,27.25,0,0,0,11.71-2.61,2.5,2.5,0,1,1,2.16,4.51A32.31,32.31,0,0,1,29.5,53Z"/></g></g></g></svg>