<svg xmlns="http://www.w3.org/2000/svg" viewBox="0 0 43 59"><title>mic</title><g id="Layer_2" data-name="Layer 2"><g id="Layer_1-2" data-name="Layer 1"><g id="mic"><path d="M21.5,51A21.52,21.52,0,0,1,0,29.5v-4A2.5,2.5,0,0,1,2.5,23H12a2.5,2.5,0,0,1,0,5H5V29.5a16.5,16.5,0,0,0,33,0V28H31a2.5,2.5,0,0,1,0-5h9.5a2.5,2.5,0,0,1,2.5,2.5v4A21.52,21.52,0,0,1,21.5,51Z"/><path d="M21.5,41.5a12,12,0,0,1-12-12V12a12,12,0,0,1,24,0V29.5A12,12,0,0,1,21.5,41.5ZM21.5,5a7,7,0,0,0-7,7V29.5a7,7,0,0,0,14,0V12A7,7,0,0,0,21.5,5Z"/><path d="M21.5,59A2.5,2.5,0,0,1,19,56.5v-8a2.5,2.5,0,0,1,5,0v8A2.5,2.5,0,0,1,21.5,59Z"/></g></g></g></svg>