<svg xmlns="http://www.w3.org/2000/svg" viewBox="0 0 51.15 59"><title>milk-2</title><g id="Layer_2" data-name="Layer 2"><g id="Layer_1-2" data-name="Layer 1"><g id="milk-2"><path d="M32,59H2.5A2.5,2.5,0,0,1,0,56.5V21.15a2.5,2.5,0,0,1,2.5-2.5H32a2.49,2.49,0,0,1,2.5,2.5V56.5A2.49,2.49,0,0,1,32,59ZM5,54H29.45V23.65H5Z"/><path d="M32,23.65H2.5A2.5,2.5,0,0,1,.73,19.39L9.82,10.3V2.5A2.5,2.5,0,0,1,12.32,0H41.77a2.5,2.5,0,0,1,2.5,2.5v8.84a2.48,2.48,0,0,1-.73,1.76l-9.82,9.82A2.49,2.49,0,0,1,32,23.65Zm-23.41-5H30.92l8.35-8.35V5H14.82v6.34a2.48,2.48,0,0,1-.73,1.76Zm33.23-7.31h0Z"/><path d="M32,59a2.5,2.5,0,0,1-.43-5l14.63-2.58V19.24L40,13.1a2.5,2.5,0,0,1,3.54-3.53l6.87,6.87a2.52,2.52,0,0,1,.74,1.77V53.55A2.51,2.51,0,0,1,49.08,56L32.39,59A2.18,2.18,0,0,1,32,59Z"/></g></g></g></svg>