<svg xmlns="http://www.w3.org/2000/svg" viewBox="0 0 35 59"><title>milk-1</title><g id="Layer_2" data-name="Layer 2"><g id="Layer_1-2" data-name="Layer 1"><g id="milk-1"><path d="M27.5,15H7.5a7.5,7.5,0,0,1,0-15h20a7.5,7.5,0,0,1,0,15ZM7.5,5a2.5,2.5,0,0,0,0,5h20a2.5,2.5,0,0,0,0-5Z"/><path d="M31.5,59H3.5A2.5,2.5,0,0,1,1,56.5V31.07a14.09,14.09,0,0,1,2.43-7.93A9.13,9.13,0,0,0,5,18V12.5a2.5,2.5,0,0,1,5,0V18a14.13,14.13,0,0,1-2.43,7.94A9.12,9.12,0,0,0,6,31.07V54H29V31.07a9.12,9.12,0,0,0-1.57-5.13A14.13,14.13,0,0,1,25,18V12.5a2.5,2.5,0,0,1,5,0V18a9.13,9.13,0,0,0,1.57,5.14A14.09,14.09,0,0,1,34,31.07V56.5A2.5,2.5,0,0,1,31.5,59Z"/><path d="M23.28,37.22a15.54,15.54,0,0,1-4.57-.68,10.15,10.15,0,0,1-4-2.4,8.12,8.12,0,0,0-2.51-1.68,11.07,11.07,0,0,0-7-.09,2.5,2.5,0,1,1-1.31-4.83A15.93,15.93,0,0,1,14,27.8a12.84,12.84,0,0,1,4,2.57,5.55,5.55,0,0,0,2.12,1.39,12.2,12.2,0,0,0,9.22-1.18,2.5,2.5,0,0,1,2.48,4.34A17.71,17.71,0,0,1,23.28,37.22Z"/></g></g></g></svg>