<svg xmlns="http://www.w3.org/2000/svg" viewBox="0 0 24.44 59"><title>money</title><g id="Layer_2" data-name="Layer 2"><g id="Layer_1-2" data-name="Layer 1"><g id="money"><path d="M12.22,51.44H4.66a2.5,2.5,0,1,1,0-5h7.56a7.22,7.22,0,1,0,0-14.44,12.22,12.22,0,0,1,0-24.44h7.56a2.5,2.5,0,0,1,0,5H12.22a7.22,7.22,0,0,0,0,14.44,12.22,12.22,0,1,1,0,24.44Z"/><path d="M12.22,12.56a2.5,2.5,0,0,1-2.5-2.5V2.5a2.5,2.5,0,0,1,5,0v7.56A2.5,2.5,0,0,1,12.22,12.56Z"/><path d="M12.22,59a2.5,2.5,0,0,1-2.5-2.5V48.94a2.5,2.5,0,0,1,5,0V56.5A2.5,2.5,0,0,1,12.22,59Z"/></g></g></g></svg>