<svg xmlns="http://www.w3.org/2000/svg" viewBox="0 0 59 59"><title>money circle</title><g id="Layer_2" data-name="Layer 2"><g id="Layer_1-2" data-name="Layer 1"><g id="money_circle" data-name="money circle"><path d="M29.5,59A29.5,29.5,0,1,1,59,29.5,29.53,29.53,0,0,1,29.5,59Zm0-54A24.5,24.5,0,1,0,54,29.5,24.53,24.53,0,0,0,29.5,5Z"/><path d="M29.5,43.52H25a2.5,2.5,0,0,1,0-5H29.5a3.26,3.26,0,0,0,0-6.52,8.26,8.26,0,0,1,0-16.52H34a2.5,2.5,0,0,1,0,5H29.5a3.26,3.26,0,0,0,0,6.52,8.26,8.26,0,0,1,0,16.52Z"/><path d="M29.5,20.48A2.5,2.5,0,0,1,27,18V13.5a2.5,2.5,0,0,1,5,0V18A2.5,2.5,0,0,1,29.5,20.48Z"/><path d="M29.5,48A2.5,2.5,0,0,1,27,45.5V41a2.5,2.5,0,0,1,5,0V45.5A2.5,2.5,0,0,1,29.5,48Z"/></g></g></g></svg>