<svg xmlns="http://www.w3.org/2000/svg" viewBox="0 0 52.19 59"><title>mosque</title><g id="Layer_2" data-name="Layer 2"><g id="Layer_1-2" data-name="Layer 1"><g id="mosque"><path d="M37.6,59a2.49,2.49,0,0,1-2.5-2.5V51.23a5.29,5.29,0,0,0-2.28-4.35,5.28,5.28,0,0,0-2.27,4.35V56.5a2.5,2.5,0,0,1-5,0V51.23a10.26,10.26,0,0,1,6.3-9.49,2.51,2.51,0,0,1,1.94,0,10.27,10.27,0,0,1,6.31,9.49V56.5A2.5,2.5,0,0,1,37.6,59Z"/><path d="M49.69,59H16.48A2.5,2.5,0,0,1,14,56.5v-21a2.5,2.5,0,0,1,2.5-2.5H49.69a2.5,2.5,0,0,1,2.5,2.5v21A2.5,2.5,0,0,1,49.69,59ZM19,54H47.19V38H19Z"/><path d="M16.48,59H2.5A2.5,2.5,0,0,1,0,56.5V32.2A20.76,20.76,0,0,1,7.94,15.82a2.52,2.52,0,0,1,3.1,0A20.73,20.73,0,0,1,19,32.2V56.5A2.5,2.5,0,0,1,16.48,59ZM5,54h9V32.2A15.72,15.72,0,0,0,9.49,21.14,15.76,15.76,0,0,0,5,32.2Z"/><path d="M42.25,38a2.5,2.5,0,0,1-2.5-2.5v-2a6.67,6.67,0,0,0-13.33,0v2a2.5,2.5,0,0,1-5,0v-2a11.67,11.67,0,0,1,23.33,0v2A2.5,2.5,0,0,1,42.25,38Z"/><path d="M33.08,27a2.5,2.5,0,0,1-2.5-2.5V18.11a2.5,2.5,0,0,1,5,0v6.34A2.5,2.5,0,0,1,33.08,27Z"/><path d="M33.86,20.61a7.76,7.76,0,0,1-5.5-2.26,7.7,7.7,0,0,1,0-11,2.5,2.5,0,0,1,3.52,3.55,2.7,2.7,0,0,0,0,3.86,2.82,2.82,0,0,0,4,0,2.5,2.5,0,0,1,3.52,3.55A7.77,7.77,0,0,1,33.86,20.61Z"/><path d="M9.49,20.28A2.49,2.49,0,0,1,7,17.78V11.45a2.5,2.5,0,0,1,5,0v6.33A2.49,2.49,0,0,1,9.49,20.28Z"/><path d="M10.26,13.94a7.77,7.77,0,0,1-5.49-2.25,7.7,7.7,0,0,1,0-11A2.5,2.5,0,0,1,8.29,4.28a2.7,2.7,0,0,0,0,3.86,2.81,2.81,0,0,0,4,0,2.5,2.5,0,1,1,3.52,3.55A7.77,7.77,0,0,1,10.26,13.94Z"/></g></g></g></svg>