<svg xmlns="http://www.w3.org/2000/svg" viewBox="0 0 59 50.82"><title>motorbike</title><g id="Layer_2" data-name="Layer 2"><g id="Layer_1-2" data-name="Layer 1"><g id="motorbike"><path d="M56.5,42.38H38.66a2.5,2.5,0,0,1-2.18-3.73l6.44-11.4A2.5,2.5,0,0,1,45.1,26,13.92,13.92,0,0,1,59,39.88,2.5,2.5,0,0,1,56.5,42.38Zm-13.56-5h10.7a8.92,8.92,0,0,0-7.14-6.29Z"/><path d="M38.66,42.38h0l-2.61,0H2.5A2.5,2.5,0,0,1,0,39.86V34.94A18.12,18.12,0,0,1,18.09,16.85h8.47a2.5,2.5,0,0,1,2.5,2.5v9.7h1.21a3.46,3.46,0,0,0,3.45-3.45V7.9a2.49,2.49,0,0,1,2.5-2.5H40a2.51,2.51,0,0,1,2.43,1.9l5.14,20.57a2.5,2.5,0,0,1-4.86,1.21l-4-15.84V25.6a8.46,8.46,0,0,1-8.45,8.45H26.56a2.5,2.5,0,0,1-2.5-2.5v-9.7h-6A13.1,13.1,0,0,0,5,34.94v2.42l33.67,0a2.5,2.5,0,0,1,0,5Z"/><path d="M47.28,50.82A8.28,8.28,0,0,1,39,42.54a2.5,2.5,0,0,1,5,0,3.28,3.28,0,1,0,6.55,0,2.5,2.5,0,1,1,5,0A8.28,8.28,0,0,1,47.28,50.82Z"/><path d="M14.77,50.82A8.28,8.28,0,0,1,6.5,42.54a2.5,2.5,0,0,1,5,0,3.28,3.28,0,1,0,6.55,0,2.5,2.5,0,0,1,5,0A8.28,8.28,0,0,1,14.77,50.82Z"/><path d="M18.09,21.85H2.5A2.5,2.5,0,0,1,0,19.35V10.88A10.44,10.44,0,0,1,10.43.45h7.66A2.5,2.5,0,0,1,20.59,3v16.4A2.5,2.5,0,0,1,18.09,21.85ZM5,16.85H15.59V5.45H10.43A5.44,5.44,0,0,0,5,10.88Z"/><path d="M49.81,13.92H45.34A7,7,0,0,1,45.34,0h4.47a2.5,2.5,0,0,1,2.5,2.5v8.92A2.5,2.5,0,0,1,49.81,13.92ZM45.34,5a2,2,0,0,0,0,3.92h2V5Z"/><path d="M40.88,9.46H29.63a2.5,2.5,0,1,1,0-5H40.88a2.5,2.5,0,0,1,0,5Z"/></g></g></g></svg>