<svg xmlns="http://www.w3.org/2000/svg" viewBox="0 0 34.65 59"><title>mouse</title><g id="Layer_2" data-name="Layer 2"><g id="Layer_1-2" data-name="Layer 1"><g id="mouse"><path d="M17.33,59A17.34,17.34,0,0,1,0,41.67V35.24a17.33,17.33,0,0,1,34.65,0v6.43A17.34,17.34,0,0,1,17.33,59Zm0-36.08A12.33,12.33,0,0,0,5,35.24v6.43a12.33,12.33,0,1,0,24.65,0V35.24A12.33,12.33,0,0,0,17.33,22.92Z"/><path d="M17.33,33.35a2.49,2.49,0,0,1-2.5-2.5V16.61a7.85,7.85,0,0,1,7.84-7.84,2.85,2.85,0,0,0,2.84-2.85V2.5a2.5,2.5,0,0,1,5,0V5.92a7.85,7.85,0,0,1-7.84,7.85,2.84,2.84,0,0,0-2.84,2.84V30.85A2.5,2.5,0,0,1,17.33,33.35Z"/></g></g></g></svg>