<svg xmlns="http://www.w3.org/2000/svg" viewBox="0 0 59 59"><title>music_off</title><g id="Layer_2" data-name="Layer 2"><g id="Layer_1-2" data-name="Layer 1"><g id="music_off"><path d="M56.5,59a2.49,2.49,0,0,1-1.77-.73l-54-54A2.5,2.5,0,0,1,4.27.73l54,54a2.52,2.52,0,0,1,0,3.54A2.49,2.49,0,0,1,56.5,59Z"/><path d="M37.5,12.92A10.43,10.43,0,0,1,27.08,2.5a2.5,2.5,0,0,1,5,0A5.42,5.42,0,0,0,37.5,7.92a2.5,2.5,0,0,1,0,5Z"/><path d="M45.42,20.84a2.49,2.49,0,0,1-2.5-2.5,5.42,5.42,0,0,0-5.42-5.42,2.5,2.5,0,0,1,0-5A10.43,10.43,0,0,1,47.92,18.34,2.49,2.49,0,0,1,45.42,20.84Z"/><path d="M21.58,59a10.5,10.5,0,1,1,10.5-10.5A10.51,10.51,0,0,1,21.58,59Zm0-16a5.5,5.5,0,1,0,5.5,5.5A5.51,5.51,0,0,0,21.58,43Z"/><path d="M29.58,51a2.5,2.5,0,0,1-2.5-2.5v-19a2.5,2.5,0,0,1,5,0v19A2.5,2.5,0,0,1,29.58,51Z"/><path d="M29.58,17.94a2.5,2.5,0,0,1-2.5-2.5V2.5a2.5,2.5,0,0,1,5,0V15.44A2.5,2.5,0,0,1,29.58,17.94Z"/></g></g></g></svg>