<svg xmlns="http://www.w3.org/2000/svg" viewBox="0 0 57 59"><title>music list</title><g id="Layer_2" data-name="Layer 2"><g id="Layer_1-2" data-name="Layer 1"><g id="music_list" data-name="music list"><path d="M46.58,12.92A10.43,10.43,0,0,1,36.16,2.5a2.5,2.5,0,0,1,5,0,5.42,5.42,0,0,0,5.42,5.42,2.5,2.5,0,0,1,0,5Z"/><path d="M54.5,20.84a2.49,2.49,0,0,1-2.5-2.5,5.42,5.42,0,0,0-5.42-5.42,2.5,2.5,0,0,1,0-5A10.43,10.43,0,0,1,57,18.34,2.49,2.49,0,0,1,54.5,20.84Z"/><path d="M30.66,59a10.5,10.5,0,1,1,10.5-10.5A10.51,10.51,0,0,1,30.66,59Zm0-16a5.5,5.5,0,1,0,5.5,5.5A5.5,5.5,0,0,0,30.66,43Z"/><path d="M38.66,51a2.49,2.49,0,0,1-2.5-2.5V2.5a2.5,2.5,0,0,1,5,0v46A2.5,2.5,0,0,1,38.66,51Z"/><path d="M18.5,34.74H2.5a2.5,2.5,0,0,1,0-5h16a2.5,2.5,0,0,1,0,5Z"/><path d="M26.5,21.91H2.5a2.5,2.5,0,0,1,0-5h24a2.5,2.5,0,0,1,0,5Z"/><path d="M26.5,9.08H2.5a2.5,2.5,0,0,1,0-5h24a2.5,2.5,0,0,1,0,5Z"/></g></g></g></svg>