<svg xmlns="http://www.w3.org/2000/svg" viewBox="0 0 36.84 59"><title>music</title><g id="Layer_2" data-name="Layer 2"><g id="Layer_1-2" data-name="Layer 1"><g id="music"><path d="M26.42,12.92A10.43,10.43,0,0,1,16,2.5a2.5,2.5,0,0,1,5,0,5.42,5.42,0,0,0,5.42,5.42,2.5,2.5,0,0,1,0,5Z"/><path d="M34.34,20.84a2.49,2.49,0,0,1-2.5-2.5,5.42,5.42,0,0,0-5.42-5.42,2.5,2.5,0,0,1,0-5A10.43,10.43,0,0,1,36.84,18.34,2.49,2.49,0,0,1,34.34,20.84Z"/><path d="M10.5,59A10.5,10.5,0,1,1,21,48.5,10.51,10.51,0,0,1,10.5,59Zm0-16A5.5,5.5,0,1,0,16,48.5,5.51,5.51,0,0,0,10.5,43Z"/><path d="M18.5,51A2.5,2.5,0,0,1,16,48.5V2.5a2.5,2.5,0,0,1,5,0v46A2.5,2.5,0,0,1,18.5,51Z"/></g></g></g></svg>