<svg xmlns="http://www.w3.org/2000/svg" viewBox="0 0 54.68 59"><title>network server</title><g id="Layer_2" data-name="Layer 2"><g id="Layer_1-2" data-name="Layer 1"><g id="network_server" data-name="network server"><path d="M47.86,24.44h-41A6.83,6.83,0,0,1,0,17.62V6.82A6.83,6.83,0,0,1,6.82,0h41a6.83,6.83,0,0,1,6.82,6.82v10.8A6.83,6.83,0,0,1,47.86,24.44ZM6.82,5A1.83,1.83,0,0,0,5,6.82v10.8a1.83,1.83,0,0,0,1.82,1.82h41a1.83,1.83,0,0,0,1.82-1.82V6.82A1.83,1.83,0,0,0,47.86,5Z"/><path d="M47.86,43.88h-41A6.83,6.83,0,0,1,0,37.06V26.26a6.83,6.83,0,0,1,6.82-6.82h41a6.83,6.83,0,0,1,6.82,6.82v10.8A6.83,6.83,0,0,1,47.86,43.88Zm-41-19.44A1.83,1.83,0,0,0,5,26.26v10.8a1.83,1.83,0,0,0,1.82,1.82h41a1.83,1.83,0,0,0,1.82-1.82V26.26a1.83,1.83,0,0,0-1.82-1.82Z"/><path d="M16,14.72H12.76a2.5,2.5,0,0,1,0-5H16a2.5,2.5,0,0,1,0,5Z"/><path d="M41.92,14.72H26.8a2.5,2.5,0,0,1,0-5H41.92a2.5,2.5,0,0,1,0,5Z"/><path d="M16,34.54H12.76a2.5,2.5,0,1,1,0-5H16a2.5,2.5,0,0,1,0,5Z"/><path d="M41.92,34.54H26.8a2.5,2.5,0,0,1,0-5H41.92a2.5,2.5,0,0,1,0,5Z"/><path d="M48.94,59H5.74a2.5,2.5,0,0,1,0-5h43.2a2.5,2.5,0,0,1,0,5Z"/><path d="M27.34,59a2.5,2.5,0,0,1-2.5-2.5V41.38a2.5,2.5,0,0,1,5,0V56.5A2.5,2.5,0,0,1,27.34,59Z"/></g></g></g></svg>