<svg xmlns="http://www.w3.org/2000/svg" viewBox="0 0 59 59"><title>news</title><g id="Layer_2" data-name="Layer 2"><g id="Layer_1-2" data-name="Layer 1"><g id="news"><path d="M48.5,59h-38a2.5,2.5,0,0,1,0-5h38A5.51,5.51,0,0,0,54,48.5V5H19V33.11a2.5,2.5,0,0,1-5,0V2.5A2.5,2.5,0,0,1,16.5,0h40A2.5,2.5,0,0,1,59,2.5v46A10.51,10.51,0,0,1,48.5,59Z"/><path d="M10.5,59A10.51,10.51,0,0,1,0,48.5v-22A2.5,2.5,0,0,1,2.5,24h14A2.5,2.5,0,0,1,19,26.5v24A8.51,8.51,0,0,1,10.5,59ZM5,29V48.5A5.51,5.51,0,0,0,10.5,54,3.5,3.5,0,0,0,14,50.5V29Z"/><path d="M46.5,32h-20a2.5,2.5,0,0,1,0-5h20a2.5,2.5,0,0,1,0,5Z"/><path d="M46.5,20.33h-20a2.5,2.5,0,1,1,0-5h20a2.5,2.5,0,1,1,0,5Z"/><path d="M46.5,43.67h-20a2.5,2.5,0,0,1,0-5h20a2.5,2.5,0,0,1,0,5Z"/></g></g></g></svg>