<svg xmlns="http://www.w3.org/2000/svg" viewBox="0 0 59 51.82"><defs><style>.cls-1{fill:#fff;}</style></defs><title>night</title><g id="Layer_2" data-name="Layer 2"><g id="Layer_1-2" data-name="Layer 1"><g id="night"><path class="cls-1" d="M28,49.32a6.52,6.52,0,1,0,0-13H26.93a8.89,8.89,0,0,0-17.73,0H9a6.52,6.52,0,1,0,0,13Z"/><path d="M28,51.82H9A9,9,0,0,1,7.06,34a11.39,11.39,0,0,1,22-.15,9,9,0,0,1-1.05,18Zm-19-13a4,4,0,1,0,0,8H28a4,4,0,1,0,0-8H26.93a2.5,2.5,0,0,1-2.49-2.33,6.39,6.39,0,0,0-12.75,0A2.5,2.5,0,0,1,9.2,38.79Z"/><path d="M43.91,51.82A26,26,0,0,1,32,49a2.5,2.5,0,0,1,2.29-4.44,21.06,21.06,0,0,0,14.82,1.65,25.91,25.91,0,0,1-9-40.81,20.91,20.91,0,0,0-17,22.8,2.5,2.5,0,1,1-5,.53A25.9,25.9,0,0,1,43.91,0a26.64,26.64,0,0,1,3.41.23,2.49,2.49,0,0,1,1,4.58,20.91,20.91,0,0,0,8.49,38.36,2.5,2.5,0,0,1,1,4.58A25.79,25.79,0,0,1,43.91,51.82Z"/></g></g></g></svg>