<svg xmlns="http://www.w3.org/2000/svg" viewBox="0 0 59 59"><title>notifications off</title><g id="Layer_2" data-name="Layer 2"><g id="Layer_1-2" data-name="Layer 1"><g id="notifications_off" data-name="notifications off"><path d="M56.5,59a2.49,2.49,0,0,1-1.77-.73l-54-54A2.5,2.5,0,0,1,4.27.73l54,54a2.52,2.52,0,0,1,0,3.54A2.49,2.49,0,0,1,56.5,59Z"/><path d="M46.72,49H12.28A6.69,6.69,0,0,1,6.74,38.57l2.52-3.72a5.85,5.85,0,0,0,1-3.29V19.7A20,20,0,0,1,11.44,13a2.5,2.5,0,1,1,4.71,1.69,15,15,0,0,0-.88,5.06V31.56a10.92,10.92,0,0,1-1.86,6.09l-2.52,3.73a1.64,1.64,0,0,0-.1,1.73,1.66,1.66,0,0,0,1.49.89H46.72a2.5,2.5,0,0,1,0,5Z"/><path d="M47.67,38.75a2.53,2.53,0,0,1-2.08-1.1,10.92,10.92,0,0,1-1.86-6.09V19.23A14.22,14.22,0,0,0,28.81,5a13.44,13.44,0,0,0-6.06,1.74A2.5,2.5,0,1,1,20.29,2.4,18.56,18.56,0,0,1,28.57,0,19.23,19.23,0,0,1,48.73,19.23V31.56a5.85,5.85,0,0,0,1,3.29,2.5,2.5,0,0,1-2.07,3.9Z"/><path d="M29.5,59A12.52,12.52,0,0,1,17,46.5a2.5,2.5,0,0,1,5,0,7.5,7.5,0,0,0,15,0,2.5,2.5,0,0,1,5,0A12.52,12.52,0,0,1,29.5,59Z"/></g></g></g></svg>