<svg xmlns="http://www.w3.org/2000/svg" viewBox="0 0 47.81 59"><title>notifications</title><g id="Layer_2" data-name="Layer 2"><g id="Layer_1-2" data-name="Layer 1"><g id="notifications"><path d="M41.13,49H6.68A6.68,6.68,0,0,1,1.15,38.58l2.52-3.73a5.84,5.84,0,0,0,1-3.29V19.7A19.45,19.45,0,0,1,23,0,19.25,19.25,0,0,1,43.14,19.23V31.56a5.84,5.84,0,0,0,1,3.29l2.52,3.73A6.68,6.68,0,0,1,41.13,49ZM23.91,5l-.7,0A14.45,14.45,0,0,0,9.67,19.7V31.56a10.84,10.84,0,0,1-1.86,6.09L5.29,41.38a1.65,1.65,0,0,0-.09,1.73A1.63,1.63,0,0,0,6.68,44H41.13a1.63,1.63,0,0,0,1.48-.89,1.65,1.65,0,0,0-.09-1.73L40,37.65a10.84,10.84,0,0,1-1.86-6.09V19.23A14.23,14.23,0,0,0,23.91,5Z"/><path d="M23.91,59a12.51,12.51,0,0,1-12.5-12.5,2.5,2.5,0,0,1,5,0,7.5,7.5,0,0,0,15,0,2.5,2.5,0,0,1,5,0A12.52,12.52,0,0,1,23.91,59Z"/></g></g></g></svg>