<svg xmlns="http://www.w3.org/2000/svg" viewBox="0 0 47.81 59"><title>notification important</title><g id="Layer_2" data-name="Layer 2"><g id="Layer_1-2" data-name="Layer 1"><g id="notification_important" data-name="notification important"><path d="M41.13,49H6.69A6.68,6.68,0,0,1,1.15,38.57l2.52-3.72a5.84,5.84,0,0,0,1-3.29V19.7A19.45,19.45,0,0,1,23,0,19.23,19.23,0,0,1,43.14,19.23V31.56a5.84,5.84,0,0,0,1,3.29l2.52,3.72A6.68,6.68,0,0,1,41.13,49ZM23.91,5l-.7,0A14.45,14.45,0,0,0,9.67,19.7V31.56a10.84,10.84,0,0,1-1.86,6.09L5.29,41.37A1.69,1.69,0,0,0,6.69,44H41.13a1.65,1.65,0,0,0,1.48-.89,1.67,1.67,0,0,0-.09-1.74L40,37.65a10.84,10.84,0,0,1-1.86-6.09V19.23A14.23,14.23,0,0,0,23.91,5Z"/><path d="M23.91,59a12.51,12.51,0,0,1-12.5-12.5,2.5,2.5,0,0,1,5,0,7.5,7.5,0,0,0,15,0,2.5,2.5,0,0,1,5,0A12.52,12.52,0,0,1,23.91,59Z"/><path d="M23.91,30.64a2.49,2.49,0,0,1-2.5-2.5v-12a2.5,2.5,0,0,1,5,0v12A2.5,2.5,0,0,1,23.91,30.64Z"/><path d="M23.91,39.14a2.49,2.49,0,0,1-2.5-2.5v-1a2.5,2.5,0,0,1,5,0v1A2.5,2.5,0,0,1,23.91,39.14Z"/></g></g></g></svg>