<svg xmlns="http://www.w3.org/2000/svg" viewBox="0 0 59 59"><title>object</title><g id="Layer_2" data-name="Layer 2"><g id="Layer_1-2" data-name="Layer 1"><g id="object"><g id="dashboard"><path d="M56.5,25.5h-40A2.5,2.5,0,0,1,14,23V10a2.5,2.5,0,0,1,2.5-2.5h40A2.5,2.5,0,0,1,59,10V23A2.5,2.5,0,0,1,56.5,25.5ZM19,20.5H54v-8H19Z"/></g><g id="dashboard-2" data-name="dashboard"><path d="M46.5,51.5h-30A2.5,2.5,0,0,1,14,49V36a2.5,2.5,0,0,1,2.5-2.5h30A2.5,2.5,0,0,1,49,36V49A2.5,2.5,0,0,1,46.5,51.5ZM19,46.5H44v-8H19Z"/></g><path d="M2.5,59A2.5,2.5,0,0,1,0,56.5V2.5a2.5,2.5,0,0,1,5,0v54A2.5,2.5,0,0,1,2.5,59Z"/></g></g></g></svg>