<svg xmlns="http://www.w3.org/2000/svg" viewBox="0 0 59 59"><title>offer</title><g id="Layer_2" data-name="Layer 2"><g id="Layer_1-2" data-name="Layer 1"><g id="offer"><path d="M33.69,59a2.51,2.51,0,0,1-1.77-.73L4.06,30.4a2.45,2.45,0,0,1-.72-2L5.48,7.71A2.49,2.49,0,0,1,7.71,5.48L28.38,3.34a2.42,2.42,0,0,1,2,.72L58.27,31.92a2.52,2.52,0,0,1,0,3.54L35.46,58.27A2.51,2.51,0,0,1,33.69,59ZM8.43,27.71,33.69,53,53,33.69,27.71,8.43,10.24,10.24Z"/><circle cx="22.6" cy="22.6" r="5"/><path d="M14.6,17.1a2.5,2.5,0,0,1-1.77-.74L.73,4.27A2.5,2.5,0,0,1,4.27.73l12.09,12.1a2.49,2.49,0,0,1,0,3.53A2.46,2.46,0,0,1,14.6,17.1Z"/></g></g></g></svg>