<svg xmlns="http://www.w3.org/2000/svg" viewBox="0 0 54.71 60"><title>office chair</title><g id="Layer_2" data-name="Layer 2"><g id="Layer_1-2" data-name="Layer 1"><g id="office_chair" data-name="office chair"><path d="M37.52,60A2.5,2.5,0,0,1,35,57.5a2.59,2.59,0,0,0-2.58-2.58H22.28a2.59,2.59,0,0,0-2.59,2.58,2.5,2.5,0,1,1-5,0,7.59,7.59,0,0,1,7.59-7.58H32.44A7.59,7.59,0,0,1,40,57.5,2.5,2.5,0,0,1,37.52,60Z"/><path d="M33.45,44.42H21.26A13.14,13.14,0,0,1,8.13,31.29a2.5,2.5,0,0,1,2.5-2.5H44.08a2.5,2.5,0,0,1,2.5,2.5A13.14,13.14,0,0,1,33.45,44.42ZM13.53,33.79a8.12,8.12,0,0,0,7.73,5.63H33.45a8.14,8.14,0,0,0,7.74-5.63Z"/><path d="M39.21,33.79H15.5a2.5,2.5,0,0,1-2.5-2.5v-22A9.28,9.28,0,0,1,22.28,0H32.44a9.28,9.28,0,0,1,9.27,9.27v22A2.5,2.5,0,0,1,39.21,33.79ZM18,28.79H36.71V9.27A4.28,4.28,0,0,0,32.44,5H22.28A4.28,4.28,0,0,0,18,9.27Z"/><path d="M27.36,54.92a2.5,2.5,0,0,1-2.5-2.5V41.92a2.5,2.5,0,0,1,5,0v10.5A2.5,2.5,0,0,1,27.36,54.92Z"/><path d="M47.21,29.72h-8a2.5,2.5,0,0,1,0-5h5.5V19.86a2.5,2.5,0,0,1,2.5-2.5h5a2.5,2.5,0,0,1,0,5h-2.5v4.86A2.5,2.5,0,0,1,47.21,29.72Z"/><path d="M15.5,29.72h-8A2.5,2.5,0,0,1,5,27.22V22.36H2.5a2.5,2.5,0,0,1,0-5h5a2.5,2.5,0,0,1,2.5,2.5v4.86h5.5a2.5,2.5,0,0,1,0,5Z"/></g></g></g></svg>