<svg xmlns="http://www.w3.org/2000/svg" viewBox="0 0 59 59"><title>office</title><g id="Layer_2" data-name="Layer 2"><g id="Layer_1-2" data-name="Layer 1"><g id="office"><path d="M22.92,21H8.08a5.63,5.63,0,0,1-5.62-5.62V5.62A5.63,5.63,0,0,1,8.08,0H22.92a5.63,5.63,0,0,1,5.62,5.62v9.76A5.63,5.63,0,0,1,22.92,21ZM8.08,5a.62.62,0,0,0-.62.62v9.76a.62.62,0,0,0,.62.62H22.92a.62.62,0,0,0,.62-.62V5.62A.62.62,0,0,0,22.92,5Z"/><path d="M15.5,29A2.5,2.5,0,0,1,13,26.5v-8a2.5,2.5,0,0,1,5,0v8A2.5,2.5,0,0,1,15.5,29Z"/><path d="M56.5,59h-22A2.5,2.5,0,0,1,32,56.5v-30A2.5,2.5,0,0,1,34.5,24h22A2.5,2.5,0,0,1,59,26.5v30A2.5,2.5,0,0,1,56.5,59ZM37,54H54V29H37Z"/><path d="M2.5,59A2.5,2.5,0,0,1,0,56.5v-30A2.5,2.5,0,0,1,2.5,24h34a2.5,2.5,0,0,1,0,5H5V56.5A2.5,2.5,0,0,1,2.5,59Z"/><path d="M56.5,44h-22a2.5,2.5,0,0,1,0-5h22a2.5,2.5,0,0,1,0,5Z"/><path d="M54.5,29A2.5,2.5,0,0,1,52,26.5V15H39V26.5a2.5,2.5,0,0,1-5,0v-14A2.5,2.5,0,0,1,36.5,10h18A2.5,2.5,0,0,1,57,12.5v14A2.5,2.5,0,0,1,54.5,29Z"/><path d="M45.5,29A2.5,2.5,0,0,1,43,26.5v-14a2.5,2.5,0,0,1,5,0v14A2.5,2.5,0,0,1,45.5,29Z"/><path d="M46.26,36.34h-1a2.5,2.5,0,0,1,0-5h1a2.5,2.5,0,0,1,0,5Z"/><path d="M46,50.91H45a2.5,2.5,0,0,1,0-5h1a2.5,2.5,0,0,1,0,5Z"/></g></g></g></svg>