<svg xmlns="http://www.w3.org/2000/svg" viewBox="0 0 55.53 59"><title>office lamp</title><g id="Layer_2" data-name="Layer 2"><g id="Layer_1-2" data-name="Layer 1"><g id="office_lamp" data-name="office lamp"><path d="M39.22,33.46A9.78,9.78,0,0,1,30,26.71a2.5,2.5,0,0,1,1.61-3.15l13.8-4.48a2.5,2.5,0,0,1,3.15,1.6A9.77,9.77,0,0,1,42.25,33,9.94,9.94,0,0,1,39.22,33.46Zm-3.07-6.13a5.25,5.25,0,0,0,.92.61,4.77,4.77,0,0,0,6.4-2.08,4.41,4.41,0,0,0,.38-1Z"/><path d="M25.42,30.68A2.48,2.48,0,0,1,23.05,29a17.11,17.11,0,0,1,5.11-18.18l-.72-2.22a6.53,6.53,0,1,1,12.42-4l.73,2.22a17.08,17.08,0,0,1,14.82,11.7,2.5,2.5,0,0,1-1.61,3.15l-27.6,9A2.59,2.59,0,0,1,25.42,30.68ZM33.65,5a1.55,1.55,0,0,0-.47.08,1.46,1.46,0,0,0-.89.76A1.49,1.49,0,0,0,32.2,7h0l1.26,3.9a2.5,2.5,0,0,1-1,2.85A12.06,12.06,0,0,0,27.28,25l22.35-7.26a12.1,12.1,0,0,0-10.79-6A2.53,2.53,0,0,1,36.38,10l-1.27-3.9A1.54,1.54,0,0,0,33.65,5Z"/><path d="M19.49,59A2.5,2.5,0,0,1,17,56.5V42.37L.79,27.16A2.5,2.5,0,0,1,1,23.33L31.17.71a2.5,2.5,0,1,1,3,4L6.38,25.55,21.2,39.47A2.47,2.47,0,0,1,22,41.29V56.5A2.5,2.5,0,0,1,19.49,59Z"/><path d="M29.61,59H9.38a2.5,2.5,0,0,1,0-5H29.61a2.5,2.5,0,0,1,0,5Z"/></g></g></g></svg>