<svg xmlns="http://www.w3.org/2000/svg" viewBox="0 0 59 59"><title>open with</title><g id="Layer_2" data-name="Layer 2"><g id="Layer_1-2" data-name="Layer 1"><g id="open_with" data-name="open with"><path d="M10.5,40a2.49,2.49,0,0,1-1.77-.73l-8-8a2.52,2.52,0,0,1,0-3.54l8-8a2.5,2.5,0,0,1,3.54,3.54L6,29.5l6.23,6.23a2.52,2.52,0,0,1,0,3.54A2.49,2.49,0,0,1,10.5,40Z"/><path d="M37.5,13a2.49,2.49,0,0,1-1.77-.73L29.5,6l-6.23,6.23a2.5,2.5,0,0,1-3.54-3.54l8-8a2.52,2.52,0,0,1,3.54,0l8,8a2.52,2.52,0,0,1,0,3.54A2.49,2.49,0,0,1,37.5,13Z"/><path d="M48.5,40a2.49,2.49,0,0,1-1.77-.73,2.52,2.52,0,0,1,0-3.54L53,29.5l-6.23-6.23a2.5,2.5,0,0,1,3.54-3.54l8,8a2.52,2.52,0,0,1,0,3.54l-8,8A2.49,2.49,0,0,1,48.5,40Z"/><path d="M29.5,59a2.49,2.49,0,0,1-1.77-.73l-8-8a2.5,2.5,0,0,1,3.54-3.54L29.5,53l6.23-6.23a2.5,2.5,0,0,1,3.54,3.54l-8,8A2.49,2.49,0,0,1,29.5,59Z"/><path d="M29.5,23A2.5,2.5,0,0,1,27,20.5V2.5a2.5,2.5,0,0,1,5,0v18A2.5,2.5,0,0,1,29.5,23Z"/><path d="M20.5,32H2.5a2.5,2.5,0,0,1,0-5h18a2.5,2.5,0,0,1,0,5Z"/><path d="M56.5,32h-18a2.5,2.5,0,0,1,0-5h18a2.5,2.5,0,0,1,0,5Z"/><path d="M29.5,59A2.5,2.5,0,0,1,27,56.5v-18a2.5,2.5,0,0,1,5,0v18A2.5,2.5,0,0,1,29.5,59Z"/></g></g></g></svg>