<svg xmlns="http://www.w3.org/2000/svg" viewBox="0 0 59 59"><title>paint roller</title><g id="Layer_2" data-name="Layer 2"><g id="Layer_1-2" data-name="Layer 1"><g id="paint_roller" data-name="paint roller"><path d="M42.63,21H6.5A6.51,6.51,0,0,1,0,14.5v-8A6.51,6.51,0,0,1,6.5,0H42.63a6.51,6.51,0,0,1,6.5,6.5v8A6.51,6.51,0,0,1,42.63,21ZM6.5,5A1.5,1.5,0,0,0,5,6.5v8A1.5,1.5,0,0,0,6.5,16H42.63a1.5,1.5,0,0,0,1.5-1.5v-8A1.5,1.5,0,0,0,42.63,5Z"/><path d="M24.57,38a2.5,2.5,0,0,1-2.5-2.5V30.92a6.51,6.51,0,0,1,6.5-6.5H50.5a3.5,3.5,0,0,0,3.5-3.5V16.5A3.5,3.5,0,0,0,50.5,13H46.63a2.5,2.5,0,0,1,0-5H50.5A8.51,8.51,0,0,1,59,16.5v4.42a8.51,8.51,0,0,1-8.5,8.5H28.57a1.5,1.5,0,0,0-1.5,1.5v4.57A2.5,2.5,0,0,1,24.57,38Z"/><path d="M24.57,59a7.44,7.44,0,0,1-7.44-7.43V35.49a2.5,2.5,0,0,1,2.5-2.5H29.5a2.5,2.5,0,0,1,2.5,2.5V51.57A7.43,7.43,0,0,1,24.57,59ZM22.13,38V51.57a2.44,2.44,0,0,0,4.87,0V38Z"/></g></g></g></svg>