<svg xmlns="http://www.w3.org/2000/svg" viewBox="0 0 58.92 58.99"><title>palette</title><g id="Layer_2" data-name="Layer 2"><g id="Layer_1-2" data-name="Layer 1"><g id="palette"><path d="M29.45,59a29.63,29.63,0,0,1-21.9-9.68A29.78,29.78,0,0,1,7.26,10,29.29,29.29,0,0,1,28.49,0a29.5,29.5,0,0,1,29.7,36A6.32,6.32,0,0,1,56.48,39a6.41,6.41,0,0,1-9,0l-1.66-1.67a6,6,0,0,0-8.49,8.49l1.66,1.66a6.4,6.4,0,0,1,0,9,6.17,6.17,0,0,1-3.06,1.71h0A29.26,29.26,0,0,1,29.45,59Zm5.88-3.14h0ZM29.43,5h-.79A24.28,24.28,0,0,0,11,13.32,24.5,24.5,0,0,0,34.78,53.41,1.26,1.26,0,0,0,35.4,53a1.39,1.39,0,0,0,0-2l-1.66-1.66A11,11,0,0,1,49.3,33.84L51,35.5a1.43,1.43,0,0,0,2,0,1.26,1.26,0,0,0,.37-.63A24.5,24.5,0,0,0,29.43,5Z"/><path d="M19.51,27.1a7.45,7.45,0,0,1-5.31-2.2h0a7.5,7.5,0,1,1,5.31,2.2Zm0-10a2.5,2.5,0,0,0-1.77,4.27h0a2.56,2.56,0,0,0,3.53,0,2.5,2.5,0,0,0-1.76-4.27Z"/><path d="M18.23,45.62a7.46,7.46,0,0,1-5.3-2.19h0a7.5,7.5,0,1,1,5.3,2.2Zm0-10a2.53,2.53,0,0,0-1.77.73,2.51,2.51,0,0,0,0,3.54h0a2.57,2.57,0,0,0,3.54,0,2.51,2.51,0,0,0,0-3.54A2.53,2.53,0,0,0,18.23,35.62Z"/><path d="M38,25.82a7.46,7.46,0,0,1-5.3-2.19h0A7.52,7.52,0,1,1,38,25.82Zm0-10a2.53,2.53,0,0,0-1.77.73,2.51,2.51,0,0,0,0,3.54h0a2.55,2.55,0,0,0,3.54,0A2.5,2.5,0,0,0,38,15.82Z"/></g></g></g></svg>