<svg xmlns="http://www.w3.org/2000/svg" viewBox="0 0 58.91 59"><title>pan tool</title><g id="Layer_2" data-name="Layer 2"><g id="Layer_1-2" data-name="Layer 1"><g id="pan_tool" data-name="pan tool"><path d="M48.43,59h-15A26.42,26.42,0,0,1,20,55.33L3.29,45.47a6.67,6.67,0,0,1-.61-11.1,6.62,6.62,0,0,1,5.88-1.06l7.55,2.21a1.46,1.46,0,0,0,1.31-.23A1.48,1.48,0,0,0,18,34.1V11.58a7,7,0,1,1,14,0V27.37a2.5,2.5,0,0,1-5,0V11.58a2,2,0,1,0-4,0V34.1a6.48,6.48,0,0,1-8.31,6.22L7.15,38.11a1.67,1.67,0,0,0-1.48.26,1.68,1.68,0,0,0,.16,2.79L22.54,51a21.47,21.47,0,0,0,10.89,3h15a5.49,5.49,0,0,0,5.48-5.48V18.34a2,2,0,1,0-4,0V29.52a2.5,2.5,0,1,1-5,0V18.34a7,7,0,1,1,14,0V48.52A10.49,10.49,0,0,1,48.43,59Z"/><path d="M38.46,28.26a2.5,2.5,0,0,1-2.5-2.5V7a2,2,0,1,0-4,0v9.09a2.5,2.5,0,0,1-5,0V7A7,7,0,1,1,41,7V25.76A2.5,2.5,0,0,1,38.46,28.26Z"/><path d="M38.46,23.51A2.5,2.5,0,0,1,36,21V12.08a7,7,0,1,1,14,0v8.75a2.5,2.5,0,0,1-5,0V12.08a2,2,0,1,0-4,0V21A2.5,2.5,0,0,1,38.46,23.51Z"/></g></g></g></svg>