<svg xmlns="http://www.w3.org/2000/svg" viewBox="0 0 59 59"><title>paypal</title><g id="Layer_2" data-name="Layer 2"><g id="Layer_1-2" data-name="Layer 1"><g id="paypal"><path d="M15.07,49H2.5a2.5,2.5,0,0,1-2.46-3l8.13-44a2.5,2.5,0,0,1,2.46-2h21.9a15.77,15.77,0,0,1,0,31.54H20.19L17.53,46.93A2.51,2.51,0,0,1,15.07,49ZM5.5,44H13l2.67-15.38a2.49,2.49,0,0,1,2.46-2.08H32.53A10.77,10.77,0,0,0,32.53,5H12.71Z"/><path d="M25.77,59H13.2a2.5,2.5,0,0,1-2.46-3l1.85-10a2.5,2.5,0,0,1,4.92.91L16.2,54h7.46l2.67-15.38a2.49,2.49,0,0,1,2.46-2.08H43.23A10.77,10.77,0,0,0,45,15.15a2.5,2.5,0,1,1,.82-4.93,15.77,15.77,0,0,1-2.62,31.32H30.89L28.23,56.93A2.51,2.51,0,0,1,25.77,59Z"/></g></g></g></svg>