<svg xmlns="http://www.w3.org/2000/svg" viewBox="0 0 57.81 59"><title>pdf</title><g id="Layer_2" data-name="Layer 2"><g id="Layer_1-2" data-name="Layer 1"><g id="pdf"><path d="M38.5,59h-28A10.51,10.51,0,0,1,0,48.5v-38A10.51,10.51,0,0,1,10.5,0h24a2.51,2.51,0,0,1,1.77.73l12,12A2.51,2.51,0,0,1,49,14.5v4A2.5,2.5,0,0,1,46.5,21h-16A2.5,2.5,0,0,1,28,18.5V5H10.5A5.51,5.51,0,0,0,5,10.5v38A5.51,5.51,0,0,0,10.5,54h28a2.5,2.5,0,0,1,0,5ZM33,16H44v-.46L33.46,5H33Z"/><path d="M33.34,49H29a2.5,2.5,0,0,1-2.5-2.5V28.31a2.5,2.5,0,0,1,2.5-2.5h4.32a8.51,8.51,0,0,1,8.5,8.5V40.5A8.51,8.51,0,0,1,33.34,49Zm-1.82-5h1.82a3.5,3.5,0,0,0,3.5-3.5V34.31a3.5,3.5,0,0,0-3.5-3.5H31.52Z"/><path d="M12.5,49A2.5,2.5,0,0,1,10,46.5V28.31a2.5,2.5,0,0,1,2.5-2.5H17A7,7,0,1,1,17,39.9H15v6.6A2.5,2.5,0,0,1,12.5,49ZM15,34.9h2a2,2,0,1,0,0-4.09H15Z"/><path d="M47.38,49a2.5,2.5,0,0,1-2.5-2.5V31.62a5.82,5.82,0,0,1,5.81-5.81h4.62a2.5,2.5,0,0,1,0,5H50.69a.81.81,0,0,0-.81.81V46.5A2.49,2.49,0,0,1,47.38,49Z"/><path d="M55.31,38.9H47.38a2.5,2.5,0,0,1,0-5h7.93a2.5,2.5,0,0,1,0,5Z"/></g></g></g></svg>