<svg xmlns="http://www.w3.org/2000/svg" viewBox="0 0 39 59"><title>phone</title><g id="Layer_2" data-name="Layer 2"><g id="Layer_1-2" data-name="Layer 1"><g id="phone"><path d="M28.5,59h-18A10.51,10.51,0,0,1,0,48.5v-38A10.51,10.51,0,0,1,10.5,0h18A10.51,10.51,0,0,1,39,10.5v38A10.51,10.51,0,0,1,28.5,59ZM10.5,5A5.51,5.51,0,0,0,5,10.5v38A5.51,5.51,0,0,0,10.5,54h18A5.51,5.51,0,0,0,34,48.5v-38A5.51,5.51,0,0,0,28.5,5Z"/><path d="M23.5,15h-8a2.5,2.5,0,0,1,0-5h8a2.5,2.5,0,0,1,0,5Z"/><path d="M20,50H19a2.5,2.5,0,0,1,0-5h1a2.5,2.5,0,0,1,0,5Z"/></g></g></g></svg>