<svg xmlns="http://www.w3.org/2000/svg" viewBox="0 0 59 59"><title>phone disabled</title><g id="Layer_2" data-name="Layer 2"><g id="Layer_1-2" data-name="Layer 1"><g id="phone_disabled" data-name="phone disabled"><path d="M56.5,59a2.49,2.49,0,0,1-1.77-.73l-54-54A2.5,2.5,0,0,1,4.27.73l54,54a2.52,2.52,0,0,1,0,3.54A2.49,2.49,0,0,1,56.5,59Z"/><path d="M14.16,59a11.34,11.34,0,0,1-8-3.33L.73,50.27a2.52,2.52,0,0,1,0-3.54L13.6,33.87a2.49,2.49,0,0,1,3.53,0l4.64,4.64A47.19,47.19,0,0,0,31.2,31.2a2.5,2.5,0,0,1,3.53,3.53,52.19,52.19,0,0,1-12.2,9.09,2.5,2.5,0,0,1-3-.44l-4.22-4.21L6,48.5l3.63,3.64a6.31,6.31,0,0,0,7.17,1.25A77.69,77.69,0,0,0,38.21,38.21a2.5,2.5,0,0,1,3.54,3.54A82.82,82.82,0,0,1,19,57.9,11.15,11.15,0,0,1,14.16,59Z"/><path d="M46.62,35a2.54,2.54,0,0,1-1.54-.53,2.5,2.5,0,0,1-.43-3.51,78,78,0,0,0,8.74-14.1,6.31,6.31,0,0,0-1.25-7.17L48.5,6l-9.33,9.32,4.21,4.22a2.5,2.5,0,0,1,.44,3c-.74,1.37-1.55,2.73-2.41,4a2.5,2.5,0,1,1-4.17-2.76c.44-.66.86-1.34,1.27-2l-4.64-4.64a2.49,2.49,0,0,1,0-3.53L46.73.73a2.57,2.57,0,0,1,3.54,0l5.4,5.41A11.3,11.3,0,0,1,57.9,19a82.4,82.4,0,0,1-9.31,15A2.48,2.48,0,0,1,46.62,35Z"/></g></g></g></svg>