<svg xmlns="http://www.w3.org/2000/svg" viewBox="0 0 59 53.15"><title>phonelink</title><g id="Layer_2" data-name="Layer 2"><g id="Layer_1-2" data-name="Layer 1"><g id="phonelink"><path d="M51.9,53.15H41.57a7.1,7.1,0,0,1-7.09-7.09V24.25a7.11,7.11,0,0,1,7.09-7.1H51.9a7.11,7.11,0,0,1,7.1,7.1V46.06A7.11,7.11,0,0,1,51.9,53.15Zm-10.33-31a2.1,2.1,0,0,0-2.09,2.1V46.06a2.09,2.09,0,0,0,2.09,2.09H51.9A2.09,2.09,0,0,0,54,46.06V24.25a2.1,2.1,0,0,0-2.1-2.1Z"/><path d="M7,36a2.5,2.5,0,0,1-2.5-2.5V6.5A6.51,6.51,0,0,1,11,0H48a6.51,6.51,0,0,1,6.5,6.5v4.15a2.5,2.5,0,0,1-5,0V6.5A1.5,1.5,0,0,0,48,5H11a1.5,1.5,0,0,0-1.5,1.5v27A2.5,2.5,0,0,1,7,36Z"/><path d="M28,53.15H6.78A6.78,6.78,0,0,1,.43,44L4.68,32.65A2.51,2.51,0,0,1,7,31H28a2.5,2.5,0,1,1,0,5H8.76L5.11,45.75a1.78,1.78,0,0,0,1.67,2.4H28a2.5,2.5,0,0,1,0,5Z"/></g></g></g></svg>