<svg xmlns="http://www.w3.org/2000/svg" viewBox="0 0 59 38.23"><title>pickup truck</title><g id="Layer_2" data-name="Layer 2"><g id="Layer_1-2" data-name="Layer 1"><g id="pickup_truck" data-name="pickup truck"><path d="M45.6,38.23a7.5,7.5,0,1,1,7.5-7.5A7.52,7.52,0,0,1,45.6,38.23Zm0-10a2.5,2.5,0,1,0,2.5,2.5A2.5,2.5,0,0,0,45.6,28.23Z"/><path d="M14,38.23a7.5,7.5,0,1,1,7.5-7.5A7.52,7.52,0,0,1,14,38.23Zm0-10a2.5,2.5,0,1,0,2.5,2.5A2.5,2.5,0,0,0,14,28.23Z"/><path d="M56.5,33.23H50.6a2.5,2.5,0,0,1,0-5H54V16.54L44,5H37.2V28.23h3.4a2.5,2.5,0,0,1,0,5H34.7a2.5,2.5,0,0,1-2.5-2.5V2.5A2.5,2.5,0,0,1,34.7,0H45.1A2.47,2.47,0,0,1,47,.86L58.39,14A2.54,2.54,0,0,1,59,15.6V30.73A2.5,2.5,0,0,1,56.5,33.23Z"/><path d="M34.7,33.23H19a2.5,2.5,0,0,1,0-5H34.7a2.5,2.5,0,1,1,0,5Z"/><path d="M9,33.23H2.5A2.5,2.5,0,0,1,0,30.73V15.6a2.5,2.5,0,0,1,2.5-2.5h54a2.5,2.5,0,0,1,0,5H5V28.23H9a2.5,2.5,0,1,1,0,5Z"/></g></g></g></svg>