<svg xmlns="http://www.w3.org/2000/svg" viewBox="0 0 59 59"><title>pie chart</title><g id="Layer_2" data-name="Layer 2"><g id="Layer_1-2" data-name="Layer 1"><g id="pie_chart" data-name="pie chart"><path d="M24.84,59a24.85,24.85,0,0,1,0-49.69,2.49,2.49,0,0,1,2.5,2.5V31.66H47.19a2.49,2.49,0,0,1,2.5,2.5A24.88,24.88,0,0,1,24.84,59Zm-2.5-44.53A19.84,19.84,0,1,0,44.53,36.66H24.84a2.5,2.5,0,0,1-2.5-2.5Z"/><path d="M56.5,27.34H34.16a2.49,2.49,0,0,1-2.5-2.5V2.5A2.49,2.49,0,0,1,34.16,0,24.88,24.88,0,0,1,59,24.84,2.49,2.49,0,0,1,56.5,27.34Zm-19.84-5H53.84A19.89,19.89,0,0,0,36.66,5.16Z"/></g></g></g></svg>