<svg xmlns="http://www.w3.org/2000/svg" viewBox="0 0 45 59"><title>pin-1</title><g id="Layer_2" data-name="Layer 2"><g id="Layer_1-2" data-name="Layer 1"><g id="pin-1"><path d="M22.5,59a2.5,2.5,0,0,1-1.5-.5c-.86-.65-21-16-21-36a22.5,22.5,0,0,1,45,0c0,20-20.14,35.35-21,36A2.5,2.5,0,0,1,22.5,59Zm0-54A17.52,17.52,0,0,0,5,22.5C5,37,18,49.42,22.5,53.27,27,49.42,40,37,40,22.5A17.52,17.52,0,0,0,22.5,5Z"/><path d="M22.5,32A9.5,9.5,0,1,1,32,22.5,9.51,9.51,0,0,1,22.5,32Zm0-14A4.5,4.5,0,1,0,27,22.5,4.51,4.51,0,0,0,22.5,18Z"/></g></g></g></svg>