<svg xmlns="http://www.w3.org/2000/svg" viewBox="0 0 59 59"><title>play circle</title><g id="Layer_2" data-name="Layer 2"><g id="Layer_1-2" data-name="Layer 1"><g id="play_circle" data-name="play circle"><path d="M29.5,59A29.5,29.5,0,1,1,59,29.5,29.53,29.53,0,0,1,29.5,59Zm0-54A24.5,24.5,0,1,0,54,29.5,24.53,24.53,0,0,0,29.5,5Z"/><path d="M22.6,44a4.37,4.37,0,0,1-2.26-.62,4.44,4.44,0,0,1-2.22-3.87v-20a4.48,4.48,0,0,1,6.68-3.91l17.8,10a4.49,4.49,0,0,1,0,7.82l-17.8,10A4.47,4.47,0,0,1,22.6,44Zm.52-23.63V38.63L39.35,29.5Z"/></g></g></g></svg>