<svg xmlns="http://www.w3.org/2000/svg" viewBox="0 0 59 59"><title>plug</title><g id="Layer_2" data-name="Layer 2"><g id="Layer_1-2" data-name="Layer 1"><g id="plug"><path d="M45.33,35.17a2.5,2.5,0,0,1-1.77-.74l-19-19A2.5,2.5,0,0,1,28.1,11.9l19,19a2.51,2.51,0,0,1-1.77,4.27Z"/><path d="M42.48,32.32a2.51,2.51,0,0,1-1.77-4.27l7-7a2.87,2.87,0,0,0,0-4.06L42,11.32a2.87,2.87,0,0,0-4.06,0l-7,7a2.5,2.5,0,0,1-3.53-3.54l7-7a7.88,7.88,0,0,1,11.13,0l5.7,5.7a7.86,7.86,0,0,1,0,11.13l-7,7A2.5,2.5,0,0,1,42.48,32.32Z"/><path d="M43.13,22.2a2.49,2.49,0,0,1-1.77-.73l-3.83-3.83a2.5,2.5,0,0,1,3.53-3.54l3.84,3.84a2.5,2.5,0,0,1-1.77,4.26Z"/><path d="M46.6,14.9a2.5,2.5,0,0,1-1.77-4.26L54.73.73a2.5,2.5,0,0,1,3.54,3.54l-9.91,9.9A2.45,2.45,0,0,1,46.6,14.9Z"/><path d="M32.67,47.83a2.53,2.53,0,0,1-1.77-.73l-19-19a2.5,2.5,0,1,1,3.54-3.53l19,19a2.5,2.5,0,0,1-1.76,4.27Z"/><path d="M19.05,53.52a7.79,7.79,0,0,1-5.56-2.31l-5.7-5.7a7.88,7.88,0,0,1,0-11.13l7-7A2.5,2.5,0,0,1,18.29,31l-7,7a2.87,2.87,0,0,0,0,4.06l5.7,5.7a3,3,0,0,0,4.06,0l7-7a2.5,2.5,0,0,1,3.53,3.54l-7,7A7.81,7.81,0,0,1,19.05,53.52Z"/><path d="M19.7,45.63a2.45,2.45,0,0,1-1.76-.73L14.1,41.06a2.5,2.5,0,0,1,3.54-3.53l3.83,3.83a2.5,2.5,0,0,1-1.77,4.27Z"/><path d="M2.5,59a2.49,2.49,0,0,1-1.77-.73,2.52,2.52,0,0,1,0-3.54l9.91-9.9a2.5,2.5,0,1,1,3.53,3.53l-9.9,9.91A2.49,2.49,0,0,1,2.5,59Z"/><path d="M27.28,42.45a2.46,2.46,0,0,1-1.76-.74,2.49,2.49,0,0,1,0-3.53l7.59-7.6a2.5,2.5,0,0,1,3.54,3.54l-7.6,7.59A2.5,2.5,0,0,1,27.28,42.45Z"/><path d="M19.05,34.22a2.46,2.46,0,0,1-1.76-.74,2.49,2.49,0,0,1,0-3.53l7.59-7.6a2.5,2.5,0,0,1,3.54,3.54l-7.6,7.59A2.5,2.5,0,0,1,19.05,34.22Z"/></g></g></g></svg>