<svg xmlns="http://www.w3.org/2000/svg" viewBox="0 0 59 59"><title>points</title><g id="Layer_2" data-name="Layer 2"><g id="Layer_1-2" data-name="Layer 1"><g id="points"><path d="M48.5,59h-38A10.51,10.51,0,0,1,0,48.5v-38A10.51,10.51,0,0,1,10.5,0h38A10.51,10.51,0,0,1,59,10.5v38A10.51,10.51,0,0,1,48.5,59ZM10.5,5A5.51,5.51,0,0,0,5,10.5v38A5.51,5.51,0,0,0,10.5,54h38A5.51,5.51,0,0,0,54,48.5v-38A5.51,5.51,0,0,0,48.5,5Z"/><path d="M30.34,12C20.48,12,15.5,18.85,15.5,24.56c0,3.46,1.35,6.53,4.25,7.68a.92.92,0,0,0,.36.07.7.7,0,0,0,.68-.58c.1-.35.33-1.24.43-1.61a.94.94,0,0,0-.3-1.12,5.65,5.65,0,0,1-1.37-3.94c0-5.08,3.93-9.63,10.23-9.63,5.57,0,8.64,3.3,8.64,7.71,0,5.79-2.65,10.68-6.58,10.68A3.14,3.14,0,0,1,28.56,30c.62-2.55,1.83-5.29,1.83-7.13a2.72,2.72,0,0,0-2.8-3c-2.22,0-4,2.23-4,5.21a7.59,7.59,0,0,0,.66,3.18s-2.27,9.32-2.67,11a21.84,21.84,0,0,0-.06,7.64.26.26,0,0,0,.27.22.25.25,0,0,0,.22-.11,21,21,0,0,0,3.76-6.58c.25-.89,1.46-5.52,1.46-5.52a6,6,0,0,0,5.07,2.5c6.68,0,11.21-5.88,11.21-13.77C43.5,17.55,38.28,12,30.34,12Z"/></g></g></g></svg>