<svg xmlns="http://www.w3.org/2000/svg" viewBox="0 0 59 45.5"><title>position left</title><g id="Layer_2" data-name="Layer 2"><g id="Layer_1-2" data-name="Layer 1"><g id="position_left" data-name="position left"><path d="M56.5,45.5H2.5a2.5,2.5,0,0,1,0-5h54a2.5,2.5,0,0,1,0,5Z"/><path d="M56.5,18.5h-16a2.5,2.5,0,0,1,0-5h16a2.5,2.5,0,0,1,0,5Z"/><path d="M56.5,32h-16a2.5,2.5,0,0,1,0-5h16a2.5,2.5,0,0,1,0,5Z"/><path d="M56.5,5h-16a2.5,2.5,0,0,1,0-5h16a2.5,2.5,0,0,1,0,5Z"/><path d="M26.35,33H6.65A6.65,6.65,0,0,1,0,26.35V6.65A6.65,6.65,0,0,1,6.65,0h19.7A6.65,6.65,0,0,1,33,6.65v19.7A6.65,6.65,0,0,1,26.35,33ZM6.65,5A1.65,1.65,0,0,0,5,6.65v19.7A1.65,1.65,0,0,0,6.65,28h19.7A1.65,1.65,0,0,0,28,26.35V6.65A1.65,1.65,0,0,0,26.35,5Z"/><path d="M2.5,28.09A2.51,2.51,0,0,1,.73,23.82l8.65-8.65h3.53l2.52,2.52,5.83-5.82h3.53l7.48,7.47a2.5,2.5,0,0,1-3.54,3.54L23,17.17,17.2,23H13.66l-2.52-2.52L4.27,27.35A2.5,2.5,0,0,1,2.5,28.09Z"/></g></g></g></svg>