<svg xmlns="http://www.w3.org/2000/svg" viewBox="0 0 59 45.5"><title>position right</title><g id="Layer_2" data-name="Layer 2"><g id="Layer_1-2" data-name="Layer 1"><g id="position_right" data-name="position right"><path d="M56.5,45.5H2.5a2.5,2.5,0,0,1,0-5h54a2.5,2.5,0,0,1,0,5Z"/><path d="M18.5,18.5H2.5a2.5,2.5,0,0,1,0-5h16a2.5,2.5,0,0,1,0,5Z"/><path d="M18.5,32H2.5a2.5,2.5,0,0,1,0-5h16a2.5,2.5,0,0,1,0,5Z"/><path d="M18.5,5H2.5a2.5,2.5,0,0,1,0-5h16a2.5,2.5,0,0,1,0,5Z"/><path d="M52.35,33H32.65A6.65,6.65,0,0,1,26,26.35V6.65A6.65,6.65,0,0,1,32.65,0h19.7A6.65,6.65,0,0,1,59,6.65v19.7A6.65,6.65,0,0,1,52.35,33ZM32.65,5A1.65,1.65,0,0,0,31,6.65v19.7A1.65,1.65,0,0,0,32.65,28h19.7A1.65,1.65,0,0,0,54,26.35V6.65A1.65,1.65,0,0,0,52.35,5Z"/><path d="M28.5,28.09a2.51,2.51,0,0,1-1.77-4.27l8.65-8.65h3.53l2.52,2.52,5.82-5.82h3.54l7.48,7.47a2.5,2.5,0,0,1-3.54,3.54L49,17.17,43.2,23H39.66l-2.52-2.52-6.87,6.87A2.5,2.5,0,0,1,28.5,28.09Z"/></g></g></g></svg>