<svg xmlns="http://www.w3.org/2000/svg" viewBox="0 0 40.1 59"><title>prayer rug</title><g id="Layer_2" data-name="Layer 2"><g id="Layer_1-2" data-name="Layer 1"><g id="prayer_rug" data-name="prayer rug"><path d="M24.7,45.5H15.4A2.5,2.5,0,0,1,12.9,43a2.3,2.3,0,0,0-2.3-2.3,2.5,2.5,0,0,1-2.5-2.5V20.8a2.5,2.5,0,0,1,2.5-2.5A2.3,2.3,0,0,0,12.9,16a2.5,2.5,0,0,1,2.5-2.5h9.3A2.5,2.5,0,0,1,27.2,16a2.3,2.3,0,0,0,2.3,2.3A2.5,2.5,0,0,1,32,20.8V38.2a2.5,2.5,0,0,1-2.5,2.5A2.3,2.3,0,0,0,27.2,43,2.5,2.5,0,0,1,24.7,45.5Zm-7.24-5h5.18A7.34,7.34,0,0,1,27,36.14V22.86a7.34,7.34,0,0,1-4.36-4.36H17.46a7.34,7.34,0,0,1-4.36,4.36V36.14A7.34,7.34,0,0,1,17.46,40.5Z"/><path d="M37.6,53.6H2.5A2.5,2.5,0,0,1,0,51.1V7.9A2.5,2.5,0,0,1,2.5,5.4H37.6a2.5,2.5,0,0,1,2.5,2.5V51.1A2.5,2.5,0,0,1,37.6,53.6ZM5,48.6H35.1V10.4H5Z"/><path d="M2.5,10.4A2.5,2.5,0,0,1,0,7.9V2.5a2.5,2.5,0,0,1,5,0V7.9A2.5,2.5,0,0,1,2.5,10.4Z"/><path d="M37.6,10.4a2.5,2.5,0,0,1-2.5-2.5V2.5a2.5,2.5,0,0,1,5,0V7.9A2.5,2.5,0,0,1,37.6,10.4Z"/><path d="M25.6,10.4a2.5,2.5,0,0,1-2.5-2.5V2.5a2.5,2.5,0,0,1,5,0V7.9A2.5,2.5,0,0,1,25.6,10.4Z"/><path d="M14.5,10.4A2.5,2.5,0,0,1,12,7.9V2.5a2.5,2.5,0,0,1,5,0V7.9A2.5,2.5,0,0,1,14.5,10.4Z"/><path d="M2.5,59A2.5,2.5,0,0,1,0,56.5V51.1a2.5,2.5,0,0,1,5,0v5.4A2.5,2.5,0,0,1,2.5,59Z"/><path d="M37.6,59a2.5,2.5,0,0,1-2.5-2.5V51.1a2.5,2.5,0,0,1,5,0v5.4A2.5,2.5,0,0,1,37.6,59Z"/><path d="M25.6,59a2.5,2.5,0,0,1-2.5-2.5V51.1a2.5,2.5,0,0,1,5,0v5.4A2.5,2.5,0,0,1,25.6,59Z"/><path d="M14.5,59A2.5,2.5,0,0,1,12,56.5V51.1a2.5,2.5,0,1,1,5,0v5.4A2.5,2.5,0,0,1,14.5,59Z"/></g></g></g></svg>