<svg xmlns="http://www.w3.org/2000/svg" viewBox="0 0 56.5 56.49"><title>prayer-2</title><g id="Layer_2" data-name="Layer 2"><g id="Layer_1-2" data-name="Layer 1"><g id="prayer-2"><circle cx="36.93" cy="36.92" r="4.44"/><circle cx="43.16" cy="43.15" r="4.47"/><circle cx="41.29" cy="29.26" r="4.44"/><circle cx="40.06" cy="20.51" r="4.44"/><circle cx="35.23" cy="13.09" r="4.44"/><circle cx="28.62" cy="7.32" r="4.44"/><circle cx="20.29" cy="4.44" r="4.44"/><circle cx="11.53" cy="5.23" r="4.44"/><circle cx="5.24" cy="11.52" r="4.44"/><circle cx="29.26" cy="41.29" r="4.44"/><circle cx="20.51" cy="40.06" r="4.44"/><circle cx="13.09" cy="35.23" r="4.44"/><circle cx="7.32" cy="28.62" r="4.44"/><circle cx="4.44" cy="20.29" r="4.44"/><path d="M54,56.49a2.49,2.49,0,0,1-1.77-.73l-4.54-4.54a2.5,2.5,0,1,1,3.54-3.53l4.54,4.54A2.5,2.5,0,0,1,54,56.49Z"/></g></g></g></svg>