<svg xmlns="http://www.w3.org/2000/svg" viewBox="0 0 58.88 59"><title>print</title><g id="Layer_2" data-name="Layer 2"><g id="Layer_1-2" data-name="Layer 1"><g id="print"><path d="M46.41,16a2.49,2.49,0,0,1-2.5-2.5V5H15v8.48a2.5,2.5,0,0,1-5,0V2.5A2.5,2.5,0,0,1,12.48,0H46.41a2.5,2.5,0,0,1,2.5,2.5v11A2.5,2.5,0,0,1,46.41,16Z"/><path d="M46.41,59H12.48A2.5,2.5,0,0,1,10,56.5v-18a2.5,2.5,0,0,1,2.5-2.5H46.41a2.5,2.5,0,0,1,2.5,2.5v18A2.5,2.5,0,0,1,46.41,59ZM15,54H43.91V41H15Z"/><path d="M50.4,49.9h-4a2.5,2.5,0,0,1,0-5h4a3.48,3.48,0,0,0,3.48-3.48v-22A3.48,3.48,0,0,0,50.4,16H8.49A3.48,3.48,0,0,0,5,19.46v22A3.48,3.48,0,0,0,8.49,44.9h4a2.5,2.5,0,0,1,0,5h-4A8.49,8.49,0,0,1,0,41.42v-22A8.49,8.49,0,0,1,8.49,11H50.4a8.48,8.48,0,0,1,8.48,8.48v22A8.48,8.48,0,0,1,50.4,49.9Z"/><path d="M46.41,26.61h-4a2.5,2.5,0,0,1,0-5h4a2.5,2.5,0,0,1,0,5Z"/><path d="M37.42,50h-16a2.5,2.5,0,0,1,0-5h16a2.5,2.5,0,0,1,0,5Z"/></g></g></g></svg>