<svg xmlns="http://www.w3.org/2000/svg" viewBox="0 0 59 59"><title>profits</title><g id="Layer_2" data-name="Layer 2"><g id="Layer_1-2" data-name="Layer 1"><g id="profits"><path d="M56.5,59H2.5A2.5,2.5,0,0,1,0,56.5V2.5a2.5,2.5,0,0,1,5,0V54H56.5a2.5,2.5,0,0,1,0,5Z"/><path d="M56.5,27.39a2.5,2.5,0,0,1-2.5-2.5V15.23H44.34a2.5,2.5,0,0,1,0-5H56.5a2.5,2.5,0,0,1,2.5,2.5V24.89A2.5,2.5,0,0,1,56.5,27.39Z"/><path d="M37,37.77h-.25a2.5,2.5,0,0,1-1.93-1.26l-7.3-12.95L16.39,36.3A2.51,2.51,0,0,1,12.61,33L26,17.59a2.53,2.53,0,0,1,2.14-.84A2.5,2.5,0,0,1,30.1,18L37.39,31,54.61,11.09a2.5,2.5,0,1,1,3.78,3.28L38.84,36.91A2.47,2.47,0,0,1,37,37.77Z"/></g></g></g></svg>