<svg xmlns="http://www.w3.org/2000/svg" viewBox="0 0 47 59"><title>quran</title><g id="Layer_2" data-name="Layer 2"><g id="Layer_1-2" data-name="Layer 1"><g id="quran"><path d="M23.5,49a3.25,3.25,0,0,1-2.34-1l-2-2H16.3A3.32,3.32,0,0,1,13,42.7V39.86l-2-2a3.31,3.31,0,0,1,0-4.68l2-2V28.3A3.32,3.32,0,0,1,16.3,25h2.84l2-2a3.4,3.4,0,0,1,4.69,0l2,2H30.7A3.32,3.32,0,0,1,34,28.3v2.84l2,2a3.31,3.31,0,0,1,0,4.68l-2,2V42.7A3.32,3.32,0,0,1,30.7,46H27.86l-2,2A3.29,3.29,0,0,1,23.5,49Zm-1.19-4.51ZM18,41h2.2a2.51,2.51,0,0,1,1.77.73L23.5,43.3l1.55-1.55A2.51,2.51,0,0,1,26.82,41H29v-2.2a2.51,2.51,0,0,1,.73-1.77L31.3,35.5,29.75,34A2.51,2.51,0,0,1,29,32.18V30h-2.2a2.51,2.51,0,0,1-1.77-.73L23.5,27.7,22,29.25a2.51,2.51,0,0,1-1.77.73H18v2.2A2.51,2.51,0,0,1,17.25,34L15.7,35.5l1.55,1.55A2.51,2.51,0,0,1,18,38.82Zm14.51-4.33h0Z"/><path d="M38.5,17H8.5A2.5,2.5,0,0,1,6,14.5V2.5A2.5,2.5,0,0,1,8.5,0h30a8.5,8.5,0,0,1,0,17ZM11,12H38.5a3.5,3.5,0,0,0,0-7H11Z"/><path d="M36.5,59H2.5A2.5,2.5,0,0,1,0,56.5v-42A2.5,2.5,0,0,1,2.5,12H19.11a2.5,2.5,0,0,1,0,5H5V54H36.5c3.34,0,5.5-2.94,5.5-7.5V8.5a2.5,2.5,0,0,1,5,0v38C47,53.86,42.68,59,36.5,59Z"/></g></g></g></svg>