<svg xmlns="http://www.w3.org/2000/svg" viewBox="0 0 59 58.91"><title>radio</title><g id="Layer_2" data-name="Layer 2"><g id="Layer_1-2" data-name="Layer 1"><g id="radio"><path d="M48.5,58.91h-38A10.51,10.51,0,0,1,0,48.41v-20a10.51,10.51,0,0,1,10.5-10.5h38A10.51,10.51,0,0,1,59,28.41v20A10.51,10.51,0,0,1,48.5,58.91Zm-38-36A5.51,5.51,0,0,0,5,28.41v20a5.5,5.5,0,0,0,5.5,5.5h38a5.5,5.5,0,0,0,5.5-5.5v-20a5.51,5.51,0,0,0-5.5-5.5Z"/><path d="M10.5,22.91a2.5,2.5,0,0,1-.91-4.83L55.59.17a2.5,2.5,0,1,1,1.82,4.66l-46,17.91A2.44,2.44,0,0,1,10.5,22.91Z"/><path d="M40.2,47.91a9.5,9.5,0,1,1,9.5-9.5A9.51,9.51,0,0,1,40.2,47.91Zm0-14a4.5,4.5,0,1,0,4.5,4.5A4.51,4.51,0,0,0,40.2,33.91Z"/><path d="M25.05,35.91h-14a2.5,2.5,0,0,1,0-5h14a2.5,2.5,0,1,1,0,5Z"/><path d="M25.05,45.91h-14a2.5,2.5,0,1,1,0-5h14a2.5,2.5,0,0,1,0,5Z"/></g></g></g></svg>