<svg xmlns="http://www.w3.org/2000/svg" viewBox="0 0 59 57.6"><title>rain</title><g id="Layer_2" data-name="Layer 2"><g id="Layer_1-2" data-name="Layer 1"><g id="rain"><g id="cloud"><path d="M45.5,40.92h-32a13.5,13.5,0,0,1-1.89-26.87,17.5,17.5,0,0,1,34.29-.12,13.5,13.5,0,0,1-.4,27Zm-32-22a8.5,8.5,0,0,0,0,17h32a8.5,8.5,0,0,0,0-17H43.73a2.49,2.49,0,0,1-2.49-2.32,12.5,12.5,0,0,0-24.94,0,2.49,2.49,0,0,1-2.49,2.32Z"/></g><path d="M15.5,57.6A2.5,2.5,0,0,1,13,55.1v-7a2.5,2.5,0,0,1,5,0v7A2.5,2.5,0,0,1,15.5,57.6Z"/><path d="M29.5,57.6A2.5,2.5,0,0,1,27,55.1v-7a2.5,2.5,0,0,1,5,0v7A2.5,2.5,0,0,1,29.5,57.6Z"/><path d="M43.5,57.6A2.5,2.5,0,0,1,41,55.1v-7a2.5,2.5,0,0,1,5,0v7A2.5,2.5,0,0,1,43.5,57.6Z"/></g></g></g></svg>