<svg xmlns="http://www.w3.org/2000/svg" viewBox="0 0 58.21 59"><title>real estate</title><g id="Layer_2" data-name="Layer 2"><g id="Layer_1-2" data-name="Layer 1"><g id="real_estate." data-name="real estate."><path d="M23.51,59A2.5,2.5,0,0,1,21,56.5v-10a2.5,2.5,0,0,0-5,0v10a2.5,2.5,0,0,1-5,0v-10a7.5,7.5,0,1,1,15,0v10A2.5,2.5,0,0,1,23.51,59Z"/><path d="M28.62,20.16a2.5,2.5,0,0,1-2.5-2.5V11.75H10.9v5.91a2.5,2.5,0,0,1-5,0V9.25a2.5,2.5,0,0,1,2.5-2.5H28.62a2.5,2.5,0,0,1,2.5,2.5v8.41A2.5,2.5,0,0,1,28.62,20.16Z"/><path d="M34.53,59H2.5A2.5,2.5,0,0,1,0,56.5V17.66a2.5,2.5,0,0,1,2.5-2.5H8.4a2.5,2.5,0,1,1,0,5H5V54H32V20.16H28.62a2.5,2.5,0,0,1,0-5h5.91a2.5,2.5,0,0,1,2.5,2.5V56.5A2.5,2.5,0,0,1,34.53,59Z"/><path d="M18.51,11.75A2.49,2.49,0,0,1,16,9.25V2.5a2.5,2.5,0,0,1,5,0V9.25A2.49,2.49,0,0,1,18.51,11.75Z"/><path d="M55.71,59H34.53a2.5,2.5,0,0,1,0-5H53.21V37.68H45.82a2.5,2.5,0,0,1-2.5-2.5V31H34.53a2.5,2.5,0,0,1,0-5H45.82a2.5,2.5,0,0,1,2.5,2.5v4.21h7.39a2.5,2.5,0,0,1,2.5,2.5V56.5A2.5,2.5,0,0,1,55.71,59Z"/><path d="M24,35.3H13a2.5,2.5,0,0,1,0-5H24a2.5,2.5,0,1,1,0,5Z"/><path d="M24,26.8H13a2.5,2.5,0,0,1,0-5H24a2.5,2.5,0,0,1,0,5Z"/><path d="M44.75,51.69a2.5,2.5,0,0,1-2.5-2.5v-6a2.5,2.5,0,0,1,5,0v6A2.5,2.5,0,0,1,44.75,51.69Z"/></g></g></g></svg>