<svg xmlns="http://www.w3.org/2000/svg" viewBox="0 0 53 59"><title>receipt</title><g id="Layer_2" data-name="Layer 2"><g id="Layer_1-2" data-name="Layer 1"><g id="receipt"><path d="M50.5,59a2.5,2.5,0,0,1-1.77-.73L42.5,52l-6.23,6.23a2.52,2.52,0,0,1-3.54,0L26.5,52l-6.23,6.23a2.52,2.52,0,0,1-3.54,0L10.5,52,4.27,58.27A2.5,2.5,0,0,1,0,56.5v-46A10.51,10.51,0,0,1,10.5,0h32A10.51,10.51,0,0,1,53,10.5v46A2.5,2.5,0,0,1,50.5,59Zm-24-13a2.49,2.49,0,0,1,1.77.73L34.5,53l6.23-6.23a2.52,2.52,0,0,1,3.54,0L48,50.46v-40A5.51,5.51,0,0,0,42.5,5h-32A5.51,5.51,0,0,0,5,10.5v40l3.73-3.73a2.52,2.52,0,0,1,3.54,0L18.5,53l6.23-6.23A2.49,2.49,0,0,1,26.5,46Z"/><path d="M31.5,35.33h-16a2.5,2.5,0,0,1,0-5h16a2.5,2.5,0,0,1,0,5Z"/><path d="M38.5,22.67h-24a2.5,2.5,0,0,1,0-5h24a2.5,2.5,0,0,1,0,5Z"/></g></g></g></svg>