<svg xmlns="http://www.w3.org/2000/svg" viewBox="0 0 59 55"><title>redo arrow-1</title><g id="Layer_2" data-name="Layer 2"><g id="Layer_1-2" data-name="Layer 1"><g id="redo_arrow-1" data-name="redo arrow-1"><path d="M46.5,55a2.49,2.49,0,0,1-1.77-.73,2.52,2.52,0,0,1,0-3.54L53,42.5l-8.23-8.23a2.5,2.5,0,1,1,3.54-3.54l10,10a2.52,2.52,0,0,1,0,3.54l-10,10A2.49,2.49,0,0,1,46.5,55Z"/><path d="M56.5,45h-34a22.5,22.5,0,0,1,0-45h24a2.5,2.5,0,0,1,0,5h-24a17.5,17.5,0,0,0,0,35h34a2.5,2.5,0,0,1,0,5Z"/></g></g></g></svg>