<svg xmlns="http://www.w3.org/2000/svg" viewBox="0 0 55 59"><title>redo arrow-2</title><g id="Layer_2" data-name="Layer 2"><g id="Layer_1-2" data-name="Layer 1"><g id="redo_arrow-2" data-name="redo arrow-2"><path d="M12.5,59a2.49,2.49,0,0,1-1.77-.73l-10-10a2.5,2.5,0,0,1,3.54-3.54L12.5,53l8.23-8.23a2.5,2.5,0,0,1,3.54,3.54l-10,10A2.49,2.49,0,0,1,12.5,59Z"/><path d="M12.5,59A2.5,2.5,0,0,1,10,56.5v-34a22.5,22.5,0,0,1,45,0v24a2.5,2.5,0,0,1-5,0v-24a17.5,17.5,0,0,0-35,0v34A2.5,2.5,0,0,1,12.5,59Z"/></g></g></g></svg>