<svg xmlns="http://www.w3.org/2000/svg" viewBox="0 0 41 59"><title>refrigerator</title><g id="Layer_2" data-name="Layer 2"><g id="Layer_1-2" data-name="Layer 1"><g id="refrigerator"><path d="M30.5,59h-20A10.51,10.51,0,0,1,0,48.5v-38A10.51,10.51,0,0,1,10.5,0h20A10.51,10.51,0,0,1,41,10.5v38A10.51,10.51,0,0,1,30.5,59ZM10.5,5A5.51,5.51,0,0,0,5,10.5v38A5.51,5.51,0,0,0,10.5,54h20A5.51,5.51,0,0,0,36,48.5v-38A5.51,5.51,0,0,0,30.5,5Z"/><path d="M38.5,26H2.5a2.5,2.5,0,0,1,0-5h36a2.5,2.5,0,0,1,0,5Z"/><path d="M29.18,40a2.5,2.5,0,0,1-2.5-2.5v-6a2.5,2.5,0,0,1,5,0v6A2.5,2.5,0,0,1,29.18,40Z"/><path d="M29.18,18a2.5,2.5,0,0,1-2.5-2.5v-4a2.5,2.5,0,0,1,5,0v4A2.5,2.5,0,0,1,29.18,18Z"/></g></g></g></svg>