<svg xmlns="http://www.w3.org/2000/svg" viewBox="0 0 37 59"><title>remote</title><g id="Layer_2" data-name="Layer 2"><g id="Layer_1-2" data-name="Layer 1"><g id="remote"><path d="M26.5,59h-16A10.51,10.51,0,0,1,0,48.5v-38A10.51,10.51,0,0,1,10.5,0h16A10.51,10.51,0,0,1,37,10.5v38A10.51,10.51,0,0,1,26.5,59ZM10.5,5A5.51,5.51,0,0,0,5,10.5v38A5.51,5.51,0,0,0,10.5,54h16A5.51,5.51,0,0,0,32,48.5v-38A5.51,5.51,0,0,0,26.5,5Z"/><path d="M18.5,42.5A9.5,9.5,0,1,1,28,33,9.51,9.51,0,0,1,18.5,42.5Zm0-14A4.5,4.5,0,1,0,23,33,4.51,4.51,0,0,0,18.5,28.5Z"/><path d="M26.5,49.5h-4a2.5,2.5,0,0,1,0-5h4a2.5,2.5,0,0,1,0,5Z"/><path d="M14.5,49.5h-4a2.5,2.5,0,0,1,0-5h4a2.5,2.5,0,0,1,0,5Z"/><path d="M26.5,21.5h-4a2.5,2.5,0,0,1,0-5h4a2.5,2.5,0,0,1,0,5Z"/><path d="M14.5,21.5h-4a2.5,2.5,0,0,1,0-5h4a2.5,2.5,0,0,1,0,5Z"/><path d="M26.5,14.5h-4a2.5,2.5,0,0,1,0-5h4a2.5,2.5,0,0,1,0,5Z"/><path d="M14.5,14.5h-4a2.5,2.5,0,0,1,0-5h4a2.5,2.5,0,0,1,0,5Z"/></g></g></g></svg>