<svg xmlns="http://www.w3.org/2000/svg" viewBox="0 0 59 59"><title>repeat</title><g id="Layer_2" data-name="Layer 2"><g id="Layer_1-2" data-name="Layer 1"><g id="repeat"><path d="M50,46.33A2.49,2.49,0,0,1,48.33,42,16.5,16.5,0,0,0,37.5,13h-16a2.5,2.5,0,0,1,0-5h16A21.5,21.5,0,0,1,51.61,45.72,2.49,2.49,0,0,1,50,46.33Z"/><path d="M37.5,51h-16A21.5,21.5,0,0,1,7.39,13.28a2.5,2.5,0,1,1,3.28,3.77A16.5,16.5,0,0,0,21.5,46h16a2.5,2.5,0,0,1,0,5Z"/><path d="M29.5,59a2.49,2.49,0,0,1-1.77-.73,2.52,2.52,0,0,1,0-3.54L34,48.5l-6.23-6.23a2.5,2.5,0,0,1,3.54-3.54l8,8a2.52,2.52,0,0,1,0,3.54l-8,8A2.49,2.49,0,0,1,29.5,59Z"/><path d="M29.5,21a2.49,2.49,0,0,1-1.77-.73l-8-8a2.52,2.52,0,0,1,0-3.54l8-8a2.5,2.5,0,0,1,3.54,3.54L25,10.5l6.23,6.23a2.52,2.52,0,0,1,0,3.54A2.49,2.49,0,0,1,29.5,21Z"/></g></g></g></svg>