<svg xmlns="http://www.w3.org/2000/svg" viewBox="0 0 51.57 59"><title>replay 5</title><g id="Layer_2" data-name="Layer 2"><g id="Layer_1-2" data-name="Layer 1"><g id="replay_5" data-name="replay 5"><path d="M28.15,21.41a2.47,2.47,0,0,1-1.76-.73l-8.21-8.21a2.49,2.49,0,0,1,0-3.53L26.39.73a2.5,2.5,0,0,1,3.53,3.54l-6.44,6.44,6.44,6.44a2.5,2.5,0,0,1-1.77,4.26Z"/><path d="M25.82,59A25.78,25.78,0,0,1,4,19.51a2.5,2.5,0,0,1,4.23,2.66A20.78,20.78,0,1,0,40.5,18.54a20.88,20.88,0,0,0-19.92-5.42,2.5,2.5,0,0,1-1.26-4.84A25.78,25.78,0,0,1,44,51.45,25.6,25.6,0,0,1,25.82,59Z"/><path d="M25.57,46.16a7.13,7.13,0,0,1-6.39-4,2,2,0,1,1,3.61-1.73A3.08,3.08,0,1,0,25.57,36H22.76a2,2,0,0,1-2-2V28.16a2,2,0,0,1,2-2H30a2,2,0,0,1,0,4H24.76V32h.81a7.08,7.08,0,0,1,0,14.15Z"/></g></g></g></svg>