<svg xmlns="http://www.w3.org/2000/svg" viewBox="0 0 51.59 59"><title>replay 30</title><g id="Layer_2" data-name="Layer 2"><g id="Layer_1-2" data-name="Layer 1"><g id="replay_30" data-name="replay 30"><path d="M28.15,21.41a2.48,2.48,0,0,1-1.76-.73l-8.21-8.21a2.5,2.5,0,0,1,0-3.53L26.39.73a2.5,2.5,0,0,1,3.53,3.54l-6.44,6.44,6.44,6.43a2.5,2.5,0,0,1-1.77,4.27Z"/><path d="M25.81,59A25.78,25.78,0,0,1,4,19.51a2.5,2.5,0,0,1,4.23,2.66A20.78,20.78,0,0,0,40.5,47.92a20.76,20.76,0,0,0,0-29.38,20.88,20.88,0,0,0-19.92-5.42,2.5,2.5,0,0,1-1.26-4.84A25.92,25.92,0,0,1,44,15,25.78,25.78,0,0,1,25.81,59Z"/><path d="M32.86,43.62c-3.69,0-6.59-3.56-6.59-8.12s2.9-8.13,6.59-8.13,6.6,3.57,6.6,8.13S36.56,43.62,32.86,43.62Zm0-12.25c-1.22,0-2.59,1.7-2.59,4.13s1.37,4.12,2.59,4.12,2.6-1.69,2.6-4.12S34.09,31.37,32.86,31.37Z"/><path d="M17.67,37.5a2,2,0,0,1,0-4,1.5,1.5,0,1,0-1.34-2.18,2,2,0,1,1-3.57-1.8,5.5,5.5,0,1,1,4.91,8Z"/><path d="M17.67,44.5a5.48,5.48,0,0,1-4.91-3,2,2,0,1,1,3.57-1.81,1.5,1.5,0,1,0,1.34-2.17,2,2,0,0,1,0-4,5.5,5.5,0,0,1,0,11Z"/></g></g></g></svg>