<svg xmlns="http://www.w3.org/2000/svg" viewBox="0 0 51.57 59"><title>replay 10</title><g id="Layer_2" data-name="Layer 2"><g id="Layer_1-2" data-name="Layer 1"><g id="replay_10" data-name="replay 10"><path d="M28.15,21.41a2.47,2.47,0,0,1-1.76-.73l-8.21-8.21a2.49,2.49,0,0,1,0-3.53L26.39.73a2.5,2.5,0,0,1,3.53,3.54l-6.44,6.44,6.44,6.44a2.5,2.5,0,0,1-1.77,4.26Z"/><path d="M25.81,59A25.78,25.78,0,0,1,4,19.51a2.5,2.5,0,0,1,4.23,2.66A20.78,20.78,0,1,0,40.5,18.54a20.88,20.88,0,0,0-19.92-5.42,2.5,2.5,0,0,1-1.26-4.84A25.78,25.78,0,0,1,44,51.45,25.6,25.6,0,0,1,25.81,59Z"/><path d="M18.69,43.23a2,2,0,0,1-2-2V32.06l-1,.94a2,2,0,0,1-2.82-2.83l4.35-4.36a2,2,0,0,1,3.42,1.42v14A2,2,0,0,1,18.69,43.23Z"/><path d="M32.05,43.23c-4,0-7.25-4-7.25-9s3.25-9,7.25-9,7.25,4,7.25,9S36.05,43.23,32.05,43.23Zm0-14c-1.76,0-3.25,2.29-3.25,5s1.49,5,3.25,5,3.25-2.29,3.25-5S33.81,29.23,32.05,29.23Z"/></g></g></g></svg>