<svg xmlns="http://www.w3.org/2000/svg" viewBox="0 0 58.99 53.91"><title>report</title><g id="Layer_2" data-name="Layer 2"><g id="Layer_1-2" data-name="Layer 1"><g id="report"><path d="M39,53.91H20a10.54,10.54,0,0,1-9.1-5.25L1.4,32.21a10.55,10.55,0,0,1,0-10.51L10.9,5.25A10.54,10.54,0,0,1,20,0H39a10.54,10.54,0,0,1,9.1,5.25l9.5,16.45a10.55,10.55,0,0,1,0,10.51l-9.5,16.45A10.54,10.54,0,0,1,39,53.91ZM20,5a5.52,5.52,0,0,0-4.77,2.75L5.73,24.2a5.53,5.53,0,0,0,0,5.51l9.5,16.45A5.54,5.54,0,0,0,20,48.91H39a5.54,5.54,0,0,0,4.77-2.75l9.5-16.45a5.53,5.53,0,0,0,0-5.51L43.76,7.75A5.52,5.52,0,0,0,39,5Z"/><path d="M29.49,31.5A2.5,2.5,0,0,1,27,29V15a2.5,2.5,0,0,1,5,0V29A2.49,2.49,0,0,1,29.49,31.5Z"/><path d="M29.49,41.45A2.5,2.5,0,0,1,27,39V37.78a2.5,2.5,0,0,1,5,0V39A2.49,2.49,0,0,1,29.49,41.45Z"/></g></g></g></svg>