<svg xmlns="http://www.w3.org/2000/svg" viewBox="0 0 49.72 59"><title>restaurant</title><g id="Layer_2" data-name="Layer 2"><g id="Layer_1-2" data-name="Layer 1"><g id="restaurant"><path d="M9.76,26.15A9.77,9.77,0,0,1,0,16.39V2.5a2.5,2.5,0,0,1,5,0V16.39a4.76,4.76,0,0,0,9.52,0V2.5a2.5,2.5,0,0,1,5,0V16.39A9.77,9.77,0,0,1,9.76,26.15Z"/><path d="M9.76,17.56a2.5,2.5,0,0,1-2.5-2.5V2.5a2.5,2.5,0,0,1,5,0V15.06A2.5,2.5,0,0,1,9.76,17.56Z"/><path d="M9.76,59a2.5,2.5,0,0,1-2.5-2.5V23.65a2.5,2.5,0,0,1,5,0V56.5A2.5,2.5,0,0,1,9.76,59Z"/><path d="M17,17.56H2.5a2.5,2.5,0,0,1,0-5H17a2.5,2.5,0,0,1,0,5Z"/><path d="M47.22,37.77H34.93a2.5,2.5,0,0,1-2.5-2.5V2.5A2.5,2.5,0,0,1,34.93,0,14.8,14.8,0,0,1,49.72,14.78V35.27A2.5,2.5,0,0,1,47.22,37.77Zm-9.79-5h7.29v-18a9.81,9.81,0,0,0-7.29-9.46Z"/><path d="M38.52,59a6.09,6.09,0,0,1-6.09-6.08V35.27a2.5,2.5,0,0,1,5,0V52.92a1.09,1.09,0,0,0,2.17,0V35.27a2.5,2.5,0,0,1,5,0V52.92A6.09,6.09,0,0,1,38.52,59Z"/></g></g></g></svg>