<svg xmlns="http://www.w3.org/2000/svg" viewBox="0 0 55.46 59.01"><title>restaurant menu</title><g id="Layer_2" data-name="Layer 2"><g id="Layer_1-2" data-name="Layer 1"><g id="restaurant_menu" data-name="restaurant menu"><path d="M38.45,27.57a9.75,9.75,0,0,1-7.46-16L39.92.9a2.5,2.5,0,1,1,3.83,3.21L34.82,14.75a4.76,4.76,0,1,0,7.29,6.12L51,10.23a2.5,2.5,0,1,1,3.83,3.22L45.94,24.09a9.71,9.71,0,0,1-6.62,3.45Q38.89,27.57,38.45,27.57Z"/><path d="M39.32,19.3a2.47,2.47,0,0,1-1.61-.59,2.5,2.5,0,0,1-.3-3.52l8.07-9.62a2.5,2.5,0,0,1,3.83,3.21L41.24,18.4A2.52,2.52,0,0,1,39.32,19.3Z"/><path d="M6,59A2.51,2.51,0,0,1,4.08,54.9L31.89,21.77A2.5,2.5,0,1,1,35.72,25L7.91,58.11A2.49,2.49,0,0,1,6,59Z"/><path d="M44.88,24a2.46,2.46,0,0,1-1.6-.58L32.15,14a2.5,2.5,0,1,1,3.22-3.83l11.12,9.34A2.5,2.5,0,0,1,44.88,24Z"/><path d="M13.36,23.52c-3,0-6.4-1.44-9.3-4.91h0a17.35,17.35,0,0,1-4-9.32C-.27,5.82.57,3,2.38,1.44,6.15-1.73,14.39.56,19,6.07c5,6,3.88,12.26.16,15.38A9,9,0,0,1,13.36,23.52ZM7.89,15.4c3,3.63,6.31,3.69,8.07,2.22s2.26-4.71-.78-8.34c-3.54-4.21-8.67-4.77-9.58-4-.22.18-.77,1.36-.55,3.51A12.52,12.52,0,0,0,7.89,15.4Z"/><path d="M48.59,59a2.49,2.49,0,0,1-1.91-.9l-31-37a2.5,2.5,0,0,1,3.83-3.22l31,37A2.51,2.51,0,0,1,48.59,59Z"/></g></g></g></svg>