<svg xmlns="http://www.w3.org/2000/svg" viewBox="0 0 49.63 49.62"><title>rice (2)</title><g id="Layer_2" data-name="Layer 2"><g id="Layer_1-2" data-name="Layer 1"><g id="rice"><path d="M35.51,20a14.08,14.08,0,0,1-3.63-.47,2.51,2.51,0,0,1-1.77-1.77A14.1,14.1,0,0,1,47.38.48a2.48,2.48,0,0,1,1.77,1.77A14.14,14.14,0,0,1,45.5,15.87h0A14.16,14.16,0,0,1,35.51,20Zm-.84-5A9.11,9.11,0,0,0,44.59,5,9.09,9.09,0,0,0,34.67,15Zm9.06-.86h0Z"/><path d="M36.75,31.78a14.15,14.15,0,0,1-12.21-7,2.5,2.5,0,0,1,0-2.51,14.1,14.1,0,0,1,24.42,0,2.5,2.5,0,0,1,0,2.51A14.15,14.15,0,0,1,36.75,31.78Zm-7-8.3a9.1,9.1,0,0,0,14,0,9.1,9.1,0,0,0-14,0Z"/><path d="M26.14,25.42a2.54,2.54,0,0,1-1.25-.33,14.11,14.11,0,0,1,0-24.43,2.53,2.53,0,0,1,2.5,0,14.11,14.11,0,0,1,0,24.43A2.54,2.54,0,0,1,26.14,25.42Zm0-19.56a9.11,9.11,0,0,0,0,14,9.11,9.11,0,0,0,0-14Z"/><path d="M25.44,43.1a14.16,14.16,0,0,1-12.22-7.05,2.53,2.53,0,0,1,0-2.5,14.1,14.1,0,0,1,24.43,0,2.48,2.48,0,0,1,0,2.5A14.16,14.16,0,0,1,25.44,43.1Zm-7-8.3a9.11,9.11,0,0,0,14,0,9.09,9.09,0,0,0-14,0Z"/><path d="M14.83,36.74a2.42,2.42,0,0,1-1.25-.34,14.1,14.1,0,0,1,0-24.42,2.48,2.48,0,0,1,2.5,0,14.1,14.1,0,0,1,0,24.42A2.45,2.45,0,0,1,14.83,36.74Zm0-19.56a9.1,9.1,0,0,0,0,14,9.1,9.1,0,0,0,0-14Z"/><path d="M2.5,49.62A2.5,2.5,0,0,1,.73,45.36L16.22,29.87a2.5,2.5,0,1,1,3.54,3.53L4.27,48.89A2.49,2.49,0,0,1,2.5,49.62Z"/></g></g></g></svg>