<svg xmlns="http://www.w3.org/2000/svg" viewBox="0 0 59 59"><title>ringtone</title><g id="Layer_2" data-name="Layer 2"><g id="Layer_1-2" data-name="Layer 1"><g id="ringtone"><path d="M10.5,59A10.5,10.5,0,1,1,21,48.5,10.51,10.51,0,0,1,10.5,59Zm0-16A5.5,5.5,0,1,0,16,48.5,5.51,5.51,0,0,0,10.5,43Z"/><path d="M18.5,51A2.5,2.5,0,0,1,16,48.5V2.5a2.5,2.5,0,0,1,5,0v46A2.5,2.5,0,0,1,18.5,51Z"/><path d="M48.5,49A10.5,10.5,0,1,1,59,38.5,10.51,10.51,0,0,1,48.5,49Zm0-16A5.5,5.5,0,1,0,54,38.5,5.51,5.51,0,0,0,48.5,33Z"/><path d="M56.5,41A2.5,2.5,0,0,1,54,38.5V2.5a2.5,2.5,0,0,1,5,0v36A2.5,2.5,0,0,1,56.5,41Z"/><path d="M56.5,5h-38a2.5,2.5,0,0,1,0-5h38a2.5,2.5,0,0,1,0,5Z"/><path d="M56.5,16h-38a2.5,2.5,0,0,1,0-5h38a2.5,2.5,0,0,1,0,5Z"/></g></g></g></svg>