<svg xmlns="http://www.w3.org/2000/svg" viewBox="0 0 59 58.7"><title>router</title><g id="Layer_2" data-name="Layer 2"><g id="Layer_1-2" data-name="Layer 1"><g id="router"><path d="M26.71,25a2.5,2.5,0,0,1-2.5-2.5,8.62,8.62,0,0,0-8.61-8.61,2.5,2.5,0,0,1,0-5A13.63,13.63,0,0,1,29.21,22.5,2.5,2.5,0,0,1,26.71,25Z"/><path d="M35.6,25a2.5,2.5,0,0,1-2.5-2.5A17.52,17.52,0,0,0,15.6,5a2.5,2.5,0,0,1,0-5A22.53,22.53,0,0,1,38.1,22.5,2.5,2.5,0,0,1,35.6,25Z"/><circle cx="15.6" cy="22.5" r="5"/><path d="M50.5,58.7H8.5C3.81,58.7,0,55.16,0,50.8V43.6c0-4.36,3.81-7.9,8.5-7.9h42c4.69,0,8.5,3.54,8.5,7.9v7.2C59,55.16,55.19,58.7,50.5,58.7Zm-42-18C6.57,40.7,5,42,5,43.6v7.2c0,1.6,1.57,2.9,3.5,2.9h42c1.93,0,3.5-1.3,3.5-2.9V43.6c0-1.6-1.57-2.9-3.5-2.9Z"/><path d="M20.5,49.7h-8a2.5,2.5,0,0,1,0-5h8a2.5,2.5,0,0,1,0,5Z"/><path d="M29.5,49.7h-1a2.5,2.5,0,0,1,0-5h1a2.5,2.5,0,0,1,0,5Z"/><path d="M38,49.7H37a2.5,2.5,0,0,1,0-5h1a2.5,2.5,0,0,1,0,5Z"/><path d="M46.5,49.7h-1a2.5,2.5,0,0,1,0-5h1a2.5,2.5,0,0,1,0,5Z"/><path d="M15.6,40.7a2.5,2.5,0,0,1-2.5-2.5V22.5a2.5,2.5,0,0,1,5,0V38.2A2.5,2.5,0,0,1,15.6,40.7Z"/></g></g></g></svg>