<svg xmlns="http://www.w3.org/2000/svg" viewBox="0 0 59 21"><title>ruler</title><g id="Layer_2" data-name="Layer 2"><g id="Layer_1-2" data-name="Layer 1"><g id="ruler"><path d="M56.5,21H2.5A2.5,2.5,0,0,1,0,18.5V2.5A2.5,2.5,0,0,1,2.5,0h54A2.5,2.5,0,0,1,59,2.5v16A2.5,2.5,0,0,1,56.5,21ZM5,16H54V5H5Z"/><path d="M16,21a2.5,2.5,0,0,1-2.5-2.5v-8a2.5,2.5,0,0,1,5,0v8A2.5,2.5,0,0,1,16,21Z"/><path d="M29.5,21A2.5,2.5,0,0,1,27,18.5v-8a2.5,2.5,0,0,1,5,0v8A2.5,2.5,0,0,1,29.5,21Z"/><path d="M43,21a2.5,2.5,0,0,1-2.5-2.5v-8a2.5,2.5,0,0,1,5,0v8A2.5,2.5,0,0,1,43,21Z"/></g></g></g></svg>