<svg xmlns="http://www.w3.org/2000/svg" viewBox="0 0 59 59"><title>satellite</title><g id="Layer_2" data-name="Layer 2"><g id="Layer_1-2" data-name="Layer 1"><g id="satellite"><path d="M38.29,37.37A16.67,16.67,0,0,1,26.51,8.92a2.56,2.56,0,0,1,3.53,0l20,20a2.47,2.47,0,0,1,0,3.53A16.63,16.63,0,0,1,38.29,37.37Zm-9.83-23A11.68,11.68,0,0,0,44.59,30.54Z"/><path d="M56.5,16.27a2.5,2.5,0,0,1-2.5-2.5A8.79,8.79,0,0,0,45.23,5a2.5,2.5,0,0,1,0-5A13.79,13.79,0,0,1,59,13.77,2.5,2.5,0,0,1,56.5,16.27Z"/><path d="M49.8,18.47A2.5,2.5,0,0,1,47.3,16,4.27,4.27,0,0,0,43,11.7a2.5,2.5,0,0,1,0-5A9.28,9.28,0,0,1,52.3,16,2.5,2.5,0,0,1,49.8,18.47Z"/><path d="M16.4,53.65a6,6,0,0,1-4.27-1.77l-5-5a6,6,0,0,1,0-8.54L22.84,22.6a2.5,2.5,0,0,1,3.53,3.54L10.65,41.86a1.06,1.06,0,0,0,0,1.48l5,5a1.06,1.06,0,0,0,1.48,0L32.86,32.63a2.5,2.5,0,0,1,3.54,3.53L20.67,51.88A6,6,0,0,1,16.4,53.65Z"/><path d="M8.13,31.21A2.5,2.5,0,0,1,6.36,27l6.26-6.27a2.5,2.5,0,1,1,3.54,3.54L9.89,30.48A2.45,2.45,0,0,1,8.13,31.21Z"/><path d="M30.29,53.37a2.5,2.5,0,0,1-1.77-4.26l6.26-6.27a2.5,2.5,0,0,1,3.54,3.54l-6.27,6.26A2.48,2.48,0,0,1,30.29,53.37Z"/><path d="M35.91,59a2.49,2.49,0,0,1-1.77-.73,2.52,2.52,0,0,1,0-3.54l6.27-6.26A2.5,2.5,0,0,1,43.94,52l-6.26,6.27A2.49,2.49,0,0,1,35.91,59Z"/><path d="M2.5,25.59A2.5,2.5,0,0,1,.73,21.32L7,15.06a2.5,2.5,0,1,1,3.53,3.53L4.27,24.86A2.53,2.53,0,0,1,2.5,25.59Z"/><path d="M38.29,23.2a2.5,2.5,0,0,1-1.76-4.26l3.13-3.13a2.5,2.5,0,1,1,3.53,3.53l-3.13,3.13A2.49,2.49,0,0,1,38.29,23.2Z"/></g></g></g></svg>