<svg xmlns="http://www.w3.org/2000/svg" viewBox="0 0 59 59"><title>save alt</title><g id="Layer_2" data-name="Layer 2"><g id="Layer_1-2" data-name="Layer 1"><g id="save_alt" data-name="save alt"><path d="M56.5,59H2.5A2.5,2.5,0,0,1,0,56.5v-16a2.5,2.5,0,0,1,5,0V54H54V40.5a2.5,2.5,0,0,1,5,0v16A2.5,2.5,0,0,1,56.5,59Z"/><path d="M29.5,39A2.5,2.5,0,0,1,27,36.5V2.5a2.5,2.5,0,0,1,5,0v34A2.5,2.5,0,0,1,29.5,39Z"/><path d="M29.5,39a2.49,2.49,0,0,1-1.77-.73l-13-13a2.5,2.5,0,0,1,3.54-3.54L29.5,33,40.73,21.73a2.5,2.5,0,0,1,3.54,3.54l-13,13A2.49,2.49,0,0,1,29.5,39Z"/></g></g></g></svg>