<svg xmlns="http://www.w3.org/2000/svg" viewBox="0 0 59 45"><title>scan</title><g id="Layer_2" data-name="Layer 2"><g id="Layer_1-2" data-name="Layer 1"><g id="scan"><path d="M56.5,15A2.5,2.5,0,0,1,54,12.5V5H46.5a2.5,2.5,0,0,1,0-5h10A2.5,2.5,0,0,1,59,2.5v10A2.5,2.5,0,0,1,56.5,15Z"/><path d="M2.5,15A2.5,2.5,0,0,1,0,12.5V2.5A2.5,2.5,0,0,1,2.5,0h10a2.5,2.5,0,0,1,0,5H5v7.5A2.5,2.5,0,0,1,2.5,15Z"/><path d="M56.5,45h-10a2.5,2.5,0,0,1,0-5H54V32.5a2.5,2.5,0,0,1,5,0v10A2.5,2.5,0,0,1,56.5,45Z"/><path d="M12.5,45H2.5A2.5,2.5,0,0,1,0,42.5v-10a2.5,2.5,0,0,1,5,0V40h7.5a2.5,2.5,0,0,1,0,5Z"/><path d="M20.5,35A2.5,2.5,0,0,1,18,32.5v-20a2.5,2.5,0,0,1,5,0v20A2.5,2.5,0,0,1,20.5,35Z"/><path d="M29.5,35A2.5,2.5,0,0,1,27,32.5v-2a2.5,2.5,0,0,1,5,0v2A2.5,2.5,0,0,1,29.5,35Z"/><path d="M29.5,25A2.5,2.5,0,0,1,27,22.5v-10a2.5,2.5,0,0,1,5,0v10A2.5,2.5,0,0,1,29.5,25Z"/><path d="M11.5,35A2.5,2.5,0,0,1,9,32.5v-2a2.5,2.5,0,0,1,5,0v2A2.5,2.5,0,0,1,11.5,35Z"/><path d="M11.5,25A2.5,2.5,0,0,1,9,22.5v-10a2.5,2.5,0,0,1,5,0v10A2.5,2.5,0,0,1,11.5,25Z"/><path d="M38.5,35A2.5,2.5,0,0,1,36,32.5v-20a2.5,2.5,0,0,1,5,0v20A2.5,2.5,0,0,1,38.5,35Z"/><path d="M47.5,35A2.5,2.5,0,0,1,45,32.5v-20a2.5,2.5,0,0,1,5,0v20A2.5,2.5,0,0,1,47.5,35Z"/></g></g></g></svg>