<svg xmlns="http://www.w3.org/2000/svg" viewBox="0 0 57.77 59"><title>school</title><g id="Layer_2" data-name="Layer 2"><g id="Layer_1-2" data-name="Layer 1"><g id="school"><path d="M51.36,59H6.41a2.5,2.5,0,0,1-2.5-2.5V32.05a2.5,2.5,0,0,1,5,0V54h40v-22a2.5,2.5,0,0,1,5,0V56.5A2.5,2.5,0,0,1,51.36,59Z"/><path d="M34.35,59a2.5,2.5,0,0,1-2.5-2.5V48.86a3,3,0,0,0-5.93,0V56.5a2.5,2.5,0,0,1-5,0V48.86a8,8,0,0,1,15.93,0V56.5A2.5,2.5,0,0,1,34.35,59Z"/><path d="M55.27,34.55H39.87a2.49,2.49,0,0,1-2-1l-9-12.16-9,12.16a2.52,2.52,0,0,1-2,1H2.5a2.5,2.5,0,0,1-2-4L6.4,22.3a2.5,2.5,0,0,1,2-1.05H22.76l4.11-5.57a2.5,2.5,0,0,1,4,0L35,21.25H49.34a2.5,2.5,0,0,1,2,1.05l5.93,8.29a2.5,2.5,0,0,1-2,4Zm-14.14-5h9.28l-2.36-3.3H38.7Zm-33.77,0h9.28l2.43-3.3H9.72Z"/><path d="M28.89,19.66a2.49,2.49,0,0,1-2.5-2.5V2.5a2.5,2.5,0,0,1,5,0V17.16A2.5,2.5,0,0,1,28.89,19.66Z"/><path d="M42.78,13.47H28.89a2.5,2.5,0,0,1,0-5h8.89l-.18-.23a2.51,2.51,0,0,1,0-3L37.78,5H28.89a2.5,2.5,0,0,1,0-5H42.78a2.5,2.5,0,0,1,2,4L42.73,6.74l2.05,2.73a2.5,2.5,0,0,1-2,4Z"/></g></g></g></svg>