<svg xmlns="http://www.w3.org/2000/svg" viewBox="0 0 59 42.77"><title>scissors</title><g id="Layer_2" data-name="Layer 2"><g id="Layer_1-2" data-name="Layer 1"><g id="scissors"><path d="M15.92,31.58a2.51,2.51,0,0,1-1.31-4.64L55.2,2A2.5,2.5,0,0,1,57.81,6.3L17.22,31.21A2.47,2.47,0,0,1,15.92,31.58Z"/><path d="M28.46,23.88a1.94,1.94,0,0,1-.34,0A2.49,2.49,0,0,1,26,21.05C27.09,12.75,30.72,6.5,36.47,3s13-3.93,20.86-1.17a2.5,2.5,0,0,1-1.65,4.72c-6.44-2.25-12.18-2-16.6.71S31.84,15,30.93,21.72A2.5,2.5,0,0,1,28.46,23.88Z"/><path d="M9.76,42.61a9.36,9.36,0,0,1-2.28-.28A9.74,9.74,0,1,1,18.05,27.77h0A9.76,9.76,0,0,1,9.76,42.61Zm0-14.49a4.74,4.74,0,0,0-1.1,9.35,4.65,4.65,0,0,0,3.58-.57,4.73,4.73,0,0,0,1.57-6.52h0a4.76,4.76,0,0,0-2.94-2.13A4.67,4.67,0,0,0,9.74,28.12Z"/><path d="M56.5,41.09a2.44,2.44,0,0,1-1.3-.37L14.61,15.82a2.5,2.5,0,0,1,2.61-4.26l40.59,24.9a2.5,2.5,0,0,1-1.31,4.63Z"/><path d="M47.41,42.77a20.63,20.63,0,0,1-10.94-3C30.72,36.26,27.09,30,26,21.72a2.5,2.5,0,1,1,4.95-.67c.91,6.76,3.73,11.76,8.15,14.48s10.16,3,16.6.7A2.5,2.5,0,0,1,57.33,41,30.15,30.15,0,0,1,47.41,42.77Z"/><path d="M9.73,19.65A9.74,9.74,0,1,1,18.05,15h0a9.7,9.7,0,0,1-6,4.38A9.86,9.86,0,0,1,9.73,19.65Zm0-14.49a5.25,5.25,0,0,0-1.11.13A4.75,4.75,0,0,0,7.26,14a4.77,4.77,0,0,0,6.53-1.57h0a4.75,4.75,0,0,0-4-7.22Z"/></g></g></g></svg>