<svg xmlns="http://www.w3.org/2000/svg" viewBox="0 0 59 59"><title>screwdriver</title><g id="Layer_2" data-name="Layer 2"><g id="Layer_1-2" data-name="Layer 1"><g id="screwdriver"><path d="M27.93,33.56a2.5,2.5,0,0,1-1.77-4.26L42.92,12.54a2.5,2.5,0,0,1,3.53,3.54L29.7,32.83A2.49,2.49,0,0,1,27.93,33.56Z"/><path d="M49.52,21.64a2.51,2.51,0,0,1-1.77-.73l-9.66-9.67a2.5,2.5,0,0,1-.72-2.08,2.53,2.53,0,0,1,1.21-1.84l11.81-7a2.51,2.51,0,0,1,3,.38l4.83,4.83a2.5,2.5,0,0,1,.39,3l-7,11.81a2.49,2.49,0,0,1-1.84,1.21A1.62,1.62,0,0,1,49.52,21.64ZM43.9,10,49,15.09l4.35-7.36L51.27,5.64Z"/><path d="M7.76,59A7.76,7.76,0,0,1,2.27,45.75L22.33,25.69a2.5,2.5,0,0,1,3.54,0l7.44,7.44a2.49,2.49,0,0,1,0,3.53L13.25,56.73A7.76,7.76,0,0,1,7.76,59ZM24.1,31,5.8,49.28a2.76,2.76,0,0,0,3.91,3.91L28,34.9Z"/></g></g></g></svg>