<svg xmlns="http://www.w3.org/2000/svg" viewBox="0 0 45 59"><title>sd card</title><g id="Layer_2" data-name="Layer 2"><g id="Layer_1-2" data-name="Layer 1"><g id="sd_card" data-name="sd card"><path d="M36.5,59H8.5A8.51,8.51,0,0,1,0,50.5v-36a2.48,2.48,0,0,1,.66-1.69l11-12A2.48,2.48,0,0,1,13.5,0h23A8.51,8.51,0,0,1,45,8.5v42A8.51,8.51,0,0,1,36.5,59ZM5,15.47v35A3.5,3.5,0,0,0,8.5,54h28A3.5,3.5,0,0,0,40,50.5V8.5A3.5,3.5,0,0,0,36.5,5H14.6Z"/><path d="M32.5,22a2.5,2.5,0,0,1-2.5-2.5v-5a2.5,2.5,0,0,1,5,0v5A2.5,2.5,0,0,1,32.5,22Z"/><path d="M23.5,22a2.5,2.5,0,0,1-2.5-2.5v-5a2.5,2.5,0,0,1,5,0v5A2.5,2.5,0,0,1,23.5,22Z"/><path d="M14.5,22a2.5,2.5,0,0,1-2.5-2.5v-5a2.5,2.5,0,0,1,5,0v5A2.5,2.5,0,0,1,14.5,22Z"/></g></g></g></svg>