<svg xmlns="http://www.w3.org/2000/svg" viewBox="0 0 59 59"><title>send-2</title><g id="Layer_2" data-name="Layer 2"><g id="Layer_1-2" data-name="Layer 1"><g id="send-2"><path d="M31.51,59h-.26A4.7,4.7,0,0,1,27,55.77L21.07,37.93,3.23,32a4.73,4.73,0,0,1-.48-8.78h0L52.29.44a4.73,4.73,0,0,1,6.27,6.27L35.8,56.25A4.7,4.7,0,0,1,31.51,59Zm-26-31.54,18.37,6.12a2.49,2.49,0,0,1,1.58,1.58l6.12,18.37L53.71,5.29Zm-.63.28Z"/><path d="M23.05,38.45a2.49,2.49,0,0,1-1.77-.73,2.52,2.52,0,0,1,0-3.54l4.88-4.87a2.5,2.5,0,0,1,3.53,3.53l-4.87,4.88A2.49,2.49,0,0,1,23.05,38.45Z"/></g></g></g></svg>