<svg xmlns="http://www.w3.org/2000/svg" viewBox="0 0 59 59"><title>sentiment satisfied</title><g id="Layer_2" data-name="Layer 2"><g id="Layer_1-2" data-name="Layer 1"><g id="sentiment_satisfied" data-name="sentiment satisfied"><path d="M29.5,59A29.5,29.5,0,1,1,59,29.5,29.53,29.53,0,0,1,29.5,59Zm0-54A24.5,24.5,0,1,0,54,29.5,24.53,24.53,0,0,0,29.5,5Z"/><path d="M29.5,45.66A16.85,16.85,0,0,1,17.76,41a2.5,2.5,0,1,1,3.48-3.59,12,12,0,0,0,16.52,0A2.5,2.5,0,1,1,41.24,41,16.85,16.85,0,0,1,29.5,45.66Z"/><path d="M44,26.09A2.47,2.47,0,0,1,42,25.17a3.3,3.3,0,0,0-4.5-.56,2.5,2.5,0,1,1-3-4A8.32,8.32,0,0,1,45.91,22a2.48,2.48,0,0,1-.37,3.51A2.46,2.46,0,0,1,44,26.09Z"/><path d="M15,26.09A2.49,2.49,0,0,1,13.09,22a8.31,8.31,0,0,1,11.38-1.4,2.5,2.5,0,1,1-3,4,3.3,3.3,0,0,0-4.5.56A2.47,2.47,0,0,1,15,26.09Z"/></g></g></g></svg>