<svg xmlns="http://www.w3.org/2000/svg" viewBox="0 0 51 59"><title>server lock</title><g id="Layer_2" data-name="Layer 2"><g id="Layer_1-2" data-name="Layer 1"><g id="server_lock" data-name="server lock"><path d="M43.76,59H29.54a7.24,7.24,0,0,1-7.24-7.24V38.13a4.87,4.87,0,0,1,4.87-4.87h19A4.87,4.87,0,0,1,51,38.13V51.76A7.25,7.25,0,0,1,43.76,59ZM27.3,38.26v13.5A2.24,2.24,0,0,0,29.54,54H43.76A2.24,2.24,0,0,0,46,51.76V38.26Z"/><path d="M43.76,38.26H29.54a2.5,2.5,0,0,1-2.5-2.5V31.61a9.61,9.61,0,1,1,19.22,0v4.15A2.5,2.5,0,0,1,43.76,38.26ZM32,33.26h9.22V31.61a4.61,4.61,0,1,0-9.22,0Z"/><path d="M36.65,51.89a2.5,2.5,0,0,1-2.5-2.5V44.65a2.5,2.5,0,0,1,5,0v4.74A2.5,2.5,0,0,1,36.65,51.89Z"/><path d="M37.83,47.15H35.46a2.5,2.5,0,0,1,0-5h2.37a2.5,2.5,0,0,1,0,5Z"/><path d="M23.23,23H6.5A6.51,6.51,0,0,1,0,16.5V6.5A6.51,6.51,0,0,1,6.5,0h38A6.51,6.51,0,0,1,51,6.5v10a6.54,6.54,0,0,1-1.38,4,2.5,2.5,0,0,1-3.94-3.09A1.43,1.43,0,0,0,46,16.5V6.5A1.5,1.5,0,0,0,44.5,5H6.5A1.5,1.5,0,0,0,5,6.5v10A1.5,1.5,0,0,0,6.5,18H23.23a2.5,2.5,0,1,1,0,5Z"/><path d="M15,41H6.5A6.51,6.51,0,0,1,0,34.5v-10A6.51,6.51,0,0,1,6.5,18H23.23a2.5,2.5,0,1,1,0,5H6.5A1.5,1.5,0,0,0,5,24.5v10A1.5,1.5,0,0,0,6.5,36H15a2.5,2.5,0,0,1,0,5Z"/><path d="M15,59H6.5A6.51,6.51,0,0,1,0,52.5v-10A6.51,6.51,0,0,1,6.5,36H15a2.5,2.5,0,0,1,0,5H6.5A1.5,1.5,0,0,0,5,42.5v10A1.5,1.5,0,0,0,6.5,54H15a2.5,2.5,0,0,1,0,5Z"/><path d="M15,14H12a2.5,2.5,0,0,1,0-5h3a2.5,2.5,0,0,1,0,5Z"/><path d="M39,14H25a2.5,2.5,0,0,1,0-5H39a2.5,2.5,0,0,1,0,5Z"/><path d="M15,32.35H12a2.5,2.5,0,0,1,0-5h3a2.5,2.5,0,0,1,0,5Z"/><path d="M15,50H12a2.5,2.5,0,0,1,0-5h3a2.5,2.5,0,0,1,0,5Z"/></g></g></g></svg>