<svg xmlns="http://www.w3.org/2000/svg" viewBox="0 0 51 59"><title>server</title><g id="Layer_2" data-name="Layer 2"><g id="Layer_1-2" data-name="Layer 1"><g id="server"><path d="M44.5,23H6.5A6.51,6.51,0,0,1,0,16.5V6.5A6.51,6.51,0,0,1,6.5,0h38A6.51,6.51,0,0,1,51,6.5v10A6.51,6.51,0,0,1,44.5,23ZM6.5,5A1.5,1.5,0,0,0,5,6.5v10A1.5,1.5,0,0,0,6.5,18h38A1.5,1.5,0,0,0,46,16.5V6.5A1.5,1.5,0,0,0,44.5,5Z"/><path d="M44.5,41H6.5A6.51,6.51,0,0,1,0,34.5v-10A6.51,6.51,0,0,1,6.5,18h38A6.51,6.51,0,0,1,51,24.5v10A6.51,6.51,0,0,1,44.5,41ZM6.5,23A1.5,1.5,0,0,0,5,24.5v10A1.5,1.5,0,0,0,6.5,36h38A1.5,1.5,0,0,0,46,34.5v-10A1.5,1.5,0,0,0,44.5,23Z"/><path d="M44.5,59H6.5A6.51,6.51,0,0,1,0,52.5v-10A6.51,6.51,0,0,1,6.5,36h38A6.51,6.51,0,0,1,51,42.5v10A6.51,6.51,0,0,1,44.5,59ZM6.5,41A1.5,1.5,0,0,0,5,42.5v10A1.5,1.5,0,0,0,6.5,54h38A1.5,1.5,0,0,0,46,52.5v-10A1.5,1.5,0,0,0,44.5,41Z"/><path d="M15,14H12a2.5,2.5,0,0,1,0-5h3a2.5,2.5,0,0,1,0,5Z"/><path d="M39,14H25a2.5,2.5,0,0,1,0-5H39a2.5,2.5,0,0,1,0,5Z"/><path d="M15,32.35H12a2.5,2.5,0,0,1,0-5h3a2.5,2.5,0,0,1,0,5Z"/><path d="M39,32.35H25a2.5,2.5,0,0,1,0-5H39a2.5,2.5,0,0,1,0,5Z"/><path d="M15,50H12a2.5,2.5,0,0,1,0-5h3a2.5,2.5,0,0,1,0,5Z"/><path d="M39,50H25a2.5,2.5,0,0,1,0-5H39a2.5,2.5,0,0,1,0,5Z"/></g></g></g></svg>