<svg xmlns="http://www.w3.org/2000/svg" viewBox="0 0 59 59"><title>share</title><g id="Layer_2" data-name="Layer 2"><g id="Layer_1-2" data-name="Layer 1"><g id="share"><path d="M46.5,25A12.5,12.5,0,1,1,59,12.5,12.52,12.52,0,0,1,46.5,25Zm0-20A7.5,7.5,0,1,0,54,12.5,7.5,7.5,0,0,0,46.5,5Z"/><path d="M11.5,41A11.5,11.5,0,1,1,23,29.5,11.51,11.51,0,0,1,11.5,41Zm0-18A6.5,6.5,0,1,0,18,29.5,6.51,6.51,0,0,0,11.5,23Z"/><path d="M47.5,59A11.5,11.5,0,1,1,59,47.5,11.51,11.51,0,0,1,47.5,59Zm0-18A6.5,6.5,0,1,0,54,47.5,6.51,6.51,0,0,0,47.5,41Z"/><path d="M39.45,46a2.49,2.49,0,0,1-1.11-.27l-19.91-10a2.5,2.5,0,1,1,2.23-4.47l19.91,10A2.5,2.5,0,0,1,39.45,46Z"/><path d="M19.55,28a2.5,2.5,0,0,1-1.12-4.74l17.82-8.91a2.5,2.5,0,1,1,2.23,4.47L20.67,27.71A2.5,2.5,0,0,1,19.55,28Z"/></g></g></g></svg>