<svg xmlns="http://www.w3.org/2000/svg" viewBox="0 0 53.27 59"><title>ship</title><g id="Layer_2" data-name="Layer 2"><g id="Layer_1-2" data-name="Layer 1"><g id="ship"><path d="M37.56,59a9.52,9.52,0,0,1-6.79-2.82,4.62,4.62,0,0,0-6.52,0,9.61,9.61,0,0,1-13.59,0,4.64,4.64,0,0,0-6.44-.08A2.5,2.5,0,0,1,.78,52.48a9.54,9.54,0,0,1,13.41.17,4.61,4.61,0,0,0,6.52,0,9.61,9.61,0,0,1,13.59,0,4.61,4.61,0,0,0,6.52,0,9.59,9.59,0,0,1,11-1.82,2.5,2.5,0,1,1-2.21,4.48,4.61,4.61,0,0,0-5.3.87A9.55,9.55,0,0,1,37.56,59Z"/><path d="M37.56,50.24a9.55,9.55,0,0,1-6.79-2.81,4.61,4.61,0,0,0-6.52,0,9.62,9.62,0,0,1-13.59,0,4.64,4.64,0,0,0-6.44-.08A2.5,2.5,0,0,1,.78,43.72a9.55,9.55,0,0,1,13.41.17,4.61,4.61,0,0,0,6.52,0,9.63,9.63,0,0,1,13.59,0,4.61,4.61,0,0,0,6.52,0,9.62,9.62,0,0,1,11-1.82,2.5,2.5,0,1,1-2.21,4.48,4.61,4.61,0,0,0-5.3.88A9.58,9.58,0,0,1,37.56,50.24Z"/><path d="M44.51,31.37a2.5,2.5,0,0,1-2.5-2.5v-8.1L26.63,15,11.26,20.77v8.1a2.5,2.5,0,0,1-5,0V19a2.5,2.5,0,0,1,1.62-2.35L25.76,10a2.51,2.51,0,0,1,1.75,0l17.88,6.7A2.51,2.51,0,0,1,47,19v9.83A2.5,2.5,0,0,1,44.51,31.37Z"/><path d="M39.15,19.52a2.49,2.49,0,0,1-2.5-2.5V9.51l-10-4.29-10,4.29V17a2.5,2.5,0,1,1-5,0V7.86a2.51,2.51,0,0,1,1.52-2.3L25.65.2a2.5,2.5,0,0,1,2,0L40.13,5.56a2.51,2.51,0,0,1,1.52,2.3V17A2.49,2.49,0,0,1,39.15,19.52Z"/><path d="M44.51,45.78a2.51,2.51,0,0,1-2.41-3.17l3-10.86L26.63,24.83,8.2,31.75l3,10.86a2.5,2.5,0,1,1-4.82,1.32L2.77,30.87a2.49,2.49,0,0,1,1.53-3l21.46-8a2.51,2.51,0,0,1,1.75,0L49,27.87a2.5,2.5,0,0,1,1.54,3L46.92,43.93A2.51,2.51,0,0,1,44.51,45.78Z"/></g></g></g></svg>