<svg xmlns="http://www.w3.org/2000/svg" viewBox="0 0 59 54.17"><title>shopping cart-1</title><g id="Layer_2" data-name="Layer 2"><g id="Layer_1-2" data-name="Layer 1"><g id="shopping_cart-1" data-name="shopping cart-1"><path d="M42.6,38H23.31A10.52,10.52,0,0,1,13,29.52L10,14.14s0-.05,0-.08L9.21,9.9A5.49,5.49,0,0,0,4.92,5.56L2,5A2.5,2.5,0,0,1,3,.05L5.94.66A10.48,10.48,0,0,1,14.12,9l.42,2.18h42a2.5,2.5,0,0,1,2.06,1.08,2.47,2.47,0,0,1,.27,2.31L52.41,31.29A10.57,10.57,0,0,1,42.6,38ZM15.5,16.13l2.41,12.44A5.5,5.5,0,0,0,23.31,33H42.6a5.53,5.53,0,0,0,5.14-3.53l5.13-13.37Z"/><circle cx="42.32" cy="49.17" r="5"/><circle cx="22.68" cy="49.17" r="5"/></g></g></g></svg>