<svg xmlns="http://www.w3.org/2000/svg" viewBox="0 0 56.45 47.88"><title>shopping basket</title><g id="Layer_2" data-name="Layer 2"><g id="Layer_1-2" data-name="Layer 1"><g id="shopping_basket" data-name="shopping basket"><path d="M40.16,47.88H16.28a10.52,10.52,0,0,1-10.1-7.66L.25,19.13A6.48,6.48,0,0,1,6.5,10.88H49.94a6.5,6.5,0,0,1,6.26,8.25L50.27,40.22A10.54,10.54,0,0,1,40.16,47.88ZM6.5,15.88a1.48,1.48,0,0,0-1.19.59,1.45,1.45,0,0,0-.25,1.31L11,38.86a5.51,5.51,0,0,0,5.29,4H40.16a5.52,5.52,0,0,0,5.3-4l5.93-21.08a1.5,1.5,0,0,0-1.45-1.9Z"/><path d="M12.35,15.88a2.51,2.51,0,0,1-1.77-4.27L21.46.73A2.5,2.5,0,1,1,25,4.27L14.12,15.14A2.5,2.5,0,0,1,12.35,15.88Z"/><path d="M44.1,15.88a2.5,2.5,0,0,1-1.77-.74L31.46,4.27A2.5,2.5,0,0,1,35,.73L45.87,11.61a2.51,2.51,0,0,1-1.77,4.27Z"/><circle cx="28.22" cy="29.37" r="4"/></g></g></g></svg>