<svg xmlns="http://www.w3.org/2000/svg" viewBox="0 0 59 54.17"><title>shopping cart-2</title><g id="Layer_2" data-name="Layer 2"><g id="Layer_1-2" data-name="Layer 1"><g id="shopping_cart-2" data-name="shopping cart-2"><path d="M42.6,38H23.31A10.52,10.52,0,0,1,13,29.52L9.21,9.9A5.49,5.49,0,0,0,4.92,5.56L2,5A2.5,2.5,0,0,1,3,.05L5.94.66A10.48,10.48,0,0,1,14.12,9l3.79,19.62A5.5,5.5,0,0,0,23.31,33H42.6a5.53,5.53,0,0,0,5.14-3.53l6.43-16.77a2.5,2.5,0,1,1,4.66,1.79L52.41,31.29A10.57,10.57,0,0,1,42.6,38Z"/><circle cx="42.32" cy="49.17" r="5"/><circle cx="22.68" cy="49.17" r="5"/><path d="M33.56,21.14h0a2.51,2.51,0,0,1-1.77-.73l-9.61-9.62a2.5,2.5,0,0,1,3.53-3.53l7.85,7.85L47.93.73a2.5,2.5,0,1,1,3.54,3.54L35.33,20.41A2.51,2.51,0,0,1,33.56,21.14Z"/></g></g></g></svg>