<svg xmlns="http://www.w3.org/2000/svg" viewBox="0 0 59 54.5"><title>shop</title><g id="Layer_2" data-name="Layer 2"><g id="Layer_1-2" data-name="Layer 1"><g id="shop"><path d="M41,16.5A2.5,2.5,0,0,1,38.5,14a9,9,0,0,0-9-9,9.12,9.12,0,0,0-9,9,2.5,2.5,0,0,1-5,0,14,14,0,0,1,28,0A2.5,2.5,0,0,1,41,16.5Z"/><path d="M48.5,54.5h-38A10.51,10.51,0,0,1,0,44V22A10.51,10.51,0,0,1,10.5,11.5h38A10.51,10.51,0,0,1,59,22V44A10.51,10.51,0,0,1,48.5,54.5Zm-38-38A5.51,5.51,0,0,0,5,22V44a5.51,5.51,0,0,0,5.5,5.5h38A5.51,5.51,0,0,0,54,44V22a5.51,5.51,0,0,0-5.5-5.5Z"/><path d="M22.83,44.5a4,4,0,0,1-4-4v-15A4,4,0,0,1,24.78,22l13.35,7.51a4,4,0,0,1,0,7L24.78,44A4,4,0,0,1,22.83,44.5Zm1-17.28V38.78L34.11,33Z"/></g></g></g></svg>