<svg xmlns="http://www.w3.org/2000/svg" viewBox="0 0 45 59"><title>sim card</title><g id="Layer_2" data-name="Layer 2"><g id="Layer_1-2" data-name="Layer 1"><g id="sim_card" data-name="sim card"><path d="M36.5,59H8.5A8.51,8.51,0,0,1,0,50.5v-34a2.49,2.49,0,0,1,.67-1.7l13-14A2.48,2.48,0,0,1,15.5,0h21A8.51,8.51,0,0,1,45,8.5v42A8.51,8.51,0,0,1,36.5,59ZM5,17.48v33A3.5,3.5,0,0,0,8.5,54h28A3.5,3.5,0,0,0,40,50.5V8.5A3.5,3.5,0,0,0,36.5,5H16.59Z"/><path d="M32.5,49h-20A2.5,2.5,0,0,1,10,46.5v-20A2.5,2.5,0,0,1,12.5,24h20A2.5,2.5,0,0,1,35,26.5v20A2.5,2.5,0,0,1,32.5,49ZM15,44H30V29H15Z"/><path d="M32.5,39h-20a2.5,2.5,0,0,1,0-5h20a2.5,2.5,0,0,1,0,5Z"/><path d="M22.5,39A2.5,2.5,0,0,1,20,36.5v-10a2.5,2.5,0,0,1,5,0v10A2.5,2.5,0,0,1,22.5,39Z"/></g></g></g></svg>