<svg xmlns="http://www.w3.org/2000/svg" viewBox="0 0 58.96 59"><title>sketch</title><g id="Layer_2" data-name="Layer 2"><g id="Layer_1-2" data-name="Layer 1"><g id="sketch"><path d="M29.48,59a2.5,2.5,0,0,1-2.05-1.07L.45,19.14A2.5,2.5,0,0,1,2.5,15.21h54a2.5,2.5,0,0,1,2,3.93l-27,38.79A2.49,2.49,0,0,1,29.48,59ZM7.28,20.21l22.2,31.91,22.2-31.91Z"/><path d="M56.46,20.21a2.49,2.49,0,0,1-2.11-1.16L46.64,6.85,29.48,5,12.32,6.85,4.61,19.05A2.5,2.5,0,1,1,.39,16.38L8.74,3.16A2.48,2.48,0,0,1,10.58,2L29.21,0h.54L48.38,2a2.52,2.52,0,0,1,1.85,1.15l8.34,13.22a2.49,2.49,0,0,1-2.11,3.83Z"/><path d="M17.93,20.21h-.2a2.48,2.48,0,0,1-2-1.31L8.65,5.68a2.5,2.5,0,0,1,4.4-2.36l5.24,9.78L27.49,1a2.5,2.5,0,1,1,4,3L19.92,19.22A2.48,2.48,0,0,1,17.93,20.21Z"/><path d="M41,20.21a2.48,2.48,0,0,1-2-1L27.49,4a2.5,2.5,0,0,1,4-3l9.2,12.11,5.24-9.78a2.5,2.5,0,0,1,4.41,2.36L43.23,18.89a2.47,2.47,0,0,1-2,1.31Z"/><path d="M29.48,59a2.51,2.51,0,0,1-2.4-1.79L15.53,18.43A2.5,2.5,0,0,1,20.33,17l9.15,30.74L38.64,17a2.5,2.5,0,0,1,4.79,1.43L31.88,57.21A2.51,2.51,0,0,1,29.48,59Z"/></g></g></g></svg>