<svg xmlns="http://www.w3.org/2000/svg" viewBox="0 0 51 59"><title>skip next</title><g id="Layer_2" data-name="Layer 2"><g id="Layer_1-2" data-name="Layer 1"><g id="skip_next" data-name="skip next"><path d="M6.42,55.71a6.43,6.43,0,0,1-3.24-.89A6.38,6.38,0,0,1,0,49.27V9.73a6.42,6.42,0,0,1,9.57-5.6L44.73,23.9a6.43,6.43,0,0,1,0,11.2L9.57,54.87A6.38,6.38,0,0,1,6.42,55.71Zm0-47.41A1.44,1.44,0,0,0,5,9.73V49.27a1.42,1.42,0,0,0,2.12,1.24L42.27,30.74a1.42,1.42,0,0,0,0-2.48L7.12,8.49A1.39,1.39,0,0,0,6.43,8.3Z"/><path d="M48.5,59A2.5,2.5,0,0,1,46,56.5V2.5a2.5,2.5,0,0,1,5,0v54A2.5,2.5,0,0,1,48.5,59Z"/></g></g></g></svg>