<svg xmlns="http://www.w3.org/2000/svg" viewBox="0 0 51 59"><title>skip previous</title><g id="Layer_2" data-name="Layer 2"><g id="Layer_1-2" data-name="Layer 1"><g id="skip_previous" data-name="skip previous"><path d="M44.58,55.71a6.38,6.38,0,0,1-3.15-.84L6.27,35.1a6.43,6.43,0,0,1,0-11.2L41.43,4.13A6.42,6.42,0,0,1,51,9.73V49.27a6.45,6.45,0,0,1-6.42,6.44Zm0-47.41a1.39,1.39,0,0,0-.69.19L8.73,28.26a1.42,1.42,0,0,0,0,2.48L43.88,50.51A1.42,1.42,0,0,0,46,49.27V9.73A1.44,1.44,0,0,0,44.57,8.3Z"/><path d="M2.5,59A2.5,2.5,0,0,1,0,56.5V2.5a2.5,2.5,0,0,1,5,0v54A2.5,2.5,0,0,1,2.5,59Z"/></g></g></g></svg>