<svg xmlns="http://www.w3.org/2000/svg" viewBox="0 0 59 52.14"><title>skype</title><g id="Layer_2" data-name="Layer 2"><g id="Layer_1-2" data-name="Layer 1"><g id="skype"><path d="M29.5,52.14A26.11,26.11,0,0,1,3.43,26.07a4.45,4.45,0,0,0-.78-2.65A14,14,0,0,1,13,1.24a14,14,0,0,1,4.78.49,4.43,4.43,0,0,0,2.73-.15,26.09,26.09,0,0,1,35,24.49,4.45,4.45,0,0,0,.78,2.65A14,14,0,0,1,41.19,50.41a4.5,4.5,0,0,0-2.73.14A25.75,25.75,0,0,1,29.5,52.14ZM14,6.21c-.21,0-.42,0-.64,0A9.12,9.12,0,0,0,5,14.74,9,9,0,0,0,6.7,20.49a9.32,9.32,0,0,1,1.73,5.56A21.08,21.08,0,0,0,36.74,45.86a9.42,9.42,0,0,1,5.81-.26,8.86,8.86,0,0,0,3.08.31A9.12,9.12,0,0,0,54,37.4a8.94,8.94,0,0,0-1.69-5.75h0a9.34,9.34,0,0,1-1.73-5.56A21.08,21.08,0,0,0,22.26,6.28a9.41,9.41,0,0,1-5.81.26A9.09,9.09,0,0,0,14,6.21Z"/><path d="M30.17,22.68c3.71.88,9.31,2.21,9.31,8.38a6.73,6.73,0,0,1-4.21,6.53,15.44,15.44,0,0,1-6,.95c-5.81,0-9.48-4.52-9.64-4.72a2.77,2.77,0,0,1,4.33-3.44A8.2,8.2,0,0,0,29.24,33c3.75.12,4.6-1,4.71-1.95.14-1.16-.9-2-5.06-3C25.37,27.22,20,26,20,20.27c0-1.77.72-7.54,10-7.54a12.48,12.48,0,0,1,9.44,4.8A2.76,2.76,0,0,1,35,20.82a8.3,8.3,0,0,0-5-2.56c-2.24-.22-4.45.59-4.45,1.79S26.21,21.73,30.17,22.68Z"/></g></g></g></svg>