<svg xmlns="http://www.w3.org/2000/svg" viewBox="0 0 59 47.88"><title>smoking</title><g id="Layer_2" data-name="Layer 2"><g id="Layer_1-2" data-name="Layer 1"><g id="smoking"><path d="M56.5,47.88H2.5A2.5,2.5,0,0,1,0,45.38v-10a2.5,2.5,0,0,1,2.5-2.5h54a2.5,2.5,0,0,1,2.5,2.5v10A2.5,2.5,0,0,1,56.5,47.88ZM5,42.88H54v-5H5Z"/><path d="M15,47.88a2.5,2.5,0,0,1-2.5-2.5v-10a2.5,2.5,0,0,1,5,0v10A2.5,2.5,0,0,1,15,47.88Z"/><path d="M46,47.88a2.5,2.5,0,0,1-2.5-2.5v-10a2.5,2.5,0,1,1,5,0v10A2.5,2.5,0,0,1,46,47.88Z"/><path d="M43.69,28a2.49,2.49,0,0,1-1.77-.73,10.65,10.65,0,0,1,0-15,5.63,5.63,0,0,0,0-8A2.5,2.5,0,1,1,45.46.73a10.65,10.65,0,0,1,0,15,5.63,5.63,0,0,0,0,8,2.52,2.52,0,0,1,0,3.54A2.49,2.49,0,0,1,43.69,28Z"/><path d="M54.12,28a2.49,2.49,0,0,1-1.77-.73,10.65,10.65,0,0,1,0-15,5.63,5.63,0,0,0,0-8A2.5,2.5,0,0,1,55.89.73a10.66,10.66,0,0,1,0,15,5.63,5.63,0,0,0,0,8,2.52,2.52,0,0,1,0,3.54A2.49,2.49,0,0,1,54.12,28Z"/></g></g></g></svg>