<svg xmlns="http://www.w3.org/2000/svg" viewBox="0 0 59 55.77"><title>snapchat</title><g id="Layer_2" data-name="Layer 2"><g id="Layer_1-2" data-name="Layer 1"><g id="snapchat"><path d="M29.83,55.77h-.66c-4.14,0-6.89-1.94-8.9-3.37a8.2,8.2,0,0,0-2.75-1.53,10.23,10.23,0,0,0-1.62-.14,11,11,0,0,0-2.35.28,9.31,9.31,0,0,1-1.73.22A3.87,3.87,0,0,1,8,48.37c-.1-.33-.18-.64-.25-.95a19.5,19.5,0,0,1-4.32-1.3A5.75,5.75,0,0,1,.35,43.31l0-.05A3.91,3.91,0,0,1,0,41.88,3.75,3.75,0,0,1,3.15,38a9.82,9.82,0,0,0,3.66-1.43,12.68,12.68,0,0,0,2.74-2.44,15.63,15.63,0,0,0,2.27-3.47c-.36-.15-.8-.29-1-.36s-.69-.22-.95-.33a9,9,0,0,1-2.79-1.63,4.53,4.53,0,0,1-1.53-4.21,4.65,4.65,0,0,1,2.33-3.16,5.49,5.49,0,0,1,4.41-.55c-.19-3.53-.22-7.46,1-10.23a17.42,17.42,0,0,1,3.85-5.53,16.24,16.24,0,0,1,4.65-3.08A18.28,18.28,0,0,1,29,0H30a18.32,18.32,0,0,1,7.17,1.51,16.07,16.07,0,0,1,4.67,3.08,17.31,17.31,0,0,1,3.87,5.54c1.22,2.75,1.2,6.64,1,10.14a5.2,5.2,0,0,1,1.4-.18,5.56,5.56,0,0,1,2.07.39,4.75,4.75,0,0,1,3.34,4.3A4.56,4.56,0,0,1,52.2,28a8.32,8.32,0,0,1-3,1.88c-.28.11-.61.22-1,.33s-.67.21-1,.36c.38.82,3.19,6.43,8.67,7.34A3.75,3.75,0,0,1,59,41.87a3.92,3.92,0,0,1-.33,1.4,5.72,5.72,0,0,1-3.07,2.85,19.18,19.18,0,0,1-4.32,1.29c-.07.31-.15.62-.25.94a3.86,3.86,0,0,1-3.78,2.83s-.11,0-.12,0a8.61,8.61,0,0,1-1.67-.2,11.76,11.76,0,0,0-2.35-.25,10,10,0,0,0-1.61.14,7.82,7.82,0,0,0-2.71,1.5l-.05,0C36.72,53.83,34,55.77,29.83,55.77Zm-.39-5h.39c2.53,0,4.21-1.17,6-2.42l.05,0a11.68,11.68,0,0,1,4.82-2.38,14.33,14.33,0,0,1,2.43-.21,16.77,16.77,0,0,1,3.31.35h0c0-.07,0-.15.05-.22A7.17,7.17,0,0,1,47,44.07a2.51,2.51,0,0,1,1.83-1.31,28.31,28.31,0,0,0,3.25-.69c-6.51-2.58-9.45-9.28-9.58-9.6a4.51,4.51,0,0,1-.29-3.86,5.42,5.42,0,0,1,3.23-2.71l-.55.05h-.25A4.59,4.59,0,0,1,43,25.57a2.49,2.49,0,0,1-1.46-2.43l.07-1.21c.2-3.22.48-7.62-.48-9.76a12.24,12.24,0,0,0-2.74-3.95,11.18,11.18,0,0,0-3.24-2.13A13.07,13.07,0,0,0,30,5H29A13.13,13.13,0,0,0,23.79,6.1a11.45,11.45,0,0,0-3.22,2.14,12.22,12.22,0,0,0-2.73,3.94c-1,2.14-.68,6.54-.48,9.75v0l.07,1.17A2.49,2.49,0,0,1,16,25.56a4.75,4.75,0,0,1-2.36.38,5.35,5.35,0,0,1,3.13,2.67,4.61,4.61,0,0,1-.3,3.91,20.45,20.45,0,0,1-3.11,4.82,17.23,17.23,0,0,1-3.82,3.37,14.72,14.72,0,0,1-2.64,1.37,26.64,26.64,0,0,0,3.25.68A2.5,2.5,0,0,1,12,44.07a6.61,6.61,0,0,1,.55,1.77l.06.26a16.77,16.77,0,0,1,3.34-.37,14.63,14.63,0,0,1,2.44.21,11.7,11.7,0,0,1,4.81,2.38c1.79,1.26,3.47,2.45,6,2.45h.27ZM55,42.88h0Z"/></g></g></g></svg>