<svg xmlns="http://www.w3.org/2000/svg" viewBox="0 0 59 48.31"><title>sofa</title><g id="Layer_2" data-name="Layer 2"><g id="Layer_1-2" data-name="Layer 1"><g id="sofa"><path d="M50.48,24.32a2.5,2.5,0,0,1-2.5-2.5V13.31a1.59,1.59,0,0,0-.54-1.16c-10.74-9.63-25.17-9.63-35.9,0A1.55,1.55,0,0,0,11,13.31v8.51a2.5,2.5,0,0,1-5,0V13.31A6.56,6.56,0,0,1,8.2,8.43c12.53-11.24,30-11.24,42.58,0A6.56,6.56,0,0,1,53,13.31v8.51A2.5,2.5,0,0,1,50.48,24.32Z"/><path d="M56.5,48.31h-12a2.49,2.49,0,0,1-2.5-2.5v-18a8.5,8.5,0,0,1,17,0v18A2.5,2.5,0,0,1,56.5,48.31Zm-9.49-5h7V27.81a3.5,3.5,0,0,0-7,0Z"/><path d="M14.49,48.31H2.5A2.5,2.5,0,0,1,0,45.81v-18a8.5,8.5,0,0,1,17,0v18A2.49,2.49,0,0,1,14.49,48.31ZM5,43.31h7V27.81a3.5,3.5,0,0,0-7,0Z"/><path d="M44.51,33.31h-30a2.5,2.5,0,1,1,0-5h30a2.5,2.5,0,1,1,0,5Z"/><path d="M44.51,42.88h-30a2.5,2.5,0,0,1,0-5h30a2.5,2.5,0,0,1,0,5Z"/></g></g></g></svg>