<svg xmlns="http://www.w3.org/2000/svg" viewBox="0 0 59 54"><title>speed</title><g id="Layer_2" data-name="Layer 2"><g id="Layer_1-2" data-name="Layer 1"><g id="speed"><path d="M45.15,54H13.85a2.55,2.55,0,0,1-1.46-.46,29.51,29.51,0,1,1,34.21,0A2.5,2.5,0,0,1,45.15,54ZM14.67,49H44.33a24.5,24.5,0,1,0-29.66,0Z"/><path d="M29.5,43a8.5,8.5,0,0,1-6-14.51,8.52,8.52,0,0,1,12,0,8.5,8.5,0,0,1,0,12h0A8.43,8.43,0,0,1,29.5,43Zm0-12A3.51,3.51,0,0,0,27,37,3.59,3.59,0,0,0,32,37h0a3.5,3.5,0,0,0-2.47-6Z"/><path d="M33.74,32.76A2.51,2.51,0,0,1,32,28.49L40.46,20A2.5,2.5,0,1,1,44,23.54L35.51,32A2.5,2.5,0,0,1,33.74,32.76Z"/></g></g></g></svg>