<svg xmlns="http://www.w3.org/2000/svg" viewBox="0 0 59 59"><title>square foot</title><g id="Layer_2" data-name="Layer 2"><g id="Layer_1-2" data-name="Layer 1"><g id="square_foot" data-name="square foot"><path d="M56.5,59H2.5A2.5,2.5,0,0,1,0,56.5V2.5A2.5,2.5,0,0,1,4.27.73l54,54A2.5,2.5,0,0,1,56.5,59ZM5,54H50.46L5,8.53Z"/><path d="M32.36,48H12.5A2.5,2.5,0,0,1,10,45.5V25.64a2.5,2.5,0,0,1,4.27-1.77L34.12,43.73A2.5,2.5,0,0,1,32.36,48ZM15,43H26.32L15,31.68Z"/><path d="M12.5,59A2.5,2.5,0,0,1,10,56.5v-4a2.5,2.5,0,0,1,5,0v4A2.5,2.5,0,0,1,12.5,59Z"/><path d="M21.92,59a2.5,2.5,0,0,1-2.5-2.5v-4a2.5,2.5,0,0,1,5,0v4A2.5,2.5,0,0,1,21.92,59Z"/><path d="M31.33,59a2.5,2.5,0,0,1-2.5-2.5v-4a2.5,2.5,0,0,1,5,0v4A2.5,2.5,0,0,1,31.33,59Z"/><path d="M40.75,59a2.5,2.5,0,0,1-2.5-2.5v-4a2.5,2.5,0,0,1,5,0v4A2.5,2.5,0,0,1,40.75,59Z"/></g></g></g></svg>