<svg xmlns="http://www.w3.org/2000/svg" viewBox="0 0 57.91 59"><title>store</title><g id="Layer_2" data-name="Layer 2"><g id="Layer_1-2" data-name="Layer 1"><g id="store"><path d="M22.34,26.84a9.12,9.12,0,0,1-9.11-9.12V14.05a2.5,2.5,0,0,1,5,0v3.67a4.11,4.11,0,1,0,8.22,0V14.05a2.5,2.5,0,0,1,5,0v3.67A9.12,9.12,0,0,1,22.34,26.84Z"/><path d="M35.57,26.84a9.13,9.13,0,0,1-9.12-9.12V14.05a2.5,2.5,0,0,1,5,0v3.67a4.12,4.12,0,1,0,8.23,0V14.05a2.5,2.5,0,0,1,5,0v3.67A9.13,9.13,0,0,1,35.57,26.84Z"/><path d="M48.79,26.84a9.13,9.13,0,0,1-9.11-9.12V14.05a2.5,2.5,0,0,1,5,0v3.67a4.12,4.12,0,1,0,8.23,0V16.18a5.35,5.35,0,0,0-.74-2.7L48.74,7.63A5.36,5.36,0,0,0,44.14,5H13.77a5.35,5.35,0,0,0-4.6,2.63L5.73,13.48A5.34,5.34,0,0,0,5,16.18v1.54a4.12,4.12,0,1,0,8.23,0V14.05a2.5,2.5,0,0,1,5,0v3.67A9.12,9.12,0,1,1,0,17.72V16.18A10.32,10.32,0,0,1,1.42,11L4.86,5.1A10.37,10.37,0,0,1,13.77,0H44.14a10.39,10.39,0,0,1,8.91,5.1L56.48,11a10.33,10.33,0,0,1,1.43,5.23v1.54A9.13,9.13,0,0,1,48.79,26.84Z"/><path d="M42.67,59H15.24A10.35,10.35,0,0,1,4.9,48.66V24.34a2.5,2.5,0,0,1,5,0V48.66A5.34,5.34,0,0,0,15.24,54H42.67A5.35,5.35,0,0,0,48,48.66V24.34a2.5,2.5,0,1,1,5,0V48.66A10.35,10.35,0,0,1,42.67,59Z"/><path d="M36,50a2.5,2.5,0,0,1-2.5-2.5V40.65a4.5,4.5,0,0,0-9,0V47.5a2.5,2.5,0,0,1-5,0V40.65a9.5,9.5,0,0,1,19,0V47.5A2.5,2.5,0,0,1,36,50Z"/></g></g></g></svg>