<svg xmlns="http://www.w3.org/2000/svg" viewBox="0 0 37 59"><title>subdirectory arrow left</title><g id="Layer_2" data-name="Layer 2"><g id="Layer_1-2" data-name="Layer 1"><g id="subdirectory_arrow_left" data-name="subdirectory arrow left"><path d="M16.5,59a2.49,2.49,0,0,1-1.77-.73l-14-14a2.52,2.52,0,0,1,0-3.54l14-14a2.5,2.5,0,0,1,3.54,3.54L6,42.5,18.27,54.73a2.52,2.52,0,0,1,0,3.54A2.49,2.49,0,0,1,16.5,59Z"/><path d="M34.5,45H2.5a2.5,2.5,0,0,1,0-5H32V2.5a2.5,2.5,0,0,1,5,0v40A2.5,2.5,0,0,1,34.5,45Z"/></g></g></g></svg>