<svg xmlns="http://www.w3.org/2000/svg" viewBox="0 0 37 59"><title>subdirectory arrow right</title><g id="Layer_2" data-name="Layer 2"><g id="Layer_1-2" data-name="Layer 1"><g id="subdirectory_arrow_right" data-name="subdirectory arrow right"><path d="M20.5,59a2.49,2.49,0,0,1-1.77-.73,2.52,2.52,0,0,1,0-3.54L31,42.5,18.73,30.27a2.5,2.5,0,0,1,3.54-3.54l14,14a2.52,2.52,0,0,1,0,3.54l-14,14A2.49,2.49,0,0,1,20.5,59Z"/><path d="M34.5,45H2.5A2.5,2.5,0,0,1,0,42.5V2.5a2.5,2.5,0,0,1,5,0V40H34.5a2.5,2.5,0,0,1,0,5Z"/></g></g></g></svg>