<svg xmlns="http://www.w3.org/2000/svg" viewBox="0 0 59 59"><title>subscribe-3</title><g id="Layer_2" data-name="Layer 2"><g id="Layer_1-2" data-name="Layer 1"><g id="subscribe-3"><path d="M48.5,59h-38A10.51,10.51,0,0,1,0,48.5v-18A10.51,10.51,0,0,1,10.5,20h38A10.51,10.51,0,0,1,59,30.5v18A10.51,10.51,0,0,1,48.5,59Zm-38-34A5.51,5.51,0,0,0,5,30.5v18A5.51,5.51,0,0,0,10.5,54h38A5.51,5.51,0,0,0,54,48.5v-18A5.51,5.51,0,0,0,48.5,25Z"/><path d="M49.5,15H9.5a2.5,2.5,0,0,1,0-5h40a2.5,2.5,0,0,1,0,5Z"/><path d="M45.5,5h-32a2.5,2.5,0,0,1,0-5h32a2.5,2.5,0,0,1,0,5Z"/><path d="M27.08,47.21h0a2.51,2.51,0,0,1-1.77-.73l-5.58-5.59a2.5,2.5,0,1,1,3.54-3.53l3.81,3.81,8.65-8.65a2.5,2.5,0,0,1,3.54,3.54L28.85,46.48A2.51,2.51,0,0,1,27.08,47.21Z"/></g></g></g></svg>