<svg xmlns="http://www.w3.org/2000/svg" viewBox="0 0 59 59"><title>sunny</title><g id="Layer_2" data-name="Layer 2"><g id="Layer_1-2" data-name="Layer 1"><g id="sunny"><path d="M29.5,44A14.5,14.5,0,1,1,44,29.5,14.51,14.51,0,0,1,29.5,44Zm0-24A9.5,9.5,0,1,0,39,29.5,9.51,9.51,0,0,0,29.5,20Z"/><path d="M29.5,11A2.5,2.5,0,0,1,27,8.5v-6a2.5,2.5,0,0,1,5,0v6A2.5,2.5,0,0,1,29.5,11Z"/><path d="M29.5,59A2.5,2.5,0,0,1,27,56.5v-6a2.5,2.5,0,0,1,5,0v6A2.5,2.5,0,0,1,29.5,59Z"/><path d="M56.5,32h-6a2.5,2.5,0,0,1,0-5h6a2.5,2.5,0,0,1,0,5Z"/><path d="M8.5,32h-6a2.5,2.5,0,0,1,0-5h6a2.5,2.5,0,0,1,0,5Z"/><path d="M44.35,17.15a2.5,2.5,0,0,1-1.77-4.27l2.83-2.83A2.5,2.5,0,0,1,49,13.59l-2.83,2.83A2.49,2.49,0,0,1,44.35,17.15Z"/><path d="M11.82,49.68a2.5,2.5,0,0,1-1.77-4.27l2.83-2.83a2.5,2.5,0,1,1,3.54,3.54L13.59,49A2.53,2.53,0,0,1,11.82,49.68Z"/><path d="M14.65,17.15a2.49,2.49,0,0,1-1.77-.73l-2.83-2.83a2.5,2.5,0,0,1,3.54-3.54l2.83,2.83a2.5,2.5,0,0,1-1.77,4.27Z"/><path d="M47.18,49.68A2.53,2.53,0,0,1,45.41,49l-2.83-2.83a2.5,2.5,0,1,1,3.54-3.54L49,45.41a2.5,2.5,0,0,1-1.77,4.27Z"/></g></g></g></svg>