<svg xmlns="http://www.w3.org/2000/svg" viewBox="0 0 59 59"><title>swap vert</title><g id="Layer_2" data-name="Layer 2"><g id="Layer_1-2" data-name="Layer 1"><g id="swap_vert" data-name="swap vert"><path d="M14.5,59A2.5,2.5,0,0,1,12,56.5v-44a2.5,2.5,0,0,1,5,0v44A2.5,2.5,0,0,1,14.5,59Z"/><path d="M14.5,59a2.49,2.49,0,0,1-1.77-.73l-12-12a2.5,2.5,0,0,1,3.54-3.54L14.5,53,24.73,42.73a2.5,2.5,0,0,1,3.54,3.54l-12,12A2.49,2.49,0,0,1,14.5,59Z"/><path d="M44.5,49A2.5,2.5,0,0,1,42,46.5V2.5a2.5,2.5,0,0,1,5,0v44A2.5,2.5,0,0,1,44.5,49Z"/><path d="M56.5,17a2.49,2.49,0,0,1-1.77-.73L44.5,6,34.27,16.27a2.5,2.5,0,1,1-3.54-3.54l12-12a2.52,2.52,0,0,1,3.54,0l12,12a2.52,2.52,0,0,1,0,3.54A2.49,2.49,0,0,1,56.5,17Z"/></g></g></g></svg>