<svg xmlns="http://www.w3.org/2000/svg" viewBox="0 0 59 59"><title>swap horiz</title><g id="Layer_2" data-name="Layer 2"><g id="Layer_1-2" data-name="Layer 1"><g id="swap_horiz" data-name="swap horiz"><path d="M46.5,17H2.5a2.5,2.5,0,0,1,0-5h44a2.5,2.5,0,0,1,0,5Z"/><path d="M14.5,29a2.49,2.49,0,0,1-1.77-.73l-12-12a2.52,2.52,0,0,1,0-3.54l12-12a2.5,2.5,0,0,1,3.54,3.54L6,14.5,16.27,24.73a2.52,2.52,0,0,1,0,3.54A2.49,2.49,0,0,1,14.5,29Z"/><path d="M56.5,47h-44a2.5,2.5,0,0,1,0-5h44a2.5,2.5,0,0,1,0,5Z"/><path d="M44.5,59a2.49,2.49,0,0,1-1.77-.73,2.52,2.52,0,0,1,0-3.54L53,44.5,42.73,34.27a2.5,2.5,0,1,1,3.54-3.54l12,12a2.52,2.52,0,0,1,0,3.54l-12,12A2.49,2.49,0,0,1,44.5,59Z"/></g></g></g></svg>