<svg xmlns="http://www.w3.org/2000/svg" viewBox="0 0 59 59"><title>swift</title><g id="Layer_2" data-name="Layer 2"><g id="Layer_1-2" data-name="Layer 1"><g id="swift"><path d="M32.91,11.53c16.71,11.36,11.3,23.89,11.3,23.89S49,40.78,47,45.47c0,0-2-3.28-5.24-3.28s-5,3.28-11.4,3.28c-14.19,0-20.9-11.85-20.9-11.85C22.28,42,31,36.07,31,36.07c-5.76-3.34-18-19.34-18-19.34,10.67,9.09,15.28,11.48,15.28,11.48-2.75-2.27-10.47-13.4-10.47-13.4,6.18,6.26,18.45,15,18.45,15C39.74,20.14,32.91,11.53,32.91,11.53Z"/><path d="M48.5,59h-38A10.51,10.51,0,0,1,0,48.5v-38A10.51,10.51,0,0,1,10.5,0h38A10.51,10.51,0,0,1,59,10.5v38A10.51,10.51,0,0,1,48.5,59ZM10.5,5A5.51,5.51,0,0,0,5,10.5v38A5.51,5.51,0,0,0,10.5,54h38A5.51,5.51,0,0,0,54,48.5v-38A5.51,5.51,0,0,0,48.5,5Z"/></g></g></g></svg>