<svg xmlns="http://www.w3.org/2000/svg" viewBox="0 0 59 59"><title>swimming pool</title><g id="Layer_2" data-name="Layer 2"><g id="Layer_1-2" data-name="Layer 1"><g id="swimming_pool" data-name="swimming pool"><path d="M41.73,46.14a10.39,10.39,0,0,1-7.39-3.06,5.46,5.46,0,0,0-7.72,0,10.45,10.45,0,0,1-14.78,0A5.49,5.49,0,0,0,4.22,43,2.5,2.5,0,0,1,.78,39.35a10.4,10.4,0,0,1,14.59.19,5.46,5.46,0,0,0,7.72,0,10.45,10.45,0,0,1,14.78,0,5.46,5.46,0,0,0,7.72,0,10.44,10.44,0,0,1,12-2A2.5,2.5,0,0,1,55.4,42a5.45,5.45,0,0,0-6.28,1A10.39,10.39,0,0,1,41.73,46.14Z"/><path d="M41.73,59a10.41,10.41,0,0,1-7.39-3.06,5.46,5.46,0,0,0-7.72,0,10.47,10.47,0,0,1-14.78,0,5.49,5.49,0,0,0-7.62-.1A2.5,2.5,0,0,1,.78,52.22a10.39,10.39,0,0,1,14.59.18,5.46,5.46,0,0,0,7.72,0,10.47,10.47,0,0,1,14.78,0,5.46,5.46,0,0,0,7.72,0,10.44,10.44,0,0,1,12-2,2.5,2.5,0,0,1-2.22,4.48,5.45,5.45,0,0,0-6.27,1A10.45,10.45,0,0,1,41.73,59Z"/><path d="M46.5,44.54A2.5,2.5,0,0,1,44,42V7.5a7.5,7.5,0,0,1,15,0,2.5,2.5,0,0,1-5,0,2.5,2.5,0,0,0-5,0V42A2.5,2.5,0,0,1,46.5,44.54Z"/><path d="M29.5,41.55a2.5,2.5,0,0,1-2.5-2.5V7.5a7.5,7.5,0,0,1,15,0,2.5,2.5,0,0,1-5,0,2.5,2.5,0,0,0-5,0V39.05A2.5,2.5,0,0,1,29.5,41.55Z"/><path d="M46.5,22.21h-17a2.5,2.5,0,0,1,0-5h17a2.5,2.5,0,0,1,0,5Z"/><path d="M46.5,32.21h-17a2.5,2.5,0,0,1,0-5h17a2.5,2.5,0,0,1,0,5Z"/></g></g></g></svg>