<svg xmlns="http://www.w3.org/2000/svg" viewBox="0 0 51.99 59"><title>television</title><g id="Layer_2" data-name="Layer 2"><g id="Layer_1-2" data-name="Layer 1"><g id="television"><path d="M41.49,59h-31A10.51,10.51,0,0,1,0,48.5v-24A10.51,10.51,0,0,1,10.5,14h31A10.51,10.51,0,0,1,52,24.47v24A10.51,10.51,0,0,1,41.49,59Zm-31-40A5.51,5.51,0,0,0,5,24.47v24A5.51,5.51,0,0,0,10.5,54h31A5.51,5.51,0,0,0,47,48.5v-24a5.51,5.51,0,0,0-5.5-5.5Z"/><path d="M33.83,59a2.5,2.5,0,0,1-2.5-2.5v-40a2.5,2.5,0,0,1,5,0v40A2.5,2.5,0,0,1,33.83,59Z"/><path d="M26,19a2.49,2.49,0,0,1-1.77-.73L10.32,4.33A2.5,2.5,0,0,1,13.85.79L26,12.94,38.2.73a2.5,2.5,0,1,1,3.53,3.54l-14,14A2.48,2.48,0,0,1,26,19Z"/><path d="M42.58,30.72H40.84a2.5,2.5,0,0,1,0-5h1.74a2.5,2.5,0,0,1,0,5Z"/><path d="M42.58,39H40.84a2.5,2.5,0,0,1,0-5h1.74a2.5,2.5,0,0,1,0,5Z"/><path d="M42.58,47.25H40.84a2.5,2.5,0,0,1,0-5h1.74a2.5,2.5,0,0,1,0,5Z"/></g></g></g></svg>