<svg xmlns="http://www.w3.org/2000/svg" viewBox="0 0 49.29 59"><title>tent</title><g id="Layer_2" data-name="Layer 2"><g id="Layer_1-2" data-name="Layer 1"><g id="tent"><path d="M46.79,59h-6.7c-7.51,0-11.91-4.83-15.39-12.56C21.56,54,17.83,59,10.22,59H2.5A2.5,2.5,0,0,1,0,56.5V31.42a2.5,2.5,0,0,1,2.5-2.5c8.64,0,15.13-5.1,19.87-15.58a2.5,2.5,0,0,1,2.28-1.47h0a2.52,2.52,0,0,1,2.28,1.47c4.73,10.48,11.23,15.58,19.86,15.58a2.5,2.5,0,0,1,2.5,2.5V56.5A2.5,2.5,0,0,1,46.79,59ZM24.65,37h0A2.5,2.5,0,0,1,27,38.63C30.92,49.83,34.46,54,40.09,54h4.2V33.8C36.17,33,29.58,28.34,24.65,19.85,19.71,28.34,13.13,33,5,33.8V54h5.22c5.26,0,7.86-3.3,12.07-15.37A2.49,2.49,0,0,1,24.65,37Z"/><path d="M24.65,16.87a2.5,2.5,0,0,1-2.5-2.5V2.5a2.5,2.5,0,0,1,5,0V14.37A2.5,2.5,0,0,1,24.65,16.87Z"/><path d="M38.06,12.94H24.65a2.5,2.5,0,0,1,0-5H33A2.49,2.49,0,0,1,33,5H24.65a2.5,2.5,0,0,1,0-5H38.06a2.5,2.5,0,0,1,2,4L38.15,6.47,40,8.91a2.5,2.5,0,0,1-2,4Z"/></g></g></g></svg>