<svg xmlns="http://www.w3.org/2000/svg" viewBox="0 0 57.85 59"><title>ticket</title><g id="Layer_2" data-name="Layer 2"><g id="Layer_1-2" data-name="Layer 1"><g id="ticket"><path d="M34,59a2.5,2.5,0,0,1-2.5-2.5V23.22a2.5,2.5,0,0,1,5,0V56.5A2.5,2.5,0,0,1,34,59Z"/><path d="M55.35,51.17a11.31,11.31,0,0,1,0-22.62,2.5,2.5,0,1,1,0,5,6.31,6.31,0,0,0,0,12.62,2.5,2.5,0,1,1,0,5Z"/><path d="M2.5,51.17a2.5,2.5,0,0,1,0-5,6.31,6.31,0,0,0,0-12.62,2.5,2.5,0,1,1,0-5,11.31,11.31,0,0,1,0,22.62Z"/><path d="M55.35,33.55a2.5,2.5,0,0,1-2.5-2.5V25.72H5v5.33a2.5,2.5,0,0,1-5,0V23.22a2.5,2.5,0,0,1,2.5-2.5H55.35a2.49,2.49,0,0,1,2.5,2.5v7.83A2.49,2.49,0,0,1,55.35,33.55Z"/><path d="M55.35,59H2.5A2.5,2.5,0,0,1,0,56.5V48.67a2.5,2.5,0,0,1,5,0V54H52.85V48.67a2.5,2.5,0,0,1,5,0V56.5A2.49,2.49,0,0,1,55.35,59Z"/><path d="M36.75,25.72a2.51,2.51,0,0,1-2.3-1.52L29.2,11.82a2.5,2.5,0,1,1,4.6-2l5.25,12.38a2.5,2.5,0,0,1-1.32,3.28A2.42,2.42,0,0,1,36.75,25.72Z"/><path d="M50.7,25.73a2.48,2.48,0,0,1-2-1A11.28,11.28,0,0,1,53.24,7.41,2.5,2.5,0,0,1,55.19,12a6.31,6.31,0,0,0-3.34,8.27,6,6,0,0,0,.82,1.41,2.5,2.5,0,0,1-2,4Z"/><path d="M2.5,25.65a2.5,2.5,0,0,1-1-4.8L50.18.2a2.49,2.49,0,0,1,3.27,1.32l3.06,7.21a2.5,2.5,0,1,1-4.6,1.95l-2.08-4.9L3.48,25.45A2.42,2.42,0,0,1,2.5,25.65Z"/></g></g></g></svg>