<svg xmlns="http://www.w3.org/2000/svg" viewBox="0 0 58.99 33.01"><title>timeline</title><g id="Layer_2" data-name="Layer 2"><g id="Layer_1-2" data-name="Layer 1"><g id="timeline"><path d="M6.69,22a6.69,6.69,0,1,1,4.73-2A6.67,6.67,0,0,1,6.69,22Zm0-8.38a1.72,1.72,0,0,0-1.2.49,1.69,1.69,0,1,0,2.39,0A1.67,1.67,0,0,0,6.69,13.57Z"/><path d="M52.31,18.59A6.68,6.68,0,1,1,57,16.64,6.66,6.66,0,0,1,52.31,18.59Zm0-8.37a1.69,1.69,0,1,0,1.19.49A1.68,1.68,0,0,0,52.31,10.22Z"/><path d="M31.7,33a6.66,6.66,0,0,1-4.73-2h0a6.69,6.69,0,1,1,4.73,2Zm0-8.38a1.69,1.69,0,0,0-1.19,2.89h0a1.71,1.71,0,0,0,2.39,0,1.69,1.69,0,0,0,.49-1.2,1.66,1.66,0,0,0-.49-1.19A1.71,1.71,0,0,0,31.7,24.63Z"/><path d="M27.27,13.38a6.67,6.67,0,0,1-4.73-2h0a6.69,6.69,0,0,1,0-9.46,6.69,6.69,0,1,1,4.73,11.42Zm0-8.38a1.69,1.69,0,0,0-1.2,2.88h0a1.69,1.69,0,0,0,2.39,0A1.67,1.67,0,0,0,29,6.69a1.7,1.7,0,0,0-.5-1.2A1.67,1.67,0,0,0,27.27,5Z"/><path d="M35.24,26.58a2.5,2.5,0,0,1-1.48-4.52l13.53-9.92a2.5,2.5,0,1,1,3,4L36.72,26.09A2.5,2.5,0,0,1,35.24,26.58Z"/><path d="M30.82,24.73a2.51,2.51,0,0,1-2.43-1.93L25.71,11.35a2.5,2.5,0,0,1,4.87-1.14l2.68,11.45a2.5,2.5,0,0,1-1.87,3A2.22,2.22,0,0,1,30.82,24.73Z"/><path d="M10.51,16.06a2.5,2.5,0,0,1-.93-4.82L22.51,6.07a2.5,2.5,0,0,1,1.86,4.64L11.44,15.88A2.52,2.52,0,0,1,10.51,16.06Z"/></g></g></g></svg>