<svg xmlns="http://www.w3.org/2000/svg" viewBox="0 0 59.01 58.12"><title>tools</title><g id="Layer_2" data-name="Layer 2"><g id="Layer_1-2" data-name="Layer 1"><g id="tools"><path d="M50.88,58.12h-.09a7.15,7.15,0,0,1-5.15-2.24l-24.71-26A15.45,15.45,0,0,1,1.12,9.68a2.51,2.51,0,0,1,4.09-.83l5.35,5.35a2.63,2.63,0,0,0,3.63,0,2.58,2.58,0,0,0,.75-1.82,2.53,2.53,0,0,0-.76-1.81L8.81,5.23a2.51,2.51,0,0,1,.83-4.09A15.39,15.39,0,0,1,26.45,4.62a15.64,15.64,0,0,1,3.42,16.3l26,24.72a7.24,7.24,0,0,1-5,12.48ZM21.52,24.38a2.48,2.48,0,0,1,1.81.78L49.26,52.42a2.23,2.23,0,0,0,1.59.7,2.17,2.17,0,0,0,1.61-.66h0a2.2,2.2,0,0,0,.65-1.61,2.24,2.24,0,0,0-.69-1.59L25.15,23.33a2.49,2.49,0,0,1-.49-3A10.6,10.6,0,0,0,22.89,8.13,10.38,10.38,0,0,0,15.68,5l2,2A7.57,7.57,0,1,1,7,17.73l-2-2a10.46,10.46,0,0,0,15.35,9A2.45,2.45,0,0,1,21.52,24.38Z"/><path d="M33.46,30.28A2.5,2.5,0,0,1,31.69,26L43.6,14.11a2.5,2.5,0,0,1,3.53,3.54l-11.9,11.9A2.49,2.49,0,0,1,33.46,30.28Z"/><path d="M49.92,22.94a2.48,2.48,0,0,1-1.76-.73L39,13.09a2.49,2.49,0,0,1,.49-3.92L50.67,2.59a2.49,2.49,0,0,1,3,.38l4.56,4.56a2.5,2.5,0,0,1,.39,3L52.08,21.71a2.52,2.52,0,0,1-1.84,1.21ZM44.85,11.83l4.56,4.56,4-6.69L51.55,7.88Z"/><path d="M10.36,58.12a7.24,7.24,0,0,1-5-12.48l17.84-17a2.5,2.5,0,0,1,3.45,3.62l-17.85,17a2.24,2.24,0,0,0-.69,1.59,2.2,2.2,0,0,0,.65,1.61,2.41,2.41,0,0,0,1.61.66,2.23,2.23,0,0,0,1.59-.7L28.81,34.73a2.5,2.5,0,0,1,3.62,3.44L15.6,55.87a7.15,7.15,0,0,1-5.15,2.24Z"/></g></g></g></svg>