<svg xmlns="http://www.w3.org/2000/svg" viewBox="0 0 59 54.46"><title>tow truck</title><g id="Layer_2" data-name="Layer 2"><g id="Layer_1-2" data-name="Layer 1"><g id="tow_truck" data-name="tow truck"><g id="pickup_truck" data-name="pickup truck"><path d="M45.6,54.46A7.5,7.5,0,1,1,53.1,47,7.51,7.51,0,0,1,45.6,54.46Zm0-10A2.5,2.5,0,1,0,48.1,47,2.5,2.5,0,0,0,45.6,44.46Z"/><path d="M14,54.46a7.5,7.5,0,1,1,7.5-7.5A7.51,7.51,0,0,1,14,54.46Zm0-10a2.5,2.5,0,1,0,2.5,2.5A2.5,2.5,0,0,0,14,44.46Z"/><path d="M56.5,49.46H50.6a2.5,2.5,0,0,1,0-5H54V32.77L44,21.23H37.2V44.46h3.4a2.5,2.5,0,0,1,0,5H34.7A2.5,2.5,0,0,1,32.2,47V18.73a2.5,2.5,0,0,1,2.5-2.5H45.1a2.51,2.51,0,0,1,1.88.86L58.39,30.2A2.5,2.5,0,0,1,59,31.84V47A2.5,2.5,0,0,1,56.5,49.46Z"/><path d="M34.7,49.46H19a2.5,2.5,0,0,1,0-5H34.7a2.5,2.5,0,0,1,0,5Z"/><path d="M9,49.46H2.5A2.5,2.5,0,0,1,0,47V34.84a2.5,2.5,0,0,1,2.5-2.5H34.7a2.5,2.5,0,0,1,0,5H5v7.12H9a2.5,2.5,0,1,1,0,5Z"/><path d="M56.5,34.34H34.7a2.5,2.5,0,1,1,0-5H56.5a2.5,2.5,0,0,1,0,5Z"/></g><path d="M26.5,37.34a2.5,2.5,0,0,1-2.5-2.5V26.32L12,10.09v9.39a2.5,2.5,0,0,1-5,0V2.5A2.51,2.51,0,0,1,11.52,1l17,23A2.49,2.49,0,0,1,29,25.5v9.34A2.5,2.5,0,0,1,26.5,37.34Z"/><path d="M6.19,25.29A5.81,5.81,0,0,1,.38,19.48a2.5,2.5,0,0,1,5,0,.81.81,0,0,0,1.62,0,2.5,2.5,0,0,1,5,0A5.81,5.81,0,0,1,6.19,25.29Z"/></g></g></g></svg>