<svg xmlns="http://www.w3.org/2000/svg" viewBox="0 0 56.81 59"><title>tree</title><g id="Layer_2" data-name="Layer 2"><g id="Layer_1-2" data-name="Layer 1"><g id="tree"><path d="M53.17,59H7.26a2.5,2.5,0,1,1,0-5H53.17a2.5,2.5,0,0,1,0,5Z"/><path d="M47.31,59a2.5,2.5,0,0,1-2.5-2.5v-8a2.5,2.5,0,0,1,5,0v8A2.5,2.5,0,0,1,47.31,59Z"/><path d="M47.31,51a9.5,9.5,0,1,1,9.5-9.5A9.51,9.51,0,0,1,47.31,51Zm0-14a4.5,4.5,0,1,0,4.5,4.5A4.51,4.51,0,0,0,47.31,37Z"/><path d="M18.5,45A18.52,18.52,0,0,1,0,26.5v-8a18.5,18.5,0,0,1,37,0v8A18.52,18.52,0,0,1,18.5,45Zm0-40A13.52,13.52,0,0,0,5,18.5v8a13.5,13.5,0,0,0,27,0v-8A13.52,13.52,0,0,0,18.5,5Z"/><path d="M18.5,59A2.5,2.5,0,0,1,16,56.5v-14a2.5,2.5,0,0,1,5,0v14A2.5,2.5,0,0,1,18.5,59Z"/></g></g></g></svg>