<svg xmlns="http://www.w3.org/2000/svg" viewBox="0 0 59 33.99"><title>trending up</title><g id="Layer_2" data-name="Layer 2"><g id="Layer_1-2" data-name="Layer 1"><g id="trending_up" data-name="trending up"><path d="M56.5,20.63a2.49,2.49,0,0,1-2.5-2.5V5H40.87a2.5,2.5,0,0,1,0-5H56.5A2.5,2.5,0,0,1,59,2.5V18.13A2.49,2.49,0,0,1,56.5,20.63Z"/><path d="M31.37,34l-.25,0a2.5,2.5,0,0,1-1.93-1.26L19.31,15.18,4.39,32.33A2.5,2.5,0,0,1,.61,29.05L17.87,9.23a2.49,2.49,0,0,1,4.06.41l9.88,17.53L54.61.86a2.5,2.5,0,0,1,3.78,3.28l-25.13,29A2.52,2.52,0,0,1,31.37,34Z"/></g></g></g></svg>