<svg xmlns="http://www.w3.org/2000/svg" viewBox="0 0 59 33.98"><title>trending down</title><g id="Layer_2" data-name="Layer 2"><g id="Layer_1-2" data-name="Layer 1"><g id="trending_down" data-name="trending down"><path d="M56.5,34H40.87a2.5,2.5,0,0,1,0-5H54V15.85a2.5,2.5,0,1,1,5,0V31.48A2.49,2.49,0,0,1,56.5,34Z"/><path d="M56.5,34a2.5,2.5,0,0,1-1.89-.86L31.81,6.82,21.93,24.35a2.49,2.49,0,0,1-4.06.41L.61,4.93A2.5,2.5,0,0,1,4.39,1.65L19.31,18.81,29.19,1.27A2.5,2.5,0,0,1,33.26.86l25.13,29A2.49,2.49,0,0,1,56.5,34Z"/></g></g></g></svg>