<svg xmlns="http://www.w3.org/2000/svg" viewBox="0 0 59 54.93"><title>trolley</title><g id="Layer_2" data-name="Layer 2"><g id="Layer_1-2" data-name="Layer 1"><g id="trolley"><path d="M30.08,54.93a8.63,8.63,0,1,1,8.11-11.58h0a8.63,8.63,0,0,1-8.11,11.58Zm0-12.26a3.63,3.63,0,1,0,3.41,2.39h0A3.63,3.63,0,0,0,31.62,43,3.75,3.75,0,0,0,30.08,42.67Z"/><path d="M35.84,46.71A2.5,2.5,0,0,1,35,41.86l20.66-7.52a2.49,2.49,0,0,1,3.2,1.49A2.51,2.51,0,0,1,57.36,39L36.7,46.55A2.42,2.42,0,0,1,35.84,46.71Z"/><path d="M28,43a2.5,2.5,0,0,1-2.35-1.64L13.71,8.62a5.5,5.5,0,0,0-7-3.28l-3.3,1.2a2.5,2.5,0,1,1-1.71-4.7L5,.64A10.5,10.5,0,0,1,18.41,6.91L30.34,39.69a2.5,2.5,0,0,1-1.5,3.2A2.31,2.31,0,0,1,28,43Z"/><path d="M37.41,37.18a6.59,6.59,0,0,1-6.19-4.33L27,21.34A6.59,6.59,0,0,1,31,12.9L42,8.87h0a6.59,6.59,0,0,1,8.44,3.94l4.19,11.5a6.59,6.59,0,0,1-3.94,8.44l-11.06,4A6.55,6.55,0,0,1,37.41,37.18Zm6.33-23.61-11.06,4a1.6,1.6,0,0,0-.95,2l4.19,11.5a1.58,1.58,0,0,0,2,.95l11.06-4a1.58,1.58,0,0,0,1-2l-4.19-11.5a1.58,1.58,0,0,0-2-.95Z"/></g></g></g></svg>