<svg xmlns="http://www.w3.org/2000/svg" viewBox="0 0 59 43"><title>truck</title><g id="Layer_2" data-name="Layer 2"><g id="Layer_1-2" data-name="Layer 1"><g id="truck"><path d="M45.6,43a7.5,7.5,0,1,1,7.5-7.5A7.51,7.51,0,0,1,45.6,43Zm0-10a2.5,2.5,0,1,0,2.5,2.5A2.5,2.5,0,0,0,45.6,33Z"/><path d="M14,43a7.5,7.5,0,1,1,7.5-7.5A7.51,7.51,0,0,1,14,43Zm0-10a2.5,2.5,0,1,0,2.5,2.5A2.5,2.5,0,0,0,14,33Z"/><path d="M56.5,38H50.6a2.5,2.5,0,1,1,0-5H54V23.37L44,12.77H37.2V33h3.4a2.5,2.5,0,0,1,0,5H34.7a2.5,2.5,0,0,1-2.5-2.5V10.27a2.5,2.5,0,0,1,2.5-2.5H45.1a2.52,2.52,0,0,1,1.82.79l11.4,12.1A2.51,2.51,0,0,1,59,22.38V35.5A2.5,2.5,0,0,1,56.5,38Z"/><path d="M34.7,38H19a2.5,2.5,0,1,1,0-5H34.7a2.5,2.5,0,0,1,0,5Z"/><path d="M9,38H2.5A2.5,2.5,0,0,1,0,35.5V2.5A2.5,2.5,0,0,1,2.5,0H34.7a2.5,2.5,0,0,1,2.5,2.5V19.8H56.5a2.5,2.5,0,0,1,0,5H34.7a2.5,2.5,0,0,1-2.5-2.5V5H5V33H9a2.5,2.5,0,1,1,0,5Z"/><path d="M23.45,20.31h-10a2.5,2.5,0,1,1,0-5h10a2.5,2.5,0,1,1,0,5Z"/><path d="M18.45,25.31a2.5,2.5,0,0,1-2.5-2.5v-10a2.5,2.5,0,1,1,5,0v10A2.5,2.5,0,0,1,18.45,25.31Z"/></g></g></g></svg>