<svg xmlns="http://www.w3.org/2000/svg" viewBox="0 0 59 46"><title>truck (2)</title><g id="Layer_2" data-name="Layer 2"><g id="Layer_1-2" data-name="Layer 1"><g id="truck"><path d="M45.6,46a7.5,7.5,0,1,1,7.5-7.5A7.51,7.51,0,0,1,45.6,46Zm0-10a2.5,2.5,0,1,0,2.5,2.5A2.5,2.5,0,0,0,45.6,36Z"/><path d="M14,46a7.5,7.5,0,1,1,7.5-7.5A7.51,7.51,0,0,1,14,46Zm0-10a2.5,2.5,0,1,0,2.5,2.5A2.5,2.5,0,0,0,14,36Z"/><path d="M56.5,41H50.6a2.5,2.5,0,1,1,0-5H54V24.31L44,12.77H37.2V36h3.4a2.5,2.5,0,0,1,0,5H34.7a2.5,2.5,0,0,1-2.5-2.5V10.27a2.5,2.5,0,0,1,2.5-2.5H45.1A2.51,2.51,0,0,1,47,8.63L58.39,21.74A2.5,2.5,0,0,1,59,23.38V38.5A2.5,2.5,0,0,1,56.5,41Z"/><path d="M34.7,41H19a2.5,2.5,0,1,1,0-5H34.7a2.5,2.5,0,0,1,0,5Z"/><path d="M9,41H2.5A2.5,2.5,0,0,1,0,38.5V2.5A2.5,2.5,0,0,1,2.5,0H34.7a2.5,2.5,0,0,1,2.5,2.5V20.8H56.5a2.5,2.5,0,0,1,0,5H34.7a2.5,2.5,0,0,1-2.5-2.5V5H5V36H9a2.5,2.5,0,1,1,0,5Z"/></g></g></g></svg>