<svg xmlns="http://www.w3.org/2000/svg" viewBox="0 0 53.69 59"><title>turnstile</title><g id="Layer_2" data-name="Layer 2"><g id="Layer_1-2" data-name="Layer 1"><g id="turnstile"><path d="M47.19,59h-16a6.51,6.51,0,0,1-6.5-6.5V6.5A6.51,6.51,0,0,1,31.19,0h16a6.51,6.51,0,0,1,6.5,6.5v46A6.51,6.51,0,0,1,47.19,59Zm-16-54a1.5,1.5,0,0,0-1.5,1.5v46a1.5,1.5,0,0,0,1.5,1.5h16a1.5,1.5,0,0,0,1.5-1.5V6.5A1.5,1.5,0,0,0,47.19,5Z"/><path d="M44.37,19.39H34a2.5,2.5,0,1,1,0-5H44.37a2.5,2.5,0,0,1,0,5Z"/><path d="M51.19,48.68h-24a2.5,2.5,0,0,1,0-5h24a2.5,2.5,0,0,1,0,5Z"/><path d="M26.19,30.68a9.75,9.75,0,1,1,0-19.49,2.5,2.5,0,0,1,0,5,4.75,4.75,0,1,0,0,9.49,2.5,2.5,0,1,1,0,5Z"/><path d="M18.94,23.43H2.5a2.5,2.5,0,0,1,0-5H18.94a2.5,2.5,0,1,1,0,5Z"/><path d="M6.51,39.49a2.5,2.5,0,0,1-1.77-4.27L17.82,22.15a2.5,2.5,0,0,1,3.53,3.53L8.28,38.76A2.53,2.53,0,0,1,6.51,39.49Z"/></g></g></g></svg>