<svg xmlns="http://www.w3.org/2000/svg" viewBox="0 0 59 59"><title>tv</title><g id="Layer_2" data-name="Layer 2"><g id="Layer_1-2" data-name="Layer 1"><g id="tv"><path d="M48.5,46h-38A10.51,10.51,0,0,1,0,35.5v-25A10.51,10.51,0,0,1,10.5,0h38A10.51,10.51,0,0,1,59,10.5v25A10.51,10.51,0,0,1,48.5,46ZM10.5,5A5.51,5.51,0,0,0,5,10.5v25A5.51,5.51,0,0,0,10.5,41h38A5.51,5.51,0,0,0,54,35.5v-25A5.51,5.51,0,0,0,48.5,5Z"/><path d="M41.5,59h-24a2.5,2.5,0,0,1,0-5h24a2.5,2.5,0,0,1,0,5Z"/><path d="M29.5,59A2.5,2.5,0,0,1,27,56.5v-13a2.5,2.5,0,0,1,5,0v13A2.5,2.5,0,0,1,29.5,59Z"/></g></g></g></svg>