<svg xmlns="http://www.w3.org/2000/svg" viewBox="0 0 59 48.89"><title>twitter</title><g id="Layer_2" data-name="Layer 2"><g id="Layer_1-2" data-name="Layer 1"><g id="twitter"><path d="M19.48,48.89A33.85,33.85,0,0,1,1.15,43.51a2.5,2.5,0,0,1,1.64-4.58,20.31,20.31,0,0,0,2.35.13,19.75,19.75,0,0,0,7.42-1.42,13.59,13.59,0,0,1-6.39-7.75,2.54,2.54,0,0,1,.21-2,13.58,13.58,0,0,1-4.21-9.82v-.24a2.51,2.51,0,0,1,1.28-2.08h0A13.62,13.62,0,0,1,4.1,3.27,2.51,2.51,0,0,1,8.2,3,29.06,29.06,0,0,0,26.31,13.31a13.58,13.58,0,0,1,22.41-10,19.5,19.5,0,0,0,5-2.1,2.51,2.51,0,0,1,2.84.2,2.48,2.48,0,0,1,.82,2.71c-.13.4-.27.79-.43,1.17a2.49,2.49,0,0,1,1.62,3.84,24.67,24.67,0,0,1-5.08,5.56,1.7,1.7,0,0,1,0,.22C53.51,31.59,40.78,48.89,19.48,48.89ZM12.37,43a28.74,28.74,0,0,0,7.11.89c18.17,0,29-14.76,29-29,0-.44,0-.87,0-1.31a2.48,2.48,0,0,1,.66-1.82A2.49,2.49,0,0,1,47.82,8.5a2.51,2.51,0,0,1-1.67-.79,8.58,8.58,0,0,0-14.84,5.87,8.33,8.33,0,0,0,.22,1.95A2.5,2.5,0,0,1,31,17.71a2.52,2.52,0,0,1-2,.89A34.06,34.06,0,0,1,7.29,9.31c0,.26,0,.52,0,.79a8.58,8.58,0,0,0,3.82,7.14,2.5,2.5,0,0,1-1.47,4.58A15.32,15.32,0,0,1,8,21.67a8.58,8.58,0,0,0,6.09,4.81,2.51,2.51,0,0,1,.16,4.87,12.3,12.3,0,0,1-1.34.29A8.55,8.55,0,0,0,19,34.32a2.51,2.51,0,0,1,1.5,4.47A24.69,24.69,0,0,1,12.37,43Z"/></g></g></g></svg>