<svg xmlns="http://www.w3.org/2000/svg" viewBox="0 0 59 55"><title>undo arrow-1</title><g id="Layer_2" data-name="Layer 2"><g id="Layer_1-2" data-name="Layer 1"><g id="undo_arrow-1" data-name="undo arrow-1"><path d="M12.5,55a2.49,2.49,0,0,1-1.77-.73l-10-10a2.52,2.52,0,0,1,0-3.54l10-10a2.5,2.5,0,1,1,3.54,3.54L6,42.5l8.23,8.23a2.52,2.52,0,0,1,0,3.54A2.49,2.49,0,0,1,12.5,55Z"/><path d="M36.5,45H2.5a2.5,2.5,0,0,1,0-5h34a17.5,17.5,0,0,0,0-35h-24a2.5,2.5,0,0,1,0-5h24a22.5,22.5,0,0,1,0,45Z"/></g></g></g></svg>