<svg xmlns="http://www.w3.org/2000/svg" viewBox="0 0 55 59"><title>undo arrow-2</title><g id="Layer_2" data-name="Layer 2"><g id="Layer_1-2" data-name="Layer 1"><g id="undo_arrow-2" data-name="undo arrow-2"><path d="M22.5,15a2.49,2.49,0,0,1-1.77-.73L12.5,6,4.27,14.27A2.5,2.5,0,0,1,.73,10.73l10-10a2.52,2.52,0,0,1,3.54,0l10,10a2.52,2.52,0,0,1,0,3.54A2.49,2.49,0,0,1,22.5,15Z"/><path d="M32.5,59A22.52,22.52,0,0,1,10,36.5V2.5a2.5,2.5,0,0,1,5,0v34a17.5,17.5,0,0,0,35,0v-24a2.5,2.5,0,0,1,5,0v24A22.52,22.52,0,0,1,32.5,59Z"/></g></g></g></svg>