<svg xmlns="http://www.w3.org/2000/svg" viewBox="0 0 35 59"><title>unfold more</title><g id="Layer_2" data-name="Layer 2"><g id="Layer_1-2" data-name="Layer 1"><g id="unfold_more" data-name="unfold more"><g id="expand_more" data-name="expand more"><path d="M32.5,20a2.49,2.49,0,0,1-1.77-.73L17.5,6,4.27,19.27A2.5,2.5,0,0,1,.73,15.73l15-15a2.52,2.52,0,0,1,3.54,0l15,15a2.52,2.52,0,0,1,0,3.54A2.49,2.49,0,0,1,32.5,20Z"/></g><g id="expand_more-2" data-name="expand more"><path d="M17.5,59a2.49,2.49,0,0,1-1.77-.73l-15-15a2.5,2.5,0,0,1,3.54-3.54L17.5,53,30.73,39.73a2.5,2.5,0,0,1,3.54,3.54l-15,15A2.49,2.49,0,0,1,17.5,59Z"/></g></g></g></g></svg>