<svg xmlns="http://www.w3.org/2000/svg" viewBox="0 0 59 59"><title>upload</title><g id="Layer_2" data-name="Layer 2"><g id="Layer_1-2" data-name="Layer 1"><g id="upload"><path d="M29.5,59A2.5,2.5,0,0,1,27,56.5v-42a2.5,2.5,0,0,1,5,0v42A2.5,2.5,0,0,1,29.5,59Z"/><path d="M43.5,31a2.49,2.49,0,0,1-1.77-.73L29.5,18,17.27,30.27a2.5,2.5,0,0,1-3.54-3.54l14-14a2.52,2.52,0,0,1,3.54,0l14,14a2.52,2.52,0,0,1,0,3.54A2.49,2.49,0,0,1,43.5,31Z"/><path d="M56.5,5H2.5a2.5,2.5,0,0,1,0-5h54a2.5,2.5,0,0,1,0,5Z"/></g></g></g></svg>