<svg xmlns="http://www.w3.org/2000/svg" viewBox="0 0 58.99 58.96"><title>usb</title><g id="Layer_2" data-name="Layer 2"><g id="Layer_1-2" data-name="Layer 1"><g id="usb"><path d="M17.37,59A17.37,17.37,0,0,1,5.08,29.3L25.75,8.63a2.58,2.58,0,0,1,3.53,0l21,21a2.5,2.5,0,0,1,0,3.53L29.66,53.88A17.32,17.32,0,0,1,17.37,59Zm10.15-45L8.62,32.83A12.38,12.38,0,0,0,26.13,50.34L45,31.45Z"/><path d="M44.87,30.26A2.51,2.51,0,0,1,43.1,26L53,16.13,42.83,6,33,15.86a2.5,2.5,0,1,1-3.53-3.53L41.06.7A2.59,2.59,0,0,1,44.6.7L58.26,14.37a2.5,2.5,0,0,1,0,3.53L46.64,29.52A2.5,2.5,0,0,1,44.87,30.26Z"/><path d="M40.28,16.63a2.5,2.5,0,0,1-1.77-4.27L41.1,9.77a2.5,2.5,0,0,1,3.54,3.54L42,15.9A2.45,2.45,0,0,1,40.28,16.63Z"/><path d="M44.83,21.19a2.5,2.5,0,0,1-1.77-4.27l2.59-2.59a2.5,2.5,0,1,1,3.54,3.53L46.6,20.45A2.5,2.5,0,0,1,44.83,21.19Z"/><circle cx="17.23" cy="41.73" r="5"/></g></g></g></svg>