<svg xmlns="http://www.w3.org/2000/svg" viewBox="0 0 58.99 58.99"><title>vector</title><g id="Layer_2" data-name="Layer 2"><g id="Layer_1-2" data-name="Layer 1"><g id="vector"><path d="M33.18,59a6.65,6.65,0,0,1-4.71-11.37h0A6.66,6.66,0,1,1,33.18,59Zm0-8.33a1.69,1.69,0,0,0-1.18.49h0a1.67,1.67,0,1,0,1.18-.49Zm-2.95-1.28h0Z"/><path d="M52.33,45.74a6.67,6.67,0,1,1,4.71-2A6.63,6.63,0,0,1,52.33,45.74Zm0-8.33a1.67,1.67,0,0,0-1.18.48,1.7,1.7,0,0,0-.49,1.18,1.66,1.66,0,0,0,.49,1.18,1.71,1.71,0,0,0,2.36,0A1.66,1.66,0,0,0,54,39.07a1.7,1.7,0,0,0-.49-1.18A1.67,1.67,0,0,0,52.33,37.41Z"/><path d="M19.92,13.33A6.66,6.66,0,0,1,15.21,2h0a6.67,6.67,0,1,1,4.71,11.38Zm0-8.33a1.68,1.68,0,0,0-1.18.48h0a1.67,1.67,0,1,0,2.36,0A1.68,1.68,0,0,0,19.92,5ZM17,3.72h0Z"/><path d="M6.66,32.48A6.67,6.67,0,0,1,2,21.1H2A6.67,6.67,0,1,1,6.66,32.48Zm0-8.33a1.62,1.62,0,0,0-1.17.49h0a1.65,1.65,0,0,0,0,2.35,1.7,1.7,0,0,0,2.35,0,1.66,1.66,0,0,0,0-2.35A1.62,1.62,0,0,0,6.66,24.15ZM3.72,22.87h0Z"/><path d="M34.36,30.53l-5.89-5.89V21.1l5.89-5.89h3.53l5.9,5.89v3.54l-5.9,5.89Zm-.59-7.66,2.36,2.35,2.35-2.35-2.35-2.36Z"/><path d="M9.61,25.37A2.5,2.5,0,0,1,7.84,21.1a21.18,21.18,0,0,1,16.09-6.23l-3.16-3.16a2.5,2.5,0,0,1,3.54-3.54L34.62,18.48l-3.1,3.89a16.14,16.14,0,0,0-20.14,2.27A2.53,2.53,0,0,1,9.61,25.37Z"/><path d="M36.13,51.88a2.5,2.5,0,0,1-1.77-4.26,16.17,16.17,0,0,0,2.27-20.14l3.88-3.1L50.82,34.69a2.5,2.5,0,0,1-3.53,3.53l-3.17-3.16a21.17,21.17,0,0,1-6.23,16.09A2.45,2.45,0,0,1,36.13,51.88Z"/></g></g></g></svg>