<svg xmlns="http://www.w3.org/2000/svg" viewBox="0 0 59 39"><title>videocam</title><g id="Layer_2" data-name="Layer 2"><g id="Layer_1-2" data-name="Layer 1"><g id="videocam"><path d="M34.5,39h-24A10.51,10.51,0,0,1,0,28.5v-18A10.51,10.51,0,0,1,10.5,0h24A10.51,10.51,0,0,1,45,10.5v18A10.51,10.51,0,0,1,34.5,39ZM10.5,5A5.51,5.51,0,0,0,5,10.5v18A5.51,5.51,0,0,0,10.5,34h24A5.51,5.51,0,0,0,40,28.5v-18A5.51,5.51,0,0,0,34.5,5Z"/><path d="M56.5,32.49a2.49,2.49,0,0,1-1-.23l-14-6.34a2.5,2.5,0,1,1,2.06-4.55L54,26.11V12.88L43.53,17.59A2.5,2.5,0,0,1,41.47,13l14-6.3A2.5,2.5,0,0,1,59,9V30a2.49,2.49,0,0,1-1.15,2.1A2.53,2.53,0,0,1,56.5,32.49Z"/></g></g></g></svg>