<svg xmlns="http://www.w3.org/2000/svg" viewBox="0 0 59 59"><title>videocam off</title><g id="Layer_2" data-name="Layer 2"><g id="Layer_1-2" data-name="Layer 1"><g id="videocam_off" data-name="videocam off"><path d="M56.5,59a2.49,2.49,0,0,1-1.77-.73l-54-54A2.5,2.5,0,0,1,4.27.73l54,54a2.52,2.52,0,0,1,0,3.54A2.49,2.49,0,0,1,56.5,59Z"/><g id="videocam"><path d="M42.5,30.86a2.5,2.5,0,0,1-2.5-2.5V20.5A5.51,5.51,0,0,0,34.5,15H26.64a2.5,2.5,0,0,1,0-5H34.5A10.51,10.51,0,0,1,45,20.5v7.86A2.5,2.5,0,0,1,42.5,30.86Z"/><path d="M34.5,49h-24A10.51,10.51,0,0,1,0,38.5v-18A10.51,10.51,0,0,1,10.5,10h2a2.5,2.5,0,0,1,0,5h-2A5.51,5.51,0,0,0,5,20.5v18A5.51,5.51,0,0,0,10.5,44h24a5.52,5.52,0,0,0,5-3.24,2.5,2.5,0,1,1,4.55,2.06A10.52,10.52,0,0,1,34.5,49Z"/><path d="M56.5,42.49a2.49,2.49,0,0,1-1-.23l-4.34-2a2.5,2.5,0,1,1,2.07-4.55l.8.36V22.88L43.53,27.59A2.5,2.5,0,0,1,41.47,23l14-6.3A2.5,2.5,0,0,1,59,19V40a2.51,2.51,0,0,1-1.14,2.1A2.59,2.59,0,0,1,56.5,42.49Z"/></g></g></g></g></svg>