<svg xmlns="http://www.w3.org/2000/svg" viewBox="0 0 59 36.01"><title>videogame-2</title><g id="Layer_2" data-name="Layer 2"><g id="Layer_1-2" data-name="Layer 1"><g id="videogame-2"><path d="M10.74,36h-.13A10.73,10.73,0,0,1,.11,23.76L2.33,8.21A9.61,9.61,0,0,1,11.79,0H47.22a9.6,9.6,0,0,1,9.46,8.21l2.21,15.43A10.74,10.74,0,0,1,48.26,35.9H48a10.74,10.74,0,0,1-9.83-6.43l-1.25-2.84a8.1,8.1,0,0,0-7.42-4.86h-.22a8.1,8.1,0,0,0-7.44,4.89l-1.24,2.87A10.7,10.7,0,0,1,10.74,36Zm1-31A4.58,4.58,0,0,0,7.28,8.92L5.06,24.46h0A5.73,5.73,0,0,0,16,27.55l1.24-2.87a13.11,13.11,0,0,1,12-7.91h.22a13.08,13.08,0,0,1,12,7.85l1.25,2.84A5.72,5.72,0,0,0,48,30.9h.27a5.75,5.75,0,0,0,5.68-6.55L51.73,8.92A4.58,4.58,0,0,0,47.22,5ZM2.58,24.11h0Z"/><path d="M20.1,16.17h-8a2.5,2.5,0,1,1,0-5h8a2.5,2.5,0,1,1,0,5Z"/><path d="M16.1,20.17a2.5,2.5,0,0,1-2.5-2.5v-8a2.5,2.5,0,0,1,5,0v8A2.49,2.49,0,0,1,16.1,20.17Z"/><path d="M42.93,8.6a3.5,3.5,0,1,0,0,5A3.49,3.49,0,0,0,42.93,8.6Z"/><circle cx="46.08" cy="16.69" r="2.65"/></g></g></g></svg>