<svg xmlns="http://www.w3.org/2000/svg" viewBox="0 0 59.09 59"><title>visibility off</title><g id="Layer_2" data-name="Layer 2"><g id="Layer_1-2" data-name="Layer 1"><g id="visibility_off" data-name="visibility off"><path d="M56.55,59a2.49,2.49,0,0,1-1.77-.73l-54-54A2.5,2.5,0,0,1,4.31.73l54,54a2.5,2.5,0,0,1,0,3.54A2.45,2.45,0,0,1,56.55,59Z"/><path d="M29.52,51.93c-12.33,0-22.67-9.24-27.74-14.75a6.66,6.66,0,0,1,0-9.06A52.11,52.11,0,0,1,17.47,16.21a2.5,2.5,0,0,1,2.11,4.54c-6.39,3-11.59,8-14.12,10.76a1.67,1.67,0,0,0,0,2.28c3.64,4,13.25,13.14,24.06,13.14,4.39,0,9-1.5,13.78-4.47A2.5,2.5,0,1,1,46,46.7C40.39,50.17,34.86,51.93,29.52,51.93Z"/><path d="M52.54,40.89a2.5,2.5,0,0,1-1.71-4.32c1-.93,1.94-1.9,2.85-2.89a1.52,1.52,0,0,0,0-2.05c-3.57-3.9-13-13-23.71-13.25a2.51,2.51,0,0,1-2.44-2.56,2.48,2.48,0,0,1,2.56-2.44c12.16.28,22.31,9.44,27.28,14.87a6.49,6.49,0,0,1,0,8.8c-1,1.08-2,2.14-3.11,3.16A2.51,2.51,0,0,1,52.54,40.89Z"/><path d="M29.52,41.44a8.79,8.79,0,0,1-3.62-16.8A2.5,2.5,0,1,1,28,29.19a3.79,3.79,0,1,0,5,5,2.5,2.5,0,0,1,4.56,2.06A8.81,8.81,0,0,1,29.52,41.44Z"/></g></g></g></svg>