<svg xmlns="http://www.w3.org/2000/svg" viewBox="0 0 59 59.29"><title>volume off</title><g id="Layer_2" data-name="Layer 2"><g id="Layer_1-2" data-name="Layer 1"><g id="volume_off" data-name="volume off"><path d="M56.5,59.15a2.5,2.5,0,0,1-1.77-.74l-54-54A2.5,2.5,0,1,1,4.27.88l54,54a2.51,2.51,0,0,1-1.77,4.27Z"/><path d="M36.35,24.85a2.5,2.5,0,0,1-2.5-2.5V8.23l-6.1,5.65a2.5,2.5,0,1,1-3.4-3.66L34.65.67a2.5,2.5,0,0,1,4.2,1.83V22.35A2.5,2.5,0,0,1,36.35,24.85Z"/><path d="M36.35,59.29a2.48,2.48,0,0,1-1.7-.67L13.86,39.36H6.53A6.54,6.54,0,0,1,0,32.83V26.46a6.54,6.54,0,0,1,6.53-6.53h7.33L17,17a2.5,2.5,0,0,1,3.4,3.67l-3.87,3.58a2.53,2.53,0,0,1-1.7.66H6.53A1.54,1.54,0,0,0,5,26.46v6.37a1.54,1.54,0,0,0,1.53,1.53h8.31a2.53,2.53,0,0,1,1.7.66l17.31,16V36.49a2.5,2.5,0,0,1,5,0v20.3a2.5,2.5,0,0,1-2.5,2.5Z"/><path d="M14.84,39.36a2.5,2.5,0,0,1-2.5-2.5V22.43a2.5,2.5,0,0,1,5,0V36.86A2.5,2.5,0,0,1,14.84,39.36Z"/><path d="M53.82,42.32a2.49,2.49,0,0,1-2.17-3.73,18.18,18.18,0,0,0-3-21.77,2.5,2.5,0,0,1,3.53-3.54A23.21,23.21,0,0,1,56,41.06,2.5,2.5,0,0,1,53.82,42.32Z"/><path d="M46.53,34.73a2.41,2.41,0,0,1-.94-.18,2.51,2.51,0,0,1-1.38-3.25,4.36,4.36,0,0,0-1-4.75A2.5,2.5,0,1,1,46.79,23a9.37,9.37,0,0,1,2.06,10.16A2.49,2.49,0,0,1,46.53,34.73Z"/></g></g></g></svg>