<svg xmlns="http://www.w3.org/2000/svg" viewBox="0 0 59 59.29"><title>volume up</title><g id="Layer_2" data-name="Layer 2"><g id="Layer_1-2" data-name="Layer 1"><g id="volume_up" data-name="volume up"><path d="M36.35,59.29a2.48,2.48,0,0,1-1.7-.67L13.86,39.36H6.53A6.54,6.54,0,0,1,0,32.83V26.46a6.54,6.54,0,0,1,6.53-6.53h7.33L34.65.67a2.5,2.5,0,0,1,4.2,1.83V56.79a2.5,2.5,0,0,1-2.5,2.5ZM6.53,24.93A1.54,1.54,0,0,0,5,26.46v6.37a1.54,1.54,0,0,0,1.53,1.53h8.31a2.53,2.53,0,0,1,1.7.66l17.31,16V8.23l-17.31,16a2.53,2.53,0,0,1-1.7.66Z"/><path d="M14.84,39.36a2.5,2.5,0,0,1-2.5-2.5V22.43a2.5,2.5,0,0,1,5,0V36.86A2.5,2.5,0,0,1,14.84,39.36Z"/><path d="M50.45,46.74A2.45,2.45,0,0,1,48.69,46a2.5,2.5,0,0,1,0-3.54,18.14,18.14,0,0,0,0-25.65,2.5,2.5,0,0,1,3.53-3.54,23.14,23.14,0,0,1,0,32.73A2.49,2.49,0,0,1,50.45,46.74Z"/><path d="M45,37a2.49,2.49,0,0,1-1.77-.73,2.52,2.52,0,0,1,0-3.54,4.36,4.36,0,0,0,0-6.19A2.5,2.5,0,1,1,46.79,23a9.38,9.38,0,0,1,0,13.27A2.49,2.49,0,0,1,45,37Z"/></g></g></g></svg>