<svg xmlns="http://www.w3.org/2000/svg" viewBox="0 0 38.85 59.29"><title>volume mute</title><g id="Layer_2" data-name="Layer 2"><g id="Layer_1-2" data-name="Layer 1"><g id="volume_mute" data-name="volume mute"><path d="M36.35,59.29a2.48,2.48,0,0,1-1.7-.67L13.86,39.36H6.53A6.54,6.54,0,0,1,0,32.83V26.46a6.54,6.54,0,0,1,6.53-6.53h7.33L34.65.67a2.5,2.5,0,0,1,4.2,1.83V56.79a2.5,2.5,0,0,1-2.5,2.5ZM6.53,24.93A1.54,1.54,0,0,0,5,26.46v6.37a1.54,1.54,0,0,0,1.53,1.53h8.31a2.53,2.53,0,0,1,1.7.66l17.31,16V8.23l-17.31,16a2.53,2.53,0,0,1-1.7.66Z"/><path d="M14.84,39.36a2.5,2.5,0,0,1-2.5-2.5V22.43a2.5,2.5,0,0,1,5,0V36.86A2.5,2.5,0,0,1,14.84,39.36Z"/></g></g></g></svg>