<svg xmlns="http://www.w3.org/2000/svg" viewBox="0 0 59 29"><title>vpn key</title><g id="Layer_2" data-name="Layer 2"><g id="Layer_1-2" data-name="Layer 1"><g id="vpn_key" data-name="vpn key"><path d="M48.72,29h-.44A10.29,10.29,0,0,1,38,18.72V10.28A10.29,10.29,0,0,1,48.28,0h.44A10.29,10.29,0,0,1,59,10.28v8.44A10.29,10.29,0,0,1,48.72,29ZM48.28,5A5.29,5.29,0,0,0,43,10.28v8.44A5.29,5.29,0,0,0,48.28,24h.44A5.29,5.29,0,0,0,54,18.72V10.28A5.29,5.29,0,0,0,48.72,5Z"/><path d="M18.5,28.13H2.5A2.5,2.5,0,0,1,0,25.63V14.5A2.5,2.5,0,0,1,2.5,12h16A2.5,2.5,0,0,1,21,14.5V25.63A2.5,2.5,0,0,1,18.5,28.13ZM5,23.13H16V17H5Z"/><path d="M40.11,17H2.5a2.5,2.5,0,0,1,0-5H40.11a2.5,2.5,0,0,1,0,5Z"/></g></g></g></svg>