<svg xmlns="http://www.w3.org/2000/svg" viewBox="0 0 59 59"><title>wallet</title><g id="Layer_2" data-name="Layer 2"><g id="Layer_1-2" data-name="Layer 1"><g id="wallet"><path d="M46.5,19H8.5A8.51,8.51,0,0,1,0,10.5,10.51,10.51,0,0,1,10.5,0h28A10.51,10.51,0,0,1,49,10.5v6A2.5,2.5,0,0,1,46.5,19ZM10.5,5A5.51,5.51,0,0,0,5,10.5,3.5,3.5,0,0,0,8.5,14H44V10.5A5.51,5.51,0,0,0,38.5,5Z"/><path d="M48.5,59h-38A10.51,10.51,0,0,1,0,48.5v-38a2.5,2.5,0,0,1,5,0v38A5.51,5.51,0,0,0,10.5,54h38A5.51,5.51,0,0,0,54,48.5v-24A5.51,5.51,0,0,0,48.5,19H39.08a2.5,2.5,0,0,1,0-5H48.5A10.51,10.51,0,0,1,59,24.5v24A10.51,10.51,0,0,1,48.5,59Z"/><path d="M56.5,47h-16a10.5,10.5,0,0,1,0-21h16A2.5,2.5,0,0,1,59,28.5v16A2.5,2.5,0,0,1,56.5,47Zm-16-16a5.5,5.5,0,0,0,0,11H54V31Z"/><circle cx="44.5" cy="36.5" r="3"/></g></g></g></svg>