<svg xmlns="http://www.w3.org/2000/svg" viewBox="0 0 51.6 51.58"><title>warning</title><g id="Layer_2" data-name="Layer 2"><g id="Layer_1-2" data-name="Layer 1"><g id="warning"><path d="M25.8,33a2.5,2.5,0,0,1-2.5-2.5v-12a2.5,2.5,0,0,1,5,0v12A2.5,2.5,0,0,1,25.8,33Z"/><path d="M25.8,41.54A2.5,2.5,0,0,1,23.3,39V38a2.5,2.5,0,0,1,5,0v1A2.5,2.5,0,0,1,25.8,41.54Z"/><path d="M43.09,51.58H8.51a8.5,8.5,0,0,1-7.6-12.3L18.2,4.7a8.49,8.49,0,0,1,15.2,0L50.69,39.28a8.5,8.5,0,0,1-7.6,12.3ZM25.8,5a3.42,3.42,0,0,0-3.13,1.94L5.38,41.52a3.49,3.49,0,0,0,3.13,5.06H43.09a3.49,3.49,0,0,0,3.13-5.06L28.93,6.94A3.44,3.44,0,0,0,25.8,5Z"/></g></g></g></svg>