<svg xmlns="http://www.w3.org/2000/svg" viewBox="0 0 59 59"><title>web</title><g id="Layer_2" data-name="Layer 2"><g id="Layer_1-2" data-name="Layer 1"><g id="web"><path d="M48.5,59h-38A10.51,10.51,0,0,1,0,48.5v-38A10.51,10.51,0,0,1,10.5,0h38A10.51,10.51,0,0,1,59,10.5v38A10.51,10.51,0,0,1,48.5,59ZM10.5,5A5.51,5.51,0,0,0,5,10.5v38A5.51,5.51,0,0,0,10.5,54h38A5.51,5.51,0,0,0,54,48.5v-38A5.51,5.51,0,0,0,48.5,5Z"/><path d="M56.5,21H2.5a2.5,2.5,0,0,1,0-5h54a2.5,2.5,0,0,1,0,5Z"/><path d="M24.25,13.37h-2a2.5,2.5,0,0,1,0-5h2a2.5,2.5,0,0,1,0,5Z"/><path d="M13.25,13.37h-2a2.5,2.5,0,0,1,0-5h2a2.5,2.5,0,0,1,0,5Z"/></g></g></g></svg>