<svg xmlns="http://www.w3.org/2000/svg" viewBox="0 0 60.14 60.14"><title>whatsapp</title><g id="Layer_2" data-name="Layer 2"><g id="Layer_1-2" data-name="Layer 1"><g id="whatsapp"><path d="M19.47,17.78,18.4,18.84a4.19,4.19,0,0,0-.85,4.76A38.78,38.78,0,0,0,35.7,41.75a4.19,4.19,0,0,0,4.75-.86l1.07-1.06a2.16,2.16,0,0,0,0-3L38.4,33.66a2.16,2.16,0,0,0-3,0L34,35a23.82,23.82,0,0,1-9.71-9.71l1.34-1.35a2.16,2.16,0,0,0,0-3.05l-3.12-3.11A2.16,2.16,0,0,0,19.47,17.78Z"/><path d="M2.5,60.14a2.54,2.54,0,0,1-1.77-.73A2.51,2.51,0,0,1,.09,57l4-14.63A29.48,29.48,0,1,1,17.79,56.06l-14.63,4A2.5,2.5,0,0,1,2.5,60.14ZM30.64,5A24.51,24.51,0,0,0,9,40.91a2.53,2.53,0,0,1,.21,1.83L6.06,54.08,17.4,51a2.55,2.55,0,0,1,1.82.2A24.5,24.5,0,1,0,30.64,5Z"/></g></g></g></svg>