<svg xmlns="http://www.w3.org/2000/svg" viewBox="0 0 59 59"><title>wifi off</title><g id="Layer_2" data-name="Layer 2"><g id="Layer_1-2" data-name="Layer 1"><g id="wifi_off" data-name="wifi off"><path d="M56.5,59a2.49,2.49,0,0,1-1.77-.73l-54-54A2.5,2.5,0,0,1,4.27.73l54,54a2.52,2.52,0,0,1,0,3.54A2.49,2.49,0,0,1,56.5,59Z"/><path d="M2.5,24.09a2.49,2.49,0,0,1-1.77-.73,2.52,2.52,0,0,1,0-3.54,40.6,40.6,0,0,1,12-8.32,2.5,2.5,0,1,1,2.06,4.56,35.58,35.58,0,0,0-10.54,7.3A2.49,2.49,0,0,1,2.5,24.09Z"/><path d="M56.5,24.09a2.49,2.49,0,0,1-1.77-.73A35.5,35.5,0,0,0,25.14,13.17a2.5,2.5,0,1,1-.61-5A40.49,40.49,0,0,1,58.27,19.82a2.52,2.52,0,0,1,0,3.54A2.49,2.49,0,0,1,56.5,24.09Z"/><path d="M10.21,31.81a2.46,2.46,0,0,1-1.76-.74,2.49,2.49,0,0,1,0-3.53,29.78,29.78,0,0,1,13.18-7.67,2.5,2.5,0,1,1,1.31,4.83,24.79,24.79,0,0,0-11,6.37A2.5,2.5,0,0,1,10.21,31.81Z"/><path d="M48.79,31.81A2.5,2.5,0,0,1,47,31.07,24.83,24.83,0,0,0,35.7,24.6,2.5,2.5,0,1,1,37,19.76a29.68,29.68,0,0,1,13.6,7.78,2.49,2.49,0,0,1,0,3.53A2.46,2.46,0,0,1,48.79,31.81Z"/><path d="M17.93,39.52a2.5,2.5,0,0,1-1.77-4.27A18.86,18.86,0,0,1,33,30.05,2.5,2.5,0,1,1,32.05,35,13.9,13.9,0,0,0,19.7,38.79,2.49,2.49,0,0,1,17.93,39.52Z"/><path d="M29.5,51.09a2.51,2.51,0,0,1-1.77-.73L23.88,46.5a2.47,2.47,0,0,1,0-3.53,8,8,0,0,1,11.24,0,2.49,2.49,0,0,1,.74,1.76,2.53,2.53,0,0,1-.73,1.77l-3.86,3.86A2.51,2.51,0,0,1,29.5,51.09Z"/></g></g></g></svg>