<svg xmlns="http://www.w3.org/2000/svg" viewBox="0 0 59 43.18"><title>wifi</title><g id="Layer_2" data-name="Layer 2"><g id="Layer_1-2" data-name="Layer 1"><g id="wifi"><path d="M56.5,16.18a2.49,2.49,0,0,1-1.77-.73,35.68,35.68,0,0,0-50.46,0A2.5,2.5,0,0,1,.73,11.92a40.68,40.68,0,0,1,57.54,0,2.5,2.5,0,0,1-1.77,4.26Z"/><path d="M10.21,23.9a2.5,2.5,0,0,1-1.76-4.27,29.77,29.77,0,0,1,42.1,0A2.5,2.5,0,0,1,47,23.17a24.77,24.77,0,0,0-35,0A2.53,2.53,0,0,1,10.21,23.9Z"/><path d="M41.07,31.61a2.49,2.49,0,0,1-1.77-.73,13.86,13.86,0,0,0-19.6,0,2.5,2.5,0,0,1-3.54-3.54,18.9,18.9,0,0,1,26.68,0,2.5,2.5,0,0,1-1.77,4.27Z"/><path d="M29.5,43.18a2.51,2.51,0,0,1-1.77-.73l-3.85-3.86a2.47,2.47,0,0,1,0-3.53,8,8,0,0,1,11.24,0,2.47,2.47,0,0,1,0,3.53l-3.85,3.86A2.51,2.51,0,0,1,29.5,43.18Z"/></g></g></g></svg>