<svg xmlns="http://www.w3.org/2000/svg" viewBox="0 0 52 59"><title>window</title><g id="Layer_2" data-name="Layer 2"><g id="Layer_1-2" data-name="Layer 1"><g id="window"><path d="M23.5,59A2.49,2.49,0,0,1,21,56.5V2.5A2.5,2.5,0,0,1,24.24.11l26,8A2.5,2.5,0,0,1,52,10.5v38a2.5,2.5,0,0,1-1.76,2.39l-26,8A2.71,2.71,0,0,1,23.5,59ZM26,5.89V53.12l21-6.47V12.35Z"/><path d="M11.5,53h-9A2.5,2.5,0,0,1,0,50.5V8.5A2.5,2.5,0,0,1,2.5,6h9a2.5,2.5,0,0,1,0,5H5V48h6.5a2.5,2.5,0,0,1,0,5Z"/><path d="M32.5,35.17a2.5,2.5,0,0,1-2.5-2.5V26.34a2.5,2.5,0,0,1,5,0v6.33A2.5,2.5,0,0,1,32.5,35.17Z"/></g></g></g></svg>