<svg xmlns="http://www.w3.org/2000/svg" viewBox="0 0 59 59"><title>wrench</title><g id="Layer_2" data-name="Layer 2"><g id="Layer_1-2" data-name="Layer 1"><g id="wrench"><path d="M49.65,59h-.26a9.27,9.27,0,0,1-6.71-3.1L20.5,31.19a15.58,15.58,0,0,1-19-21.48,2.52,2.52,0,0,1,4-.69l6.62,6.62a2.52,2.52,0,0,0,3.48,0,2.46,2.46,0,0,0,0-3.48L9,5.54a2.52,2.52,0,0,1,.69-4,15.58,15.58,0,0,1,21.48,19l24.7,22.18h0A9.35,9.35,0,0,1,49.65,59ZM21.2,25.72a2.51,2.51,0,0,1,1.86.83l23.34,26A4.36,4.36,0,0,0,49.52,54,4.37,4.37,0,0,0,54,49.52a4.36,4.36,0,0,0-1.45-3.12l-26-23.34A2.49,2.49,0,0,1,26,20.12,10.56,10.56,0,0,0,15.59,5l3.59,3.59A7.46,7.46,0,0,1,13.9,21.36a7.4,7.4,0,0,1-5.28-2.18L5,15.59A10.56,10.56,0,0,0,20.12,26,2.54,2.54,0,0,1,21.2,25.72Z"/></g></g></g></svg>