<svg xmlns="http://www.w3.org/2000/svg" viewBox="0 0 37 59"><title>wristwatch</title><g id="Layer_2" data-name="Layer 2"><g id="Layer_1-2" data-name="Layer 1"><g id="wristwatch"><path d="M16.5,46A16.5,16.5,0,1,1,33,29.5,16.52,16.52,0,0,1,16.5,46Zm0-28A11.5,11.5,0,1,0,28,29.5,11.51,11.51,0,0,0,16.5,18Z"/><path d="M23.83,20.07a2.5,2.5,0,0,1-2.5-2.5V6.5A1.5,1.5,0,0,0,19.83,5H13.17a1.5,1.5,0,0,0-1.5,1.5V17.57a2.5,2.5,0,0,1-5,0V6.5A6.51,6.51,0,0,1,13.17,0h6.66a6.51,6.51,0,0,1,6.5,6.5V17.57A2.5,2.5,0,0,1,23.83,20.07Z"/><path d="M19.83,59H13.17a6.51,6.51,0,0,1-6.5-6.5V41.43a2.5,2.5,0,0,1,5,0V52.5a1.5,1.5,0,0,0,1.5,1.5h6.66a1.5,1.5,0,0,0,1.5-1.5V41.43a2.5,2.5,0,1,1,5,0V52.5A6.51,6.51,0,0,1,19.83,59Z"/><path d="M19.94,35.44a2.49,2.49,0,0,1-1.77-.73l-3.44-3.44A2.51,2.51,0,0,1,14,29.5v-6a2.5,2.5,0,0,1,5,0v5l2.71,2.71a2.5,2.5,0,0,1-1.77,4.27Z"/><path d="M34.5,32h-4a2.5,2.5,0,0,1,0-5h4a2.5,2.5,0,0,1,0,5Z"/></g></g></g></svg>