<svg xmlns="http://www.w3.org/2000/svg" viewBox="0 0 59 44.8"><title>youtube</title><g id="Layer_2" data-name="Layer 2"><g id="Layer_1-2" data-name="Layer 1"><g id="youtube"><path d="M29.5,44.8c-6.8,0-13.6-.15-20.35-.45A9.55,9.55,0,0,1,0,34.81V10A9.55,9.55,0,0,1,9.15.45h0c13.5-.6,27.2-.6,40.7,0A9.55,9.55,0,0,1,59,10V34.81a9.55,9.55,0,0,1-9.15,9.54C43.1,44.65,36.3,44.8,29.5,44.8ZM9.38,5.45A4.55,4.55,0,0,0,5,10V34.81a4.55,4.55,0,0,0,4.38,4.54c13.35.6,26.89.6,40.24,0A4.55,4.55,0,0,0,54,34.81V10a4.55,4.55,0,0,0-4.38-4.54c-13.35-.6-26.89-.6-40.24,0Z"/><path d="M25.57,32.9a3.83,3.83,0,0,1-3.83-3.83V15.73a3.84,3.84,0,0,1,5.7-3.34l11.87,6.68a3.82,3.82,0,0,1,0,6.66L27.44,32.41A3.81,3.81,0,0,1,25.57,32.9Zm1.17-15.16v9.32L35,22.4Z"/></g></g></g></svg>